<?xml version="1.0" standalone="no"?>
<!DOCTYPE svg PUBLIC "-//W3C//DTD SVG 20010904//EN"
 "http://www.w3.org/TR/2001/REC-SVG-20010904/DTD/svg10.dtd">
<svg version="1.0" xmlns="http://www.w3.org/2000/svg"
 width="744.000000pt" height="151.000000pt" viewBox="0 0 744.000000 151.000000"
 preserveAspectRatio="xMidYMid meet">
<metadata>
Created by potrace 1.12, written by Peter Selinger 2001-2015
</metadata>
<g transform="translate(0.000000,151.000000) scale(0.100000,-0.100000)"
fill="#000000" stroke="none">
<path d="M580 1491 c-145 -37 -245 -94 -353 -199 -160 -157 -235 -349 -224
-576 13 -283 164 -513 419 -641 122 -61 207 -78 366 -73 214 7 351 67 502 218
97 97 149 180 186 295 64 201 50 395 -41 575 -95 189 -257 326 -460 390 -101
32 -292 37 -395 11z m385 -41 c125 -39 202 -87 301 -185 70 -70 100 -108 133
-172 159 -311 86 -681 -178 -900 -77 -64 -198 -124 -295 -148 -97 -23 -250
-22 -349 4 -132 34 -229 92 -332 195 -99 100 -146 177 -187 306 -19 63 -23 96
-23 210 1 125 3 141 32 223 37 106 81 179 152 258 98 110 239 191 385 225 89
20 271 12 361 -16z"/>
<path d="M655 1440 c-167 -25 -326 -114 -433 -243 -242 -294 -200 -744 93
-980 139 -112 295 -162 475 -154 362 16 641 295 657 657 6 132 -12 226 -66
335 -137 276 -427 430 -726 385z m369 -242 c-5 -7 -50 -72 -101 -144 -51 -73
-93 -140 -93 -150 0 -11 61 -122 135 -247 74 -126 135 -232 135 -236 0 -4 -18
-33 -41 -64 l-40 -57 -263 0 -263 0 -42 60 -42 60 135 234 c75 129 136 241
136 249 0 7 -39 73 -86 146 -47 73 -88 139 -91 147 -4 12 36 14 262 14 210 0
265 -3 259 -12z"/>
<path d="M566 1158 c5 -7 41 -63 81 -125 40 -62 73 -119 73 -128 0 -13 -158
-297 -251 -450 -18 -31 -18 -31 13 -78 l30 -47 244 0 243 0 31 44 c16 25 30
47 30 49 0 3 -61 107 -135 232 -74 125 -135 237 -135 250 0 12 24 55 53 96 29
41 68 95 85 122 l33 47 -201 0 c-158 0 -200 -3 -194 -12z m396 -690 l22 -38
-24 -25 -24 -25 -185 2 -185 3 -14 25 c-13 22 -12 29 8 63 l22 37 180 -2 179
-3 21 -37z"/>
<path d="M1780 760 l0 -440 29 0 c24 0 30 5 34 30 l6 30 37 -25 c45 -31 88
-39 170 -32 160 12 263 150 252 336 -10 175 -114 288 -274 299 -69 4 -88 -1
-176 -46 -5 -2 -8 62 -8 142 l0 146 -35 0 -35 0 0 -440z m303 129 c52 -14 106
-64 133 -124 18 -38 24 -67 24 -125 0 -156 -92 -260 -230 -260 -58 0 -93 15
-133 57 l-27 30 2 188 3 189 54 28 c57 30 109 35 174 17z"/>
<path d="M4350 760 l0 -440 35 0 35 0 0 258 c0 287 -4 270 69 307 25 13 52 16
106 13 95 -4 157 -41 194 -113 25 -48 26 -57 29 -258 l4 -208 31 3 32 3 0 215
0 215 -28 57 c-50 102 -134 152 -257 152 -61 1 -85 -4 -127 -25 l-53 -26 0
144 0 143 -35 0 -35 0 0 -440z"/>
<path d="M2570 959 c-19 -6 -52 -24 -72 -40 l-37 -29 -3 33 c-2 27 -8 33 -30
35 l-28 3 0 -321 0 -321 33 3 32 3 5 240 c6 271 8 278 83 317 34 17 54 20 113
16 68 -5 73 -4 83 19 10 21 8 25 -17 34 -40 16 -122 20 -162 8z"/>
<path d="M2983 952 c-147 -53 -232 -205 -202 -366 35 -194 196 -307 374 -263
60 15 144 61 161 89 4 6 -3 19 -16 30 -23 18 -23 18 -44 -1 -57 -52 -176 -76
-251 -51 -74 25 -145 109 -160 193 l-7 37 272 0 273 0 -6 58 c-9 81 -33 143
-73 190 -73 86 -214 122 -321 84z m225 -85 c52 -34 92 -93 99 -146 l6 -41
-237 0 -238 0 7 33 c16 71 69 140 130 169 62 29 178 22 233 -15z"/>
<path d="M5187 956 c-142 -51 -237 -218 -209 -368 31 -167 155 -278 311 -278
81 0 143 24 205 81 102 93 138 238 91 368 -28 78 -110 164 -181 191 -64 23
-160 26 -217 6z m198 -70 c55 -25 109 -80 133 -135 23 -53 21 -174 -5 -231
-71 -161 -271 -201 -392 -79 -51 51 -75 112 -75 194 -1 95 22 153 84 208 78
71 165 85 255 43z"/>
<path d="M6510 964 c-105 -41 -150 -93 -150 -176 0 -86 61 -144 182 -173 59
-15 81 -26 112 -57 35 -34 38 -42 33 -75 -11 -67 -95 -122 -164 -108 -13 3
-34 7 -47 10 -14 3 -39 17 -56 31 l-31 27 -22 -22 -22 -22 34 -30 c75 -63 182
-74 275 -29 66 31 100 85 100 156 0 84 -53 140 -163 170 -82 22 -131 45 -147
68 -19 27 -18 86 2 114 39 56 151 73 217 34 34 -19 36 -19 51 -3 25 27 20 37
-31 62 -46 22 -141 35 -173 23z"/>
<path d="M7058 956 c-269 -72 -294 -503 -36 -617 77 -34 186 -32 260 4 29 14
66 39 81 55 l28 29 -26 17 c-25 16 -27 16 -63 -12 -47 -37 -92 -52 -156 -52
-55 0 -126 28 -164 63 -29 26 -67 100 -75 145 l-6 32 271 0 271 0 -5 68 c-14
197 -188 320 -380 268z m180 -72 c67 -28 120 -94 137 -171 l7 -33 -241 0 -240
0 14 46 c34 113 110 173 223 174 35 0 79 -7 100 -16z"/>
<path d="M3440 953 c0 -5 40 -147 89 -318 l88 -310 49 0 48 0 63 275 c34 151
63 277 64 280 1 5 78 -321 115 -487 l16 -73 47 0 48 0 88 302 c48 167 90 311
93 321 3 14 -2 17 -31 17 -42 0 -30 32 -128 -332 -35 -131 -66 -234 -69 -230
-4 4 -33 122 -65 262 -32 140 -62 265 -66 278 -8 20 -15 23 -51 20 l-42 -3
-47 -205 c-26 -113 -54 -241 -64 -284 -11 -47 -21 -73 -25 -65 -4 8 -40 137
-80 287 l-73 272 -34 0 c-18 0 -33 -3 -33 -7z"/>
<path d="M5700 738 c1 -160 5 -234 14 -261 33 -90 101 -139 221 -160 76 -13
137 -1 197 39 21 13 40 24 43 24 3 0 5 -13 5 -30 0 -27 3 -30 30 -30 l30 0 0
320 0 320 -35 0 -35 0 0 -253 c0 -250 0 -254 -22 -274 -42 -38 -85 -53 -150
-53 -80 0 -129 14 -169 47 -55 46 -59 70 -59 313 l0 220 -35 0 -35 0 0 -222z"/>
</g>
</svg>
