<?xml version="1.0" standalone="no"?>
<!DOCTYPE svg PUBLIC "-//W3C//DTD SVG 1.1//EN" "http://www.w3.org/Graphics/SVG/1.1/DTD/svg11.dtd">
<svg width="100%" height="100%" viewBox="0 0 400 220" version="1.1" xmlns="http://www.w3.org/2000/svg" xmlns:xlink="http://www.w3.org/1999/xlink" xml:space="preserve" style="fill-rule:evenodd;clip-rule:evenodd;stroke-linejoin:round;stroke-miterlimit:1.41421;">
    <g>
        <path d="M56.2561,77.7504C49.6169,79.4446 45.0382,82.0544 40.0931,86.8621C32.7671,94.0507 29.3331,102.842 29.8367,113.236C30.432,126.194 37.3459,136.725 49.0217,142.585C54.6077,145.378 58.4997,146.157 65.7799,145.928C75.5784,145.607 81.8513,142.86 88.7652,135.946C93.2066,131.505 95.5875,127.705 97.2816,122.439C100.212,113.236 99.571,104.353 95.4044,96.1112C91.0546,87.4574 83.637,81.1845 74.3421,78.2541C69.7176,76.7889 60.9722,76.5599 56.2561,77.7504ZM73.8843,79.6277C79.6077,81.4134 83.1333,83.6112 87.6663,88.0984C90.8714,91.3035 92.245,93.0434 93.756,95.9738C101.036,110.214 97.6937,127.155 85.6058,137.183C82.0802,140.113 76.5399,142.86 72.0986,143.959C67.6572,145.012 60.6517,144.966 56.1187,143.776C50.0748,142.219 45.6334,139.563 40.9173,134.847C36.3843,130.269 34.2323,126.743 32.3551,120.836C31.4851,117.952 31.3019,116.441 31.3019,111.221C31.3477,105.498 31.4393,104.765 32.7671,101.01C34.4613,96.157 36.4759,92.8145 39.7268,89.1973C44.214,84.1607 50.67,80.4519 57.355,78.8951C61.4301,77.9794 69.7634,78.3457 73.8843,79.6277Z" style="fill:black;fill-rule:nonzero;"/>
        <path d="M59.6902,80.0856C52.0437,81.2303 44.7634,85.3053 39.8642,91.2119C28.7836,104.673 30.7067,125.278 44.1224,136.084C50.4869,141.212 57.6297,143.501 65.8715,143.135C82.4465,142.402 95.2212,129.628 95.9538,113.053C96.2285,107.009 95.4044,102.705 92.9318,97.7137C86.659,85.0764 73.3806,78.0251 59.6902,80.0856ZM76.5857,91.1661C76.3568,91.4867 74.2963,94.4628 71.9612,97.7595C69.626,101.102 67.703,104.17 67.703,104.628C67.703,105.131 70.496,110.214 73.8843,115.937C77.2725,121.706 80.0656,126.56 80.0656,126.743C80.0656,126.926 79.2414,128.254 78.1883,129.673L76.3568,132.283L64.3147,132.283L52.2726,132.283L50.3495,129.536L48.4264,126.789L54.6077,116.075C58.0418,110.168 60.8348,105.04 60.8348,104.673C60.8348,104.353 59.0491,101.331 56.8971,97.9885C54.7451,94.646 52.8678,91.624 52.7305,91.2577C52.5473,90.7083 54.3788,90.6167 64.7268,90.6167C74.3421,90.6167 76.8604,90.7541 76.5857,91.1661Z" style="fill:black;fill-rule:nonzero;"/>
        <path d="M55.6151,92.9976C55.844,93.3181 57.4924,95.8822 59.3239,98.7211C61.1554,101.56 62.6663,104.17 62.6663,104.582C62.6663,105.177 55.4319,118.181 51.1737,125.186C50.3495,126.606 50.3495,126.606 51.7689,128.758L53.1425,130.91L75.441,130.91L76.8604,128.895C77.593,127.75 78.2341,126.743 78.2341,126.651C78.2341,126.514 75.441,121.752 72.0528,116.029C68.6645,110.305 65.8715,105.177 65.8715,104.582C65.8715,104.032 66.9704,102.064 68.2982,100.186C69.626,98.309 71.4117,95.8365 72.1901,94.6002L73.7011,92.4482L64.4978,92.4482C57.2634,92.4482 55.3403,92.5856 55.6151,92.9976ZM73.7469,124.591L74.7542,126.331L73.6553,127.476L72.5564,128.62L64.0857,128.529L55.6151,128.391L54.974,127.247C54.3788,126.239 54.4246,125.919 55.3403,124.362L56.3477,122.668L64.5894,122.759L72.7854,122.897L73.7469,124.591Z" style="fill:black;fill-rule:nonzero;"/>
        <path d="M111.201,111.221L111.201,131.368L112.529,131.368C113.628,131.368 113.902,131.139 114.086,129.994L114.36,128.62L116.054,129.765C118.115,131.184 120.084,131.551 123.838,131.23C131.164,130.681 135.88,124.362 135.377,115.846C134.919,107.833 130.157,102.659 122.831,102.155C119.672,101.972 118.802,102.201 114.772,104.261C114.544,104.353 114.406,101.423 114.406,97.7595L114.406,91.0746L112.804,91.0746L111.201,91.0746L111.201,111.221ZM125.075,105.314C127.456,105.955 129.928,108.245 131.164,110.992C131.989,112.732 132.263,114.06 132.263,116.716C132.263,123.858 128.051,128.62 121.732,128.62C119.076,128.62 117.474,127.933 115.642,126.01L114.406,124.637L114.498,116.029L114.635,107.375L117.108,106.093C119.717,104.719 122.098,104.49 125.075,105.314Z" style="fill:black;fill-rule:nonzero;"/>
        <path d="M228.875,111.221L228.875,131.368L232.08,131.368L232.08,119.554C232.08,106.413 231.897,107.192 235.239,105.498C236.384,104.902 237.62,104.765 240.093,104.902C244.442,105.086 247.281,106.78 248.975,110.076C250.12,112.274 250.166,112.686 250.303,121.89L250.486,131.413L251.906,131.276L253.371,131.139L253.371,111.45L252.089,108.84C249.8,104.17 245.953,101.88 240.322,101.88C237.529,101.835 236.43,102.064 234.507,103.025L232.08,104.216L232.08,91.0746L230.477,91.0746L228.875,91.0746L228.875,111.221Z" style="fill:black;fill-rule:nonzero;"/>
        <path d="M147.373,102.109C146.503,102.384 144.992,103.208 144.076,103.941L142.382,105.269L142.245,103.758C142.153,102.521 141.879,102.247 140.871,102.155L139.589,102.018L139.589,116.716L139.589,131.413L141.1,131.276L142.565,131.139L142.794,120.15C143.069,107.741 143.161,107.421 146.595,105.635C148.151,104.857 149.067,104.719 151.769,104.902C154.882,105.131 155.111,105.086 155.569,104.032C156.027,103.071 155.935,102.888 154.791,102.476C152.959,101.743 149.205,101.56 147.373,102.109Z" style="fill:black;fill-rule:nonzero;"/>
        <path d="M166.283,102.43C159.553,104.857 155.661,111.816 157.034,119.188C158.637,128.071 166.009,133.245 174.159,131.23C176.906,130.543 180.752,128.437 181.531,127.155C181.714,126.88 181.393,126.285 180.798,125.781C179.745,124.957 179.745,124.957 178.783,125.827C176.173,128.208 170.725,129.307 167.291,128.162C163.902,127.018 160.651,123.172 159.965,119.325L159.644,117.631L184.598,117.631L184.324,114.976C183.911,111.267 182.813,108.428 180.981,106.276C177.639,102.338 171.183,100.69 166.283,102.43ZM176.585,106.322C178.966,107.879 180.798,110.58 181.118,113.007L181.393,114.884L170.542,114.884L159.644,114.884L159.965,113.373C160.697,110.122 163.124,106.963 165.917,105.635C168.756,104.307 174.067,104.628 176.585,106.322Z" style="fill:black;fill-rule:nonzero;"/>
        <path d="M267.199,102.247C260.697,104.582 256.347,112.228 257.629,119.096C259.049,126.743 264.726,131.825 271.869,131.825C275.578,131.825 278.417,130.726 281.256,128.117C285.926,123.858 287.574,117.219 285.422,111.267C284.14,107.695 280.386,103.758 277.135,102.521C274.204,101.468 269.809,101.331 267.199,102.247ZM276.265,105.452C278.783,106.597 281.256,109.115 282.354,111.633C283.408,114.06 283.316,119.6 282.126,122.21C278.875,129.582 269.717,131.413 264.177,125.827C261.842,123.492 260.743,120.699 260.743,116.944C260.697,112.595 261.75,109.939 264.589,107.421C268.16,104.17 272.144,103.529 276.265,105.452Z" style="fill:black;fill-rule:nonzero;"/>
        <path d="M327.776,101.88C322.968,103.758 320.908,106.139 320.908,109.939C320.908,113.877 323.701,116.532 329.241,117.86C331.942,118.547 332.95,119.051 334.369,120.47C335.972,122.027 336.109,122.393 335.88,123.904C335.376,126.972 331.53,129.49 328.371,128.849C327.776,128.712 326.814,128.529 326.219,128.391C325.578,128.254 324.433,127.613 323.655,126.972L322.235,125.736L321.228,126.743L320.221,127.75L321.777,129.124C325.212,132.009 330.111,132.512 334.369,130.452C337.391,129.032 338.948,126.56 338.948,123.309C338.948,119.463 336.521,116.899 331.484,115.525C327.73,114.518 325.486,113.465 324.754,112.412C323.884,111.175 323.929,108.474 324.845,107.192C326.631,104.628 331.759,103.849 334.781,105.635C336.338,106.505 336.429,106.505 337.116,105.772C338.261,104.536 338.032,104.078 335.697,102.934C333.591,101.926 329.241,101.331 327.776,101.88Z" style="fill:black;fill-rule:nonzero;"/>
        <path d="M352.867,102.247C340.55,105.543 339.406,125.278 351.219,130.498C354.744,132.054 359.735,131.963 363.124,130.314C364.451,129.673 366.146,128.529 366.832,127.796L368.114,126.468L366.924,125.69C365.779,124.957 365.688,124.957 364.039,126.239C361.887,127.933 359.827,128.62 356.896,128.62C354.378,128.62 351.127,127.338 349.387,125.736C348.059,124.545 346.32,121.157 345.953,119.096L345.679,117.631L370.495,117.631L370.266,114.518C369.625,105.498 361.658,99.8658 352.867,102.247ZM361.109,105.543C364.177,106.825 366.603,109.847 367.382,113.373L367.702,114.884L356.668,114.884L345.679,114.884L346.32,112.778C347.876,107.604 351.356,104.857 356.53,104.811C358.133,104.811 360.147,105.131 361.109,105.543Z" style="fill:black;fill-rule:nonzero;"/>
        <path d="M187.208,102.384C187.208,102.613 189.04,109.115 191.283,116.944L195.313,131.139L199.754,131.139L202.639,118.547C204.195,111.633 205.523,105.864 205.569,105.727C205.615,105.498 209.14,120.424 210.835,128.025L211.567,131.368L215.917,131.368L219.946,117.54C222.144,109.893 224.067,103.3 224.204,102.842C224.342,102.201 224.113,102.064 222.785,102.064C220.862,102.064 221.411,100.598 216.924,117.265C215.322,123.263 213.902,127.979 213.765,127.796C213.582,127.613 212.254,122.21 210.789,115.8C209.324,109.39 207.95,103.666 207.767,103.071C207.4,102.155 207.08,102.018 205.432,102.155L203.509,102.292L201.357,111.679C200.166,116.853 198.884,122.714 198.426,124.683C197.922,126.835 197.465,128.025 197.281,127.659C197.098,127.292 195.45,121.386 193.618,114.518L190.276,102.064L188.719,102.064C187.895,102.064 187.208,102.201 187.208,102.384Z" style="fill:black;fill-rule:nonzero;"/>
        <path d="M290.688,112.228C290.734,119.554 290.917,122.943 291.329,124.179C292.84,128.3 295.953,130.543 301.448,131.505C304.928,132.1 307.721,131.551 310.468,129.719C311.43,129.124 312.299,128.62 312.437,128.62C312.574,128.62 312.666,129.216 312.666,129.994C312.666,131.23 312.803,131.368 314.039,131.368L315.413,131.368L315.413,102.064L313.81,102.064L312.208,102.064L312.208,113.648C312.208,125.095 312.208,125.278 311.201,126.194C309.278,127.933 307.309,128.62 304.332,128.62C300.669,128.62 298.426,127.979 296.594,126.468C294.076,124.362 293.893,123.263 293.893,112.137L293.893,102.064L292.29,102.064L290.688,102.064L290.688,112.228Z" style="fill:black;fill-rule:nonzero;"/>
    </g>
</svg>
