<?xml version="1.0" encoding="utf-8"?>
<!-- Generator: Adobe Illustrator 18.1.1, SVG Export Plug-In . SVG Version: 6.00 Build 0)  -->
<svg version="1.1" id="Layer_1" xmlns="http://www.w3.org/2000/svg" xmlns:xlink="http://www.w3.org/1999/xlink" x="0px" y="0px"
	 viewBox="0 0 984.7 309.2" enable-background="new 0 0 984.7 309.2" xml:space="preserve">
<g>
	<path fill="#676767" d="M15,307.4H0V178h72.1v13.4H15v47.4h53.6v13.4H15V307.4z"/>
	<path fill="#676767" d="M180.5,258.8c0,15.8-4,28.2-12,37c-8,8.9-19,13.3-33,13.3c-8.7,0-16.4-2-23.1-6.1
		c-6.7-4.1-11.9-9.9-15.6-17.5c-3.7-7.6-5.5-16.5-5.5-26.7c0-15.8,4-28.1,11.9-37c7.9-8.8,18.9-13.2,32.9-13.2
		c13.6,0,24.4,4.5,32.4,13.5C176.5,231.2,180.5,243.4,180.5,258.8z M106.6,258.8c0,12.4,2.5,21.8,7.4,28.3c5,6.5,12.2,9.7,21.9,9.7
		c9.6,0,16.9-3.2,21.9-9.7c5-6.5,7.5-15.9,7.5-28.4c0-12.3-2.5-21.7-7.5-28.1c-5-6.4-12.3-9.6-22.1-9.6c-9.6,0-16.9,3.2-21.8,9.5
		C109.1,236.9,106.6,246.3,106.6,258.8z"/>
	<path fill="#676767" d="M225.5,210.4v62.9c0,7.9,1.8,13.8,5.4,17.7c3.6,3.9,9.2,5.8,16.9,5.8c10.1,0,17.6-2.8,22.3-8.3
		c4.7-5.5,7-14.6,7-27.2v-51h14.7v97h-12.1l-2.1-13h-0.8c-3,4.8-7.2,8.4-12.5,11c-5.3,2.5-11.4,3.8-18.3,3.8
		c-11.8,0-20.6-2.8-26.5-8.4c-5.9-5.6-8.8-14.6-8.8-26.9v-63.5H225.5z"/>
	<path fill="#676767" d="M394.8,307.4v-62.8c0-7.9-1.8-13.8-5.4-17.7c-3.6-3.9-9.2-5.8-16.9-5.8c-10.2,0-17.6,2.7-22.3,8.2
		c-4.7,5.5-7.1,14.5-7.1,27.2v50.9h-14.7v-97h12l2.4,13.3h0.7c3-4.8,7.2-8.5,12.7-11.1c5.4-2.6,11.5-3.9,18.1-3.9
		c11.7,0,20.5,2.8,26.4,8.5c5.9,5.6,8.9,14.7,8.9,27v63.3H394.8z"/>
	<path fill="#676767" d="M511.2,294.4h-0.8c-6.8,9.9-16.9,14.8-30.5,14.8c-12.7,0-22.6-4.3-29.6-13c-7.1-8.7-10.6-21-10.6-37
		c0-16,3.5-28.4,10.6-37.3c7.1-8.9,16.9-13.3,29.6-13.3c13.2,0,23.3,4.8,30.3,14.3h1.2l-0.6-7l-0.4-6.8v-39.5h14.7v137.7h-12
		L511.2,294.4z M481.8,296.9c10,0,17.3-2.7,21.8-8.2c4.5-5.5,6.8-14.3,6.8-26.4v-3.1c0-13.7-2.3-23.6-6.9-29.4
		c-4.6-5.9-11.9-8.8-21.9-8.8c-8.6,0-15.2,3.4-19.8,10c-4.6,6.7-6.9,16.2-6.9,28.4c0,12.4,2.3,21.7,6.8,28.1
		C466.3,293.7,473,296.9,481.8,296.9z"/>
	<path fill="#676767" d="M621.3,307.4l-2.9-13.8h-0.7c-4.8,6.1-9.7,10.2-14.5,12.3c-4.8,2.2-10.8,3.2-18,3.2
		c-9.6,0-17.2-2.5-22.6-7.4c-5.5-5-8.2-12-8.2-21.2c0-19.6,15.7-29.9,47-30.8l16.5-0.5v-6c0-7.6-1.6-13.2-4.9-16.9
		c-3.3-3.6-8.5-5.4-15.7-5.4c-8.1,0-17.2,2.5-27.4,7.4l-4.5-11.2c4.8-2.6,10-4.6,15.7-6.1c5.7-1.5,11.4-2.2,17.1-2.2
		c11.6,0,20.1,2.6,25.7,7.7c5.6,5.1,8.4,13.4,8.4,24.7v66.2H621.3z M588.2,297.1c9.1,0,16.3-2.5,21.6-7.5c5.2-5,7.8-12,7.8-21.1
		v-8.8l-14.7,0.6c-11.7,0.4-20.1,2.2-25.3,5.4c-5.2,3.2-7.7,8.2-7.7,15c0,5.3,1.6,9.4,4.8,12.1C577.9,295.7,582.4,297.1,588.2,297.1
		z"/>
	<path fill="#676767" d="M699.3,297.1c2.6,0,5.1-0.2,7.5-0.6c2.4-0.4,4.3-0.8,5.8-1.2v11.2c-1.6,0.8-3.9,1.4-7,1.9
		c-3.1,0.5-5.9,0.8-8.4,0.8c-18.8,0-28.1-9.9-28.1-29.7v-57.7h-13.9v-7.1l13.9-6.1l6.2-20.7h8.5v22.5h28.1v11.4h-28.1v57.1
		c0,5.8,1.4,10.3,4.2,13.5C690.6,295.5,694.4,297.1,699.3,297.1z"/>
	<path fill="#676767" d="M736.1,184.1c0-3.4,0.8-5.8,2.5-7.4c1.7-1.6,3.7-2.3,6.2-2.3c2.4,0,4.4,0.8,6.1,2.4c1.7,1.6,2.6,4,2.6,7.3
		c0,3.3-0.9,5.8-2.6,7.4c-1.7,1.6-3.7,2.4-6.1,2.4c-2.5,0-4.5-0.8-6.2-2.4C737,189.9,736.1,187.4,736.1,184.1z M752.1,307.4h-14.7
		v-97h14.7V307.4z"/>
	<path fill="#676767" d="M872.4,258.8c0,15.8-4,28.2-12,37c-8,8.9-19,13.3-33,13.3c-8.7,0-16.4-2-23.1-6.1
		c-6.7-4.1-11.9-9.9-15.6-17.5c-3.7-7.6-5.5-16.5-5.5-26.7c0-15.8,4-28.1,11.9-37c7.9-8.8,18.9-13.2,32.9-13.2
		c13.6,0,24.4,4.5,32.4,13.5C868.4,231.2,872.4,243.4,872.4,258.8z M798.5,258.8c0,12.4,2.5,21.8,7.4,28.3c5,6.5,12.2,9.7,21.9,9.7
		c9.6,0,16.9-3.2,21.9-9.7c5-6.5,7.5-15.9,7.5-28.4c0-12.3-2.5-21.7-7.5-28.1c-5-6.4-12.3-9.6-22.1-9.6c-9.6,0-16.9,3.2-21.8,9.5
		C801,236.9,798.5,246.3,798.5,258.8z"/>
	<path fill="#676767" d="M970,307.4v-62.8c0-7.9-1.8-13.8-5.4-17.7c-3.6-3.9-9.2-5.8-16.9-5.8c-10.2,0-17.6,2.7-22.3,8.2
		c-4.7,5.5-7.1,14.5-7.1,27.2v50.9h-14.7v-97h12l2.4,13.3h0.7c3-4.8,7.2-8.5,12.7-11.1c5.4-2.6,11.5-3.9,18.1-3.9
		c11.7,0,20.5,2.8,26.4,8.5c5.9,5.6,8.9,14.7,8.9,27v63.3H970z"/>
</g>
<g>
	<g>
		<path fill="#676767" d="M56,133H41V17H0V3.6h97V17H56V133z"/>
		<path fill="#676767" d="M164,34.3c4.3,0,8.2,0.4,11.6,1.1l-2,13.6c-4-0.9-7.6-1.3-10.6-1.3c-7.8,0-14.6,3.2-20.1,9.6
			c-5.6,6.4-8.4,14.3-8.4,23.8V133h-14.7V36h12.1l1.7,18h0.7c3.6-6.3,7.9-11.2,13-14.6C152.3,36,157.9,34.3,164,34.3z"/>
		<path fill="#676767" d="M258.8,133l-2.9-13.8h-0.7c-4.8,6.1-9.7,10.2-14.5,12.3c-4.8,2.2-10.8,3.2-18,3.2
			c-9.6,0-17.2-2.5-22.6-7.4c-5.5-5-8.2-12-8.2-21.2c0-19.6,15.7-29.9,47-30.8l16.5-0.5v-6c0-7.6-1.6-13.2-4.9-16.9
			s-8.5-5.4-15.7-5.4c-8.1,0-17.2,2.5-27.4,7.4l-4.5-11.2c4.8-2.6,10-4.6,15.7-6.1c5.7-1.5,11.4-2.2,17.1-2.2
			c11.6,0,20.1,2.6,25.7,7.7c5.6,5.1,8.4,13.4,8.4,24.7V133H258.8z M225.6,122.7c9.1,0,16.3-2.5,21.6-7.5c5.2-5,7.8-12,7.8-21.1
			v-8.8L240.3,86c-11.7,0.4-20.1,2.2-25.3,5.4c-5.2,3.2-7.7,8.2-7.7,15c0,5.3,1.6,9.4,4.8,12.1C215.3,121.3,219.8,122.7,225.6,122.7
			z"/>
		<path fill="#676767" d="M326.7,133l-36.8-97h15.8l20.9,57.5c4.7,13.5,7.5,22.2,8.3,26.2h0.7c0.6-3.1,2.7-9.6,6.2-19.4
			s11.2-31.3,23.2-64.3h15.8l-36.8,97H326.7z"/>
		<path fill="#676767" d="M400.4,9.7c0-3.4,0.8-5.8,2.5-7.4c1.7-1.6,3.7-2.3,6.2-2.3c2.4,0,4.4,0.8,6.1,2.4c1.7,1.6,2.6,4,2.6,7.3
			c0,3.3-0.9,5.8-2.6,7.4c-1.7,1.6-3.7,2.4-6.1,2.4c-2.5,0-4.5-0.8-6.2-2.4C401.3,15.5,400.4,13,400.4,9.7z M416.4,133h-14.7V36
			h14.7V133z"/>
		<path fill="#676767" d="M515.6,106.6c0,9-3.4,16-10.1,20.9c-6.7,4.9-16.2,7.3-28.3,7.3c-12.9,0-22.9-2-30.1-6.1v-13.6
			c4.7,2.4,9.7,4.2,15,5.6c5.3,1.4,10.5,2,15.4,2c7.7,0,13.6-1.2,17.7-3.7c4.1-2.4,6.2-6.2,6.2-11.2c0-3.8-1.6-7-4.9-9.7
			c-3.3-2.7-9.7-5.9-19.2-9.5c-9-3.4-15.4-6.3-19.3-8.8c-3.8-2.5-6.6-5.4-8.5-8.5c-1.9-3.2-2.8-7-2.8-11.4c0-7.9,3.2-14.1,9.6-18.7
			c6.4-4.6,15.3-6.9,26.5-6.9c10.4,0,20.7,2.1,30.6,6.4l-5.2,12c-9.7-4-18.6-6-26.5-6c-7,0-12.2,1.1-15.8,3.3
			c-3.5,2.2-5.3,5.2-5.3,9c0,2.6,0.7,4.8,2,6.6c1.3,1.8,3.5,3.6,6.4,5.2c2.9,1.7,8.6,4,17,7.2c11.5,4.2,19.3,8.4,23.3,12.7
			C513.5,94.8,515.6,100.1,515.6,106.6z"/>
	</g>
	<polygon fill="#D84F6C" points="714.5,26.5 693.8,26.5 693.8,6.4 655.6,6.4 655.6,26.5 641.7,26.5 641.7,6.4 603.5,6.4 603.5,26.5 
		583.1,26.5 583.1,78.4 603.7,78.4 603.7,96.9 623.7,96.9 623.7,117.2 642.4,117.2 642.4,130.8 655.3,130.8 655.3,117.2 674,117.2 
		674,96.9 694,96.9 694,78.4 714.5,78.4 	"/>
</g>
</svg>
