<?xml version="1.0" standalone="no"?>
<!DOCTYPE svg PUBLIC "-//W3C//DTD SVG 1.1//EN" "http://www.w3.org/Graphics/SVG/1.1/DTD/svg11.dtd">
<svg width="100%" height="100%" viewBox="0 0 400 220" version="1.1" xmlns="http://www.w3.org/2000/svg" xmlns:xlink="http://www.w3.org/1999/xlink" xml:space="preserve" style="fill-rule:evenodd;clip-rule:evenodd;stroke-linejoin:round;stroke-miterlimit:1.41421;">
    <g>
        <path d="M35.1787,162.754L30,162.754L30,118.079L54.8924,118.079L54.8924,122.705L35.1787,122.705L35.1787,139.07L53.684,139.07L53.684,143.696L35.1787,143.696L35.1787,162.754Z" style="fill:rgb(103,103,103);fill-rule:nonzero;"/>
        <path d="M92.3172,145.975C92.3172,151.43 90.9362,155.711 88.1742,158.749C85.4123,161.822 81.6145,163.341 76.7811,163.341C73.7774,163.341 71.119,162.65 68.8058,161.235C66.4927,159.819 64.6974,157.817 63.42,155.193C62.1426,152.569 61.5211,149.496 61.5211,145.975C61.5211,140.52 62.9021,136.273 65.6296,133.201C68.357,130.162 72.1548,128.643 76.9882,128.643C81.6836,128.643 85.4123,130.197 88.1742,133.304C90.9362,136.446 92.3172,140.658 92.3172,145.975ZM66.8034,145.975C66.8034,150.256 67.6665,153.501 69.3582,155.745C71.0845,157.989 73.5703,159.094 76.9192,159.094C80.2335,159.094 82.7539,157.989 84.4801,155.745C86.2063,153.501 87.0695,150.256 87.0695,145.94C87.0695,141.694 86.2063,138.448 84.4801,136.239C82.7539,134.029 80.2335,132.924 76.8501,132.924C73.5357,132.924 71.0154,134.029 69.3237,136.204C67.6665,138.414 66.8034,141.659 66.8034,145.975Z" style="fill:rgb(103,103,103);fill-rule:nonzero;"/>
        <path d="M107.853,129.265L107.853,150.981C107.853,153.708 108.475,155.745 109.718,157.092C110.961,158.438 112.894,159.094 115.552,159.094C119.039,159.094 121.629,158.128 123.251,156.229C124.874,154.33 125.668,151.188 125.668,146.838L125.668,129.23L130.743,129.23L130.743,162.719L126.566,162.719L125.841,158.231L125.565,158.231C124.529,159.888 123.079,161.131 121.249,162.029C119.419,162.892 117.313,163.341 114.931,163.341C110.857,163.341 107.819,162.374 105.782,160.441C103.745,158.507 102.744,155.4 102.744,151.154L102.744,129.23L107.853,129.23L107.853,129.265Z" style="fill:rgb(103,103,103);fill-rule:nonzero;"/>
        <path d="M166.304,162.754L166.304,141.072C166.304,138.345 165.682,136.308 164.439,134.961C163.197,133.615 161.263,132.959 158.605,132.959C155.083,132.959 152.528,133.891 150.906,135.79C149.283,137.689 148.455,140.796 148.455,145.181L148.455,162.754L143.379,162.754L143.379,129.265L147.522,129.265L148.351,133.857L148.593,133.857C149.628,132.199 151.078,130.922 152.977,130.024C154.842,129.127 156.948,128.678 159.226,128.678C163.266,128.678 166.304,129.645 168.341,131.613C170.378,133.546 171.413,136.688 171.413,140.934L171.413,162.788L166.304,162.788L166.304,162.754Z" style="fill:rgb(103,103,103);fill-rule:nonzero;"/>
        <path d="M206.491,158.266L206.214,158.266C203.867,161.684 200.38,163.375 195.684,163.375C191.3,163.375 187.882,161.891 185.465,158.887C183.014,155.883 181.805,151.637 181.805,146.113C181.805,140.589 183.014,136.308 185.465,133.235C187.916,130.162 191.3,128.643 195.684,128.643C200.242,128.643 203.729,130.301 206.145,133.58L206.56,133.58L206.353,131.164L206.214,128.816L206.214,115.179L211.29,115.179L211.29,162.719L207.147,162.719L206.491,158.266ZM196.34,159.129C199.793,159.129 202.313,158.197 203.867,156.298C205.42,154.399 206.214,151.361 206.214,147.183L206.214,146.113C206.214,141.383 205.42,137.965 203.832,135.963C202.244,133.926 199.724,132.924 196.271,132.924C193.302,132.924 191.024,134.098 189.435,136.377C187.847,138.69 187.053,141.97 187.053,146.182C187.053,150.463 187.847,153.674 189.401,155.883C190.989,158.024 193.302,159.129 196.34,159.129Z" style="fill:rgb(103,103,103);fill-rule:nonzero;"/>
        <path d="M244.502,162.754L243.501,157.989L243.26,157.989C241.602,160.095 239.911,161.511 238.253,162.236C236.596,162.996 234.525,163.341 232.039,163.341C228.725,163.341 226.101,162.478 224.236,160.786C222.338,159.06 221.405,156.643 221.405,153.467C221.405,146.7 226.826,143.144 237.632,142.833L243.329,142.66L243.329,140.589C243.329,137.965 242.776,136.032 241.637,134.754C240.498,133.511 238.702,132.89 236.216,132.89C233.42,132.89 230.278,133.753 226.757,135.445L225.203,131.578C226.86,130.68 228.656,129.99 230.623,129.472C232.591,128.954 234.559,128.712 236.527,128.712C240.532,128.712 243.467,129.61 245.4,131.371C247.333,133.132 248.3,135.997 248.3,139.898L248.3,162.754L244.502,162.754ZM233.075,159.198C236.216,159.198 238.702,158.335 240.532,156.608C242.327,154.882 243.225,152.465 243.225,149.324L243.225,146.286L238.15,146.493C234.11,146.631 231.21,147.252 229.415,148.357C227.62,149.462 226.757,151.188 226.757,153.536C226.757,155.366 227.309,156.781 228.414,157.713C229.519,158.714 231.072,159.198 233.075,159.198Z" style="fill:rgb(103,103,103);fill-rule:nonzero;"/>
        <path d="M271.432,159.198C272.329,159.198 273.193,159.129 274.021,158.991C274.85,158.853 275.506,158.714 276.024,158.576L276.024,162.443C275.471,162.719 274.677,162.926 273.607,163.099C272.537,163.272 271.57,163.375 270.707,163.375C264.216,163.375 261.005,159.957 261.005,153.121L261.005,133.201L256.206,133.201L256.206,130.749L261.005,128.643L263.146,121.497L266.08,121.497L266.08,129.265L275.782,129.265L275.782,133.201L266.08,133.201L266.08,152.914C266.08,154.917 266.564,156.47 267.53,157.575C268.428,158.645 269.74,159.198 271.432,159.198Z" style="fill:rgb(103,103,103);fill-rule:nonzero;"/>
        <path d="M284.137,120.185C284.137,119.011 284.413,118.182 285,117.63C285.587,117.078 286.277,116.836 287.141,116.836C287.969,116.836 288.66,117.112 289.247,117.665C289.833,118.217 290.144,119.045 290.144,120.185C290.144,121.324 289.833,122.187 289.247,122.74C288.66,123.292 287.969,123.568 287.141,123.568C286.277,123.568 285.587,123.292 285,122.74C284.448,122.187 284.137,121.324 284.137,120.185ZM289.661,162.754L284.586,162.754L284.586,129.265L289.661,129.265L289.661,162.754Z" style="fill:rgb(103,103,103);fill-rule:nonzero;"/>
        <path d="M331.194,145.975C331.194,151.43 329.813,155.711 327.051,158.749C324.289,161.822 320.491,163.341 315.658,163.341C312.654,163.341 309.996,162.65 307.683,161.235C305.37,159.819 303.574,157.817 302.297,155.193C301.019,152.569 300.398,149.496 300.398,145.975C300.398,140.52 301.779,136.273 304.506,133.201C307.234,130.162 311.032,128.643 315.865,128.643C320.561,128.643 324.289,130.197 327.051,133.304C329.813,136.446 331.194,140.658 331.194,145.975ZM305.68,145.975C305.68,150.256 306.543,153.501 308.235,155.745C309.961,157.989 312.447,159.094 315.796,159.094C319.11,159.094 321.631,157.989 323.357,155.745C325.083,153.501 325.946,150.256 325.946,145.94C325.946,141.694 325.083,138.448 323.357,136.239C321.631,134.029 319.11,132.924 315.727,132.924C312.413,132.924 309.892,134.029 308.201,136.204C306.543,138.414 305.68,141.659 305.68,145.975Z" style="fill:rgb(103,103,103);fill-rule:nonzero;"/>
        <path d="M364.89,162.754L364.89,141.072C364.89,138.345 364.269,136.308 363.026,134.961C361.783,133.615 359.85,132.959 357.191,132.959C353.67,132.959 351.115,133.891 349.492,135.79C347.87,137.689 347.041,140.796 347.041,145.181L347.041,162.754L341.966,162.754L341.966,129.265L346.109,129.265L346.937,133.857L347.179,133.857C348.215,132.199 349.665,130.922 351.564,130.024C353.428,129.127 355.534,128.678 357.813,128.678C361.852,128.678 364.89,129.645 366.927,131.613C368.964,133.546 370,136.688 370,140.934L370,162.788L364.89,162.788L364.89,162.754Z" style="fill:rgb(103,103,103);fill-rule:nonzero;"/>
    </g>
    <g>
        <g>
            <path d="M49.3339,102.543L44.1552,102.543L44.1552,62.4939L30,62.4939L30,57.8676L63.489,57.8676L63.489,62.4939L49.3339,62.4939L49.3339,102.543Z" style="fill:rgb(103,103,103);fill-rule:nonzero;"/>
            <path d="M86.6206,68.4667C88.1052,68.4667 89.4517,68.6048 90.6255,68.8465L89.935,73.5418C88.554,73.2311 87.3111,73.093 86.2754,73.093C83.5825,73.093 81.2348,74.1978 79.3359,76.4074C77.4025,78.617 76.4358,81.3444 76.4358,84.6243L76.4358,102.543L71.3607,102.543L71.3607,69.0536L75.5382,69.0536L76.1251,75.2681L76.3668,75.2681C77.6097,73.093 79.0942,71.4013 80.855,70.2275C82.5812,69.0536 84.5146,68.4667 86.6206,68.4667Z" style="fill:rgb(103,103,103);fill-rule:nonzero;"/>
            <path d="M119.35,102.543L118.349,97.7782L118.107,97.7782C116.45,99.8842 114.758,101.3 113.101,102.025C111.444,102.784 109.372,103.13 106.887,103.13C103.572,103.13 100.948,102.266 99.0841,100.575C97.1852,98.8485 96.253,96.4318 96.253,93.2555C96.253,86.4886 101.673,82.9326 112.48,82.6219L118.176,82.4492L118.176,80.3777C118.176,77.7539 117.624,75.8205 116.485,74.5431C115.345,73.2656 113.55,72.6787 111.064,72.6787C108.268,72.6787 105.126,73.5418 101.604,75.2335L100.051,71.3668C101.708,70.4691 103.503,69.7786 105.471,69.2608C107.439,68.7429 109.407,68.5012 111.375,68.5012C115.38,68.5012 118.314,69.3989 120.248,71.1596C122.181,72.9204 123.148,75.7859 123.148,79.6872L123.148,102.543L119.35,102.543ZM107.888,98.9866C111.03,98.9866 113.515,98.1235 115.345,96.3972C117.141,94.671 118.038,92.2543 118.038,89.1125L118.038,86.0743L112.963,86.316C108.924,86.4541 106.024,87.0755 104.228,88.1803C102.433,89.2851 101.57,91.0114 101.57,93.3591C101.57,95.1889 102.122,96.6044 103.227,97.5366C104.332,98.5032 105.885,98.9866 107.888,98.9866Z" style="fill:rgb(103,103,103);fill-rule:nonzero;"/>
            <path d="M142.792,102.543L130.087,69.0536L135.542,69.0536L142.758,88.9054C144.381,93.5662 145.347,96.5699 145.623,97.9509L145.865,97.9509C146.072,96.8806 146.797,94.6365 148.006,91.253C149.214,87.8696 151.872,80.4468 156.015,69.0536L161.47,69.0536L148.765,102.543L142.792,102.543Z" style="fill:rgb(103,103,103);fill-rule:nonzero;"/>
            <path d="M168.237,59.9736C168.237,58.7998 168.513,57.9712 169.1,57.4188C169.687,56.8664 170.378,56.6247 171.241,56.6247C172.069,56.6247 172.76,56.9009 173.347,57.4533C173.934,58.0057 174.245,58.8343 174.245,59.9736C174.245,61.1129 173.934,61.976 173.347,62.5284C172.76,63.0808 172.069,63.357 171.241,63.357C170.378,63.357 169.687,63.0808 169.1,62.5284C168.548,61.976 168.237,61.1129 168.237,59.9736ZM173.761,102.543L168.686,102.543L168.686,69.0536L173.761,69.0536L173.761,102.543Z" style="fill:rgb(103,103,103);fill-rule:nonzero;"/>
            <path d="M208.01,93.4281C208.01,96.5353 206.836,98.9521 204.523,100.644C202.21,102.335 198.93,103.164 194.752,103.164C190.299,103.164 186.846,102.474 184.36,101.058L184.36,96.3627C185.983,97.1913 187.709,97.8128 189.539,98.2961C191.369,98.7794 193.164,98.9866 194.856,98.9866C197.514,98.9866 199.551,98.5723 200.967,97.7092C202.382,96.8806 203.107,95.5686 203.107,93.8424C203.107,92.5305 202.555,91.4257 201.416,90.4935C200.276,89.5613 198.067,88.4565 194.787,87.2136C191.68,86.0398 189.47,85.0386 188.123,84.1755C186.812,83.3123 185.845,82.3111 185.189,81.2409C184.533,80.1361 184.222,78.8241 184.222,77.305C184.222,74.5776 185.327,72.437 187.537,70.8489C189.746,69.2608 192.819,68.4667 196.686,68.4667C200.276,68.4667 203.832,69.1917 207.25,70.6763L205.455,74.8193C202.106,73.4383 199.033,72.7478 196.306,72.7478C193.889,72.7478 192.094,73.1275 190.851,73.8871C189.643,74.6466 189.021,75.6824 189.021,76.9943C189.021,77.892 189.263,78.6515 189.712,79.2729C190.16,79.8944 190.92,80.5158 191.921,81.0682C192.922,81.6552 194.89,82.4492 197.79,83.554C201.761,85.0041 204.454,86.4541 205.835,87.9387C207.285,89.3542 208.01,91.184 208.01,93.4281Z" style="fill:rgb(103,103,103);fill-rule:nonzero;"/>
        </g>
        <path d="M276.68,65.7738L269.533,65.7738L269.533,58.8343L256.344,58.8343L256.344,65.7738L251.545,65.7738L251.545,58.8343L238.357,58.8343L238.357,65.7738L231.314,65.7738L231.314,83.6921L238.426,83.6921L238.426,90.0792L245.331,90.0792L245.331,97.0877L251.787,97.0877L251.787,101.783L256.241,101.783L256.241,97.0877L262.697,97.0877L262.697,90.0792L269.602,90.0792L269.602,83.6921L276.68,83.6921L276.68,65.7738Z" style="fill:rgb(216,79,108);fill-rule:nonzero;"/>
    </g>
</svg>
