<?xml version="1.0" standalone="no"?>
<!DOCTYPE svg PUBLIC "-//W3C//DTD SVG 1.1//EN" "http://www.w3.org/Graphics/SVG/1.1/DTD/svg11.dtd">
<svg width="100%" height="100%" viewBox="0 0 400 220" version="1.1" xmlns="http://www.w3.org/2000/svg" xmlns:xlink="http://www.w3.org/1999/xlink" xml:space="preserve" style="fill-rule:evenodd;clip-rule:evenodd;stroke-linejoin:round;stroke-miterlimit:1.41421;">
    <g>
        <path d="M52.154,122.942C43.8449,125.89 42.5047,129.106 43.0408,133.931C43.5768,138.756 49.2056,140.9 54.8343,140.364" style="fill:white;fill-rule:nonzero;"/>
        <path d="M53.1224,141.92L52.9807,141.919L52.8392,141.917L52.6979,141.914L52.5567,141.91L52.4157,141.905L52.275,141.899L52.1346,141.892L51.9943,141.884L51.8543,141.875L51.7146,141.864L51.5752,141.853L51.436,141.84L51.2972,141.827L51.1587,141.812L51.0205,141.796L50.8828,141.779L50.7453,141.761L50.6081,141.742L50.4714,141.722L50.3351,141.701L50.1992,141.679L50.0636,141.655L49.9286,141.631L49.794,141.605L49.6599,141.578L49.5262,141.551L49.393,141.522L49.2603,141.492L49.1281,141.46L48.9964,141.428L48.8653,141.395L48.7347,141.36L48.6047,141.324L48.4753,141.287L48.3465,141.249L48.2182,141.21L48.0905,141.17L47.9635,141.128L47.8371,141.086L47.7114,141.042L47.5864,140.997L47.4621,140.951L47.3384,140.904L47.2154,140.855L47.0932,140.805L46.9717,140.754L46.8511,140.702L46.7311,140.649L46.612,140.594L46.4936,140.539L46.376,140.481L46.2594,140.423L46.1435,140.364L46.0284,140.303L45.9144,140.241L45.8012,140.178L45.6889,140.113L45.5776,140.047L45.4672,139.98L45.3578,139.911L45.2494,139.842L45.142,139.771L45.0357,139.698L44.9304,139.624L44.8262,139.549L44.7231,139.473L44.6211,139.395L44.5202,139.316L44.4205,139.236L44.322,139.154L44.2248,139.071L44.1288,138.986L44.034,138.9L43.9405,138.813L43.8484,138.724L43.7576,138.634L43.6681,138.542L43.5801,138.449L43.4936,138.355L43.4084,138.259L43.3248,138.162L43.2427,138.064L43.1621,137.964L43.0831,137.863L43.0057,137.76L42.93,137.656L42.8559,137.55L42.7835,137.444L42.7129,137.336L42.644,137.226L42.5769,137.115L42.5116,137.003L42.4482,136.89L42.3867,136.775L42.3271,136.659L42.2694,136.541L42.2137,136.423L42.16,136.303L42.1083,136.182L42.0587,136.059L42.0111,135.936L41.9656,135.811L41.9223,135.685L41.8811,135.559L41.842,135.43L41.8051,135.301L41.7705,135.171L41.738,135.04L41.7078,134.908L41.6798,134.774L41.6541,134.64L41.6307,134.505L41.6096,134.369L41.5907,134.232L41.5745,134.096L41.5487,133.852L41.5262,133.612L41.507,133.375L41.4983,133.253L41.4906,133.134L41.4838,133.016L41.4779,132.897L41.4729,132.779L41.4688,132.661L41.4656,132.543L41.4635,132.425L41.4623,132.308L41.4621,132.19L41.4629,132.073L41.4648,131.956L41.4678,131.84L41.472,131.723L41.4772,131.607L41.4836,131.49L41.4912,131.374L41.5,131.258L41.51,131.143L41.5213,131.027L41.5338,130.912L41.5477,130.797L41.5629,130.682L41.5794,130.567L41.5974,130.452L41.6167,130.338L41.6375,130.224L41.6597,130.11L41.6835,129.996L41.7087,129.883L41.7354,129.769L41.7637,129.656L41.7936,129.543L41.825,129.431L41.858,129.319L41.8927,129.207L41.929,129.095L41.967,128.984L42.0067,128.873L42.048,128.763L42.0911,128.653L42.1358,128.543L42.1823,128.434L42.2306,128.325L42.2806,128.217L42.3323,128.109L42.3858,128.002L42.4411,127.895L42.4981,127.789L42.557,127.683L42.6176,127.578L42.68,127.473L42.7442,127.369L42.8102,127.266L42.8779,127.163L42.9475,127.061L43.0188,126.959L43.0919,126.858L43.1668,126.758L43.2435,126.658L43.322,126.559L43.4022,126.461L43.4842,126.363L43.568,126.267L43.6536,126.17L43.741,126.075L43.8301,125.98L43.921,125.886L44.0137,125.792L44.1081,125.699L44.2044,125.607L44.3023,125.515L44.4021,125.424L44.5037,125.334L44.607,125.244L44.7121,125.155L44.8191,125.067L44.9278,124.979L45.0383,124.891L45.1507,124.805L45.2648,124.719L45.3808,124.633L45.4986,124.548L45.6183,124.464L45.7398,124.38L45.8632,124.296L45.9885,124.213L46.1157,124.131L46.2447,124.049L46.3756,123.968L46.5085,123.887L46.6434,123.806L46.7801,123.726L46.9188,123.646L47.0595,123.567L47.2022,123.488L47.3469,123.41L47.4936,123.332L47.6423,123.254L47.7931,123.177L47.9459,123.1L48.1009,123.023L48.2579,122.947L48.417,122.871L48.5782,122.796L48.7416,122.72L48.9071,122.645L49.0749,122.571L49.2448,122.496L49.4169,122.422L49.5913,122.348L49.7678,122.275L49.9466,122.201L50.1278,122.128L50.3112,122.055L50.4969,121.983L50.6849,121.91L50.8753,121.838L51.068,121.766L51.2631,121.694L51.4606,121.622L51.6573,121.552L52.6506,124.331L52.4604,124.399L52.276,124.466L52.0943,124.533L51.9152,124.6L51.7388,124.667L51.5649,124.734L51.3937,124.801L51.2251,124.868L51.0591,124.935L50.8956,125.002L50.7346,125.069L50.5762,125.136L50.4204,125.203L50.2671,125.27L50.1163,125.337L49.9679,125.404L49.8221,125.472L49.6787,125.539L49.5377,125.606L49.3992,125.673L49.2633,125.741L49.1296,125.808L48.9983,125.875L48.8695,125.942L48.743,126.01L48.6189,126.077L48.4971,126.144L48.3777,126.212L48.2605,126.279L48.1456,126.346L48.0331,126.413L47.9228,126.481L47.8148,126.548L47.7089,126.615L47.6054,126.682L47.504,126.749L47.4048,126.816L47.3078,126.883L47.2129,126.95L47.1201,127.017L47.0294,127.084L46.9408,127.151L46.8543,127.218L46.7698,127.284L46.6873,127.351L46.6068,127.418L46.5283,127.484L46.4517,127.551L46.377,127.617L46.3043,127.683L46.2334,127.75L46.1643,127.816L46.0971,127.882L46.0317,127.948L45.968,128.014L45.906,128.08L45.8457,128.146L45.7872,128.212L45.7302,128.278L45.6748,128.344L45.621,128.41L45.5688,128.475L45.5181,128.541L45.4689,128.607L45.4211,128.673L45.3748,128.739L45.3299,128.805L45.2863,128.871L45.244,128.937L45.2031,129.004L45.1634,129.07L45.125,129.137L45.0878,129.204L45.0518,129.271L45.017,129.338L44.9833,129.406L44.9508,129.474L44.9194,129.542L44.889,129.61L44.8597,129.679L44.8314,129.748L44.8042,129.818L44.778,129.888L44.7528,129.958L44.7286,130.029L44.7053,130.101L44.683,130.173L44.6616,130.245L44.6411,130.318L44.6216,130.392L44.603,130.466L44.5853,130.541L44.5685,130.617L44.5526,130.693L44.5376,130.77L44.5234,130.848L44.5101,130.927L44.4977,131.006L44.4862,131.086L44.4755,131.167L44.4657,131.248L44.4568,131.33L44.4486,131.413L44.4414,131.497L44.435,131.582L44.4294,131.668L44.4246,131.754L44.4207,131.841L44.4176,131.929L44.4153,132.018L44.4138,132.108L44.4132,132.199L44.4133,132.29L44.4142,132.383L44.416,132.476L44.4185,132.57L44.4218,132.665L44.4259,132.761L44.4307,132.858L44.4363,132.955L44.4426,133.054L44.4495,133.151L44.4661,133.355L44.4853,133.56L44.507,133.766L44.5178,133.855L44.5296,133.941L44.5428,134.027L44.5574,134.111L44.5733,134.194L44.5906,134.276L44.6091,134.357L44.6289,134.437L44.65,134.516L44.6724,134.595L44.6961,134.672L44.7209,134.749L44.7471,134.825L44.7744,134.9L44.803,134.974L44.8328,135.047L44.8638,135.12L44.8961,135.192L44.9295,135.263L44.9641,135.334L45,135.404L45.037,135.473L45.0753,135.541L45.1148,135.609L45.1555,135.676L45.1974,135.743L45.2405,135.809L45.2848,135.874L45.3303,135.939L45.377,136.003L45.425,136.067L45.4742,136.13L45.5245,136.192L45.5762,136.254L45.629,136.316L45.683,136.376L45.7383,136.436L45.7948,136.496L45.8525,136.555L45.9114,136.614L45.9716,136.672L46.0329,136.729L46.0955,136.786L46.1593,136.842L46.2243,136.897L46.2905,136.952L46.3578,137.007L46.4264,137.061L46.4962,137.114L46.5672,137.166L46.6393,137.218L46.7125,137.27L46.787,137.32L46.8626,137.37L46.9393,137.42L47.0171,137.469L47.0962,137.517L47.1762,137.564L47.2574,137.611L47.3397,137.657L47.4231,137.702L47.5075,137.747L47.593,137.791L47.6796,137.834L47.7671,137.876L47.8556,137.918L47.9453,137.959L48.0358,137.999L48.1274,138.039L48.2199,138.078L48.3133,138.116L48.4077,138.153L48.503,138.189L48.5992,138.225L48.6964,138.26L48.7943,138.294L48.8931,138.328L48.9929,138.36L49.0933,138.392L49.1946,138.423L49.2968,138.453L49.3997,138.482L49.5033,138.511L49.6077,138.538L49.7129,138.565L49.8187,138.591L49.9254,138.616L50.0326,138.641L50.1405,138.664L50.2491,138.687L50.3582,138.708L50.4681,138.729L50.5786,138.749L50.6895,138.769L50.8011,138.787L50.9133,138.804L51.0259,138.821L51.1391,138.837L51.2527,138.852L51.367,138.865L51.4817,138.879L51.5967,138.891L51.7123,138.902L51.8283,138.913L51.9446,138.922L52.0614,138.931L52.1785,138.939L52.2959,138.945L52.4138,138.951L52.532,138.957L52.6504,138.961L52.7691,138.964L52.8881,138.967L53.0073,138.968L53.1269,138.969L53.2466,138.968L53.3664,138.967L53.4866,138.965L53.6069,138.962L53.7272,138.958L53.8479,138.954L53.9686,138.948L54.0894,138.941L54.2103,138.934L54.3312,138.925L54.4522,138.916L54.5733,138.906L54.6998,138.894L54.9688,141.833L54.8314,141.846L54.6887,141.858L54.546,141.869L54.4032,141.879L54.2606,141.887L54.118,141.895L53.9755,141.902L53.8331,141.908L53.6906,141.912L53.5484,141.916L53.4063,141.918L53.2642,141.919L53.1224,141.92Z" style="fill:rgb(35,31,32);"/>
        <path d="M40.8965,83.0042C58.0507,75.2312 79.4936,73.355 94.2355,84.8805C108.977,96.406 114.07,125.086 114.07,132.055C114.07,133.663 102.277,135.003 98.7921,137.683C94.5036,141.436 106.297,155.642 106.297,162.343C106.297,162.343 107.637,171.724 98.7921,173.868C88.8748,176.013 81.9059,168.239 73.8648,173.868C72.5246,174.94 68.5041,177.621 63.9475,180.033L40.8965,83.0042" style="fill:white;fill-rule:nonzero;"/>
        <path d="M63.3205,182.039L62.858,181.831L39.179,82.1586L40.6983,81.4756L41.1107,81.2931L41.5245,81.1129L41.94,80.935L42.3568,80.7593L42.7751,80.586L43.1949,80.415L43.616,80.2463L44.0384,80.0801L44.4622,79.9162L44.8873,79.7547L45.3136,79.5957L45.7412,79.4391L46.1699,79.2851L46.5999,79.1335L47.0309,78.9844L47.4631,78.8379L47.8964,78.694L48.3307,78.5526L48.766,78.4139L49.2023,78.2778L49.6396,78.1444L50.0778,78.0136L50.5169,77.8855L50.9568,77.7602L51.3976,77.6375L51.8392,77.5177L52.2816,77.4006L52.7248,77.2864L53.1686,77.1749L53.6132,77.0664L54.0583,76.9607L54.5042,76.8578L54.9506,76.758L55.3976,76.661L55.8451,76.567L56.2931,76.476L56.7404,76.3882L56.966,76.3452L57.1906,76.303L57.4152,76.2617L57.6399,76.2211L57.8648,76.1813L58.0897,76.1423L58.3147,76.104L58.5398,76.0665L58.765,76.0298L58.9902,75.9939L59.2155,75.9588L59.4409,75.9244L59.6664,75.8909L59.8919,75.8581L60.1175,75.8261L60.3432,75.795L60.5688,75.7646L60.7946,75.7351L61.0204,75.7063L61.2462,75.6784L61.472,75.6512L61.6979,75.6249L61.9238,75.5994L62.1498,75.5748L62.3757,75.5509L62.6017,75.5279L62.8277,75.5057L63.0537,75.4844L63.2797,75.4639L63.5057,75.4442L63.7317,75.4254L63.9577,75.4074L64.1837,75.3903L64.4097,75.374L64.6356,75.3586L64.8616,75.344L65.0875,75.3303L65.3134,75.3174L65.5393,75.3055L65.7651,75.2943L65.9908,75.2841L66.2166,75.2747L66.4423,75.2663L66.6679,75.2587L66.8935,75.2519L67.119,75.2461L67.3444,75.2411L67.5698,75.2371L67.7951,75.2339L68.0204,75.2317L68.2455,75.2303L68.4706,75.2299L68.6956,75.2303L68.9205,75.2317L69.1453,75.234L69.37,75.2372L69.5947,75.2413L69.8191,75.2463L70.0435,75.2523L70.2678,75.2592L70.492,75.267L70.716,75.2757L70.9399,75.2854L71.1637,75.2961L71.3874,75.3076L71.6109,75.3202L71.8343,75.3336L72.0575,75.3481L72.2806,75.3634L72.5035,75.3798L72.7263,75.3971L72.9489,75.4153L73.1714,75.4346L73.3936,75.4548L73.6157,75.4759L73.8377,75.4981L74.0594,75.5212L74.281,75.5453L74.5024,75.5704L74.7236,75.5965L74.9446,75.6236L75.1653,75.6517L75.3859,75.6808L75.6063,75.7108L75.8265,75.7419L76.0464,75.774L76.2661,75.8071L76.4856,75.8412L76.7049,75.8763L76.924,75.9125L77.1428,75.9497L77.3613,75.9879L77.5796,76.0271L77.7977,76.0673L78.0155,76.1086L78.2331,76.151L78.4504,76.1943L78.6674,76.2387L78.8842,76.2842L79.1006,76.3307L79.3169,76.3783L79.5328,76.4269L79.7484,76.4766L79.9638,76.5273L80.1788,76.5791L80.3936,76.632L80.608,76.686L80.8222,76.741L81.036,76.7971L81.2495,76.8543L81.4627,76.9125L81.6756,76.9719L81.8881,77.0323L82.1003,77.0939L82.3122,77.1565L82.5237,77.2202L82.7349,77.285L82.9457,77.351L83.1562,77.418L83.3663,77.4862L83.5761,77.5555L83.7854,77.6258L83.9944,77.6974L84.2031,77.77L84.4113,77.8437L84.6192,77.9186L84.8267,77.9946L85.0338,78.0718L85.2404,78.1501L85.4467,78.2295L85.6526,78.3101L85.858,78.3918L86.0631,78.4747L86.2677,78.5587L86.4719,78.6439L86.6756,78.7302L86.879,78.8178L87.0819,78.9064L87.2843,78.9962L87.4863,79.0872L87.6878,79.1794L87.8889,79.2728L88.0895,79.3673L88.2897,79.463L88.4893,79.5599L88.6885,79.658L88.8872,79.7573L89.0855,79.8577L89.2832,79.9594L89.4805,80.0623L89.6772,80.1663L89.8735,80.2716L90.0692,80.378L90.2644,80.4857L90.4591,80.5946L90.6533,80.7047L90.847,80.816L91.0401,80.9286L91.2326,81.0423L91.4247,81.1573L91.6162,81.2735L91.8071,81.391L91.9975,81.5096L92.1873,81.6296L92.3766,81.7507L92.5653,81.8731L92.7534,81.9967L92.9409,82.1216L93.1279,82.2477L93.3142,82.3751L93.5,82.5037L93.6851,82.6336L93.8697,82.7647L94.0537,82.8971L94.237,83.0307L94.4197,83.1657L94.6018,83.3019L94.7833,83.4393L94.9641,83.5781L95.1449,83.7185L95.326,83.8612L95.5067,84.006L95.6863,84.1524L95.8649,84.3003L96.0425,84.4497L96.2191,84.6005L96.3946,84.7529L96.5692,84.9067L96.7427,85.062L96.9153,85.2188L97.0868,85.3769L97.2574,85.5364L97.4269,85.6974L97.5955,85.8597L97.7631,86.0233L97.9297,86.1883L98.0952,86.3546L98.2599,86.5222L98.4235,86.6912L98.5862,86.8614L98.7479,87.0328L98.9087,87.2056L99.0685,87.3795L99.2273,87.5547L99.3852,87.7311L99.5421,87.9086L99.6981,88.0874L99.8531,88.2673L100.007,88.4483L100.16,88.6305L100.313,88.8138L100.464,88.9982L100.614,89.1837L100.764,89.3703L100.912,89.5579L101.06,89.7466L101.206,89.9363L101.352,90.127L101.497,90.3187L101.641,90.5114L101.784,90.7051L101.926,90.8997L102.067,91.0953L102.208,91.2918L102.347,91.4892L102.486,91.6875L102.624,91.8867L102.76,92.0869L102.896,92.2878L103.031,92.4896L103.166,92.6923L103.299,92.8957L103.431,93.1L103.563,93.305L103.694,93.5108L103.823,93.7175L103.952,93.9248L104.081,94.1329L104.208,94.3417L104.334,94.5513L104.46,94.7614L104.585,94.9723L104.709,95.1839L104.832,95.3961L104.954,95.6089L105.076,95.8224L105.196,96.0366L105.316,96.2512L105.435,96.4665L105.553,96.6823L105.67,96.8988L105.787,97.1157L105.903,97.3332L106.017,97.5512L106.132,97.7697L106.245,97.9887L106.357,98.2082L106.469,98.4281L106.58,98.6485L106.69,98.8694L106.799,99.0906L106.908,99.3123L107.015,99.5343L107.122,99.7568L107.229,99.9795L107.334,100.203L107.438,100.426L107.542,100.65L107.645,100.874L107.748,101.099L107.849,101.323L107.95,101.548L108.05,101.774L108.149,101.999L108.247,102.225L108.345,102.451L108.442,102.677L108.539,102.904L108.728,103.356L108.915,103.81L109.099,104.265L109.281,104.719L109.459,105.174L109.634,105.63L109.806,106.085L109.976,106.54L110.143,106.995L110.306,107.45L110.467,107.904L110.625,108.358L110.781,108.811L110.933,109.264L111.083,109.716L111.23,110.167L111.374,110.616L111.515,111.065L111.654,111.513L111.79,111.959L111.924,112.403L112.054,112.847L112.182,113.288L112.308,113.728L112.43,114.165L112.551,114.601L112.668,115.035L112.783,115.466L112.895,115.895L113.005,116.322L113.113,116.746L113.217,117.167L113.32,117.586L113.419,118.002L113.517,118.415L113.611,118.825L113.704,119.231L113.794,119.634L113.881,120.034L113.966,120.431L114.049,120.823L114.129,121.212L114.207,121.598L114.283,121.979L114.356,122.356L114.427,122.729L114.495,123.098L114.562,123.462L114.625,123.822L114.687,124.177L114.747,124.528L114.804,124.874L114.859,125.215L114.912,125.55L114.962,125.881L115.01,126.207L115.057,126.527L115.101,126.842L115.142,127.152L115.182,127.455L115.22,127.754L115.255,128.046L115.289,128.332L115.32,128.613L115.349,128.887L115.376,129.156L115.401,129.418L115.424,129.673L115.445,129.923L115.464,130.166L115.481,130.402L115.496,130.632L115.509,130.855L115.52,131.072L115.53,131.282L115.537,131.485L115.542,131.681L115.545,131.871L115.546,132.072L115.543,132.158L115.535,132.26L115.52,132.359L115.501,132.457L115.477,132.551L115.449,132.642L115.417,132.728L115.382,132.81L115.345,132.889L115.305,132.963L115.264,133.033L115.221,133.1L115.178,133.162L115.134,133.221L115.088,133.277L115.037,133.338L114.953,133.427L114.862,133.515L114.77,133.595L114.679,133.669L114.587,133.737L114.496,133.8L114.404,133.86L114.311,133.916L114.218,133.97L114.124,134.022L114.029,134.072L113.932,134.12L113.834,134.167L113.735,134.213L113.634,134.258L113.532,134.302L113.427,134.345L113.321,134.387L113.214,134.429L113.104,134.471L112.993,134.512L112.879,134.552L112.764,134.593L112.645,134.634L112.408,134.713L112.161,134.791L111.907,134.87L111.647,134.948L111.38,135.026L111.106,135.104L110.827,135.182L110.541,135.26L110.251,135.338L109.955,135.417L109.353,135.574L108.735,135.734L108.106,135.896L107.469,136.06L106.828,136.228L106.508,136.312L106.188,136.398L105.868,136.484L105.55,136.571L105.234,136.659L104.92,136.748L104.609,136.838L104.301,136.928L103.997,137.02L103.697,137.112L103.402,137.206L103.113,137.3L102.827,137.396L102.69,137.443L102.552,137.492L102.416,137.54L102.282,137.589L102.149,137.637L102.019,137.686L101.891,137.735L101.765,137.785L101.641,137.834L101.519,137.884L101.4,137.933L101.283,137.983L101.168,138.033L101.057,138.083L100.947,138.133L100.841,138.183L100.737,138.232L100.637,138.282L100.539,138.332L100.445,138.381L100.354,138.431L100.266,138.48L100.181,138.529L100.1,138.577L100.022,138.625L99.9487,138.672L99.8787,138.719L99.8125,138.764L99.7503,138.809L99.7331,138.822L99.7216,138.833L99.7018,138.853L99.6829,138.872L99.6648,138.892L99.6473,138.913L99.6305,138.933L99.6143,138.954L99.5987,138.975L99.5835,138.997L99.5687,139.02L99.5544,139.043L99.5405,139.066L99.5268,139.091L99.5136,139.116L99.5007,139.142L99.4882,139.169L99.476,139.197L99.4641,139.226L99.4526,139.256L99.4415,139.288L99.4307,139.32L99.4203,139.354L99.4104,139.389L99.4009,139.425L99.3919,139.462L99.3834,139.501L99.3754,139.541L99.3679,139.583L99.3611,139.626L99.3548,139.67L99.3491,139.715L99.3441,139.762L99.3398,139.81L99.3361,139.86L99.3332,139.911L99.331,139.963L99.3295,140.016L99.3288,140.071L99.3289,140.127L99.3298,140.184L99.3315,140.243L99.334,140.303L99.3374,140.364L99.3415,140.426L99.3466,140.489L99.3525,140.554L99.3592,140.62L99.3668,140.686L99.3753,140.754L99.3846,140.823L99.3949,140.894L99.4059,140.965L99.4179,141.037L99.4307,141.11L99.4444,141.184L99.459,141.259L99.4739,141.333L99.508,141.491L99.5448,141.649L99.5851,141.812L99.6287,141.977L99.6756,142.146L99.7257,142.318L99.7789,142.493L99.8353,142.671L99.8947,142.851L99.9571,143.035L100.022,143.221L100.091,143.409L100.161,143.6L100.235,143.793L100.311,143.989L100.39,144.186L100.471,144.386L100.554,144.587L100.64,144.791L100.728,144.996L100.818,145.204L100.91,145.412L101.005,145.623L101.101,145.835L101.198,146.048L101.298,146.263L101.399,146.48L101.502,146.697L101.606,146.915L101.819,147.357L102.036,147.802L102.258,148.251L102.484,148.704L102.712,149.159L102.943,149.616L103.176,150.075L103.643,150.998L103.877,151.46L104.11,151.923L104.342,152.386L104.571,152.848L104.798,153.309L105.021,153.768L105.132,153.998L105.241,154.227L105.349,154.456L105.456,154.684L105.562,154.912L105.666,155.138L105.768,155.365L105.869,155.59L105.969,155.815L106.067,156.039L106.163,156.263L106.257,156.485L106.349,156.707L106.439,156.928L106.527,157.148L106.613,157.367L106.696,157.585L106.778,157.803L106.857,158.019L106.933,158.234L107.006,158.449L107.077,158.662L107.146,158.874L107.211,159.086L107.273,159.296L107.333,159.505L107.389,159.714L107.442,159.921L107.491,160.127L107.536,160.33L107.559,160.435L107.579,160.537L107.599,160.639L107.618,160.741L107.636,160.842L107.653,160.944L107.668,161.045L107.683,161.146L107.697,161.246L107.71,161.347L107.721,161.447L107.732,161.547L107.741,161.647L107.749,161.747L107.756,161.847L107.762,161.946L107.767,162.046L107.77,162.145L107.772,162.244L107.772,162.24L107.765,162.186L107.777,162.288L107.792,162.437L107.801,162.535L107.809,162.641L107.817,162.758L107.825,162.886L107.831,163.025L107.837,163.174L107.842,163.332L107.844,163.5L107.845,163.677L107.844,163.863L107.84,164.056L107.833,164.258L107.823,164.468L107.81,164.681L107.802,164.795L107.793,164.908L107.783,165.022L107.773,165.138L107.761,165.255L107.747,165.374L107.733,165.494L107.718,165.616L107.701,165.739L107.683,165.863L107.664,165.989L107.643,166.116L107.621,166.244L107.598,166.373L107.573,166.504L107.547,166.635L107.519,166.768L107.489,166.901L107.458,167.035L107.426,167.17L107.391,167.306L107.355,167.443L107.317,167.581L107.277,167.719L107.235,167.858L107.191,167.997L107.146,168.137L107.098,168.277L107.048,168.418L106.996,168.559L106.942,168.701L106.886,168.843L106.828,168.985L106.767,169.127L106.704,169.269L106.638,169.411L106.571,169.554L106.5,169.696L106.427,169.838L106.352,169.98L106.274,170.122L106.194,170.264L106.11,170.405L106.024,170.546L105.936,170.686L105.844,170.825L105.75,170.965L105.653,171.103L105.553,171.241L105.45,171.377L105.344,171.513L105.235,171.648L105.122,171.782L105.007,171.915L104.889,172.047L104.768,172.177L104.643,172.306L104.516,172.434L104.385,172.561L104.251,172.685L104.113,172.809L103.973,172.93L103.829,173.05L103.684,173.166L103.607,173.226L103.531,173.284L103.455,173.341L103.378,173.398L103.3,173.455L103.221,173.51L103.141,173.566L103.06,173.621L102.979,173.675L102.896,173.729L102.813,173.782L102.729,173.834L102.645,173.886L102.559,173.938L102.472,173.989L102.385,174.039L102.297,174.089L102.208,174.138L102.118,174.187L102.027,174.235L101.936,174.282L101.843,174.329L101.75,174.375L101.656,174.42L101.561,174.465L101.465,174.509L101.368,174.552L101.271,174.595L101.173,174.637L101.073,174.679L100.973,174.719L100.872,174.759L100.77,174.799L100.668,174.837L100.564,174.875L100.46,174.913L100.355,174.949L100.249,174.985L100.142,175.02L100.034,175.054L99.9251,175.088L99.8156,175.121L99.7052,175.153L99.5938,175.184L99.4815,175.215L99.3685,175.245L99.2547,175.274L99.1223,175.307L98.9777,175.337L98.8519,175.363L98.7264,175.388L98.6011,175.412L98.4758,175.435L98.3511,175.457L98.2267,175.478L98.1025,175.498L97.9785,175.517L97.8549,175.536L97.7316,175.553L97.6084,175.57L97.4856,175.586L97.3632,175.6L97.241,175.614L97.1165,175.628L96.876,175.651L96.6342,175.671L96.3936,175.689L96.1542,175.703L95.9158,175.714L95.6788,175.721L95.4429,175.726L95.2082,175.729L94.9747,175.728L94.7425,175.725L94.5114,175.719L94.2816,175.71L94.0529,175.699L93.8254,175.686L93.5992,175.67L93.3742,175.652L93.1504,175.633L92.9277,175.61L92.7063,175.586L92.486,175.561L92.2669,175.533L92.049,175.503L91.8323,175.472L91.6166,175.439L91.4022,175.405L91.189,175.369L90.9768,175.332L90.7658,175.294L90.5559,175.254L90.3471,175.213L90.1394,175.172L89.9328,175.129L89.7272,175.085L89.5228,175.041L89.3194,174.995L89.117,174.949L88.9157,174.903L88.7143,174.855L88.3182,174.76L87.9246,174.663L87.5345,174.565L86.7683,174.371L86.0139,174.179L85.6434,174.086L85.2759,173.995L84.9104,173.907L84.7308,173.865L84.551,173.824L84.372,173.783L84.1937,173.744L84.0164,173.705L83.8399,173.668L83.6642,173.632L83.4894,173.598L83.3153,173.564L83.142,173.532L82.9695,173.502L82.7979,173.473L82.627,173.446L82.4569,173.42L82.2876,173.396L82.119,173.374L81.9511,173.353L81.784,173.334L81.6177,173.318L81.4521,173.303L81.2871,173.29L81.1228,173.279L80.9592,173.27L80.7962,173.263L80.634,173.258L80.4722,173.256L80.311,173.256L80.1504,173.258L79.9904,173.262L79.8307,173.269L79.6715,173.278L79.5128,173.29L79.3544,173.304L79.1935,173.321L79.1176,173.33L79.0387,173.34L78.9598,173.35L78.8811,173.361L78.8026,173.373L78.724,173.386L78.6453,173.399L78.5667,173.413L78.4883,173.428L78.4099,173.443L78.3313,173.46L78.2527,173.476L78.1743,173.494L78.0959,173.512L78.0175,173.531L77.939,173.551L77.8603,173.572L77.7818,173.593L77.7033,173.615L77.6245,173.638L77.5458,173.662L77.4672,173.687L77.3883,173.712L77.3093,173.738L77.2304,173.765L77.1513,173.793L77.0721,173.822L76.993,173.852L76.9135,173.882L76.834,173.913L76.7545,173.946L76.6748,173.979L76.5949,174.013L76.5149,174.048L76.4347,174.084L76.3545,174.121L76.2741,174.159L76.1935,174.198L76.1128,174.238L76.0319,174.278L75.9507,174.32L75.8694,174.363L75.788,174.407L75.7065,174.452L75.6247,174.498L75.5425,174.545L75.4604,174.593L75.378,174.642L75.2953,174.693L75.2126,174.744L75.1295,174.797L75.0462,174.851L74.9627,174.905L74.879,174.962L74.7951,175.019L74.743,175.055L74.6375,175.138L74.4753,175.263L74.3,175.394L74.1116,175.533L73.9102,175.679L73.6959,175.832L73.4688,175.992L73.2293,176.159L72.9777,176.331L72.7141,176.51L72.4391,176.695L72.1529,176.885L71.8558,177.08L71.5481,177.28L71.2304,177.485L70.903,177.694L70.5661,177.907L70.2201,178.123L69.8655,178.342L69.5026,178.565L69.1318,178.79L68.7535,179.017L68.368,179.246L67.9757,179.477L67.577,179.709L67.1722,179.941L66.7618,180.175L66.3461,180.408L65.9255,180.641L65.5003,180.874L65.071,181.106L63.3205,182.039ZM64.9371,177.815L65.3102,177.605L65.7076,177.379L66.0998,177.154L66.4862,176.929L66.8665,176.706L67.2402,176.483L67.6069,176.263L67.9663,176.045L68.3179,175.83L68.6612,175.617L68.996,175.408L69.3217,175.202L69.638,175.001L69.9445,174.803L70.2406,174.61L70.526,174.423L70.8003,174.241L71.0631,174.064L71.3137,173.894L71.5519,173.731L71.7772,173.574L71.9889,173.425L72.1867,173.284L72.37,173.151L72.538,173.027L72.69,172.913L72.8253,172.809L72.9867,172.682L73.1229,172.587L73.2272,172.516L73.3314,172.446L73.4358,172.378L73.54,172.31L73.6444,172.244L73.7489,172.179L73.8533,172.116L73.9578,172.053L74.0624,171.992L74.1668,171.932L74.2714,171.873L74.3761,171.816L74.4808,171.759L74.5854,171.704L74.69,171.65L74.7947,171.597L74.8995,171.545L75.0042,171.495L75.109,171.446L75.2138,171.397L75.3185,171.35L75.4233,171.304L75.5281,171.26L75.6328,171.216L75.7377,171.174L75.8425,171.132L75.9472,171.092L76.0521,171.053L76.1568,171.015L76.2615,170.978L76.3663,170.942L76.4709,170.907L76.5756,170.873L76.6804,170.841L76.7849,170.809L76.8894,170.779L76.994,170.749L77.0985,170.721L77.2028,170.694L77.3071,170.667L77.4115,170.642L77.5158,170.617L77.6201,170.594L77.7241,170.572L77.8279,170.55L77.932,170.53L78.036,170.51L78.1397,170.492L78.2433,170.474L78.3469,170.458L78.4506,170.442L78.5539,170.427L78.6572,170.413L78.7603,170.4L78.8664,170.388L79.0693,170.366L79.2748,170.348L79.4797,170.333L79.6841,170.321L79.888,170.313L80.0915,170.307L80.2944,170.305L80.4968,170.305L80.6986,170.308L80.9,170.314L81.1008,170.322L81.301,170.333L81.5007,170.346L81.6999,170.362L81.8986,170.38L82.0968,170.4L82.2945,170.422L82.4916,170.446L82.6883,170.472L82.8846,170.5L83.0803,170.53L83.2757,170.561L83.4707,170.594L83.6652,170.628L83.8593,170.664L84.0531,170.701L84.2465,170.739L84.4396,170.779L84.6324,170.819L84.8249,170.861L85.0169,170.903L85.2088,170.947L85.4006,170.991L85.5931,171.036L85.9739,171.128L86.3553,171.222L86.7367,171.318L87.4957,171.511L88.2567,171.704L88.636,171.799L89.0158,171.893L89.3972,171.984L89.5863,172.029L89.7765,172.073L89.9668,172.116L90.1573,172.159L90.3479,172.2L90.5387,172.241L90.7296,172.28L90.9207,172.319L91.112,172.356L91.3034,172.392L91.4951,172.427L91.687,172.46L91.8792,172.493L92.0716,172.523L92.2643,172.553L92.4573,172.58L92.6505,172.607L92.8441,172.631L93.038,172.654L93.2323,172.675L93.4269,172.694L93.622,172.712L93.8175,172.727L94.0133,172.741L94.2096,172.752L94.4064,172.762L94.6037,172.769L94.8015,172.774L94.9999,172.777L95.1988,172.777L95.3982,172.776L95.5983,172.771L95.7991,172.765L96.0004,172.755L96.2025,172.744L96.4054,172.729L96.609,172.712L96.8159,172.692L96.9158,172.681L97.0185,172.669L97.1215,172.657L97.2246,172.644L97.3279,172.63L97.4315,172.615L97.5353,172.6L97.6393,172.584L97.7435,172.567L97.8481,172.549L97.9529,172.531L98.0577,172.511L98.1629,172.491L98.2685,172.47L98.3744,172.449L98.4619,172.43L98.536,172.412L98.6266,172.388L98.7163,172.365L98.8049,172.341L98.8924,172.316L98.9792,172.291L99.0651,172.265L99.15,172.239L99.2339,172.212L99.3167,172.185L99.3989,172.157L99.4801,172.129L99.5604,172.1L99.6398,172.071L99.7182,172.042L99.7957,172.012L99.8726,171.981L99.9485,171.95L100.023,171.919L100.097,171.887L100.171,171.855L100.243,171.822L100.315,171.789L100.386,171.756L100.456,171.722L100.525,171.688L100.593,171.654L100.661,171.619L100.728,171.584L100.794,171.548L100.859,171.512L100.923,171.475L100.987,171.439L101.05,171.402L101.112,171.364L101.174,171.327L101.235,171.288L101.294,171.25L101.354,171.211L101.412,171.172L101.47,171.133L101.527,171.093L101.584,171.053L101.64,171.013L101.695,170.972L101.75,170.932L101.804,170.89L101.854,170.851L101.961,170.765L102.063,170.68L102.163,170.594L102.26,170.507L102.355,170.419L102.447,170.33L102.537,170.239L102.625,170.148L102.71,170.056L102.794,169.963L102.875,169.869L102.955,169.774L103.032,169.679L103.107,169.582L103.18,169.485L103.252,169.387L103.321,169.288L103.389,169.189L103.454,169.088L103.518,168.988L103.58,168.886L103.64,168.784L103.699,168.681L103.755,168.578L103.81,168.474L103.864,168.37L103.916,168.265L103.966,168.16L104.014,168.055L104.061,167.949L104.106,167.843L104.15,167.737L104.192,167.631L104.233,167.524L104.272,167.418L104.31,167.311L104.346,167.204L104.381,167.097L104.414,166.991L104.446,166.884L104.477,166.778L104.506,166.671L104.534,166.565L104.561,166.46L104.587,166.354L104.611,166.249L104.634,166.145L104.656,166.041L104.677,165.937L104.697,165.835L104.715,165.732L104.732,165.631L104.749,165.53L104.764,165.43L104.778,165.331L104.792,165.232L104.804,165.135L104.815,165.039L104.826,164.943L104.836,164.849L104.844,164.756L104.852,164.664L104.859,164.573L104.866,164.487L104.876,164.309L104.884,164.14L104.89,163.978L104.893,163.822L104.894,163.673L104.893,163.531L104.891,163.397L104.888,163.271L104.883,163.154L104.878,163.046L104.872,162.948L104.866,162.859L104.86,162.781L104.854,162.716L104.843,162.61L104.837,162.553L104.822,162.445L104.821,162.284L104.82,162.224L104.818,162.162L104.815,162.1L104.811,162.036L104.807,161.972L104.801,161.906L104.795,161.839L104.788,161.771L104.78,161.701L104.771,161.631L104.761,161.56L104.751,161.488L104.739,161.414L104.727,161.34L104.714,161.265L104.699,161.188L104.685,161.111L104.669,161.033L104.653,160.957L104.616,160.793L104.577,160.629L104.534,160.462L104.488,160.291L104.439,160.117L104.386,159.941L104.331,159.761L104.272,159.579L104.211,159.394L104.147,159.207L104.079,159.017L104.009,158.825L103.936,158.63L103.861,158.433L103.783,158.235L103.703,158.034L103.62,157.831L103.535,157.626L103.448,157.42L103.358,157.212L103.267,157.002L103.173,156.791L103.078,156.578L102.981,156.363L102.882,156.148L102.781,155.931L102.679,155.712L102.575,155.493L102.47,155.273L102.364,155.052L102.147,154.605L101.926,154.155L101.701,153.702L101.473,153.247L101.243,152.79L101.011,152.331L100.543,151.409L100.309,150.947L100.076,150.486L99.8445,150.024L99.6147,149.563L99.3876,149.104L99.1637,148.646L98.9443,148.19L98.8355,147.962L98.7283,147.735L98.6225,147.509L98.518,147.283L98.4149,147.058L98.3134,146.834L98.2135,146.61L98.1152,146.388L98.0187,146.166L97.9241,145.945L97.8313,145.725L97.7406,145.506L97.6519,145.288L97.5654,145.07L97.4811,144.854L97.3991,144.639L97.3196,144.424L97.2425,144.211L97.168,143.999L97.0961,143.788L97.027,143.578L96.9608,143.369L96.8974,143.161L96.8371,142.954L96.7799,142.748L96.726,142.543L96.6754,142.339L96.6282,142.136L96.5853,141.937L96.5643,141.834L96.5448,141.733L96.5263,141.633L96.5088,141.533L96.4922,141.433L96.4767,141.334L96.4622,141.234L96.4488,141.135L96.4365,141.036L96.4252,140.937L96.4151,140.838L96.4061,140.74L96.3983,140.642L96.3917,140.544L96.3863,140.445L96.3822,140.347L96.3794,140.25L96.3779,140.152L96.3777,140.055L96.379,139.957L96.3816,139.86L96.3857,139.763L96.3913,139.666L96.3985,139.569L96.4072,139.473L96.4175,139.376L96.4295,139.28L96.4432,139.183L96.4586,139.087L96.4759,138.991L96.495,138.896L96.5159,138.801L96.5388,138.705L96.5637,138.611L96.5905,138.516L96.6195,138.422L96.6505,138.328L96.6837,138.235L96.7191,138.142L96.7567,138.05L96.7965,137.959L96.8386,137.868L96.883,137.778L96.9297,137.689L96.9786,137.601L97.0299,137.514L97.0836,137.428L97.1396,137.343L97.1978,137.259L97.2583,137.177L97.3211,137.096L97.3861,137.016L97.4533,136.938L97.5226,136.862L97.5941,136.787L97.6675,136.714L97.743,136.642L97.8541,136.543L98.0003,136.433L98.1104,136.353L98.2224,136.276L98.3363,136.2L98.4521,136.126L98.5697,136.054L98.689,135.982L98.8102,135.913L98.9331,135.844L99.0579,135.777L99.1843,135.71L99.3124,135.645L99.4422,135.581L99.5737,135.517L99.7068,135.455L99.8415,135.393L99.9778,135.333L100.116,135.272L100.255,135.213L100.396,135.155L100.538,135.097L100.682,135.039L100.827,134.983L100.973,134.927L101.12,134.871L101.269,134.817L101.419,134.762L101.571,134.708L101.723,134.655L101.878,134.602L102.186,134.498L102.499,134.396L102.816,134.296L103.136,134.197L103.458,134.1L103.783,134.004L104.109,133.91L104.436,133.818L104.765,133.726L105.094,133.636L105.422,133.547L105.751,133.46L106.079,133.373L106.728,133.204L107.37,133.038L107.998,132.876L108.61,132.718L109.202,132.563L109.488,132.487L109.768,132.412L110.041,132.337L110.306,132.263L110.563,132.19L110.81,132.118L111.048,132.047L111.276,131.976L111.493,131.907L111.701,131.838L111.797,131.805L111.892,131.772L111.983,131.739L112.071,131.706L112.156,131.674L112.236,131.643L112.313,131.612L112.386,131.582L112.455,131.552L112.519,131.524L112.579,131.496L112.584,131.494L112.581,131.396L112.573,131.21L112.563,131.016L112.551,130.814L112.537,130.604L112.522,130.387L112.504,130.162L112.484,129.93L112.463,129.691L112.439,129.445L112.414,129.192L112.386,128.933L112.356,128.667L112.325,128.394L112.291,128.116L112.255,127.831L112.217,127.541L112.177,127.244L112.135,126.942L112.09,126.634L112.044,126.321L111.995,126.002L111.944,125.678L111.891,125.349L111.836,125.015L111.779,124.676L111.719,124.333L111.657,123.984L111.593,123.631L111.526,123.274L111.458,122.913L111.387,122.547L111.313,122.177L111.238,121.803L111.16,121.426L111.08,121.044L110.997,120.659L110.912,120.271L110.825,119.879L110.735,119.484L110.643,119.086L110.548,118.685L110.451,118.28L110.352,117.873L110.25,117.464L110.146,117.052L110.039,116.637L109.93,116.22L109.818,115.801L109.704,115.379L109.587,114.956L109.468,114.531L109.346,114.104L109.222,113.675L109.095,113.245L108.966,112.813L108.833,112.38L108.699,111.946L108.562,111.51L108.422,111.074L108.279,110.637L108.134,110.199L107.986,109.761L107.836,109.321L107.683,108.882L107.527,108.442L107.369,108.002L107.208,107.562L107.044,107.122L106.877,106.682L106.708,106.243L106.536,105.804L106.361,105.365L106.184,104.927L106.003,104.49L105.82,104.052L105.728,103.835L105.634,103.617L105.54,103.4L105.446,103.183L105.35,102.966L105.254,102.75L105.158,102.534L105.06,102.318L104.962,102.102L104.863,101.887L104.763,101.672L104.663,101.458L104.562,101.244L104.46,101.031L104.358,100.818L104.255,100.605L104.151,100.393L104.046,100.181L103.941,99.97L103.835,99.7593L103.729,99.5492L103.621,99.3396L103.513,99.1305L103.404,98.922L103.295,98.7142L103.184,98.5068L103.073,98.3001L102.962,98.0941L102.849,97.8886L102.736,97.6838L102.622,97.4797L102.507,97.2762L102.392,97.0735L102.276,96.8715L102.159,96.6701L102.042,96.4696L101.923,96.2697L101.805,96.0706L101.685,95.8723L101.564,95.6748L101.443,95.4781L101.321,95.2823L101.199,95.0872L101.075,94.893L100.951,94.6997L100.827,94.5072L100.701,94.3156L100.575,94.125L100.448,93.9352L100.32,93.7464L100.192,93.5586L100.062,93.3716L99.9325,93.1857L99.8019,93.0007L99.6705,92.8168L99.5384,92.6338L99.4055,92.4519L99.2719,92.2711L99.1376,92.0913L99.0025,91.9125L98.8668,91.7349L98.7303,91.5583L98.593,91.3829L98.455,91.2085L98.3163,91.0353L98.1768,90.8633L98.0366,90.6924L97.8957,90.5227L97.7541,90.3542L97.6117,90.1869L97.4685,90.0208L97.3247,89.8559L97.1801,89.6923L97.0347,89.5299L96.8887,89.3688L96.7419,89.209L96.5944,89.0505L96.4461,88.8933L96.2971,88.7374L96.1474,88.5829L95.9969,88.4297L95.8457,88.2778L95.6938,88.1273L95.5411,87.9782L95.3877,87.8305L95.2336,87.6842L95.0787,87.5394L94.9231,87.3959L94.7668,87.2539L94.6097,87.1134L94.4519,86.9743L94.2934,86.8367L94.1341,86.7006L93.974,86.566L93.8133,86.4329L93.6519,86.3014L93.4897,86.1714L93.3261,86.0425L93.1608,85.914L92.9943,85.7863L92.8272,85.6597L92.6595,85.5344L92.4913,85.4101L92.3225,85.2871L92.1531,85.1652L91.9832,85.0444L91.8127,84.9248L91.6416,84.8064L91.47,84.6891L91.2979,84.573L91.1252,84.458L90.9519,84.3441L90.7781,84.2314L90.6038,84.1198L90.4289,84.0093L90.2535,83.9L90.0776,83.7918L89.9012,83.6847L89.7242,83.5787L89.5467,83.4739L89.3687,83.3701L89.1901,83.2675L89.0111,83.166L88.8316,83.0656L88.6515,82.9663L88.4709,82.8681L88.2899,82.771L88.1084,82.6749L87.9263,82.58L87.7438,82.4862L87.5608,82.3934L87.3773,82.3018L87.1933,82.2112L87.0089,82.1217L86.824,82.0333L86.6386,81.9459L86.4528,81.8596L86.2665,81.7744L86.0797,81.6903L85.8925,81.6072L85.7048,81.5252L85.5167,81.4442L85.3281,81.3643L85.1391,81.2855L84.9496,81.2077L84.7597,81.1309L84.5694,81.0552L84.3787,80.9806L84.1875,80.9069L83.9959,80.8344L83.8039,80.7628L83.6114,80.6923L83.4186,80.6228L83.2253,80.5544L83.0317,80.487L82.8376,80.4206L82.6431,80.3552L82.4483,80.2908L82.2531,80.2275L82.0574,80.1652L81.8614,80.1039L81.665,80.0436L81.4682,79.9843L81.2711,79.926L81.0735,79.8688L80.8757,79.8125L80.6774,79.7572L80.4788,79.7029L80.2798,79.6496L80.0805,79.5973L79.8808,79.546L79.6808,79.4957L79.4805,79.4464L79.2798,79.398L79.0787,79.3507L78.8774,79.3043L78.6757,79.2589L78.4737,79.2144L78.2713,79.171L78.0687,79.1285L77.8657,79.0869L77.6625,79.0464L77.4589,79.0067L77.255,78.9681L77.0508,78.9304L76.8464,78.8937L76.6416,78.8579L76.4366,78.8231L76.2313,78.7892L76.0257,78.7562L75.8198,78.7242L75.6136,78.6932L75.4072,78.6631L75.2005,78.6339L74.9936,78.6057L74.7864,78.5783L74.5789,78.552L74.3712,78.5265L74.1633,78.502L73.9551,78.4784L73.7467,78.4557L73.538,78.4339L73.3291,78.4131L73.12,78.3931L72.9107,78.3741L72.7012,78.356L72.4914,78.3388L72.2814,78.3225L72.0713,78.3071L71.8609,78.2926L71.6503,78.279L71.4395,78.2663L71.2286,78.2544L71.0174,78.2435L70.8061,78.2335L70.5946,78.2243L70.3829,78.216L70.1711,78.2086L69.959,78.2021L69.7469,78.1965L69.5345,78.1917L69.322,78.1878L69.1094,78.1848L68.8966,78.1827L68.6837,78.1814L68.4706,78.1809L68.2574,78.1814L68.0441,78.1827L67.8306,78.1848L67.617,78.1878L67.4033,78.1916L67.1895,78.1963L66.9756,78.2019L66.7616,78.2082L66.5474,78.2155L66.3332,78.2235L66.1189,78.2324L65.9044,78.2421L65.6899,78.2527L65.4753,78.2641L65.2607,78.2763L65.0459,78.2893L64.8311,78.3032L64.6162,78.3178L64.4013,78.3333L64.1863,78.3496L63.9713,78.3667L63.7561,78.3846L63.541,78.4034L63.3258,78.4229L63.1106,78.4432L62.8953,78.4644L62.68,78.4863L62.4647,78.509L62.2494,78.5325L62.034,78.5568L61.8187,78.5819L61.6033,78.6077L61.3879,78.6344L61.1725,78.6618L60.9572,78.69L60.7418,78.719L60.5264,78.7487L60.3111,78.7793L60.0957,78.8105L59.8805,78.8426L59.6652,78.8754L59.4499,78.909L59.2347,78.9433L59.0196,78.9783L58.8044,79.0142L58.5893,79.0508L58.3743,79.0881L58.1593,79.1261L57.9444,79.1649L57.7296,79.2045L57.5148,79.2447L57.3013,79.2855L56.8709,79.37L56.4421,79.4571L56.0136,79.5471L55.5856,79.6399L55.1579,79.7356L54.7308,79.8341L54.3041,79.9354L53.878,80.0395L53.4525,80.1463L53.0275,80.2559L52.6032,80.3682L52.1795,80.4832L51.7566,80.6008L51.3344,80.7211L50.9129,80.844L50.4922,80.9696L50.0724,81.0977L49.6534,81.2284L49.2354,81.3616L48.8182,81.4974L48.402,81.6357L47.9868,81.7764L47.5727,81.9196L47.1596,82.0653L46.7475,82.2133L46.3366,82.3638L45.9269,82.5166L45.5184,82.6718L45.111,82.8293L44.705,82.9891L44.3002,83.1512L43.8967,83.3156L43.4946,83.4822L43.0939,83.6511L42.6946,83.8221L42.6155,83.8565L64.9371,177.815Z" style="fill:rgb(35,31,32);"/>
        <path d="M71.7205,63.4377C72.5246,65.5819 71.9886,67.4582 70.6484,68.7984C69.8443,69.3344 68.5041,69.3344 67.968,70.4066C67.7,71.7467 68.5041,72.5509 69.8443,73.0869C72.7927,74.1591 75.473,72.2828 76.5452,70.4066C80.2977,63.9737 73.0607,58.0769 72.2566,51.6441C71.7205,47.3555 75.473,43.067 75.473,39.0464C75.473,37.7063 71.1845,37.4382 69.8443,39.8505C67.7,44.4071 64.2156,49.4998 66.6279,53.7884C68.2361,56.7368 70.3804,59.6852 71.7205,63.4377" style="fill:rgb(244,129,32);fill-rule:nonzero;"/>
        <path d="M84.8543,63.4377C85.3903,65.85 84.8543,67.7262 84.0502,69.8705C82.978,72.8189 86.4625,73.891 88.0707,72.2828C94.7716,65.0459 91.5552,61.0253 88.8748,57.2728C86.1945,53.2523 85.6584,52.4482 84.3182,49.4998C83.7821,48.4277 81.9059,45.4793 85.1223,42.2629C86.4625,41.1907 86.1945,37.9743 84.8543,36.6341C80.2977,33.4177 78.9575,39.3145 77.3493,44.4071C75.205,51.108 82.978,56.4687 84.8543,63.4377" style="fill:rgb(244,129,32);fill-rule:nonzero;"/>
        <path d="M39.8243,69.3344C41.4325,71.2107 41.4325,73.0869 40.6284,74.6951C40.0924,75.4992 39.0202,77.3755 38.7522,78.4476C39.0202,79.7878 39.8243,78.7157 41.1645,78.7157C44.1129,78.9837 46.2572,76.3034 46.7932,73.891C48.1334,66.6541 39.5563,63.1696 36.8759,57.2728C34.9997,53.5203 37.412,48.4277 36.0718,44.6752C35.5358,43.335 31.5152,44.6752 30.9792,47.3555C30.1751,52.4482 28.5668,58.0769 32.3193,61.5614C34.4636,64.2418 37.412,66.386 39.8243,69.3344" style="fill:rgb(244,129,32);fill-rule:nonzero;"/>
        <path d="M52.154,61.8294C52.9581,63.9737 52.422,66.118 51.8859,68.2623C51.0818,71.2107 55.3704,71.2107 56.9786,69.3344C60.4631,64.7778 58.3188,59.1491 56.1745,55.1286C53.7622,50.84 50.2777,47.0875 50.0097,42.5309C50.0097,41.1907 52.69,41.1907 54.0302,40.6546C55.6384,40.1186 58.8548,38.5104 57.2466,37.4382C52.154,34.4898 44.917,37.9743 43.5768,43.335C41.9686,50.0359 50.0097,55.1286 52.154,61.8294" style="fill:rgb(244,129,32);fill-rule:nonzero;"/>
        <path d="M104.193,163.014L104.068,163.012L103.943,162.999L103.583,162.948L103.222,162.894L102.865,162.838L102.512,162.781L102.162,162.722L101.816,162.661L101.474,162.599L101.135,162.535L100.8,162.47L100.468,162.403L100.14,162.334L99.8156,162.263L99.4942,162.191L99.1762,162.117L98.8615,162.042L98.5501,161.964L98.2419,161.885L97.9369,161.805L97.6351,161.722L97.3364,161.638L97.0408,161.552L96.7483,161.465L96.4587,161.376L96.1722,161.285L95.8885,161.192L95.6078,161.098L95.33,161.002L95.055,160.904L94.7828,160.804L94.5134,160.703L94.2466,160.6L93.9826,160.495L93.7213,160.389L93.4626,160.281L93.2065,160.171L92.9529,160.059L92.702,159.946L92.4534,159.831L92.2074,159.714L91.9638,159.596L91.7226,159.475L91.4838,159.354L91.2474,159.23L91.0132,159.104L90.7814,158.977L90.5517,158.849L90.3243,158.718L90.0991,158.586L89.876,158.452L89.6551,158.317L89.4362,158.179L89.2194,158.041L89.0046,157.9L88.7919,157.758L88.5811,157.614L88.3721,157.468L88.1651,157.321L87.96,157.173L87.7566,157.022L87.5551,156.87L87.3554,156.717L87.1573,156.562L86.9609,156.405L86.7662,156.246L86.5731,156.087L86.3816,155.925L86.1916,155.762L86.0031,155.598L85.816,155.432L85.6304,155.264L85.4462,155.095L85.2633,154.924L85.0818,154.752L84.9015,154.578L84.7224,154.403L84.5445,154.227L84.3678,154.049L84.1921,153.869L84.0176,153.688L83.844,153.506L83.6715,153.322L83.4998,153.137L83.3291,152.95L83.1592,152.762L82.9902,152.572L82.8219,152.381L82.6543,152.188L82.4874,151.994L82.3211,151.799L82.1555,151.602L81.9904,151.404L81.8258,151.205L81.6617,151.004L81.498,150.801L81.3347,150.598L81.1716,150.392L81.009,150.186L80.8465,149.978L80.6842,149.769L80.5222,149.558L80.3602,149.346L80.1983,149.132L80.0364,148.917L79.8745,148.701L79.7126,148.483L79.55,148.263L79.226,147.822L78.9005,147.374L78.5738,146.92L78.2454,146.461L77.915,145.996L77.5824,145.525L77.2469,145.048L76.5673,144.079L75.8723,143.086L75.8049,142.98L75.7467,142.87L75.6982,142.754L75.6596,142.635L75.6312,142.513L75.6133,142.389L75.6059,142.264L75.6092,142.139L75.6231,142.014L75.6475,141.891L75.6822,141.771L75.727,141.654L75.7816,141.541L75.8455,141.434L75.9183,141.332L75.9995,141.237L76.0885,141.148L76.1847,141.068L76.2873,140.996L76.3957,140.933L76.5089,140.88L76.6263,140.836L76.747,140.803L76.8701,140.78L76.9947,140.767L77.1199,140.765L77.2449,140.774L77.3687,140.793L77.4904,140.822L77.6091,140.862L77.7241,140.912L77.8344,140.971L77.9393,141.04L78.038,141.117L78.1298,141.202L78.2141,141.295L78.2902,141.394L78.9844,142.386L79.6615,143.352L79.9938,143.824L80.3228,144.289L80.6486,144.748L80.9714,145.199L81.2917,145.644L81.6096,146.082L81.9262,146.513L82.083,146.725L82.2399,146.936L82.3965,147.146L82.5528,147.353L82.7088,147.559L82.8646,147.763L83.0202,147.965L83.1756,148.166L83.3309,148.365L83.4861,148.562L83.6413,148.757L83.7965,148.95L83.9517,149.142L84.1069,149.332L84.2623,149.521L84.4178,149.707L84.5735,149.892L84.7294,150.076L84.8856,150.257L85.042,150.437L85.1988,150.615L85.356,150.791L85.5136,150.966L85.6716,151.138L85.8301,151.31L85.9891,151.479L86.1487,151.647L86.3089,151.813L86.4698,151.977L86.6313,152.14L86.7936,152.301L86.9566,152.461L87.1204,152.618L87.2851,152.774L87.4507,152.929L87.6172,153.082L87.7846,153.233L87.9531,153.383L88.1227,153.531L88.2933,153.677L88.4651,153.822L88.6381,153.965L88.8123,154.107L88.9878,154.247L89.1646,154.385L89.3428,154.522L89.5224,154.658L89.7035,154.792L89.8861,154.924L90.0702,155.055L90.2559,155.184L90.4433,155.312L90.6325,155.438L90.8233,155.563L91.0159,155.687L91.2104,155.809L91.4068,155.929L91.6051,156.048L91.8054,156.166L92.0078,156.282L92.2122,156.396L92.4188,156.51L92.6276,156.621L92.8386,156.732L93.052,156.841L93.2676,156.948L93.4857,157.054L93.7062,157.159L93.9291,157.262L94.1547,157.364L94.3828,157.464L94.6135,157.563L94.8469,157.661L95.0831,157.757L95.3221,157.852L95.5638,157.945L95.8085,158.037L96.0561,158.128L96.3066,158.217L96.5602,158.304L96.8168,158.391L97.0765,158.476L97.3394,158.559L97.6055,158.641L97.8748,158.722L98.1475,158.801L98.4235,158.878L98.7028,158.955L98.9856,159.029L99.2718,159.103L99.5616,159.175L99.8549,159.245L100.152,159.314L100.452,159.382L100.757,159.448L101.065,159.512L101.376,159.576L101.692,159.637L102.011,159.697L102.334,159.756L102.662,159.813L102.993,159.869L103.328,159.923L103.667,159.976L104.01,160.028L104.362,160.078L104.485,160.101L104.606,160.134L104.723,160.178L104.837,160.231L104.945,160.294L105.048,160.366L105.144,160.446L105.233,160.534L105.315,160.629L105.388,160.731L105.452,160.838L105.506,160.951L105.551,161.068L105.586,161.188L105.611,161.311L105.625,161.436L105.628,161.561L105.621,161.686L105.603,161.81L105.575,161.932L105.537,162.051L105.488,162.167L105.43,162.277L105.363,162.383L105.287,162.483L105.203,162.575L105.111,162.661L105.012,162.738L104.907,162.807L104.797,162.866L104.682,162.916L104.564,162.956L104.442,162.986L104.318,163.005L104.193,163.014Z" style="fill:rgb(35,31,32);"/>
        <path d="M45.9891,87.0248C47.0613,86.2207 50.0097,76.8394 50.0097,76.3034C49.7416,75.4992 54.0302,85.4166 54.2982,85.9526C54.5663,86.2207 62.8754,86.7567 63.4114,87.5608C63.9475,88.3649 58.3188,89.9732 57.5147,91.0453C56.7106,91.8494 65.8238,102.571 65.2877,103.375C64.7516,104.179 53.2261,96.138 52.69,96.674C51.8859,97.2101 43.8449,105.519 43.5768,105.519C43.3088,105.519 45.9891,94.7978 45.4531,93.9937C45.185,93.1896 39.2883,94.5298 38.7522,93.4576C38.4842,92.3855 45.9891,87.0248 45.9891,87.0248" style="fill:rgb(255,212,32);fill-rule:nonzero;"/>
        <path d="M49.2056,97.4781C47.5974,98.8183 46.7932,100.695 45.185,102.303C44.917,102.571 44.917,102.035 44.917,101.767C45.4531,99.6224 45.7211,97.7462 45.9891,95.6019C46.2572,94.7978 46.5252,94.2617 46.7932,93.4576C47.0613,92.9215 47.0613,92.3855 46.7932,91.8494C46.2572,91.3133 45.4531,91.8494 44.917,92.1174C43.3088,92.9215 41.7006,92.9215 40.0924,92.3855C40.6284,91.5814 41.4325,91.3133 42.2366,90.7773C43.0408,90.2412 44.1129,89.9732 44.917,89.1691C45.4531,88.901 45.9891,88.901 45.9891,88.633C46.5252,88.0969 47.0613,87.5608 47.5974,86.7567C49.2056,84.3444 49.2056,81.128 50.2777,78.4476C51.6179,81.128 52.154,84.3444 53.4941,87.5608C53.4941,88.0969 54.2982,87.2928 54.5663,88.0969C55.6384,87.2928 56.9786,87.5608 58.0507,87.5608C58.5868,87.5608 59.6589,87.2928 60.195,88.0969C58.8548,88.901 57.5147,89.7051 55.9065,90.2412C55.3704,90.5092 54.8343,91.5814 55.3704,92.3855C55.6384,92.9215 56.1745,93.1896 56.4425,93.4576C58.5868,95.3339 60.195,97.7462 61.8032,100.159C61.2672,100.695 60.7311,100.159 60.4631,99.6224C58.0507,97.7462 55.6384,96.9421 53.2261,94.7978C52.154,93.4576 50.8138,96.406 49.2056,97.4781M49.2056,100.695C50.0097,99.6224 51.0818,98.0142 52.154,98.2823C55.3704,98.5503 58.0507,101.231 60.7311,103.107C62.3393,104.179 63.6795,105.787 65.5557,105.519C66.0918,105.519 66.0918,104.715 66.6279,104.179C66.8959,103.643 66.3598,103.107 66.3598,103.107C64.7516,101.767 64.4836,99.6224 63.4114,98.2823C61.8032,96.138 60.4631,94.2617 58.8548,92.1174C60.7311,90.5092 62.8754,90.2412 65.0197,89.4371C65.5557,89.1691 65.8238,88.3649 65.5557,87.8289C65.5557,87.2928 65.0197,87.0248 65.0197,87.0248C63.4114,86.7567 61.8032,86.4887 60.4631,85.9526C58.5868,85.6846 56.7106,86.2207 54.8343,85.1485C54.0302,84.8805 54.0302,83.5403 53.7622,82.7362C52.9581,79.5198 51.8859,76.3034 50.5457,73.623C50.2777,73.0869 49.4736,72.8189 48.9375,73.355C48.6695,72.8189 48.4015,73.623 48.6695,74.6951C49.2056,77.9116 47.8654,81.128 47.0613,84.0764C46.7932,84.6124 46.5252,84.8805 45.9891,85.1485C45.9891,85.4166 45.9891,85.6846 45.9891,85.6846C44.3809,87.0248 43.0408,87.8289 41.1645,88.901C39.5563,89.7051 38.2161,91.3133 36.8759,92.6535C36.0718,92.9215 35.8038,94.7978 36.6079,94.7978C39.2883,95.6019 41.7006,95.3339 44.3809,95.0658C44.3809,98.2823 43.5768,101.231 42.5047,103.911C42.2366,104.447 41.9686,104.983 41.7006,105.519C41.1645,106.591 42.2366,107.663 42.7727,107.395C45.4531,105.787 47.3293,103.375 49.2056,100.695Z" style="fill:rgb(35,31,32);fill-rule:nonzero;"/>
        <path d="M42.9947,132.424L42.9076,132.405L42.7969,132.377L42.6877,132.345L42.5801,132.31L42.4741,132.271L42.3699,132.229L42.2677,132.183L42.1675,132.135L42.0694,132.083L41.9736,132.028L41.8802,131.971L41.789,131.911L41.7001,131.849L41.6138,131.784L41.5299,131.717L41.4483,131.648L41.3692,131.577L41.2925,131.504L41.2181,131.43L41.146,131.354L41.0763,131.277L41.0088,131.198L40.9435,131.117L40.8804,131.036L40.8193,130.953L40.7603,130.869L40.7033,130.784L40.6482,130.698L40.595,130.611L40.5437,130.524L40.4942,130.435L40.4464,130.345L40.4003,130.255L40.3559,130.163L40.3131,130.071L40.2719,129.979L40.2323,129.885L40.1941,129.791L40.1575,129.696L40.1223,129.6L40.0885,129.504L40.0561,129.407L40.025,129.309L39.9953,129.211L39.9669,129.112L39.9399,129.013L39.914,128.912L39.8895,128.812L39.8662,128.711L39.8441,128.609L39.8233,128.507L39.8036,128.404L39.7851,128.301L39.7678,128.197L39.7517,128.093L39.7367,127.989L39.7228,127.884L39.7101,127.778L39.6985,127.672L39.6881,127.566L39.6787,127.459L39.6705,127.352L39.6634,127.245L39.6574,127.137L39.6524,127.03L39.6486,126.921L39.6458,126.813L39.6441,126.704L39.6436,126.595L39.6441,126.486L39.6456,126.376L39.6483,126.266L39.652,126.157L39.6568,126.047L39.6627,125.936L39.6697,125.826L39.6777,125.716L39.6868,125.605L39.697,125.495L39.7083,125.384L39.7207,125.273L39.7341,125.163L39.7486,125.052L39.7643,124.941L39.781,124.831L39.7988,124.72L39.8177,124.61L39.8377,124.499L39.8588,124.389L39.881,124.279L39.9044,124.169L39.9288,124.059L39.9544,123.95L39.9811,123.84L40.009,123.731L40.038,123.622L40.0682,123.514L40.0995,123.405L40.132,123.297L40.1657,123.189L40.2005,123.082L40.2365,122.975L40.2738,122.869L40.3122,122.762L40.3519,122.657L40.3928,122.551L40.4349,122.447L40.4783,122.342L40.523,122.238L40.5689,122.135L40.6161,122.033L40.6646,121.93L40.7145,121.829L40.7657,121.728L40.8182,121.628L40.8721,121.528L40.9273,121.43L40.984,121.332L41.042,121.234L41.1015,121.138L41.1624,121.042L41.2248,120.948L41.2887,120.854L41.354,120.761L41.4209,120.669L41.4893,120.578L41.5592,120.488L41.6277,120.403L41.7492,120.255L41.8715,120.107L41.9978,119.957L42.1284,119.803L42.2634,119.647L42.4029,119.488L42.5471,119.327L42.6961,119.163L42.8502,118.998L43.0095,118.831L43.1741,118.662L43.3425,118.494L43.4313,118.407L43.52,118.321L43.6101,118.235L43.7016,118.149L43.7946,118.062L43.8892,117.976L43.9854,117.889L44.083,117.802L44.1822,117.715L44.2831,117.628L44.3855,117.541L44.4896,117.454L44.5954,117.367L44.7028,117.28L44.8119,117.193L44.9227,117.106L45.0352,117.019L45.1495,116.932L45.2656,116.845L45.3834,116.759L45.503,116.672L45.6245,116.586L45.7478,116.5L45.873,116.414L46,116.329L46.129,116.243L46.2598,116.158L46.3926,116.074L46.5274,115.989L46.6641,115.905L46.8028,115.822L46.9435,115.738L47.0863,115.656L47.231,115.573L47.3779,115.491L47.5268,115.41L47.6778,115.329L47.8309,115.248L47.9862,115.168L48.1436,115.088L48.3032,115.009L48.465,114.931L48.629,114.853L48.7953,114.776L48.9637,114.699L49.1345,114.623L49.3075,114.548L49.4829,114.473L49.6605,114.399L49.8405,114.326L50.0229,114.253L50.2077,114.182L50.3948,114.11L50.5844,114.04L50.7765,113.97L50.971,113.902L51.168,113.834L51.3674,113.767L51.5694,113.7L51.774,113.635L51.9811,113.57L52.1909,113.506L52.4032,113.444L52.6181,113.382L52.8357,113.321L53.056,113.261L53.279,113.201L53.5046,113.143L53.733,113.086L53.9642,113.03L54.1982,112.975L54.4349,112.921L54.6745,112.868L54.9169,112.816L55.1622,112.765L55.4103,112.715L55.6614,112.666L55.9155,112.618L56.1724,112.572L56.4324,112.526L56.6953,112.482L56.9613,112.439L57.2303,112.397L57.5024,112.357L57.7776,112.317L58.0559,112.279L58.3373,112.242L58.6219,112.206L58.9096,112.172L59.2006,112.139L59.4948,112.107L59.7923,112.076L60.093,112.047L60.397,112.019L60.7044,111.993L61.0151,111.967L61.3291,111.944L61.6466,111.921L61.9674,111.9L62.2918,111.881L62.6195,111.863L62.9508,111.846L63.2855,111.831L63.6203,111.818L63.7387,114.767L63.4111,114.78L63.0909,114.794L62.7742,114.81L62.4612,114.827L62.1519,114.846L61.8461,114.866L61.5439,114.887L61.2452,114.91L60.9501,114.933L60.6585,114.959L60.3703,114.985L60.0856,115.013L59.8044,115.041L59.5266,115.072L59.2521,115.103L58.981,115.135L58.7133,115.169L58.4489,115.204L58.1878,115.24L57.93,115.276L57.6754,115.315L57.424,115.354L57.1759,115.394L56.9309,115.435L56.6891,115.477L56.4504,115.52L56.2149,115.565L55.9824,115.61L55.753,115.656L55.5267,115.703L55.3033,115.751L55.0829,115.8L54.8655,115.849L54.6511,115.9L54.4396,115.951L54.231,116.004L54.0252,116.057L53.8223,116.11L53.6222,116.165L53.425,116.22L53.2305,116.276L53.0387,116.333L52.8497,116.39L52.6633,116.449L52.4796,116.507L52.2986,116.567L52.1202,116.627L51.9444,116.688L51.7712,116.749L51.6005,116.811L51.4324,116.873L51.2667,116.936L51.1034,117L50.9427,117.064L50.7843,117.128L50.6283,117.193L50.4747,117.258L50.3235,117.324L50.1745,117.391L50.0278,117.457L49.8834,117.524L49.7412,117.592L49.6012,117.66L49.4634,117.728L49.3277,117.796L49.1942,117.865L49.0627,117.934L48.9333,118.004L48.8059,118.074L48.6805,118.144L48.5571,118.214L48.4357,118.284L48.3163,118.355L48.1986,118.426L48.0829,118.497L47.969,118.568L47.857,118.64L47.7467,118.712L47.6381,118.783L47.5313,118.855L47.4262,118.927L47.3228,118.999L47.2211,119.072L47.1209,119.144L47.0224,119.216L46.9254,119.289L46.83,119.361L46.736,119.434L46.6436,119.507L46.5526,119.579L46.463,119.652L46.3749,119.724L46.2881,119.797L46.2027,119.87L46.1186,119.942L46.0358,120.015L45.9542,120.087L45.874,120.16L45.7949,120.232L45.717,120.304L45.6403,120.377L45.5647,120.449L45.4903,120.521L45.4185,120.591L45.2732,120.736L45.1337,120.879L44.998,121.022L44.8659,121.163L44.7372,121.305L44.6117,121.445L44.4892,121.584L44.3696,121.723L44.2525,121.861L44.1378,121.997L44.0252,122.133L43.9177,122.264L43.8741,122.318L43.8339,122.37L43.7942,122.423L43.7548,122.477L43.7159,122.532L43.6774,122.589L43.6395,122.647L43.602,122.705L43.565,122.765L43.5286,122.826L43.4927,122.888L43.4574,122.952L43.4226,123.016L43.3884,123.081L43.3548,123.147L43.3218,123.214L43.2894,123.283L43.2577,123.352L43.2266,123.421L43.1962,123.492L43.1664,123.564L43.1373,123.636L43.1089,123.709L43.0812,123.783L43.0542,123.858L43.028,123.933L43.0024,124.009L42.9776,124.085L42.9535,124.162L42.9301,124.24L42.9075,124.318L42.8857,124.397L42.8646,124.476L42.8443,124.555L42.8248,124.635L42.806,124.716L42.788,124.796L42.7708,124.877L42.7544,124.959L42.7388,125.04L42.724,125.122L42.71,125.204L42.6968,125.286L42.6843,125.368L42.6727,125.45L42.6619,125.533L42.6519,125.615L42.6427,125.697L42.6343,125.78L42.6267,125.862L42.62,125.944L42.614,126.026L42.6088,126.108L42.6045,126.19L42.6009,126.271L42.5981,126.352L42.5962,126.433L42.595,126.513L42.5947,126.594L42.5951,126.673L42.5963,126.753L42.5983,126.831L42.6011,126.91L42.6047,126.988L42.609,127.065L42.6141,127.141L42.6199,127.217L42.6265,127.293L42.6339,127.367L42.6419,127.441L42.6507,127.514L42.6603,127.586L42.6705,127.658L42.6814,127.728L42.693,127.798L42.7053,127.867L42.7183,127.934L42.7319,128.001L42.7461,128.066L42.7609,128.131L42.7764,128.194L42.7924,128.256L42.809,128.317L42.8261,128.377L42.8437,128.435L42.8619,128.492L42.8805,128.548L42.8995,128.602L42.9189,128.655L42.9387,128.706L42.9589,128.756L42.9794,128.804L43.0001,128.851L43.0211,128.896L43.0423,128.94L43.0636,128.981L43.0851,129.022L43.1066,129.06L43.1281,129.097L43.1496,129.132L43.171,129.166L43.1923,129.197L43.2134,129.227L43.2342,129.256L43.2548,129.282L43.2749,129.307L43.2947,129.33L43.3141,129.352L43.3329,129.371L43.3512,129.39L43.3691,129.407L43.4027,129.436L43.434,129.46L43.4626,129.48L43.4892,129.495L43.5137,129.508L43.5374,129.518L43.5609,129.526L43.5852,129.533L43.6229,129.541L42.9947,132.424Z" style="fill:rgb(35,31,32);"/>
        <path d="M77.8854,122.942C84.8543,122.942 90.7511,118.385 90.7511,112.488C90.7511,106.859 85.1223,102.035 77.8854,102.035C70.6484,102.035 65.0197,106.591 65.0197,112.488C65.0197,118.385 70.6484,122.942 77.8854,122.942" style="fill:rgb(190,214,61);fill-rule:nonzero;"/>
        <path d="M77.8854,124.417L77.7039,124.416L77.5229,124.413L77.3425,124.409L77.1626,124.402L76.9832,124.394L76.8044,124.384L76.6262,124.372L76.4486,124.358L76.2715,124.343L76.0951,124.325L75.9194,124.306L75.7442,124.285L75.5698,124.263L75.396,124.238L75.2229,124.212L75.0505,124.185L74.8788,124.155L74.7078,124.124L74.5376,124.091L74.3681,124.057L74.1994,124.021L74.0315,123.983L73.8643,123.943L73.698,123.902L73.5324,123.859L73.3677,123.815L73.2039,123.769L73.041,123.722L72.8788,123.672L72.7176,123.622L72.5573,123.569L72.3979,123.515L72.2394,123.46L72.0819,123.403L71.9253,123.345L71.7696,123.285L71.615,123.223L71.4613,123.16L71.3086,123.096L71.157,123.03L71.0063,122.962L70.8568,122.893L70.7083,122.823L70.5608,122.751L70.4144,122.678L70.2692,122.603L70.125,122.527L69.982,122.45L69.8401,122.371L69.6993,122.291L69.5598,122.209L69.4214,122.126L69.2842,122.041L69.1482,121.956L69.0134,121.868L68.8798,121.78L68.7475,121.69L68.6164,121.599L68.4867,121.507L68.3582,121.413L68.231,121.318L68.1051,121.221L67.9806,121.124L67.8575,121.025L67.7356,120.925L67.6152,120.823L67.4962,120.721L67.3785,120.617L67.2623,120.512L67.1475,120.405L67.0342,120.298L66.9223,120.189L66.812,120.079L66.7031,119.968L66.5957,119.855L66.4899,119.742L66.3857,119.627L66.2829,119.511L66.1818,119.394L66.0823,119.276L65.9844,119.157L65.8882,119.036L65.7935,118.915L65.7006,118.792L65.6093,118.669L65.5197,118.544L65.4319,118.418L65.3458,118.291L65.2615,118.163L65.1789,118.034L65.0981,117.904L65.0192,117.773L64.9421,117.641L64.8668,117.508L64.7934,117.373L64.7218,117.238L64.6522,117.102L64.5846,116.965L64.5188,116.827L64.455,116.689L64.3933,116.549L64.3335,116.408L64.2757,116.267L64.22,116.124L64.1664,115.981L64.1148,115.837L64.0653,115.692L64.018,115.546L63.9728,115.399L63.9297,115.252L63.8888,115.104L63.8501,114.955L63.8137,114.806L63.7794,114.655L63.7475,114.504L63.7177,114.353L63.6903,114.2L63.6652,114.048L63.6424,113.894L63.6219,113.74L63.6038,113.585L63.588,113.43L63.5746,113.274L63.5637,113.118L63.5551,112.961L63.549,112.804L63.5453,112.646L63.5441,112.488L63.5453,112.33L63.549,112.172L63.5551,112.015L63.5637,111.858L63.5746,111.702L63.588,111.546L63.6038,111.391L63.6219,111.236L63.6424,111.082L63.6652,110.929L63.6903,110.776L63.7177,110.623L63.7475,110.472L63.7794,110.321L63.8137,110.171L63.8501,110.021L63.8888,109.872L63.9297,109.724L63.9728,109.577L64.018,109.43L64.0653,109.284L64.1148,109.14L64.1664,108.995L64.22,108.852L64.2757,108.71L64.3335,108.568L64.3933,108.427L64.455,108.288L64.5188,108.149L64.5846,108.011L64.6522,107.874L64.7218,107.738L64.7934,107.603L64.8668,107.469L64.9421,107.336L65.0192,107.203L65.0981,107.072L65.1789,106.942L65.2615,106.813L65.3458,106.685L65.4319,106.558L65.5197,106.433L65.6093,106.308L65.7006,106.184L65.7935,106.061L65.8881,105.94L65.9844,105.819L66.0823,105.7L66.1818,105.582L66.2829,105.465L66.3857,105.349L66.4899,105.234L66.5958,105.121L66.7031,105.009L66.8119,104.897L66.9223,104.787L67.0342,104.679L67.1475,104.571L67.2623,104.465L67.3785,104.359L67.4961,104.256L67.6152,104.153L67.7356,104.051L67.8575,103.951L67.9806,103.852L68.1051,103.755L68.231,103.658L68.3582,103.563L68.4867,103.47L68.6164,103.377L68.7475,103.286L68.8798,103.196L69.0134,103.108L69.1482,103.021L69.2841,102.935L69.4214,102.85L69.5598,102.767L69.6993,102.686L69.8401,102.605L69.982,102.527L70.125,102.449L70.2692,102.373L70.4144,102.298L70.5608,102.225L70.7083,102.153L70.8568,102.083L71.0063,102.014L71.157,101.946L71.3086,101.881L71.4613,101.816L71.615,101.753L71.7696,101.692L71.9253,101.632L72.0819,101.573L72.2394,101.516L72.3979,101.461L72.5573,101.407L72.7176,101.355L72.8788,101.304L73.041,101.255L73.2039,101.207L73.3678,101.161L73.5324,101.117L73.6979,101.074L73.8643,101.033L74.0315,100.994L74.1994,100.956L74.3681,100.92L74.5376,100.885L74.7078,100.852L74.8788,100.821L75.0505,100.792L75.2229,100.764L75.396,100.738L75.5698,100.713L75.7442,100.691L75.9194,100.67L76.0951,100.651L76.2715,100.634L76.4486,100.618L76.6262,100.604L76.8044,100.592L76.9832,100.582L77.1626,100.574L77.3425,100.568L77.5229,100.563L77.7039,100.56L77.8854,100.559L78.0668,100.56L78.2478,100.563L78.4282,100.568L78.6081,100.574L78.7875,100.582L78.9663,100.592L79.1445,100.604L79.3222,100.618L79.4992,100.634L79.6756,100.651L79.8513,100.67L80.0265,100.691L80.201,100.713L80.3747,100.738L80.5478,100.764L80.7203,100.792L80.8919,100.821L81.0629,100.852L81.2332,100.885L81.4026,100.92L81.5713,100.956L81.7393,100.994L81.9064,101.033L82.0728,101.074L82.2383,101.117L82.4029,101.161L82.5668,101.207L82.7298,101.255L82.8919,101.304L83.0531,101.355L83.2134,101.407L83.3728,101.461L83.5313,101.516L83.6888,101.573L83.8455,101.632L84.0011,101.692L84.1558,101.753L84.3094,101.816L84.4621,101.881L84.6137,101.946L84.7644,102.014L84.9139,102.083L85.0624,102.153L85.2099,102.225L85.3563,102.298L85.5015,102.373L85.6457,102.449L85.7887,102.527L85.9306,102.605L86.0714,102.686L86.2109,102.767L86.3493,102.85L86.4866,102.935L86.6226,103.021L86.7573,103.108L86.8909,103.196L87.0232,103.286L87.1543,103.377L87.284,103.47L87.4125,103.563L87.5397,103.658L87.6656,103.755L87.7901,103.852L87.9133,103.951L88.0351,104.051L88.1555,104.153L88.2746,104.256L88.3922,104.359L88.5084,104.465L88.6232,104.571L88.7365,104.679L88.8484,104.787L88.9588,104.897L89.0676,105.009L89.175,105.121L89.2808,105.234L89.385,105.349L89.4878,105.465L89.5889,105.582L89.6884,105.7L89.7863,105.819L89.8826,105.94L89.9772,106.061L90.0701,106.184L90.1614,106.308L90.251,106.432L90.3388,106.558L90.4249,106.685L90.5092,106.813L90.5918,106.942L90.6726,107.072L90.7515,107.204L90.8287,107.336L90.9039,107.469L90.9773,107.603L91.0489,107.738L91.1185,107.874L91.1861,108.011L91.2519,108.149L91.3157,108.288L91.3775,108.427L91.4372,108.568L91.495,108.71L91.5507,108.852L91.6044,108.995L91.6559,109.139L91.7054,109.284L91.7527,109.43L91.798,109.577L91.841,109.724L91.8819,109.872L91.9206,110.021L91.957,110.171L91.9913,110.321L92.0233,110.472L92.053,110.623L92.0804,110.776L92.1055,110.929L92.1284,111.082L92.1488,111.236L92.1669,111.391L92.1827,111.546L92.1961,111.702L92.207,111.858L92.2156,112.015L92.2217,112.172L92.2254,112.33L92.2266,112.488L92.2254,112.646L92.2217,112.804L92.2156,112.961L92.207,113.118L92.1961,113.274L92.1827,113.43L92.1669,113.585L92.1488,113.74L92.1284,113.894L92.1055,114.048L92.0804,114.201L92.053,114.353L92.0233,114.504L91.9913,114.655L91.957,114.806L91.9206,114.955L91.8819,115.104L91.841,115.252L91.798,115.399L91.7527,115.546L91.7054,115.692L91.6559,115.837L91.6044,115.981L91.5507,116.124L91.495,116.267L91.4372,116.408L91.3775,116.549L91.3157,116.689L91.2519,116.827L91.1861,116.965L91.1185,117.102L91.0489,117.238L90.9773,117.373L90.9039,117.508L90.8287,117.641L90.7515,117.773L90.6726,117.904L90.5918,118.034L90.5092,118.163L90.4249,118.291L90.3388,118.418L90.251,118.544L90.1614,118.669L90.0702,118.792L89.9772,118.915L89.8826,119.036L89.7863,119.157L89.6884,119.276L89.5889,119.394L89.4878,119.511L89.385,119.627L89.2808,119.742L89.175,119.855L89.0676,119.968L88.9587,120.079L88.8484,120.189L88.7365,120.298L88.6232,120.405L88.5084,120.512L88.3922,120.617L88.2746,120.721L88.1555,120.823L88.0351,120.925L87.9133,121.025L87.7901,121.124L87.6656,121.221L87.5397,121.318L87.4125,121.413L87.284,121.507L87.1543,121.599L87.0232,121.69L86.8909,121.78L86.7573,121.868L86.6226,121.956L86.4866,122.041L86.3493,122.126L86.211,122.209L86.0714,122.291L85.9306,122.371L85.7887,122.45L85.6457,122.527L85.5015,122.603L85.3563,122.678L85.2099,122.751L85.0624,122.823L84.9139,122.893L84.7644,122.962L84.6138,123.03L84.4621,123.096L84.3094,123.16L84.1558,123.223L84.0011,123.285L83.8455,123.345L83.6888,123.403L83.5313,123.46L83.3728,123.515L83.2134,123.569L83.0531,123.622L82.8919,123.672L82.7298,123.722L82.5668,123.769L82.403,123.815L82.2383,123.859L82.0727,123.902L81.9064,123.943L81.7393,123.983L81.5713,124.021L81.4026,124.057L81.2332,124.091L81.0629,124.124L80.8919,124.155L80.7203,124.185L80.5478,124.212L80.3747,124.238L80.201,124.263L80.0265,124.285L79.8513,124.306L79.6756,124.325L79.4992,124.343L79.3222,124.358L79.1445,124.372L78.9663,124.384L78.7875,124.394L78.6081,124.402L78.4282,124.409L78.2478,124.413L78.0668,124.416L77.8854,124.417ZM77.8854,121.466L78.0364,121.465L78.187,121.463L78.3372,121.459L78.4867,121.454L78.6357,121.447L78.7842,121.438L78.9321,121.428L79.0794,121.417L79.2262,121.404L79.3724,121.39L79.518,121.374L79.6629,121.357L79.8072,121.338L79.9509,121.318L80.0939,121.296L80.2362,121.274L80.3779,121.249L80.5189,121.224L80.6592,121.197L80.7988,121.168L80.9376,121.138L81.0757,121.107L81.2131,121.075L81.3497,121.041L81.4855,121.006L81.6205,120.97L81.7548,120.932L81.8883,120.893L82.0209,120.853L82.1527,120.811L82.2836,120.769L82.4137,120.725L82.5429,120.679L82.6713,120.633L82.7987,120.585L82.9252,120.537L83.0509,120.487L83.1756,120.436L83.2993,120.383L83.4221,120.33L83.5439,120.275L83.6648,120.22L83.7846,120.163L83.9035,120.105L84.0213,120.046L84.1382,119.986L84.2539,119.925L84.3686,119.863L84.4824,119.8L84.5949,119.735L84.7064,119.67L84.8169,119.604L84.9262,119.537L85.0344,119.468L85.1414,119.399L85.2473,119.329L85.3521,119.258L85.4557,119.186L85.5582,119.113L85.6594,119.039L85.7594,118.964L85.8583,118.889L85.9559,118.812L86.0523,118.735L86.1474,118.656L86.2413,118.577L86.334,118.497L86.4254,118.417L86.5155,118.335L86.6042,118.253L86.6917,118.17L86.7779,118.086L86.8628,118.001L86.9464,117.916L87.0285,117.83L87.1094,117.743L87.1889,117.656L87.267,117.568L87.3438,117.479L87.4192,117.389L87.4932,117.299L87.5658,117.208L87.637,117.117L87.7067,117.025L87.7751,116.932L87.8421,116.839L87.9075,116.745L87.9716,116.651L88.0342,116.556L88.0953,116.46L88.155,116.364L88.2132,116.267L88.2699,116.17L88.3252,116.073L88.3789,115.974L88.4311,115.876L88.4819,115.777L88.5312,115.677L88.5789,115.577L88.6251,115.476L88.6698,115.375L88.7129,115.274L88.7545,115.172L88.7946,115.069L88.8331,114.966L88.8701,114.863L88.9055,114.759L88.9393,114.655L88.9715,114.551L89.0022,114.446L89.0313,114.34L89.0588,114.234L89.0847,114.128L89.1089,114.022L89.1316,113.915L89.1527,113.807L89.1721,113.7L89.1898,113.591L89.206,113.483L89.2204,113.374L89.2333,113.265L89.2444,113.155L89.2538,113.045L89.2616,112.934L89.2677,112.823L89.272,112.712L89.2746,112.6L89.2755,112.488L89.2746,112.376L89.272,112.264L89.2677,112.153L89.2616,112.042L89.2538,111.931L89.2444,111.821L89.2333,111.712L89.2204,111.602L89.206,111.493L89.1898,111.385L89.1721,111.277L89.1527,111.169L89.1316,111.061L89.1089,110.955L89.0847,110.848L89.0588,110.742L89.0313,110.636L89.0022,110.531L88.9715,110.426L88.9393,110.321L88.9055,110.217L88.8701,110.113L88.8331,110.01L88.7946,109.907L88.7545,109.805L88.7129,109.703L88.6698,109.601L88.6251,109.5L88.5789,109.4L88.5312,109.299L88.4819,109.2L88.4311,109.101L88.3789,109.002L88.3252,108.904L88.2699,108.806L88.2132,108.709L88.155,108.612L88.0953,108.516L88.0342,108.421L87.9716,108.326L87.9075,108.231L87.8421,108.137L87.7751,108.044L87.7068,107.951L87.637,107.859L87.5658,107.768L87.4932,107.677L87.4192,107.587L87.3438,107.497L87.267,107.409L87.1889,107.32L87.1094,107.233L87.0286,107.146L86.9464,107.06L86.8628,106.975L86.7779,106.89L86.6917,106.806L86.6042,106.723L86.5155,106.641L86.4254,106.56L86.334,106.479L86.2413,106.399L86.1474,106.32L86.0523,106.242L85.9559,106.164L85.8583,106.088L85.7594,106.012L85.6594,105.937L85.5582,105.863L85.4557,105.79L85.3521,105.718L85.2473,105.647L85.1415,105.577L85.0344,105.508L84.9262,105.44L84.8169,105.372L84.7065,105.306L84.5949,105.241L84.4823,105.177L84.3686,105.114L84.2539,105.051L84.1382,104.99L84.0213,104.93L83.9035,104.871L83.7846,104.813L83.6648,104.757L83.5439,104.701L83.4221,104.646L83.2993,104.593L83.1755,104.541L83.0509,104.49L82.9252,104.44L82.7987,104.391L82.6713,104.343L82.5429,104.297L82.4137,104.252L82.2836,104.208L82.1527,104.165L82.0209,104.124L81.8883,104.083L81.7548,104.044L81.6206,104.007L81.4855,103.97L81.3497,103.935L81.2131,103.902L81.0757,103.869L80.9376,103.838L80.7988,103.808L80.6592,103.78L80.5189,103.753L80.3779,103.727L80.2362,103.703L80.0939,103.68L79.9509,103.658L79.8072,103.638L79.6629,103.62L79.518,103.602L79.3724,103.586L79.2262,103.572L79.0794,103.559L78.9322,103.548L78.7842,103.538L78.6357,103.53L78.4867,103.523L78.3372,103.517L78.187,103.513L78.0364,103.511L77.8854,103.51L77.7343,103.511L77.5837,103.513L77.4335,103.517L77.284,103.523L77.135,103.53L76.9865,103.538L76.8386,103.548L76.6913,103.559L76.5445,103.572L76.3983,103.586L76.2527,103.602L76.1078,103.62L75.9635,103.638L75.8198,103.658L75.6768,103.68L75.5345,103.703L75.3928,103.727L75.2518,103.753L75.1115,103.78L74.972,103.808L74.8331,103.838L74.695,103.869L74.5576,103.902L74.421,103.935L74.2852,103.97L74.1501,104.007L74.0159,104.044L73.8824,104.083L73.7498,104.124L73.618,104.165L73.4871,104.208L73.357,104.252L73.2278,104.297L73.0994,104.343L72.972,104.391L72.8455,104.44L72.7198,104.49L72.5952,104.541L72.4714,104.593L72.3486,104.646L72.2268,104.701L72.1059,104.757L71.9861,104.813L71.8672,104.871L71.7494,104.93L71.6326,104.99L71.5168,105.051L71.402,105.114L71.2884,105.177L71.1758,105.241L71.0642,105.306L70.9538,105.372L70.8446,105.44L70.7363,105.508L70.6292,105.577L70.5234,105.647L70.4186,105.718L70.315,105.79L70.2125,105.863L70.1113,105.937L70.0113,106.012L69.9124,106.088L69.8148,106.164L69.7184,106.242L69.6233,106.32L69.5294,106.399L69.4367,106.479L69.3453,106.56L69.2552,106.641L69.1665,106.723L69.079,106.806L68.9928,106.89L68.9079,106.975L68.8244,107.06L68.7421,107.146L68.6613,107.233L68.5818,107.32L68.5037,107.409L68.4269,107.497L68.3515,107.587L68.2775,107.677L68.2049,107.768L68.1337,107.859L68.064,107.951L67.9956,108.044L67.9287,108.137L67.8632,108.231L67.7991,108.326L67.7365,108.421L67.6754,108.516L67.6158,108.612L67.5575,108.709L67.5008,108.806L67.4456,108.904L67.3918,109.002L67.3396,109.101L67.2888,109.2L67.2396,109.299L67.1918,109.4L67.1456,109.5L67.101,109.601L67.0578,109.703L67.0162,109.805L66.9761,109.907L66.9376,110.01L66.9007,110.113L66.8653,110.217L66.8314,110.321L66.7992,110.426L66.7685,110.531L66.7394,110.636L66.7119,110.742L66.686,110.848L66.6618,110.955L66.6391,111.062L66.6181,111.169L66.5986,111.277L66.5809,111.385L66.5647,111.493L66.5503,111.602L66.5375,111.712L66.5263,111.821L66.5169,111.932L66.5091,112.042L66.5031,112.153L66.4987,112.264L66.4961,112.376L66.4952,112.488L66.4961,112.6L66.4987,112.712L66.5031,112.823L66.5091,112.934L66.5169,113.045L66.5263,113.155L66.5375,113.265L66.5503,113.374L66.5647,113.483L66.5809,113.591L66.5986,113.7L66.6181,113.807L66.6391,113.915L66.6618,114.022L66.686,114.128L66.7119,114.234L66.7394,114.34L66.7685,114.446L66.7992,114.551L66.8314,114.655L66.8653,114.759L66.9007,114.863L66.9376,114.966L66.9761,115.069L67.0162,115.172L67.0578,115.273L67.101,115.375L67.1456,115.476L67.1918,115.577L67.2396,115.677L67.2888,115.777L67.3396,115.876L67.3918,115.974L67.4456,116.073L67.5008,116.17L67.5575,116.267L67.6158,116.364L67.6754,116.46L67.7365,116.556L67.7991,116.651L67.8632,116.745L67.9287,116.839L67.9956,116.932L68.064,117.025L68.1337,117.117L68.2049,117.208L68.2775,117.299L68.3515,117.389L68.4269,117.479L68.5037,117.568L68.5818,117.656L68.6613,117.743L68.7422,117.83L68.8244,117.916L68.9079,118.001L68.9928,118.086L69.079,118.17L69.1665,118.253L69.2553,118.335L69.3453,118.417L69.4367,118.497L69.5294,118.577L69.6233,118.656L69.7184,118.735L69.8148,118.812L69.9124,118.889L70.0113,118.964L70.1113,119.039L70.2125,119.113L70.315,119.186L70.4186,119.258L70.5234,119.329L70.6293,119.399L70.7363,119.468L70.8445,119.537L70.9538,119.604L71.0643,119.67L71.1758,119.735L71.2884,119.8L71.402,119.863L71.5168,119.925L71.6326,119.986L71.7494,120.046L71.8672,120.105L71.9861,120.163L72.1059,120.22L72.2268,120.275L72.3486,120.33L72.4714,120.383L72.5951,120.436L72.7198,120.487L72.8455,120.537L72.972,120.585L73.0994,120.633L73.2278,120.679L73.357,120.725L73.4871,120.769L73.618,120.811L73.7498,120.853L73.8824,120.893L74.0159,120.932L74.1502,120.97L74.2852,121.006L74.421,121.041L74.5576,121.075L74.695,121.107L74.8331,121.138L74.972,121.168L75.1115,121.197L75.2518,121.224L75.3928,121.249L75.5345,121.274L75.6768,121.296L75.8198,121.318L75.9635,121.338L76.1078,121.357L76.2527,121.374L76.3983,121.39L76.5445,121.404L76.6913,121.417L76.8386,121.428L76.9865,121.438L77.135,121.447L77.284,121.454L77.4335,121.459L77.5837,121.463L77.7343,121.465L77.8854,121.466Z" style="fill:rgb(35,31,32);"/>
        <path d="M111.122,120.529C119.163,120.529 125.596,117.313 125.596,113.024C125.596,109.004 119.163,105.519 111.122,105.519C103.081,105.519 96.6478,108.468 96.6478,113.024C96.6478,117.849 103.081,120.529 111.122,120.529" style="fill:rgb(190,214,61);fill-rule:nonzero;"/>
        <path d="M111.122,122.005L110.926,122.004L110.731,122.003L110.536,122L110.342,121.997L110.148,121.992L109.955,121.986L109.763,121.98L109.571,121.972L109.38,121.963L109.19,121.954L109,121.943L108.811,121.931L108.623,121.919L108.435,121.905L108.249,121.89L108.063,121.875L107.877,121.858L107.693,121.84L107.509,121.821L107.326,121.801L107.143,121.781L106.962,121.759L106.781,121.736L106.602,121.712L106.423,121.687L106.245,121.661L106.067,121.635L105.891,121.607L105.716,121.578L105.541,121.548L105.367,121.517L105.195,121.485L105.023,121.452L104.852,121.418L104.682,121.383L104.513,121.347L104.345,121.31L104.178,121.272L104.012,121.233L103.848,121.193L103.684,121.152L103.521,121.109L103.359,121.066L103.198,121.022L103.039,120.977L102.88,120.93L102.722,120.883L102.566,120.834L102.411,120.785L102.257,120.734L102.104,120.683L101.952,120.63L101.801,120.576L101.651,120.521L101.503,120.465L101.356,120.408L101.21,120.35L101.065,120.291L100.922,120.231L100.78,120.169L100.638,120.107L100.499,120.043L100.36,119.978L100.223,119.912L100.087,119.845L99.9527,119.777L99.8195,119.708L99.6877,119.637L99.5572,119.565L99.4281,119.492L99.3003,119.418L99.174,119.343L99.0491,119.266L98.9257,119.189L98.8037,119.109L98.6832,119.029L98.5641,118.948L98.4466,118.865L98.3306,118.781L98.2162,118.695L98.1033,118.608L97.992,118.52L97.8825,118.431L97.7745,118.34L97.6681,118.248L97.5635,118.155L97.4606,118.06L97.3594,117.963L97.2601,117.866L97.1626,117.767L97.0668,117.666L96.973,117.564L96.8811,117.461L96.7911,117.356L96.7032,117.25L96.6172,117.142L96.5333,117.033L96.4515,116.923L96.3718,116.811L96.2944,116.698L96.2192,116.583L96.1462,116.466L96.0755,116.349L96.0073,116.23L95.9413,116.109L95.8779,115.987L95.8169,115.864L95.7585,115.74L95.7026,115.614L95.6493,115.487L95.5987,115.359L95.5507,115.229L95.5055,115.099L95.463,114.967L95.4234,114.834L95.3865,114.7L95.3525,114.565L95.3214,114.429L95.2932,114.292L95.2679,114.154L95.2455,114.016L95.2261,113.876L95.2097,113.736L95.1962,113.595L95.1857,113.453L95.1782,113.311L95.1737,113.168L95.1722,113.024L95.1737,112.885L95.1784,112.746L95.186,112.608L95.1967,112.471L95.2105,112.334L95.2273,112.197L95.2471,112.062L95.2699,111.927L95.2956,111.793L95.3243,111.66L95.3559,111.527L95.3904,111.396L95.4277,111.265L95.4678,111.136L95.5107,111.008L95.5564,110.88L95.6047,110.754L95.6557,110.629L95.7093,110.505L95.7654,110.383L95.8241,110.262L95.8852,110.141L95.9488,110.023L96.0148,109.905L96.0831,109.789L96.1537,109.674L96.2265,109.56L96.3016,109.448L96.3789,109.337L96.4583,109.227L96.5397,109.118L96.6233,109.011L96.7088,108.906L96.7963,108.801L96.8858,108.698L96.9772,108.596L97.0704,108.496L97.1656,108.397L97.2625,108.299L97.3613,108.202L97.4617,108.107L97.5639,108.013L97.6679,107.92L97.7735,107.828L97.8808,107.738L97.9898,107.649L98.1003,107.561L98.2124,107.474L98.3262,107.388L98.4414,107.304L98.5583,107.221L98.6766,107.139L98.7964,107.058L98.9178,106.978L99.0406,106.9L99.1648,106.822L99.2906,106.746L99.4177,106.671L99.5461,106.597L99.676,106.524L99.8074,106.452L99.9401,106.381L100.074,106.312L100.209,106.243L100.346,106.176L100.484,106.109L100.623,106.044L100.764,105.98L100.906,105.917L101.049,105.854L101.194,105.793L101.339,105.733L101.486,105.674L101.634,105.616L101.784,105.559L101.934,105.504L102.086,105.449L102.239,105.395L102.393,105.342L102.548,105.291L102.704,105.24L102.862,105.19L103.02,105.142L103.18,105.094L103.341,105.048L103.502,105.002L103.665,104.958L103.829,104.914L103.994,104.872L104.16,104.831L104.327,104.79L104.496,104.751L104.665,104.713L104.835,104.676L105.006,104.639L105.178,104.604L105.351,104.57L105.525,104.537L105.7,104.505L105.875,104.474L106.052,104.445L106.23,104.416L106.408,104.388L106.587,104.361L106.768,104.336L106.949,104.311L107.131,104.287L107.313,104.265L107.497,104.244L107.681,104.223L107.866,104.204L108.052,104.186L108.239,104.169L108.426,104.153L108.614,104.138L108.803,104.124L108.993,104.111L109.183,104.1L109.374,104.089L109.566,104.079L109.758,104.071L109.951,104.064L110.144,104.058L110.339,104.053L110.534,104.049L110.729,104.046L110.925,104.044L111.122,104.044L111.32,104.044L111.517,104.046L111.714,104.05L111.911,104.054L112.106,104.06L112.301,104.068L112.496,104.076L112.689,104.086L112.882,104.097L113.074,104.109L113.266,104.123L113.457,104.138L113.647,104.154L113.836,104.172L114.025,104.19L114.212,104.21L114.399,104.231L114.585,104.253L114.771,104.277L114.955,104.301L115.139,104.327L115.322,104.354L115.503,104.382L115.684,104.412L115.864,104.442L116.044,104.474L116.222,104.506L116.399,104.54L116.576,104.575L116.751,104.611L116.926,104.648L117.099,104.687L117.271,104.726L117.443,104.767L117.613,104.808L117.783,104.851L117.951,104.895L118.119,104.939L118.285,104.985L118.45,105.032L118.614,105.08L118.777,105.129L118.939,105.179L119.1,105.23L119.259,105.282L119.418,105.335L119.575,105.389L119.731,105.444L119.886,105.5L120.04,105.557L120.193,105.615L120.344,105.674L120.494,105.734L120.643,105.795L120.791,105.857L120.937,105.92L121.082,105.984L121.226,106.049L121.368,106.115L121.509,106.181L121.649,106.249L121.788,106.318L121.925,106.387L122.061,106.458L122.195,106.529L122.328,106.602L122.46,106.675L122.59,106.75L122.719,106.825L122.846,106.901L122.972,106.978L123.097,107.056L123.22,107.135L123.341,107.215L123.461,107.296L123.58,107.378L123.697,107.461L123.812,107.545L123.926,107.629L124.038,107.715L124.149,107.802L124.258,107.89L124.366,107.978L124.472,108.068L124.576,108.158L124.679,108.25L124.779,108.342L124.879,108.436L124.976,108.531L125.072,108.626L125.166,108.723L125.258,108.821L125.348,108.919L125.436,109.019L125.523,109.12L125.608,109.222L125.69,109.325L125.771,109.429L125.85,109.534L125.927,109.64L126.001,109.748L126.074,109.856L126.144,109.966L126.212,110.076L126.278,110.188L126.342,110.301L126.403,110.415L126.462,110.53L126.519,110.646L126.573,110.763L126.625,110.881L126.674,111L126.721,111.121L126.764,111.242L126.806,111.364L126.844,111.487L126.879,111.612L126.912,111.737L126.942,111.862L126.969,111.989L126.992,112.117L127.013,112.245L127.031,112.373L127.045,112.503L127.057,112.632L127.065,112.763L127.07,112.893L127.071,113.024L127.07,113.159L127.065,113.294L127.057,113.428L127.046,113.561L127.032,113.694L127.015,113.827L126.995,113.959L126.971,114.09L126.945,114.22L126.916,114.35L126.884,114.478L126.849,114.606L126.811,114.733L126.77,114.859L126.727,114.984L126.681,115.107L126.632,115.23L126.581,115.352L126.527,115.472L126.471,115.592L126.412,115.71L126.35,115.827L126.287,115.943L126.221,116.058L126.153,116.171L126.082,116.283L126.009,116.395L125.934,116.504L125.857,116.613L125.778,116.72L125.697,116.827L125.614,116.932L125.529,117.036L125.442,117.138L125.353,117.24L125.262,117.34L125.169,117.439L125.075,117.537L124.979,117.634L124.88,117.729L124.781,117.824L124.679,117.917L124.576,118.009L124.471,118.101L124.364,118.191L124.256,118.279L124.146,118.367L124.035,118.454L123.922,118.539L123.807,118.624L123.691,118.707L123.573,118.79L123.454,118.871L123.334,118.952L123.211,119.031L123.088,119.109L122.963,119.186L122.836,119.262L122.708,119.338L122.579,119.412L122.448,119.485L122.316,119.557L122.182,119.628L122.047,119.698L121.911,119.767L121.774,119.835L121.635,119.902L121.494,119.968L121.353,120.033L121.21,120.097L121.066,120.16L120.921,120.222L120.774,120.283L120.626,120.343L120.477,120.402L120.327,120.46L120.175,120.516L120.023,120.572L119.869,120.627L119.714,120.681L119.557,120.734L119.4,120.786L119.241,120.837L119.082,120.886L118.921,120.935L118.759,120.983L118.596,121.03L118.432,121.075L118.267,121.12L118.101,121.164L117.934,121.206L117.765,121.248L117.596,121.288L117.426,121.327L117.255,121.366L117.082,121.403L116.909,121.439L116.735,121.474L116.56,121.508L116.384,121.541L116.207,121.573L116.029,121.604L115.85,121.634L115.67,121.662L115.49,121.69L115.308,121.716L115.126,121.741L114.943,121.765L114.759,121.788L114.574,121.81L114.388,121.831L114.202,121.851L114.015,121.869L113.827,121.886L113.638,121.902L113.449,121.917L113.258,121.931L113.068,121.944L112.876,121.955L112.684,121.966L112.491,121.975L112.297,121.983L112.103,121.989L111.908,121.995L111.712,121.999L111.516,122.002L111.319,122.004L111.122,122.005ZM111.121,119.054L111.301,119.053L111.479,119.051L111.657,119.049L111.834,119.045L112.01,119.04L112.186,119.034L112.361,119.027L112.535,119.018L112.709,119.009L112.882,118.999L113.054,118.987L113.225,118.975L113.396,118.961L113.566,118.947L113.735,118.931L113.903,118.915L114.07,118.897L114.237,118.878L114.402,118.859L114.567,118.838L114.731,118.817L114.894,118.794L115.056,118.771L115.217,118.746L115.377,118.721L115.536,118.694L115.694,118.667L115.851,118.639L116.007,118.609L116.162,118.579L116.316,118.548L116.469,118.516L116.621,118.483L116.771,118.45L116.921,118.415L117.069,118.38L117.217,118.343L117.363,118.306L117.508,118.268L117.651,118.229L117.794,118.19L117.935,118.149L118.075,118.108L118.214,118.066L118.352,118.023L118.488,117.979L118.623,117.935L118.757,117.89L118.889,117.844L119.02,117.797L119.149,117.75L119.277,117.701L119.404,117.653L119.529,117.603L119.653,117.553L119.776,117.502L119.897,117.45L120.016,117.398L120.134,117.345L120.251,117.292L120.365,117.238L120.479,117.183L120.591,117.128L120.701,117.072L120.809,117.016L120.916,116.959L121.022,116.901L121.126,116.843L121.228,116.785L121.328,116.726L121.427,116.666L121.524,116.606L121.619,116.546L121.713,116.485L121.805,116.424L121.895,116.363L121.983,116.301L122.07,116.239L122.155,116.176L122.238,116.113L122.319,116.05L122.398,115.986L122.476,115.923L122.552,115.859L122.625,115.795L122.698,115.73L122.768,115.666L122.836,115.601L122.903,115.536L122.967,115.471L123.03,115.406L123.091,115.341L123.15,115.276L123.207,115.211L123.262,115.146L123.316,115.08L123.367,115.015L123.417,114.95L123.465,114.885L123.511,114.82L123.555,114.755L123.598,114.69L123.638,114.626L123.677,114.561L123.714,114.496L123.75,114.432L123.783,114.368L123.815,114.304L123.845,114.24L123.874,114.176L123.901,114.112L123.926,114.048L123.95,113.985L123.972,113.921L123.992,113.858L124.011,113.795L124.029,113.731L124.044,113.668L124.059,113.604L124.072,113.541L124.083,113.477L124.093,113.413L124.101,113.349L124.108,113.285L124.113,113.22L124.117,113.155L124.119,113.09L124.12,113.025L124.119,112.967L124.117,112.91L124.114,112.852L124.109,112.795L124.102,112.738L124.094,112.681L124.085,112.623L124.074,112.566L124.062,112.508L124.048,112.45L124.033,112.391L124.016,112.332L123.998,112.273L123.978,112.214L123.956,112.154L123.933,112.094L123.908,112.034L123.882,111.973L123.853,111.912L123.823,111.85L123.792,111.789L123.758,111.726L123.723,111.664L123.686,111.601L123.647,111.538L123.606,111.474L123.563,111.411L123.519,111.347L123.472,111.283L123.424,111.218L123.374,111.154L123.322,111.089L123.268,111.024L123.212,110.959L123.155,110.894L123.095,110.829L123.034,110.763L122.97,110.698L122.905,110.633L122.838,110.568L122.769,110.503L122.698,110.438L122.625,110.373L122.551,110.308L122.474,110.243L122.396,110.179L122.316,110.114L122.234,110.05L122.15,109.986L122.065,109.923L121.977,109.859L121.888,109.796L121.798,109.734L121.705,109.671L121.611,109.609L121.515,109.548L121.417,109.486L121.318,109.426L121.217,109.365L121.114,109.305L121.01,109.246L120.904,109.187L120.797,109.128L120.688,109.07L120.577,109.013L120.465,108.956L120.351,108.899L120.236,108.843L120.119,108.788L120,108.734L119.881,108.68L119.759,108.626L119.637,108.573L119.513,108.521L119.387,108.47L119.26,108.419L119.132,108.369L119.002,108.32L118.871,108.271L118.739,108.223L118.605,108.176L118.47,108.13L118.334,108.084L118.196,108.039L118.057,107.995L117.917,107.952L117.776,107.91L117.634,107.868L117.49,107.827L117.345,107.787L117.199,107.748L117.052,107.71L116.904,107.673L116.754,107.636L116.604,107.601L116.452,107.566L116.3,107.532L116.146,107.5L115.991,107.468L115.835,107.437L115.679,107.407L115.521,107.378L115.362,107.35L115.203,107.323L115.042,107.297L114.88,107.272L114.718,107.248L114.554,107.225L114.39,107.203L114.225,107.182L114.059,107.162L113.892,107.144L113.725,107.126L113.556,107.109L113.387,107.094L113.217,107.079L113.046,107.066L112.875,107.054L112.703,107.043L112.53,107.033L112.356,107.024L112.182,107.016L112.006,107.01L111.831,107.004L111.654,107L111.477,106.997L111.3,106.995L111.121,106.995L110.942,106.995L110.763,106.997L110.585,106.999L110.407,107.003L110.23,107.008L110.053,107.013L109.878,107.02L109.703,107.027L109.528,107.036L109.355,107.046L109.182,107.056L109.01,107.068L108.839,107.08L108.669,107.094L108.499,107.108L108.33,107.124L108.162,107.14L107.995,107.158L107.829,107.176L107.664,107.195L107.5,107.215L107.337,107.236L107.174,107.259L107.013,107.281L106.852,107.305L106.693,107.33L106.534,107.356L106.377,107.383L106.221,107.41L106.065,107.438L105.911,107.468L105.758,107.498L105.606,107.529L105.455,107.561L105.305,107.594L105.157,107.627L105.009,107.662L104.863,107.697L104.718,107.733L104.574,107.77L104.431,107.808L104.29,107.846L104.15,107.886L104.011,107.926L103.874,107.967L103.737,108.008L103.603,108.051L103.469,108.094L103.337,108.138L103.206,108.183L103.077,108.229L102.949,108.275L102.822,108.322L102.697,108.369L102.574,108.418L102.451,108.467L102.331,108.516L102.212,108.567L102.094,108.618L101.978,108.67L101.863,108.722L101.75,108.775L101.639,108.829L101.529,108.883L101.421,108.938L101.315,108.993L101.21,109.049L101.107,109.105L101.005,109.162L100.905,109.22L100.807,109.278L100.711,109.336L100.616,109.395L100.523,109.455L100.432,109.515L100.342,109.575L100.254,109.636L100.169,109.697L100.084,109.759L100.002,109.82L99.9216,109.883L99.8429,109.945L99.766,110.008L99.691,110.071L99.6178,110.135L99.5464,110.199L99.4769,110.263L99.4092,110.327L99.3433,110.391L99.2793,110.456L99.2172,110.521L99.1569,110.586L99.0984,110.651L99.0418,110.716L98.9869,110.782L98.934,110.847L98.8828,110.913L98.8334,110.978L98.7858,111.044L98.74,111.11L98.6959,111.176L98.6537,111.242L98.6131,111.308L98.5742,111.374L98.5371,111.44L98.5017,111.507L98.4679,111.573L98.4358,111.64L98.4053,111.706L98.3764,111.773L98.3492,111.84L98.3235,111.907L98.2994,111.974L98.277,112.041L98.256,112.109L98.2366,112.176L98.2187,112.245L98.2023,112.313L98.1875,112.382L98.1742,112.451L98.1624,112.521L98.1522,112.591L98.1435,112.662L98.1363,112.733L98.1307,112.805L98.1267,112.877L98.1243,112.95L98.1235,113.025L98.1243,113.106L98.1268,113.187L98.131,113.267L98.1369,113.346L98.1443,113.424L98.1534,113.501L98.164,113.577L98.1762,113.653L98.19,113.728L98.2052,113.802L98.2221,113.875L98.2404,113.948L98.2603,114.021L98.2817,114.092L98.3047,114.164L98.3292,114.234L98.3552,114.305L98.3828,114.375L98.412,114.444L98.4427,114.513L98.4751,114.582L98.509,114.651L98.5446,114.719L98.5817,114.787L98.6206,114.855L98.6611,114.922L98.7033,114.989L98.7472,115.056L98.7928,115.123L98.8401,115.19L98.8892,115.256L98.94,115.322L98.9926,115.388L99.047,115.454L99.1031,115.519L99.1611,115.584L99.2209,115.649L99.2824,115.714L99.3458,115.778L99.411,115.842L99.478,115.906L99.5469,115.969L99.6176,116.032L99.69,116.095L99.7644,116.158L99.8406,116.22L99.9186,116.282L99.9983,116.343L100.08,116.404L100.163,116.464L100.249,116.524L100.336,116.584L100.424,116.643L100.515,116.702L100.607,116.76L100.701,116.818L100.797,116.875L100.895,116.932L100.994,116.988L101.095,117.043L101.198,117.098L101.302,117.153L101.408,117.206L101.516,117.259L101.625,117.312L101.736,117.364L101.848,117.415L101.963,117.466L102.078,117.516L102.196,117.565L102.314,117.614L102.435,117.662L102.557,117.709L102.68,117.755L102.805,117.801L102.931,117.846L103.059,117.89L103.188,117.934L103.319,117.977L103.451,118.019L103.584,118.06L103.719,118.101L103.855,118.141L103.993,118.18L104.132,118.218L104.272,118.255L104.413,118.292L104.556,118.328L104.7,118.363L104.845,118.397L104.991,118.43L105.139,118.463L105.288,118.495L105.438,118.526L105.589,118.556L105.741,118.585L105.894,118.613L106.049,118.641L106.205,118.668L106.361,118.693L106.519,118.718L106.678,118.742L106.838,118.766L106.999,118.788L107.16,118.809L107.323,118.83L107.487,118.85L107.652,118.868L107.817,118.886L107.984,118.903L108.151,118.919L108.32,118.935L108.489,118.949L108.659,118.962L108.83,118.975L109.002,118.987L109.174,118.997L109.348,119.007L109.522,119.016L109.697,119.024L109.873,119.031L110.049,119.037L110.226,119.042L110.404,119.046L110.582,119.049L110.761,119.052L110.941,119.053L111.121,119.054Z" style="fill:rgb(35,31,32);"/>
        <path d="M90.7511,112.488C90.7511,112.488 96.6478,110.612 96.6478,113.024" style="fill:rgb(190,214,61);fill-rule:nonzero;"/>
        <path d="M91.1871,113.898L90.315,111.078L90.3869,111.056L90.4771,111.029L90.5952,110.995L90.74,110.953L90.9096,110.907L91.1019,110.855L91.3149,110.801L91.5443,110.745L91.6685,110.716L91.7946,110.687L91.9245,110.658L92.0578,110.63L92.1943,110.601L92.3339,110.574L92.4762,110.546L92.6211,110.52L92.7684,110.494L92.9178,110.47L93.0692,110.446L93.2223,110.425L93.3769,110.404L93.533,110.385L93.6904,110.369L93.8488,110.354L94.0082,110.341L94.1683,110.331L94.3293,110.324L94.4909,110.319L94.6532,110.317L94.8117,110.319L94.8974,110.322L94.9791,110.325L95.0609,110.329L95.143,110.335L95.2253,110.341L95.3077,110.349L95.3903,110.358L95.4732,110.368L95.5563,110.38L95.6395,110.393L95.723,110.407L95.8068,110.424L95.8909,110.442L95.9751,110.462L96.0598,110.484L96.1449,110.508L96.2301,110.534L96.3155,110.563L96.4014,110.594L96.4876,110.628L96.5739,110.665L96.6602,110.705L96.7466,110.749L96.833,110.796L96.919,110.847L97.0046,110.902L97.0895,110.961L97.1735,111.024L97.2562,111.092L97.3371,111.164L97.4161,111.241L97.4928,111.323L97.5665,111.409L97.6369,111.499L97.7037,111.594L97.7662,111.692L97.8243,111.794L97.8776,111.899L97.9257,112.006L97.9686,112.116L98.0063,112.228L98.0385,112.341L98.0653,112.454L98.0869,112.569L98.1033,112.683L98.1147,112.797L98.1215,112.911L98.1231,112.996L95.1751,113.053L95.1819,113.085L95.1875,113.104L95.1946,113.125L95.2032,113.147L95.2134,113.17L95.2251,113.193L95.2379,113.216L95.2517,113.237L95.2664,113.258L95.2813,113.277L95.2961,113.294L95.3107,113.31L95.3371,113.335L95.358,113.351L95.3751,113.362L95.3733,113.361L95.3689,113.359L95.3619,113.356L95.3525,113.353L95.3403,113.348L95.3254,113.343L95.308,113.338L95.2884,113.332L95.2662,113.327L95.2417,113.321L95.2149,113.315L95.1861,113.309L95.1551,113.304L95.122,113.299L95.0872,113.294L95.0504,113.289L95.0119,113.285L94.9717,113.281L94.93,113.278L94.8868,113.275L94.8419,113.273L94.7958,113.271L94.7524,113.27L94.6497,113.269L94.547,113.27L94.4404,113.273L94.3304,113.278L94.2175,113.285L94.1022,113.294L93.9849,113.305L93.8659,113.318L93.7456,113.332L93.6245,113.348L93.5029,113.366L93.3812,113.384L93.2597,113.404L93.1387,113.425L93.0186,113.447L92.8998,113.47L92.7825,113.493L92.667,113.517L92.5536,113.542L92.4428,113.566L92.3348,113.591L92.2317,113.615L92.03,113.664L91.8463,113.711L91.6809,113.755L91.5359,113.795L91.4137,113.83L91.3165,113.858L91.2477,113.879L91.1871,113.898Z" style="fill:rgb(35,31,32);"/>
        <path d="M142.482,101.499C148.379,95.8699 155.884,96.406 161.512,101.499C163.389,103.107 162.317,105.519 160.708,106.859C156.688,109.54 152.935,105.519 148.915,106.859C145.162,107.932 143.554,113.56 142.482,117.581C139.802,127.766 137.925,142.508 146.502,147.601C148.379,148.673 150.791,148.137 151.595,145.993C152.935,142.776 154.812,138.488 152.399,136.343C151.595,135.807 149.987,134.735 149.987,134.199C148.111,129.91 151.863,127.766 154.275,126.962C158.564,125.086 164.997,128.57 162.585,135.271C162.585,135.807 160.976,136.343 160.976,136.879C160.976,140.632 159.904,143.58 159.368,147.333C159.1,150.013 156.956,151.085 155.884,153.23C154.275,154.838 152.399,154.302 150.791,155.374C143.286,159.662 134.441,153.23 133.101,142.24C130.688,127.23 132.297,110.88 142.482,101.499" style="fill:rgb(35,31,32);fill-rule:nonzero;"/>
        <path d="M174.378,131.519C165.801,128.838 174.646,113.828 176.522,116.509C180.811,122.942 180.275,133.395 174.378,131.519M171.698,142.508C173.842,144.116 178.131,144.116 180.007,141.436C184.295,135.271 187.512,128.034 185.636,119.457C184.831,115.705 183.759,111.952 181.615,108.736C178.399,104.179 172.77,102.303 170.894,108.2C169.822,111.148 166.873,114.364 165.533,120.529C163.657,128.838 166.069,137.951 171.698,142.508Z" style="fill:rgb(35,31,32);fill-rule:nonzero;"/>
        <path d="M214.315,142.24C213.511,142.24 212.707,107.395 212.707,103.911C219.14,104.983 223.697,112.488 225.573,119.457C227.181,125.354 224.501,131.519 222.088,136.611C220.748,139.292 217.532,143.044 214.315,142.24M207.614,151.353C211.367,153.23 215.388,151.889 218.604,149.477C229.057,142.508 237.098,124.014 229.057,109.272C225.841,103.643 222.624,99.6224 218.604,95.8699C215.388,93.1896 211.635,92.1174 208.687,92.1174C206.81,91.5814 203.862,92.1174 203.058,95.8699C203.058,96.406 202.79,97.7462 203.058,98.2823C203.594,99.6224 205.202,101.231 205.202,102.571C206.274,115.705 207.346,128.302 207.078,140.9C207.078,142.776 204.934,143.58 204.398,144.92C203.594,147.065 205.738,150.281 207.614,151.353Z" style="fill:rgb(35,31,32);fill-rule:nonzero;"/>
        <path d="M252.376,145.993C251.84,148.137 240.047,145.725 240.047,140.9C240.315,131.519 248.624,133.395 253.449,130.983C255.325,136.611 253.181,140.364 252.376,145.993M253.985,159.126C258.541,163.147 259.077,148.673 259.345,141.972C259.881,131.787 263.902,122.405 260.686,113.292C256.933,103.107 244.603,106.055 238.707,111.416C237.902,112.488 238.707,121.333 241.923,119.725C246.212,117.849 249.428,114.9 254.253,116.241C256.129,116.777 255.593,121.601 254.789,123.21C254.521,123.478 242.995,119.725 236.294,131.787C234.15,135.271 233.346,143.312 235.49,147.065C238.707,154.302 245.407,154.034 251.304,155.374C252.376,155.106 252.376,158.054 253.985,159.126Z" style="fill:rgb(35,31,32);fill-rule:nonzero;"/>
        <path d="M271.139,130.715C270.335,124.014 277.036,120.797 281.324,120.797C281.324,126.962 279.716,132.859 280.52,139.292C276.232,141.168 271.675,136.075 271.139,130.715M262.83,132.323C262.83,140.364 267.922,144.116 271.943,147.601C274.891,150.281 278.108,149.209 281.324,149.209C283.2,149.745 283.2,156.714 286.685,156.178C288.025,156.178 289.901,154.57 289.901,153.498C287.489,135.003 287.221,115.973 291.778,98.8183C292.046,96.674 290.169,95.0658 289.365,94.5298C287.489,93.4576 285.077,95.6019 284.005,98.2823C282.664,102.035 283.469,107.663 281.592,109.808C275.427,116.509 262.83,118.653 262.83,132.323Z" style="fill:rgb(35,31,32);fill-rule:nonzero;"/>
        <path d="M301.695,130.715C300.891,124.014 307.592,120.797 311.88,120.797C311.88,126.962 310.272,132.859 311.076,139.292C306.788,141.168 302.231,136.075 301.695,130.715M293.386,132.323C293.386,140.364 298.479,144.116 302.499,147.601C305.447,150.281 308.664,149.209 311.88,149.209C313.757,149.745 313.757,156.714 317.241,156.178C318.581,156.178 320.457,154.57 320.457,153.498C318.045,135.003 317.777,115.973 322.334,98.8183C322.602,96.674 320.725,95.0658 319.921,94.5298C318.045,93.4576 315.633,95.6019 314.561,98.2823C313.22,102.035 314.025,107.663 312.148,109.808C305.983,116.509 293.386,118.653 293.386,132.323Z" style="fill:rgb(35,31,32);fill-rule:nonzero;"/>
        <path d="M326.086,105.787C327.694,102.571 331.983,102.035 333.323,105.787C335.199,111.148 333.859,117.849 334.663,124.282C335.199,125.89 336.003,124.282 336.271,123.746C338.684,116.777 340.292,108.736 345.117,104.715C347.261,103.107 352.354,104.179 350.477,109.004C346.189,119.725 340.292,130.178 339.488,143.044C338.952,150.817 333.323,173.064 329.303,180.033C326.354,184.858 319.117,185.394 316.973,180.033C315.633,176.817 314.561,171.992 317.509,169.848C319.653,168.239 322.334,170.92 322.87,174.136C328.498,168.239 329.303,156.446 330.643,147.065C331.447,141.168 327.694,136.343 327.426,130.983C326.89,125.086 326.086,119.457 325.818,113.56C325.55,110.612 325.014,107.395 326.086,105.787" style="fill:rgb(35,31,32);fill-rule:nonzero;"/>
        <path d="M370.312,104.983C370.312,106.055 370.044,107.395 369.508,108.2C368.972,109.272 368.168,110.076 367.096,110.612C366.023,111.148 364.951,111.416 363.879,111.416C362.807,111.416 361.467,111.148 360.663,110.612C359.591,110.076 358.786,109.272 358.25,108.2C357.714,107.127 357.446,106.055 357.446,104.983C357.446,103.911 357.714,102.571 358.25,101.767C358.786,100.695 359.591,99.8905 360.663,99.3544C361.735,98.8183 362.807,98.5503 363.879,98.5503C364.951,98.5503 366.291,98.8183 367.096,99.3544C368.168,99.8905 368.972,100.695 369.508,101.767C370.044,102.571 370.312,103.643 370.312,104.983M368.972,104.983C368.972,103.643 368.436,102.303 367.364,101.231C366.291,100.159 364.951,99.6224 363.611,99.6224C362.271,99.6224 360.931,100.159 359.859,101.231C358.786,102.303 358.25,103.643 358.25,104.983C358.25,106.323 358.786,107.663 359.859,108.736C360.931,109.808 362.271,110.344 363.611,110.344C364.951,110.344 366.291,109.808 367.364,108.736C368.436,107.663 368.972,106.323 368.972,104.983ZM360.663,101.231L363.879,101.231C364.683,101.231 365.487,101.499 365.755,101.767C366.291,102.035 366.291,102.571 366.291,103.107C366.291,103.643 366.023,103.911 365.755,104.447C365.487,104.715 364.951,104.983 364.415,105.251C364.683,105.251 364.951,105.519 364.951,105.519C365.219,105.787 365.219,106.055 365.487,106.323C365.487,106.323 365.755,107.127 366.559,108.468L364.415,108.468C363.611,107.127 363.343,106.323 363.075,106.055C362.807,105.787 362.539,105.519 362.271,105.519L362.003,105.519L362.003,108.468L360.127,108.468L360.127,101.231L360.663,101.231ZM362.539,104.447L363.343,104.447C363.879,104.447 364.147,104.447 364.415,104.179C364.683,103.911 364.683,103.911 364.683,103.643C364.683,103.375 364.683,103.107 364.415,103.107C364.147,102.839 363.879,102.839 363.343,102.839L362.539,102.839L362.539,104.447Z" style="fill:rgb(35,31,32);fill-rule:nonzero;"/>
    </g>
</svg>
