<?xml version="1.0" encoding="UTF-8" standalone="no"?>
<svg xmlns:dc="http://purl.org/dc/elements/1.1/" xmlns:cc="http://creativecommons.org/ns#" xmlns:rdf="http://www.w3.org/1999/02/22-rdf-syntax-ns#" xmlns:svg="http://www.w3.org/2000/svg" xmlns="http://www.w3.org/2000/svg" version="1.1" width="422" height="174">
<path d="M 206,1.8 C 219,1.8 256,8.9 256,45.3 256,74.6 242,83.3 231,85.3 223,86.8 254,85.3 254,122 254,174 209,172 209,172 L 134,172 134,1.8 z M 176,43.3 176,69 201,69 C 201,69 211,67.8 211,55.5 211,43.2 201,43.3 201,43.3 z M 176,106 176,132 201,132 C 201,132 211,131 211,118 211,106 201,106 201,106 z M 0,1.8 0,172 47,172 47,109 77,109 77,172 124,172 124,1.8 77,1.8 77,66 47,66 47,1.8 z" id="path3" style="fill-rule:nonzero"/>
<circle cx="335" cy="87" r="65" style="fill:none;stroke:#000;stroke-width:44"/>
<circle cx="335" cy="87" r="35" fill="#000"/>
</svg>