<?xml version="1.0" standalone="no"?>
<!DOCTYPE svg PUBLIC "-//W3C//DTD SVG 1.1//EN" "http://www.w3.org/Graphics/SVG/1.1/DTD/svg11.dtd">
<svg width="100%" height="100%" viewBox="0 0 400 220" version="1.1" xmlns="http://www.w3.org/2000/svg" xmlns:xlink="http://www.w3.org/1999/xlink" xml:space="preserve" style="fill-rule:evenodd;clip-rule:evenodd;stroke-linejoin:round;stroke-miterlimit:1.41421;">
    <g>
        <path id="path3" d="M195.83,41.3955C206.295,41.3955 236.08,47.111 236.08,76.413C236.08,99.9995 224.81,107.003 215.955,108.613C209.515,109.82 234.47,108.613 234.47,138.156C234.47,180.016 198.245,178.406 198.245,178.406L137.87,178.406L137.87,41.3955L195.83,41.3955ZM171.68,74.803L171.68,95.4915L191.805,95.4915C191.805,95.4915 199.855,94.5255 199.855,84.624C199.855,74.7225 191.805,74.803 191.805,74.803L171.68,74.803ZM171.68,125.276L171.68,146.206L191.805,146.206C191.805,146.206 199.855,145.401 199.855,134.936C199.855,125.276 191.805,125.276 191.805,125.276L171.68,125.276ZM30,41.3955L30,178.406L67.835,178.406L67.835,127.691L91.985,127.691L91.985,178.406L129.82,178.406L129.82,41.3955L91.985,41.3955L91.985,93.0765L67.835,93.0765L67.835,41.3955L30,41.3955Z" style="fill:black;fill-rule:nonzero;"/>
        <path d="M299.675,180.017L299.224,180.015L298.774,180.011L298.325,180.004L297.876,179.994L297.428,179.981L296.98,179.965L296.532,179.947L296.086,179.926L295.64,179.902L295.194,179.875L294.75,179.845L294.305,179.813L293.862,179.778L293.419,179.74L292.977,179.699L292.536,179.656L292.095,179.61L291.655,179.561L291.216,179.509L290.778,179.455L290.34,179.398L289.903,179.338L289.467,179.276L289.032,179.211L288.597,179.143L288.163,179.072L287.731,178.999L287.299,178.923L286.867,178.845L286.437,178.764L286.008,178.68L285.58,178.594L285.152,178.505L284.725,178.414L284.299,178.32L283.875,178.223L283.451,178.124L283.028,178.022L282.606,177.918L282.185,177.811L281.766,177.701L281.347,177.589L280.929,177.475L280.512,177.358L280.096,177.238L279.682,177.116L279.268,176.992L278.855,176.865L278.444,176.736L278.033,176.604L277.624,176.47L277.216,176.333L276.809,176.194L276.403,176.052L275.998,175.908L275.595,175.762L275.192,175.613L274.791,175.462L274.391,175.308L273.992,175.153L273.595,174.994L273.198,174.834L272.803,174.671L272.409,174.506L272.016,174.338L271.624,174.168L271.234,173.996L270.846,173.822L270.458,173.645L270.071,173.466L269.686,173.285L269.302,173.101L268.92,172.916L268.539,172.727L268.159,172.537L267.78,172.345L267.403,172.15L267.027,171.953L266.653,171.754L266.28,171.553L265.909,171.35L265.538,171.144L265.169,170.937L264.802,170.727L264.436,170.515L264.071,170.301L263.708,170.085L263.346,169.866L262.986,169.646L262.627,169.423L262.27,169.199L261.914,168.972L261.559,168.744L261.207,168.513L260.855,168.28L260.505,168.045L260.157,167.808L259.81,167.569L259.465,167.328L259.121,167.086L258.779,166.841L258.438,166.594L258.099,166.345L257.762,166.094L257.426,165.841L257.091,165.586L256.758,165.33L256.427,165.071L256.098,164.811L255.77,164.548L255.444,164.284L255.119,164.017L254.796,163.749L254.474,163.479L254.155,163.207L253.837,162.933L253.52,162.657L253.206,162.38L252.892,162.1L252.581,161.819L252.272,161.536L251.964,161.251L251.658,160.964L251.353,160.676L251.05,160.385L250.749,160.093L250.45,159.799L250.153,159.504L249.857,159.206L249.563,158.907L249.271,158.606L248.981,158.303L248.692,157.999L248.405,157.693L248.121,157.385L247.837,157.075L247.556,156.764L247.277,156.451L246.999,156.136L246.723,155.82L246.449,155.501L246.178,155.182L245.908,154.861L245.639,154.538L245.373,154.213L245.109,153.887L244.846,153.559L244.585,153.229L244.327,152.898L244.07,152.565L243.815,152.231L243.563,151.895L243.312,151.557L243.063,151.218L242.816,150.878L242.571,150.535L242.328,150.191L242.087,149.846L241.848,149.499L241.611,149.151L241.376,148.801L241.144,148.45L240.913,148.097L240.684,147.743L240.457,147.387L240.233,147.029L240.01,146.67L239.79,146.31L239.572,145.949L239.356,145.585L239.142,145.221L238.93,144.855L238.72,144.487L238.512,144.119L238.307,143.748L238.103,143.376L237.902,143.004L237.703,142.629L237.506,142.253L237.312,141.876L237.119,141.497L236.929,141.118L236.741,140.737L236.555,140.354L236.372,139.971L236.191,139.585L236.012,139.199L235.835,138.811L235.661,138.422L235.488,138.032L235.318,137.641L235.151,137.248L234.986,136.853L234.823,136.458L234.662,136.062L234.504,135.664L234.348,135.266L234.195,134.866L234.043,134.464L233.895,134.062L233.748,133.658L233.604,133.254L233.463,132.848L233.324,132.44L233.187,132.032L233.053,131.623L232.921,131.213L232.791,130.801L232.664,130.388L232.54,129.975L232.418,129.56L232.299,129.144L232.182,128.728L232.067,128.31L231.955,127.891L231.846,127.471L231.739,127.05L231.635,126.629L231.533,126.206L231.434,125.782L231.337,125.357L231.243,124.931L231.151,124.505L231.063,124.077L230.976,123.649L230.893,123.219L230.812,122.789L230.733,122.358L230.657,121.926L230.584,121.493L230.514,121.059L230.446,120.625L230.381,120.19L230.318,119.754L230.259,119.316L230.202,118.879L230.147,118.441L230.096,118.002L230.047,117.562L230.001,117.121L229.957,116.679L229.917,116.237L229.879,115.794L229.844,115.351L229.811,114.907L229.782,114.463L229.755,114.017L229.731,113.57L229.709,113.124L229.691,112.677L229.675,112.229L229.663,111.78L229.653,111.332L229.646,110.882L229.641,110.432L229.64,109.981L229.641,109.531L229.646,109.081L229.653,108.631L229.663,108.183L229.675,107.734L229.691,107.286L229.709,106.839L229.731,106.393L229.755,105.946L229.782,105.5L229.811,105.056L229.844,104.612L229.879,104.169L229.917,103.726L229.957,103.284L230.001,102.842L230.047,102.401L230.096,101.961L230.147,101.522L230.202,101.084L230.259,100.647L230.318,100.209L230.381,99.7731L230.446,99.3383L230.514,98.9035L230.584,98.4698L230.657,98.0371L230.733,97.6049L230.812,97.1738L230.893,96.7437L230.976,96.3141L231.063,95.8857L231.151,95.4584L231.243,95.0317L231.337,94.6056L231.434,94.1811L231.533,93.7572L231.635,93.3341L231.739,92.9131L231.846,92.4918L231.955,92.0716L232.067,91.6531L232.182,91.2354L232.299,90.8189L232.418,90.4025L232.54,89.988L232.664,89.5747L232.792,89.1616L232.921,88.7503L233.053,88.3399L233.187,87.9306L233.324,87.5227L233.463,87.1152L233.604,86.7094L233.748,86.3049L233.895,85.9014L234.043,85.4991L234.195,85.0972L234.348,84.6971L234.504,84.2991L234.662,83.9008L234.823,83.5045L234.986,83.1095L235.151,82.715L235.318,82.3225L235.488,81.9308L235.661,81.5406L235.835,81.1518L236.012,80.7641L236.191,80.3778L236.372,79.9924L236.555,79.6086L236.741,79.2263L236.929,78.8455L237.119,78.4656L237.312,78.0869L237.506,77.7097L237.703,77.3335L237.902,76.9594L238.103,76.5867L238.307,76.2147L238.512,75.8444L238.72,75.476L238.93,75.1083L239.142,74.7421L239.356,74.3776L239.572,74.0142L239.79,73.6528L240.01,73.2927L240.233,72.9337L240.457,72.5764L240.684,72.2203L240.913,71.8658L241.144,71.5133L241.376,71.1617L241.611,70.8118L241.848,70.4635L242.087,70.1169L242.328,69.7716L242.571,69.4276L242.816,69.0852L243.063,68.7446L243.312,68.4057L243.562,68.0681L243.815,67.7322L244.07,67.3977L244.327,67.0649L244.585,66.7339L244.846,66.4041L245.109,66.0763L245.373,65.7502L245.639,65.4254L245.908,65.102L246.178,64.7809L246.449,64.4614L246.723,64.1431L246.999,63.8267L247.277,63.512L247.556,63.199L247.837,62.8877L248.121,62.5779L248.405,62.2701L248.692,61.9642L248.981,61.6595L249.271,61.3567L249.563,61.056L249.857,60.7569L250.153,60.4591L250.45,60.1635L250.749,59.8697L251.05,59.5775L251.353,59.2872L251.658,58.9986L251.964,58.7119L252.272,58.4267L252.581,58.1439L252.892,57.8627L253.206,57.5831L253.52,57.3057L253.837,57.0298L254.155,56.7558L254.474,56.4841L254.796,56.2141L255.119,55.9458L255.443,55.6795L255.77,55.415L256.098,55.1524L256.427,54.8918L256.758,54.6333L257.091,54.3766L257.426,54.1217L257.762,53.869L258.099,53.6182L258.438,53.3692L258.779,53.1223L259.121,52.8774L259.465,52.6345L259.81,52.3936L260.157,52.1548L260.505,51.9179L260.856,51.6827L261.207,51.4502L261.559,51.2195L261.914,50.9906L262.27,50.7639L262.627,50.5395L262.986,50.317L263.346,50.0966L263.708,49.8783L264.071,49.662L264.436,49.448L264.802,49.236L265.169,49.0263L265.538,48.8186L265.908,48.613L266.28,48.4098L266.653,48.2085L267.027,48.0095L267.403,47.8127L267.78,47.618L268.159,47.4258L268.539,47.2355L268.92,47.0475L269.302,46.8618L269.686,46.6783L270.071,46.4971L270.458,46.318L270.845,46.1413L271.234,45.9669L271.624,45.7948L272.016,45.625L272.409,45.4574L272.803,45.2921L273.198,45.1293L273.594,44.9687L273.992,44.8105L274.391,44.6546L274.791,44.501L275.192,44.35L275.595,44.2013L275.998,44.0548L276.403,43.9108L276.809,43.7693L277.216,43.6301L277.624,43.4935L278.033,43.3592L278.444,43.2273L278.855,43.0979L279.268,42.971L279.682,42.8466L280.096,42.7246L280.512,42.6051L280.929,42.4881L281.347,42.3737L281.765,42.2617L282.185,42.1523L282.606,42.0455L283.028,41.9411L283.451,41.8393L283.875,41.7401L284.299,41.6435L284.725,41.5494L285.152,41.4579L285.579,41.369L286.008,41.2828L286.437,41.1991L286.867,41.118L287.298,41.0396L287.73,40.9638L288.163,40.8908L288.597,40.8203L289.031,40.7525L289.467,40.6874L289.903,40.6249L290.34,40.5652L290.778,40.5082L291.216,40.4538L291.655,40.4022L292.095,40.3533L292.536,40.3072L292.977,40.2638L293.419,40.2231L293.862,40.1852L294.305,40.15L294.75,40.1176L295.194,40.088L295.64,40.0612L296.086,40.0372L296.532,40.016L296.98,39.9976L297.428,39.982L297.876,39.9692L298.325,39.9592L298.774,39.9521L299.224,39.9478L299.675,39.9464L300.126,39.9478L300.576,39.9521L301.025,39.9592L301.474,39.9692L301.922,39.982L302.37,39.9976L302.818,40.016L303.264,40.0372L303.71,40.0612L304.156,40.088L304.6,40.1176L305.045,40.15L305.488,40.1852L305.931,40.2231L306.373,40.2638L306.814,40.3072L307.255,40.3533L307.695,40.4022L308.134,40.4538L308.573,40.5082L309.01,40.5652L309.447,40.6249L309.883,40.6874L310.319,40.7525L310.753,40.8203L311.187,40.8907L311.62,40.9639L312.052,41.0396L312.483,41.118L312.913,41.1991L313.342,41.2828L313.771,41.369L314.198,41.4579L314.625,41.5494L315.051,41.6434L315.475,41.7401L315.899,41.8393L316.322,41.9411L316.744,42.0454L317.165,42.1523L317.585,42.2617L318.003,42.3737L318.421,42.4882L318.838,42.6051L319.254,42.7246L319.668,42.8466L320.082,42.971L320.495,43.0979L320.906,43.2273L321.317,43.3592L321.726,43.4935L322.134,43.6302L322.541,43.7693L322.947,43.9108L323.352,44.0548L323.755,44.2012L324.158,44.35L324.559,44.5011L324.959,44.6546L325.358,44.8105L325.756,44.9687L326.152,45.1293L326.547,45.2921L326.941,45.4573L327.334,45.6249L327.726,45.7948L328.116,45.967L328.505,46.1414L328.892,46.3179L329.279,46.497L329.664,46.6783L330.048,46.8618L330.43,47.0476L330.811,47.2355L331.191,47.4256L331.57,47.6181L331.947,47.8127L332.323,48.0095L332.697,48.2085L333.07,48.4098L333.442,48.6132L333.812,48.8185L334.181,49.0261L334.548,49.236L334.914,49.4481L335.279,49.662L335.642,49.8782L336.004,50.0967L336.364,50.317L336.723,50.5394L337.08,50.7639L337.436,50.9908L337.791,51.2195L338.143,51.45L338.495,51.6829L338.845,51.9179L339.193,52.1546L339.54,52.3936L339.885,52.6345L340.229,52.8774L340.571,53.1224L340.912,53.3694L341.251,53.618L341.588,53.8688L341.925,54.1219L342.259,54.3766L342.591,54.6331L342.923,54.8918L343.252,55.1526L343.58,55.415L343.906,55.6792L344.231,55.9458L344.554,56.2141L344.876,56.4841L345.195,56.7561L345.513,57.0298L345.83,57.3055L346.145,57.5833L346.458,57.8627L346.769,58.1439L347.078,58.427L347.386,58.7119L347.692,58.9986L347.997,59.2869L348.3,59.5775L348.601,59.8697L348.9,60.1635L349.197,60.4591L349.493,60.7566L349.787,61.056L350.079,61.357L350.369,61.6595L350.658,61.9639L350.945,62.2701L351.23,62.5782L351.513,62.8877L351.794,63.199L352.074,63.5123L352.351,63.8267L352.627,64.1431L352.9,64.4611L353.172,64.7809L353.443,65.1024L353.711,65.4254L353.977,65.7498L354.241,66.0763L354.504,66.4045L354.765,66.7339L355.023,67.0649L355.28,67.3977L355.535,67.7322L355.788,68.0681L356.038,68.4053L356.287,68.7446L356.534,69.0856L356.779,69.4276L357.022,69.7712L357.263,70.1165L357.502,70.4635L357.739,70.8122L357.974,71.1617L358.206,71.5129L358.437,71.8662L358.666,72.2207L358.893,72.5764L359.117,72.9333L359.339,73.2923L359.56,73.6524L359.778,74.0146L359.995,74.378L360.208,74.7417L360.42,75.1083L360.63,75.476L360.838,75.8448L361.043,76.2147L361.246,76.5858L361.448,76.9598L361.647,77.3339L361.844,77.7093L362.039,78.0873L362.231,78.4656L362.421,78.845L362.609,79.2263L362.795,79.6086L362.978,79.9929L363.16,80.3783L363.338,80.7636L363.515,81.1509L363.69,81.5411L363.862,81.9313L364.032,82.3225L364.199,82.7155L364.364,83.1095L364.527,83.5045L364.688,83.9003L364.846,84.2981L365.002,84.6976L365.156,85.0982L365.306,85.4986L365.455,85.9009L365.602,86.3049L365.746,86.7099L365.887,87.1157L366.026,87.5222L366.163,87.9306L366.297,88.3399L366.429,88.7498L366.558,89.1616L366.686,89.5753L366.81,89.9885L366.932,90.4025L367.051,90.8184L367.168,91.2349L367.283,91.6531L367.395,92.0721L367.504,92.4918L367.611,92.9121L367.715,93.3341L367.817,93.7578L367.916,94.1811L368.013,94.6061L368.107,95.0317L368.199,95.4579L368.287,95.8857L368.374,96.3141L368.458,96.7442L368.538,97.1738L368.617,97.6049L368.693,98.0376L368.766,98.4698L368.836,98.9035L368.904,99.3378L368.969,99.7725L369.032,100.21L369.091,100.647L369.148,101.084L369.203,101.522L369.254,101.961L369.303,102.402L369.349,102.842L369.393,103.283L369.433,103.726L369.471,104.168L369.506,104.611L369.539,105.056L369.569,105.501L369.595,105.947L369.619,106.393L369.64,106.839L369.659,107.286L369.675,107.734L369.687,108.182L369.697,108.632L369.704,109.081L369.709,109.531L369.71,109.981L369.709,110.432L369.704,110.882L369.697,111.331L369.687,111.781L369.675,112.229L369.659,112.677L369.64,113.124L369.619,113.57L369.595,114.016L369.569,114.462L369.539,114.907L369.506,115.352L369.471,115.795L369.433,116.237L369.393,116.68L369.349,117.121L369.303,117.561L369.254,118.002L369.203,118.441L369.148,118.879L369.091,119.316L369.032,119.753L368.969,120.19L368.904,120.625L368.836,121.059L368.766,121.493L368.693,121.925L368.617,122.358L368.538,122.789L368.458,123.219L368.374,123.649L368.287,124.077L368.199,124.505L368.107,124.931L368.013,125.357L367.916,125.782L367.817,126.205L367.715,126.629L367.611,127.051L367.504,127.471L367.395,127.891L367.283,128.31L367.168,128.728L367.051,129.145L366.932,129.56L366.81,129.974L366.686,130.388L366.559,130.801L366.429,131.213L366.297,131.623L366.163,132.032L366.026,132.441L365.887,132.847L365.746,133.253L365.602,133.658L365.455,134.062L365.306,134.464L365.156,134.865L365.002,135.265L364.846,135.665L364.688,136.063L364.527,136.458L364.364,136.853L364.199,137.247L364.032,137.641L363.862,138.032L363.69,138.422L363.515,138.812L363.338,139.199L363.16,139.585L362.978,139.97L362.795,140.354L362.609,140.737L362.421,141.118L362.231,141.497L362.039,141.876L361.844,142.254L361.647,142.629L361.448,143.003L361.246,143.377L361.043,143.748L360.838,144.118L360.63,144.487L360.42,144.855L360.208,145.221L359.995,145.585L359.778,145.948L359.56,146.311L359.339,146.671L359.117,147.03L358.893,147.387L358.666,147.742L358.437,148.097L358.206,148.45L357.974,148.801L357.739,149.151L357.502,149.499L357.263,149.847L357.022,150.192L356.779,150.535L356.534,150.877L356.287,151.218L356.038,151.558L355.787,151.895L355.535,152.231L355.28,152.565L355.023,152.898L354.765,153.229L354.504,153.558L354.241,153.887L353.977,154.213L353.711,154.538L353.443,154.861L353.172,155.182L352.9,155.502L352.627,155.82L352.351,156.136L352.074,156.451L351.794,156.764L351.513,157.075L351.23,157.385L350.945,157.693L350.658,157.999L350.369,158.303L350.079,158.606L349.787,158.907L349.493,159.206L349.197,159.504L348.9,159.799L348.601,160.093L348.3,160.385L347.997,160.676L347.692,160.964L347.386,161.251L347.078,161.536L346.769,161.819L346.458,162.1L346.145,162.38L345.83,162.658L345.513,162.933L345.195,163.207L344.876,163.479L344.554,163.749L344.231,164.017L343.906,164.284L343.58,164.548L343.252,164.81L342.923,165.071L342.591,165.33L342.259,165.586L341.925,165.841L341.588,166.094L341.251,166.345L340.912,166.594L340.571,166.84L340.229,167.086L339.885,167.328L339.54,167.569L339.193,167.808L338.845,168.045L338.495,168.28L338.143,168.513L337.791,168.744L337.436,168.972L337.08,169.199L336.723,169.424L336.364,169.646L336.004,169.866L335.642,170.085L335.279,170.301L334.914,170.515L334.548,170.727L334.181,170.937L333.812,171.145L333.442,171.35L333.07,171.553L332.697,171.754L332.323,171.953L331.947,172.15L331.57,172.345L331.191,172.537L330.811,172.727L330.43,172.915L330.048,173.101L329.664,173.285L329.279,173.466L328.892,173.645L328.505,173.822L328.116,173.996L327.726,174.168L327.334,174.338L326.941,174.506L326.547,174.671L326.152,174.834L325.755,174.994L325.358,175.153L324.959,175.308L324.559,175.462L324.158,175.613L323.755,175.762L323.352,175.908L322.947,176.052L322.541,176.194L322.134,176.333L321.726,176.47L321.317,176.604L320.906,176.736L320.495,176.865L320.082,176.992L319.668,177.116L319.254,177.238L318.838,177.358L318.421,177.475L318.003,177.589L317.584,177.701L317.165,177.811L316.744,177.918L316.322,178.022L315.899,178.124L315.475,178.223L315.051,178.32L314.625,178.414L314.198,178.505L313.77,178.594L313.342,178.68L312.913,178.764L312.483,178.845L312.051,178.923L311.619,178.999L311.187,179.072L310.753,179.143L310.318,179.211L309.883,179.276L309.447,179.338L309.01,179.398L308.573,179.455L308.134,179.509L307.695,179.561L307.255,179.61L306.814,179.656L306.373,179.699L305.931,179.74L305.488,179.778L305.044,179.813L304.6,179.845L304.156,179.875L303.71,179.902L303.264,179.926L302.818,179.947L302.37,179.965L301.922,179.981L301.474,179.994L301.025,180.004L300.576,180.011L300.126,180.015L299.675,180.017ZM299.675,144.596L299.901,144.596L300.127,144.594L300.352,144.59L300.577,144.585L300.801,144.579L301.025,144.571L301.248,144.562L301.471,144.551L301.693,144.539L301.915,144.526L302.136,144.511L302.357,144.495L302.578,144.477L302.797,144.459L303.017,144.438L303.235,144.417L303.454,144.394L303.672,144.37L303.889,144.344L304.106,144.317L304.322,144.289L304.538,144.26L304.754,144.229L304.969,144.197L305.183,144.163L305.397,144.129L305.61,144.092L305.823,144.055L306.036,144.016L306.247,143.977L306.459,143.935L306.67,143.893L306.88,143.849L307.09,143.804L307.3,143.758L307.509,143.71L307.717,143.662L307.925,143.611L308.132,143.56L308.339,143.508L308.545,143.454L308.751,143.399L308.956,143.343L309.161,143.285L309.366,143.226L309.569,143.167L309.772,143.105L309.975,143.043L310.177,142.98L310.379,142.915L310.58,142.849L310.78,142.782L310.98,142.713L311.18,142.644L311.379,142.573L311.577,142.501L311.775,142.428L311.972,142.354L312.168,142.278L312.365,142.202L312.56,142.124L312.755,142.045L312.95,141.965L313.143,141.883L313.337,141.801L313.529,141.717L313.721,141.633L313.913,141.547L314.104,141.46L314.294,141.372L314.483,141.283L314.672,141.192L314.861,141.101L315.049,141.008L315.236,140.914L315.422,140.82L315.608,140.724L315.794,140.626L315.978,140.528L316.162,140.429L316.346,140.329L316.529,140.227L316.711,140.125L316.892,140.021L317.073,139.917L317.253,139.811L317.432,139.704L317.611,139.596L317.789,139.487L317.967,139.377L318.143,139.266L318.319,139.154L318.494,139.041L318.669,138.927L318.843,138.811L319.016,138.695L319.189,138.578L319.36,138.46L319.531,138.34L319.702,138.22L319.871,138.099L320.04,137.976L320.208,137.853L320.376,137.729L320.542,137.604L320.707,137.477L320.873,137.35L321.037,137.221L321.2,137.092L321.363,136.962L321.525,136.831L321.686,136.699L321.846,136.566L322.006,136.432L322.164,136.297L322.322,136.161L322.48,136.024L322.635,135.886L322.791,135.747L322.945,135.608L323.099,135.467L323.252,135.326L323.404,135.183L323.555,135.04L323.706,134.896L323.855,134.751L324.004,134.605L324.152,134.458L324.298,134.31L324.444,134.162L324.589,134.012L324.734,133.862L324.877,133.711L325.019,133.559L325.161,133.406L325.301,133.252L325.441,133.097L325.579,132.942L325.717,132.786L325.854,132.629L325.99,132.471L326.125,132.312L326.259,132.153L326.392,131.993L326.525,131.831L326.656,131.669L326.786,131.507L326.915,131.343L327.043,131.179L327.171,131.014L327.297,130.848L327.422,130.682L327.547,130.514L327.67,130.346L327.792,130.178L327.914,130.008L328.034,129.838L328.153,129.667L328.271,129.495L328.389,129.323L328.505,129.149L328.62,128.975L328.734,128.801L328.847,128.626L328.959,128.45L329.071,128.273L329.181,128.095L329.29,127.917L329.397,127.739L329.504,127.56L329.61,127.379L329.715,127.199L329.818,127.017L329.921,126.835L330.022,126.652L330.123,126.468L330.222,126.285L330.32,126.1L330.417,125.914L330.513,125.729L330.608,125.543L330.702,125.355L330.794,125.167L330.886,124.979L330.976,124.79L331.065,124.601L331.154,124.409L331.241,124.218L331.326,124.028L331.411,123.836L331.495,123.643L331.577,123.45L331.658,123.256L331.738,123.062L331.818,122.866L331.895,122.671L331.972,122.475L332.047,122.279L332.122,122.081L332.195,121.883L332.266,121.685L332.337,121.487L332.407,121.287L332.475,121.087L332.542,120.886L332.608,120.685L332.673,120.483L332.737,120.281L332.799,120.08L332.86,119.876L332.92,119.672L332.979,119.468L333.036,119.263L333.092,119.058L333.147,118.852L333.201,118.645L333.254,118.438L333.305,118.231L333.355,118.024L333.404,117.815L333.451,117.606L333.498,117.397L333.543,117.186L333.586,116.976L333.629,116.765L333.67,116.555L333.71,116.342L333.749,116.13L333.786,115.918L333.822,115.703L333.857,115.49L333.89,115.275L333.922,115.059L333.953,114.845L333.983,114.629L334.011,114.412L334.038,114.196L334.063,113.978L334.087,113.761L334.11,113.542L334.132,113.323L334.152,113.104L334.171,112.884L334.188,112.663L334.204,112.443L334.219,112.222L334.233,112.001L334.245,111.778L334.255,111.555L334.264,111.331L334.272,111.107L334.279,110.883L334.283,110.659L334.287,110.434L334.289,110.207L334.29,109.981L334.289,109.756L334.287,109.529L334.283,109.304L334.279,109.08L334.272,108.856L334.264,108.632L334.255,108.408L334.245,108.185L334.233,107.962L334.219,107.741L334.204,107.52L334.188,107.3L334.171,107.079L334.152,106.859L334.132,106.64L334.11,106.421L334.087,106.202L334.063,105.985L334.038,105.767L334.011,105.551L333.983,105.334L333.953,105.118L333.922,104.904L333.89,104.688L333.857,104.473L333.822,104.26L333.786,104.045L333.749,103.833L333.71,103.621L333.67,103.408L333.629,103.198L333.586,102.987L333.543,102.777L333.498,102.566L333.451,102.357L333.404,102.148L333.355,101.939L333.305,101.732L333.254,101.525L333.201,101.318L333.147,101.111L333.092,100.905L333.036,100.7L332.979,100.495L332.92,100.291L332.86,100.087L332.799,99.8833L332.737,99.6817L332.673,99.4799L332.608,99.2778L332.542,99.0767L332.475,98.8765L332.407,98.676L332.337,98.4765L332.266,98.2778L332.195,98.0799L332.122,97.882L332.047,97.684L331.972,97.4878L331.895,97.2924L331.818,97.0969L331.738,96.9014L331.658,96.7067L331.577,96.513L331.495,96.32L331.411,96.1271L331.326,95.935L331.241,95.7448L331.154,95.5535L331.065,95.3622L330.976,95.1728L330.886,94.9843L330.794,94.7957L330.702,94.608L330.608,94.4203L330.513,94.2336L330.417,94.0486L330.32,93.8628L330.222,93.6779L330.123,93.4947L330.022,93.3108L329.921,93.1277L329.818,92.9456L329.715,92.7645L329.61,92.5842L329.504,92.4032L329.397,92.224L329.29,92.0458L329.181,91.8675L329.071,91.6903L328.959,91.5132L328.847,91.337L328.734,91.1618L328.62,90.9876L328.505,90.8135L328.389,90.64L328.271,90.4678L328.153,90.2963L328.034,90.1253L327.914,89.9548L327.792,89.7851L327.67,89.6166L327.547,89.4488L327.422,89.2812L327.297,89.1146L327.171,88.9489L327.043,88.7839L326.915,88.6195L326.786,88.4559L326.656,88.2936L326.525,88.1318L326.392,87.9705L326.259,87.8102L326.125,87.6508L325.99,87.4922L325.854,87.3342L325.717,87.1772L325.579,87.0207L325.441,86.8655L325.301,86.711L325.161,86.5572L325.019,86.4045L324.877,86.2525L324.734,86.1012L324.589,85.9507L324.444,85.8012L324.298,85.6528L324.152,85.5051L324.004,85.3582L323.855,85.2122L323.706,85.0671L323.556,84.9232L323.404,84.7797L323.252,84.6373L323.099,84.4958L322.945,84.3553L322.791,84.2156L322.635,84.0768L322.479,83.9393L322.322,83.8024L322.164,83.6663L322.006,83.5313L321.846,83.3971L321.686,83.2642L321.525,83.1323L321.363,83.0009L321.2,82.8706L321.037,82.7415L320.873,82.6134L320.707,82.4858L320.542,82.3595L320.376,82.2344L320.208,82.1101L320.04,81.9865L319.871,81.8642L319.702,81.743L319.531,81.6226L319.36,81.5033L319.189,81.3851L319.016,81.2677L318.843,81.1516L318.669,81.0365L318.494,80.9221L318.319,80.8089L318.143,80.697L317.967,80.586L317.789,80.4758L317.611,80.3668L317.432,80.2592L317.253,80.1523L317.073,80.0464L316.892,79.9419L316.711,79.8384L316.529,79.7359L316.346,79.6342L316.162,79.5339L315.978,79.4347L315.794,79.3365L315.608,79.2395L315.422,79.1435L315.236,79.0487L315.049,78.9549L314.861,78.8623L314.672,78.7709L314.483,78.6804L314.294,78.5912L314.104,78.5032L313.913,78.416L313.721,78.3302L313.529,78.2455L313.337,78.162L313.143,78.0796L312.95,77.9983L312.755,77.9181L312.56,77.8392L312.365,77.7614L312.168,77.6847L311.972,77.6093L311.775,77.535L311.577,77.4619L311.379,77.39L311.18,77.3193L310.98,77.2498L310.78,77.1813L310.58,77.1142L310.379,77.0482L310.177,76.9834L309.975,76.9199L309.772,76.8576L309.569,76.7964L309.365,76.7365L309.161,76.6778L308.956,76.6203L308.751,76.5641L308.545,76.5091L308.339,76.4554L308.132,76.4028L307.925,76.3515L307.717,76.3015L307.509,76.2527L307.3,76.2051L307.09,76.1588L306.88,76.1139L306.67,76.0701L306.459,76.0276L306.247,75.9864L306.036,75.9465L305.823,75.9079L305.61,75.8705L305.397,75.8345L305.183,75.7997L304.969,75.7663L304.754,75.7342L304.538,75.7033L304.322,75.6738L304.106,75.6456L303.889,75.6187L303.672,75.5932L303.454,75.569L303.235,75.5461L303.017,75.5246L302.798,75.5044L302.578,75.4856L302.357,75.4681L302.137,75.452L301.915,75.4373L301.693,75.4239L301.471,75.412L301.248,75.4014L301.025,75.3922L300.801,75.3844L300.577,75.378L300.352,75.373L300.127,75.3694L299.901,75.3673L299.675,75.3666L299.449,75.3673L299.223,75.3694L298.998,75.373L298.773,75.378L298.549,75.3844L298.325,75.3922L298.102,75.4014L297.879,75.412L297.657,75.4239L297.435,75.4373L297.213,75.452L296.993,75.4681L296.772,75.4856L296.552,75.5044L296.333,75.5246L296.114,75.5461L295.896,75.569L295.678,75.5932L295.461,75.6187L295.244,75.6456L295.028,75.6738L294.812,75.7033L294.596,75.7342L294.381,75.7663L294.167,75.7997L293.953,75.8345L293.74,75.8706L293.527,75.9079L293.314,75.9465L293.102,75.9864L292.891,76.0276L292.68,76.0701L292.47,76.1139L292.26,76.1588L292.051,76.2051L291.842,76.2527L291.633,76.3015L291.425,76.3515L291.218,76.4028L291.011,76.4553L290.805,76.5091L290.599,76.5641L290.393,76.6204L290.189,76.6778L289.985,76.7365L289.781,76.7964L289.578,76.8576L289.375,76.9199L289.173,76.9834L288.971,77.0482L288.77,77.1142L288.57,77.1814L288.37,77.2497L288.17,77.3193L287.971,77.39L287.773,77.4619L287.575,77.535L287.378,77.6094L287.181,77.6848L286.985,77.7614L286.79,77.8392L286.595,77.9181L286.4,77.9983L286.207,78.0795L286.014,78.1619L285.821,78.2455L285.629,78.3303L285.437,78.4161L285.246,78.5031L285.056,78.5911L284.867,78.6804L284.678,78.7709L284.489,78.8624L284.301,78.9549L284.114,79.0486L283.927,79.1436L283.742,79.2395L283.556,79.3365L283.372,79.4347L283.188,79.5339L283.004,79.6344L282.822,79.7357L282.639,79.8382L282.458,79.9419L282.277,80.0466L282.097,80.1523L281.918,80.259L281.739,80.367L281.561,80.4758L281.384,80.5858L281.207,80.697L281.031,80.8091L280.856,80.9221L280.681,81.0363L280.507,81.1517L280.334,81.2677L280.162,81.3849L279.99,81.5033L279.819,81.6226L279.648,81.743L279.479,81.8644L279.31,81.9867L279.142,82.1099L278.975,82.2342L278.808,82.3597L278.643,82.4858L278.477,82.6131L278.313,82.7415L278.15,82.8708L277.987,83.0009L277.825,83.132L277.664,83.2642L277.504,83.3971L277.344,83.5313L277.185,83.6665L277.028,83.8024L276.871,83.939L276.714,84.077L276.559,84.2156L276.405,84.3553L276.251,84.4961L276.098,84.6373L275.946,84.7797L275.795,84.9229L275.644,85.0671L275.495,85.2122L275.346,85.3582L275.198,85.5051L275.052,85.6525L274.906,85.8012L274.761,85.951L274.616,86.1012L274.473,86.2522L274.331,86.4045L274.189,86.5575L274.049,86.711L273.909,86.8655L273.77,87.021L273.633,87.1772L273.496,87.3342L273.36,87.4918L273.225,87.6508L273.091,87.8105L272.958,87.9705L272.826,88.1315L272.694,88.2936L272.564,88.4563L272.435,88.6195L272.307,88.7839L272.179,88.9489L272.053,89.1146L271.928,89.2812L271.803,89.4484L271.68,89.6166L271.558,89.7854L271.436,89.9548L271.316,90.1249L271.197,90.2959L271.079,90.4678L270.961,90.6404L270.845,90.8135L270.73,90.9872L270.615,91.1622L270.502,91.3374L270.39,91.5132L270.279,91.6899L270.17,91.8671L270.061,92.0453L269.952,92.2245L269.846,92.4037L269.74,92.5838L269.635,92.7645L269.532,92.9456L269.429,93.1282L269.328,93.3108L269.228,93.4939L269.128,93.6783L269.03,93.8632L268.933,94.0481L268.837,94.234L268.742,94.4203L268.649,94.6075L268.556,94.7957L268.464,94.9843L268.374,95.1733L268.285,95.3627L268.197,95.5531L268.11,95.7439L268.024,95.9355L267.939,96.1275L267.855,96.32L267.773,96.5135L267.692,96.7067L267.612,96.9014L267.533,97.0964L267.455,97.2914L267.378,97.4883L267.303,97.685L267.229,97.8815L267.155,98.0794L267.084,98.2778L267.013,98.477L266.943,98.6765L266.875,98.876L266.808,99.0767L266.742,99.2778L266.677,99.4794L266.613,99.6817L266.551,99.8838L266.49,100.087L266.43,100.291L266.371,100.495L266.314,100.7L266.258,100.905L266.203,101.112L266.149,101.318L266.096,101.524L266.045,101.732L265.995,101.94L265.946,102.148L265.899,102.357L265.852,102.566L265.807,102.776L265.764,102.987L265.721,103.198L265.68,103.409L265.64,103.621L265.601,103.833L265.564,104.046L265.528,104.26L265.493,104.473L265.46,104.688L265.428,104.903L265.397,105.118L265.367,105.334L265.339,105.551L265.312,105.767L265.287,105.985L265.262,106.203L265.24,106.421L265.218,106.64L265.198,106.859L265.179,107.079L265.162,107.299L265.146,107.52L265.131,107.742L265.117,107.963L265.105,108.185L265.095,108.408L265.086,108.632L265.078,108.855L265.072,109.079L265.067,109.304L265.063,109.53L265.061,109.755L265.06,109.981L265.061,110.208L265.063,110.433L265.067,110.659L265.072,110.884L265.078,111.108L265.086,111.331L265.095,111.555L265.105,111.778L265.117,112L265.131,112.221L265.146,112.443L265.162,112.664L265.179,112.884L265.198,113.104L265.218,113.323L265.24,113.542L265.262,113.76L265.287,113.978L265.312,114.196L265.339,114.412L265.367,114.629L265.397,114.845L265.428,115.06L265.46,115.276L265.493,115.49L265.528,115.703L265.564,115.917L265.601,116.13L265.64,116.342L265.68,116.554L265.721,116.765L265.764,116.976L265.807,117.187L265.852,117.397L265.899,117.606L265.946,117.815L265.995,118.023L266.045,118.231L266.096,118.439L266.149,118.645L266.203,118.851L266.258,119.058L266.314,119.263L266.371,119.468L266.43,119.672L266.49,119.876L266.551,120.079L266.613,120.281L266.677,120.484L266.742,120.685L266.808,120.886L266.875,121.087L266.943,121.286L267.013,121.486L267.084,121.685L267.155,121.884L267.229,122.082L267.303,122.278L267.378,122.475L267.455,122.672L267.533,122.867L267.612,123.062L267.692,123.256L267.773,123.45L267.855,123.643L267.939,123.835L268.024,124.027L268.11,124.219L268.197,124.41L268.285,124.6L268.374,124.79L268.464,124.979L268.556,125.167L268.649,125.355L268.742,125.543L268.837,125.729L268.933,125.915L269.03,126.1L269.128,126.285L269.228,126.469L269.328,126.652L269.429,126.835L269.532,127.017L269.635,127.199L269.74,127.379L269.846,127.559L269.952,127.739L270.061,127.918L270.17,128.096L270.279,128.273L270.39,128.45L270.502,128.626L270.615,128.801L270.73,128.976L270.845,129.149L270.961,129.323L271.079,129.495L271.197,129.667L271.316,129.838L271.436,130.008L271.558,130.178L271.68,130.346L271.803,130.515L271.928,130.682L272.053,130.848L272.179,131.014L272.307,131.179L272.435,131.343L272.564,131.507L272.694,131.669L272.826,131.832L272.958,131.993L273.091,132.152L273.225,132.312L273.36,132.471L273.496,132.629L273.633,132.786L273.77,132.942L273.909,133.097L274.049,133.252L274.189,133.406L274.331,133.559L274.473,133.711L274.616,133.862L274.761,134.012L274.906,134.162L275.052,134.31L275.198,134.458L275.346,134.605L275.495,134.751L275.644,134.896L275.795,135.04L275.946,135.183L276.098,135.326L276.251,135.467L276.405,135.608L276.559,135.747L276.714,135.886L276.871,136.024L277.028,136.161L277.185,136.297L277.344,136.432L277.504,136.566L277.664,136.699L277.825,136.831L277.987,136.962L278.15,137.092L278.313,137.221L278.477,137.35L278.643,137.477L278.808,137.603L278.975,137.729L279.142,137.853L279.31,137.976L279.479,138.099L279.648,138.22L279.819,138.34L279.99,138.46L280.161,138.578L280.334,138.695L280.507,138.811L280.681,138.927L280.856,139.041L281.031,139.154L281.207,139.266L281.384,139.377L281.561,139.487L281.739,139.596L281.918,139.704L282.097,139.811L282.277,139.916L282.458,140.021L282.64,140.125L282.822,140.227L283.004,140.329L283.188,140.429L283.372,140.528L283.556,140.626L283.742,140.724L283.928,140.819L284.114,140.914L284.301,141.008L284.489,141.101L284.678,141.192L284.867,141.283L285.057,141.372L285.246,141.46L285.437,141.547L285.629,141.633L285.821,141.717L286.014,141.801L286.207,141.883L286.4,141.965L286.595,142.045L286.79,142.124L286.985,142.202L287.181,142.278L287.378,142.354L287.575,142.428L287.773,142.501L287.971,142.573L288.17,142.644L288.37,142.713L288.57,142.782L288.77,142.849L288.971,142.915L289.173,142.98L289.375,143.043L289.578,143.105L289.781,143.167L289.984,143.226L290.189,143.285L290.394,143.343L290.599,143.399L290.805,143.454L291.011,143.508L291.218,143.56L291.425,143.611L291.633,143.662L291.842,143.71L292.051,143.758L292.26,143.804L292.469,143.849L292.68,143.893L292.891,143.935L293.103,143.977L293.314,144.016L293.527,144.055L293.739,144.092L293.953,144.129L294.167,144.163L294.381,144.197L294.596,144.229L294.812,144.26L295.027,144.289L295.244,144.317L295.461,144.344L295.678,144.37L295.896,144.394L296.114,144.417L296.333,144.438L296.553,144.459L296.772,144.477L296.993,144.495L297.214,144.511L297.435,144.526L297.657,144.539L297.879,144.551L298.102,144.562L298.325,144.571L298.549,144.579L298.773,144.585L298.998,144.59L299.223,144.594L299.449,144.596L299.675,144.596Z" style="fill:black;"/>
        <circle cx="299.675" cy="109.981" r="28.175" style="fill:black;"/>
    </g>
</svg>
