<?xml version="1.0" standalone="no"?>
<!DOCTYPE svg PUBLIC "-//W3C//DTD SVG 1.1//EN" "http://www.w3.org/Graphics/SVG/1.1/DTD/svg11.dtd">
<svg width="100%" height="100%" viewBox="0 0 400 220" version="1.1" xmlns="http://www.w3.org/2000/svg" xmlns:xlink="http://www.w3.org/1999/xlink" xml:space="preserve" style="fill-rule:evenodd;clip-rule:evenodd;stroke-linejoin:round;stroke-miterlimit:1.41421;">
    <path d="M358.623,76.6004L358.623,90.5764L368.529,90.5764L368.529,93.827L358.623,93.827L358.623,121.405C358.623,124.159 359.016,126.017 359.803,126.971C360.59,127.932 361.603,128.416 362.834,128.416C363.854,128.416 364.84,128.1 365.795,127.461C366.756,126.829 367.497,125.894 368.02,124.656L369.826,124.656C368.742,127.687 367.22,129.97 365.24,131.498C363.267,133.034 361.229,133.801 359.132,133.801C357.707,133.801 356.321,133.407 354.966,132.614C353.605,131.827 352.606,130.699 351.954,129.228C351.309,127.758 350.98,125.488 350.98,122.424L350.98,93.827L344.266,93.827L344.266,92.292C345.969,91.6148 347.704,90.4603 349.478,88.8351C351.251,87.2098 352.838,85.2814 354.225,83.0563C354.934,81.8761 355.921,79.7284 357.185,76.6004L358.623,76.6004ZM336.862,89.3188L336.862,103.804L335.334,103.804C334.16,99.2574 332.657,96.1617 330.819,94.5235C328.981,92.8789 326.646,92.0598 323.809,92.0598C321.648,92.0598 319.9,92.6338 318.572,93.7818C317.243,94.9234 316.585,96.1939 316.585,97.587C316.585,99.3219 317.075,100.805 318.062,102.044C319.023,103.314 320.964,104.656 323.899,106.081L330.658,109.377C336.92,112.447 340.055,116.484 340.055,121.495C340.055,125.365 338.597,128.487 335.682,130.853C332.767,133.22 329.497,134.401 325.885,134.401C323.293,134.401 320.332,133.936 316.998,133.008C315.979,132.698 315.147,132.543 314.502,132.543C313.792,132.543 313.231,132.95 312.832,133.756L311.303,133.756L311.303,118.574L312.832,118.574C313.696,122.901 315.347,126.171 317.785,128.371C320.223,130.563 322.957,131.666 325.982,131.666C328.111,131.666 329.845,131.034 331.187,129.783C332.535,128.532 333.206,127.022 333.206,125.256C333.206,123.12 332.457,121.327 330.955,119.87C329.465,118.419 326.479,116.574 321.996,114.349C317.527,112.118 314.592,110.106 313.205,108.313C311.819,106.545 311.122,104.32 311.122,101.624C311.122,98.1288 312.316,95.2007 314.709,92.8531C317.101,90.499 320.197,89.3188 323.989,89.3188C325.66,89.3188 327.678,89.6799 330.052,90.3894C331.632,90.8538 332.677,91.0859 333.206,91.0859C333.695,91.0859 334.083,90.9763 334.36,90.7635C334.637,90.5442 334.966,90.0669 335.334,89.3188L336.862,89.3188ZM297.785,89.3188L297.785,123.495C297.785,126.152 297.978,127.926 298.365,128.809C298.752,129.693 299.32,130.351 300.075,130.782C300.836,131.215 302.216,131.434 304.221,131.434L304.221,133.104L283.622,133.104L283.622,131.434C285.686,131.434 287.079,131.228 287.788,130.828C288.498,130.428 289.058,129.757 289.478,128.828C289.897,127.906 290.103,126.126 290.103,123.495L290.103,107.106C290.103,102.489 289.962,99.5025 289.684,98.1417C289.471,97.1549 289.13,96.4648 288.665,96.0778C288.201,95.6909 287.569,95.4974 286.769,95.4974C285.905,95.4974 284.854,95.7296 283.622,96.1939L282.97,94.5235L295.747,89.3188L297.785,89.3188ZM293.941,67.0809C295.237,67.0809 296.347,67.5388 297.256,68.4547C298.166,69.364 298.617,70.4733 298.617,71.7697C298.617,73.0725 298.166,74.1882 297.256,75.117C296.347,76.0457 295.237,76.5101 293.941,76.5101C292.645,76.5101 291.535,76.0457 290.613,75.117C289.684,74.1882 289.22,73.0725 289.22,71.7697C289.22,70.4733 289.678,69.364 290.587,68.4547C291.496,67.5388 292.619,67.0809 293.941,67.0809ZM271.445,67.0809L271.445,123.495C271.445,126.152 271.639,127.919 272.019,128.783C272.406,129.654 272.999,130.312 273.805,130.757C274.605,131.208 276.102,131.434 278.295,131.434L278.295,133.104L257.508,133.104L257.508,131.434C259.449,131.434 260.778,131.228 261.493,130.828C262.196,130.428 262.751,129.757 263.158,128.828C263.557,127.906 263.757,126.126 263.757,123.495L263.757,84.8622C263.757,80.0702 263.648,77.1163 263.435,76.0199C263.216,74.9235 262.874,74.1689 262.39,73.7691C261.913,73.3691 261.307,73.1628 260.565,73.1628C259.758,73.1628 258.746,73.4143 257.508,73.9045L256.721,72.2792L269.362,67.0809L271.445,67.0809ZM247.414,89.3188L247.414,103.804L245.886,103.804C244.718,99.2574 243.209,96.1617 241.371,94.5235C239.533,92.8789 237.198,92.0598 234.361,92.0598C232.2,92.0598 230.459,92.6338 229.13,93.7818C227.801,94.9234 227.137,96.1939 227.137,97.587C227.137,99.3219 227.634,100.805 228.621,102.044C229.575,103.314 231.523,104.656 234.451,106.081L241.21,109.377C247.479,112.447 250.613,116.484 250.613,121.495C250.613,125.365 249.149,128.487 246.234,130.853C243.319,133.22 240.056,134.401 236.444,134.401C233.851,134.401 230.891,133.936 227.556,133.008C226.537,132.698 225.699,132.543 225.054,132.543C224.344,132.543 223.79,132.95 223.383,133.756L221.861,133.756L221.861,118.574L223.383,118.574C224.254,122.901 225.905,126.171 228.343,128.371C230.781,130.563 233.509,131.666 236.534,131.666C238.662,131.666 240.404,131.034 241.745,129.783C243.086,128.532 243.757,127.022 243.757,125.256C243.757,123.12 243.009,121.327 241.513,119.87C240.017,118.419 237.031,116.574 232.555,114.349C228.079,112.118 225.144,110.106 223.757,108.313C222.371,106.545 221.674,104.32 221.674,101.624C221.674,98.1288 222.874,95.2007 225.26,92.8531C227.653,90.499 230.749,89.3188 234.541,89.3188C236.212,89.3188 238.23,89.6799 240.61,90.3894C242.184,90.8538 243.235,91.0859 243.757,91.0859C244.254,91.0859 244.641,90.9763 244.918,90.7635C245.196,90.5442 245.518,90.0669 245.886,89.3188L247.414,89.3188ZM183.48,133.104C182.029,134.678 180.933,136.149 180.191,137.516C179.45,138.877 179.082,140.128 179.082,141.276C179.082,142.759 179.978,144.062 181.765,145.172C184.854,147.093 189.311,148.054 195.147,148.054C200.701,148.054 204.802,147.068 207.44,145.107C210.078,143.14 211.394,141.044 211.394,138.812C211.394,137.206 210.607,136.059 209.033,135.381C207.427,134.697 204.254,134.291 199.494,134.169C192.555,133.981 187.215,133.627 183.48,133.104ZM192,91.5503C189.711,91.5503 187.802,92.4662 186.254,94.2913C184.712,96.1166 183.938,98.9156 183.938,102.695C183.938,107.584 184.989,111.376 187.092,114.072C188.698,116.11 190.729,117.129 193.2,117.129C195.547,117.129 197.476,116.252 198.991,114.485C200.501,112.724 201.255,109.951 201.255,106.178C201.255,101.257 200.191,97.4 198.063,94.6138C196.489,92.5693 194.464,91.5503 192,91.5503ZM183.938,117.594C181.352,116.329 179.359,114.556 177.966,112.279C176.579,110.002 175.889,107.493 175.889,104.733C175.889,100.528 177.469,96.9034 180.629,93.8721C183.796,90.8409 187.847,89.3188 192.787,89.3188C196.831,89.3188 200.333,90.312 203.293,92.292L212.277,92.292C213.606,92.292 214.373,92.3307 214.593,92.4081C214.806,92.4855 214.96,92.6209 215.057,92.8015C215.238,93.0788 215.335,93.5754 215.335,94.2913C215.335,95.0911 215.257,95.6522 215.102,95.9618C215.005,96.1166 214.844,96.2391 214.612,96.3294C214.38,96.4261 213.606,96.4713 212.277,96.4713L206.769,96.4713C208.498,98.7028 209.356,101.547 209.356,105.017C209.356,108.977 207.847,112.363 204.822,115.181C201.797,118 197.74,119.405 192.645,119.405C190.549,119.405 188.402,119.096 186.208,118.477C184.854,119.657 183.932,120.682 183.455,121.566C182.977,122.45 182.739,123.198 182.739,123.817C182.739,124.346 182.99,124.856 183.5,125.352C184.009,125.843 185.009,126.203 186.486,126.416C187.35,126.539 189.51,126.649 192.968,126.745C199.327,126.9 203.448,127.113 205.331,127.397C208.201,127.797 210.491,128.861 212.206,130.596C213.916,132.331 214.773,134.465 214.773,137.006C214.773,140.502 213.141,143.779 209.872,146.848C205.054,151.363 198.772,153.62 191.026,153.62C185.067,153.62 180.036,152.279 175.934,149.583C173.619,148.035 172.458,146.429 172.458,144.759C172.458,144.011 172.632,143.269 172.967,142.527C173.496,141.386 174.574,139.786 176.212,137.748C176.425,137.471 177.998,135.794 180.933,132.73C179.327,131.776 178.192,130.912 177.528,130.157C176.87,129.396 176.534,128.538 176.534,127.577C176.534,126.494 176.973,125.223 177.856,123.772C178.733,122.314 180.765,120.257 183.938,117.594ZM160.933,89.3188L160.933,123.495C160.933,126.152 161.126,127.926 161.513,128.809C161.894,129.693 162.468,130.351 163.222,130.782C163.983,131.215 165.364,131.434 167.37,131.434L167.37,133.104L146.763,133.104L146.763,131.434C148.834,131.434 150.22,131.228 150.93,130.828C151.639,130.428 152.207,129.757 152.626,128.828C153.039,127.906 153.245,126.126 153.245,123.495L153.245,107.106C153.245,102.489 153.11,99.5025 152.832,98.1417C152.613,97.1549 152.278,96.4648 151.813,96.0778C151.349,95.6909 150.717,95.4974 149.911,95.4974C149.053,95.4974 148.002,95.7296 146.763,96.1939L146.118,94.5235L158.895,89.3188L160.933,89.3188ZM157.089,67.0809C158.386,67.0809 159.488,67.5388 160.398,68.4547C161.313,69.364 161.765,70.4733 161.765,71.7697C161.765,73.0725 161.313,74.1882 160.398,75.117C159.488,76.0457 158.386,76.5101 157.089,76.5101C155.793,76.5101 154.683,76.0457 153.754,75.117C152.832,74.1882 152.368,73.0725 152.368,71.7697C152.368,70.4733 152.826,69.364 153.735,68.4547C154.645,67.5388 155.76,67.0809 157.089,67.0809ZM128.292,123.959L128.292,107.751C123.635,109.609 120.623,110.925 119.263,111.699C116.825,113.059 115.084,114.485 114.032,115.975C112.981,117.458 112.459,119.083 112.459,120.844C112.459,123.075 113.123,124.926 114.452,126.397C115.78,127.868 117.302,128.596 119.031,128.596C121.378,128.596 124.467,127.048 128.292,123.959ZM128.292,126.971C123.939,130.351 121.21,132.298 120.101,132.821C118.431,133.601 116.657,133.981 114.774,133.981C111.84,133.981 109.427,132.982 107.531,130.97C105.629,128.957 104.68,126.307 104.68,123.03C104.68,120.954 105.145,119.161 106.067,117.645C107.338,115.536 109.537,113.556 112.665,111.699C115.799,109.841 121.011,107.584 128.292,104.92L128.292,103.25C128.292,99.0124 127.621,96.1037 126.28,94.5235C124.938,92.9434 122.984,92.1566 120.424,92.1566C118.476,92.1566 116.935,92.679 115.793,93.7303C114.619,94.7815 114.032,95.994 114.032,97.3548L114.129,100.044C114.129,101.47 113.761,102.566 113.039,103.34C112.31,104.114 111.362,104.501 110.188,104.501C109.047,104.501 108.118,104.101 107.389,103.295C106.667,102.489 106.299,101.392 106.299,99.9992C106.299,97.3355 107.66,94.8912 110.375,92.6661C113.091,90.4346 116.902,89.3188 121.81,89.3188C125.577,89.3188 128.666,89.9573 131.072,91.2278C132.891,92.1823 134.232,93.6851 135.096,95.7296C135.651,97.0582 135.928,99.7863 135.928,103.901L135.928,118.342C135.928,122.392 136.005,124.875 136.161,125.79C136.315,126.707 136.573,127.313 136.928,127.622C137.282,127.932 137.689,128.087 138.153,128.087C138.65,128.087 139.082,127.977 139.45,127.764C140.101,127.364 141.346,126.229 143.197,124.372L143.197,126.971C139.746,131.621 136.444,133.936 133.29,133.936C131.781,133.936 130.575,133.414 129.685,132.356C128.789,131.311 128.324,129.512 128.292,126.971ZM85.003,89.3188L85.003,98.8834C88.5568,92.5113 92.1941,89.3188 95.9286,89.3188C97.6309,89.3188 99.0305,89.8412 100.146,90.8796C101.256,91.9115 101.81,93.1111 101.81,94.4784C101.81,95.6844 101.41,96.7035 100.604,97.5419C99.8046,98.3739 98.8499,98.7931 97.7345,98.7931C96.6571,98.7931 95.4447,98.2578 94.1031,97.1936C92.7616,96.123 91.7618,95.5877 91.1173,95.5877C90.5624,95.5877 89.9564,95.8973 89.3114,96.5164C87.9248,97.787 86.4862,99.8766 85.003,102.785L85.003,123.166C85.003,125.52 85.2997,127.3 85.8867,128.506C86.2865,129.344 86.9961,130.041 88.0149,130.596C89.0337,131.157 90.4978,131.434 92.4133,131.434L92.4133,133.104L70.6979,133.104L70.6979,131.434C72.8585,131.434 74.4644,131.092 75.5157,130.409C76.2832,129.912 76.825,129.125 77.1346,128.042C77.2895,127.519 77.3665,126.017 77.3665,123.54L77.3665,107.055C77.3665,102.102 77.2635,99.1543 77.0636,98.2127C76.8637,97.271 76.496,96.5809 75.9543,96.1488C75.4125,95.7103 74.7418,95.4974 73.942,95.4974C72.9811,95.4974 71.904,95.7296 70.6979,96.1939L70.2336,94.5235L83.0615,89.3188L85.003,89.3188ZM66.5767,116.949C65.4352,122.546 63.1972,126.861 59.8628,129.873C56.5348,132.892 52.8458,134.401 48.8019,134.401C43.9842,134.401 39.7855,132.376 36.2061,128.319C32.6266,124.269 30.8401,118.786 30.8401,111.886C30.8401,105.197 32.8201,99.767 36.7865,95.5877C40.7529,91.4084 45.5127,89.3188 51.0721,89.3188C55.2385,89.3188 58.6632,90.4281 61.3462,92.6403C64.0292,94.8524 65.3771,97.1549 65.3771,99.5348C65.3771,100.715 64.9966,101.663 64.242,102.392C63.481,103.121 62.4297,103.482 61.0688,103.482C59.2501,103.482 57.8763,102.895 56.9476,101.721C56.4252,101.07 56.0769,99.8315 55.9093,98.0063C55.7351,96.1811 55.116,94.7815 54.0324,93.827C52.9489,92.8983 51.4527,92.4339 49.5436,92.4339C46.4543,92.4339 43.9712,93.5754 42.088,95.865C39.5856,98.9028 38.3408,102.908 38.3408,107.893C38.3408,112.969 39.5791,117.451 42.0622,121.334C44.5517,125.217 47.9054,127.158 52.1363,127.158C55.1611,127.158 57.8763,126.126 60.282,124.049C61.9783,122.624 63.6293,120.044 65.2352,116.297L66.5767,116.949Z" style="fill:rgb(125,40,126);fill-rule:nonzero;"/>
</svg>
