<?xml version="1.0" standalone="no"?>
<!DOCTYPE svg PUBLIC "-//W3C//DTD SVG 1.1//EN" "http://www.w3.org/Graphics/SVG/1.1/DTD/svg11.dtd">
<svg width="100%" height="100%" viewBox="0 0 733 187" version="1.1" xmlns="http://www.w3.org/2000/svg" xmlns:xlink="http://www.w3.org/1999/xlink" xml:space="preserve" style="fill-rule:evenodd;clip-rule:evenodd;stroke-linejoin:round;stroke-miterlimit:1.41421;">
    <g>
        <path d="M705.875,21.6389L705.875,51.7361L727.208,51.7361L727.208,58.7361L705.875,58.7361L705.875,118.125C705.875,124.056 706.722,128.056 708.417,130.111C710.111,132.181 712.292,133.222 714.944,133.222C717.139,133.222 719.264,132.542 721.319,131.167C723.389,129.806 724.986,127.792 726.111,125.125L730,125.125C727.667,131.653 724.389,136.569 720.125,139.861C715.875,143.167 711.486,144.819 706.972,144.819C703.903,144.819 700.917,143.972 698,142.264C695.069,140.569 692.917,138.139 691.514,134.972C690.125,131.806 689.417,126.917 689.417,120.319L689.417,58.7361L674.958,58.7361L674.958,55.4306C678.625,53.9722 682.361,51.4861 686.181,47.9861C690,44.4861 693.417,40.3333 696.403,35.5417C697.931,33 700.056,28.375 702.778,21.6389L705.875,21.6389ZM659.014,49.0278L659.014,80.2222L655.722,80.2222C653.194,70.4305 649.958,63.7639 646,60.2361C642.042,56.6944 637.014,54.9306 630.903,54.9306C626.25,54.9306 622.486,56.1667 619.625,58.6389C616.764,61.0972 615.347,63.8333 615.347,66.8333C615.347,70.5694 616.403,73.7639 618.528,76.4306C620.597,79.1667 624.778,82.0556 631.097,85.125L645.653,92.2222C659.139,98.8333 665.889,107.528 665.889,118.319C665.889,126.653 662.75,133.375 656.472,138.472C650.194,143.569 643.153,146.111 635.375,146.111C629.792,146.111 623.417,145.111 616.236,143.111C614.042,142.444 612.25,142.111 610.861,142.111C609.333,142.111 608.125,142.986 607.264,144.722L603.972,144.722L603.972,112.028L607.264,112.028C609.125,121.347 612.681,128.389 617.931,133.125C623.181,137.847 629.069,140.222 635.583,140.222C640.167,140.222 643.903,138.861 646.792,136.167C649.694,133.472 651.139,130.222 651.139,126.417C651.139,121.819 649.528,117.958 646.292,114.819C643.083,111.694 636.653,107.722 627,102.931C617.375,98.125 611.056,93.7917 608.069,89.9306C605.083,86.125 603.583,81.3333 603.583,75.5278C603.583,68 606.153,61.6944 611.306,56.6389C616.458,51.5694 623.125,49.0278 631.292,49.0278C634.889,49.0278 639.236,49.8055 644.347,51.3333C647.75,52.3333 650,52.8333 651.139,52.8333C652.194,52.8333 653.028,52.5972 653.625,52.1389C654.222,51.6667 654.931,50.6389 655.722,49.0278L659.014,49.0278ZM574.861,49.0278L574.861,122.625C574.861,128.347 575.278,132.167 576.111,134.069C576.944,135.972 578.167,137.389 579.792,138.319C581.431,139.25 584.403,139.722 588.722,139.722L588.722,143.319L544.361,143.319L544.361,139.722C548.806,139.722 551.806,139.278 553.333,138.417C554.861,137.556 556.069,136.111 556.972,134.111C557.875,132.125 558.319,128.292 558.319,122.625L558.319,87.3333C558.319,77.3889 558.014,70.9583 557.417,68.0278C556.958,65.9028 556.222,64.4167 555.222,63.5833C554.222,62.75 552.861,62.3333 551.139,62.3333C549.278,62.3333 547.014,62.8333 544.361,63.8333L542.958,60.2361L570.472,49.0278L574.861,49.0278ZM566.583,1.13888C569.375,1.13888 571.764,2.12499 573.722,4.09722C575.681,6.05555 576.653,8.44444 576.653,11.2361C576.653,14.0417 575.681,16.4444 573.722,18.4444C571.764,20.4444 569.375,21.4444 566.583,21.4444C563.792,21.4444 561.403,20.4444 559.417,18.4444C557.417,16.4444 556.417,14.0417 556.417,11.2361C556.417,8.44444 557.403,6.05555 559.361,4.09722C561.319,2.12499 563.736,1.13888 566.583,1.13888ZM518.139,1.13888L518.139,122.625C518.139,128.347 518.556,132.153 519.375,134.014C520.208,135.889 521.486,137.306 523.222,138.264C524.944,139.236 528.167,139.722 532.889,139.722L532.889,143.319L488.125,143.319L488.125,139.722C492.306,139.722 495.167,139.278 496.708,138.417C498.222,137.556 499.417,136.111 500.292,134.111C501.153,132.125 501.583,128.292 501.583,122.625L501.583,39.4306C501.583,29.1111 501.347,22.75 500.889,20.3889C500.417,18.0278 499.681,16.4028 498.639,15.5417C497.611,14.6805 496.306,14.2361 494.708,14.2361C492.972,14.2361 490.792,14.7778 488.125,15.8333L486.431,12.3333L513.653,1.13888L518.139,1.13888ZM466.389,49.0278L466.389,80.2222L463.097,80.2222C460.583,70.4305 457.333,63.7639 453.375,60.2361C449.417,56.6944 444.389,54.9306 438.278,54.9306C433.625,54.9306 429.875,56.1667 427.014,58.6389C424.153,61.0972 422.722,63.8333 422.722,66.8333C422.722,70.5694 423.792,73.7639 425.917,76.4306C427.972,79.1667 432.167,82.0556 438.472,85.125L453.028,92.2222C466.528,98.8333 473.278,107.528 473.278,118.319C473.278,126.653 470.125,133.375 463.847,138.472C457.569,143.569 450.542,146.111 442.764,146.111C437.181,146.111 430.806,145.111 423.625,143.111C421.431,142.444 419.625,142.111 418.236,142.111C416.708,142.111 415.514,142.986 414.639,144.722L411.361,144.722L411.361,112.028L414.639,112.028C416.514,121.347 420.069,128.389 425.319,133.125C430.569,137.847 436.444,140.222 442.958,140.222C447.542,140.222 451.292,138.861 454.181,136.167C457.069,133.472 458.514,130.222 458.514,126.417C458.514,121.819 456.903,117.958 453.681,114.819C450.458,111.694 444.028,107.722 434.389,102.931C424.75,98.125 418.431,93.7917 415.444,89.9306C412.458,86.125 410.958,81.3333 410.958,75.5278C410.958,68 413.542,61.6944 418.681,56.6389C423.833,51.5694 430.5,49.0278 438.667,49.0278C442.264,49.0278 446.611,49.8055 451.736,51.3333C455.125,52.3333 457.389,52.8333 458.514,52.8333C459.583,52.8333 460.417,52.5972 461.014,52.1389C461.611,51.6667 462.306,50.6389 463.097,49.0278L466.389,49.0278ZM328.708,143.319C325.583,146.708 323.222,149.875 321.625,152.819C320.028,155.75 319.236,158.444 319.236,160.917C319.236,164.111 321.167,166.917 325.014,169.306C331.667,173.444 341.264,175.514 353.833,175.514C365.792,175.514 374.625,173.389 380.306,169.167C385.986,164.931 388.819,160.417 388.819,155.611C388.819,152.153 387.125,149.681 383.736,148.222C380.278,146.75 373.444,145.875 363.194,145.611C348.25,145.208 336.75,144.444 328.708,143.319ZM347.056,53.8333C342.125,53.8333 338.014,55.8056 334.681,59.7361C331.361,63.6667 329.694,69.6944 329.694,77.8333C329.694,88.3611 331.958,96.5278 336.486,102.333C339.944,106.722 344.319,108.917 349.639,108.917C354.694,108.917 358.847,107.028 362.111,103.222C365.361,99.4306 366.986,93.4583 366.986,85.3333C366.986,74.7361 364.694,66.4306 360.111,60.4306C356.722,56.0278 352.361,53.8333 347.056,53.8333ZM329.694,109.917C324.125,107.194 319.833,103.375 316.833,98.4722C313.847,93.5694 312.361,88.1667 312.361,82.2222C312.361,73.1667 315.764,65.3611 322.569,58.8333C329.389,52.3056 338.111,49.0278 348.75,49.0278C357.458,49.0278 365,51.1667 371.375,55.4306L390.722,55.4306C393.583,55.4306 395.236,55.5139 395.708,55.6806C396.167,55.8472 396.5,56.1389 396.708,56.5278C397.097,57.125 397.306,58.1944 397.306,59.7361C397.306,61.4583 397.139,62.6667 396.806,63.3333C396.597,63.6667 396.25,63.9306 395.75,64.125C395.25,64.3333 393.583,64.4306 390.722,64.4306L378.861,64.4306C382.583,69.2361 384.431,75.3611 384.431,82.8333C384.431,91.3611 381.181,98.6528 374.667,104.722C368.153,110.792 359.417,113.819 348.444,113.819C343.931,113.819 339.306,113.153 334.583,111.819C331.667,114.361 329.681,116.569 328.653,118.472C327.625,120.375 327.111,121.986 327.111,123.319C327.111,124.458 327.653,125.556 328.75,126.625C329.847,127.681 332,128.458 335.181,128.917C337.042,129.181 341.694,129.417 349.139,129.625C362.833,129.958 371.708,130.417 375.764,131.028C381.944,131.889 386.875,134.181 390.569,137.917C394.25,141.653 396.097,146.25 396.097,151.722C396.097,159.25 392.583,166.306 385.542,172.917C375.167,182.639 361.639,187.5 344.958,187.5C332.125,187.5 321.292,184.611 312.458,178.806C307.472,175.472 304.972,172.014 304.972,168.417C304.972,166.806 305.347,165.208 306.069,163.611C307.208,161.153 309.528,157.708 313.056,153.319C313.514,152.722 316.903,149.111 323.222,142.514C319.764,140.458 317.319,138.597 315.889,136.972C314.472,135.333 313.75,133.486 313.75,131.417C313.75,129.083 314.694,126.347 316.597,123.222C318.486,120.083 322.861,115.653 329.694,109.917ZM280.153,49.0278L280.153,122.625C280.153,128.347 280.569,132.167 281.403,134.069C282.222,135.972 283.458,137.389 285.083,138.319C286.722,139.25 289.694,139.722 294.014,139.722L294.014,143.319L249.639,143.319L249.639,139.722C254.097,139.722 257.083,139.278 258.611,138.417C260.139,137.556 261.361,136.111 262.264,134.111C263.153,132.125 263.597,128.292 263.597,122.625L263.597,87.3333C263.597,77.3889 263.306,70.9583 262.708,68.0278C262.236,65.9028 261.514,64.4167 260.514,63.5833C259.514,62.75 258.153,62.3333 256.417,62.3333C254.569,62.3333 252.306,62.8333 249.639,63.8333L248.25,60.2361L275.764,49.0278L280.153,49.0278ZM271.875,1.13888C274.667,1.13888 277.042,2.12499 279,4.09722C280.972,6.05555 281.944,8.44444 281.944,11.2361C281.944,14.0417 280.972,16.4444 279,18.4444C277.042,20.4444 274.667,21.4444 271.875,21.4444C269.083,21.4444 266.694,20.4444 264.694,18.4444C262.708,16.4444 261.708,14.0417 261.708,11.2361C261.708,8.44444 262.694,6.05555 264.653,4.09722C266.611,2.12499 269.014,1.13888 271.875,1.13888ZM209.861,123.625L209.861,88.7222C199.833,92.7222 193.347,95.5556 190.417,97.2222C185.167,100.153 181.417,103.222 179.153,106.431C176.889,109.625 175.764,113.125 175.764,116.917C175.764,121.722 177.194,125.708 180.056,128.875C182.917,132.042 186.194,133.611 189.917,133.611C194.972,133.611 201.625,130.278 209.861,123.625ZM209.861,130.111C200.486,137.389 194.611,141.583 192.222,142.708C188.625,144.389 184.806,145.208 180.75,145.208C174.431,145.208 169.236,143.056 165.153,138.722C161.056,134.389 159.014,128.681 159.014,121.625C159.014,117.153 160.014,113.292 162,110.028C164.736,105.486 169.472,101.222 176.208,97.2222C182.958,93.2222 194.181,88.3611 209.861,82.625L209.861,79.0278C209.861,69.9028 208.417,63.6389 205.528,60.2361C202.639,56.8333 198.431,55.1389 192.917,55.1389C188.722,55.1389 185.403,56.2639 182.944,58.5278C180.417,60.7917 179.153,63.4028 179.153,66.3333L179.361,72.125C179.361,75.1944 178.569,77.5556 177.014,79.2222C175.444,80.8889 173.403,81.7222 170.875,81.7222C168.417,81.7222 166.417,80.8611 164.847,79.125C163.292,77.3889 162.5,75.0278 162.5,72.0278C162.5,66.2917 165.431,61.0278 171.278,56.2361C177.125,51.4306 185.333,49.0278 195.903,49.0278C204.014,49.0278 210.667,50.4028 215.847,53.1389C219.764,55.1944 222.653,58.4306 224.514,62.8333C225.708,65.6944 226.306,71.5694 226.306,80.4306L226.306,111.528C226.306,120.25 226.472,125.597 226.806,127.569C227.139,129.542 227.694,130.847 228.458,131.514C229.222,132.181 230.097,132.514 231.097,132.514C232.167,132.514 233.097,132.278 233.889,131.819C235.292,130.958 237.972,128.514 241.958,124.514L241.958,130.111C234.528,140.125 227.417,145.111 220.625,145.111C217.375,145.111 214.778,143.986 212.861,141.708C210.931,139.458 209.931,135.583 209.861,130.111ZM116.639,49.0278L116.639,69.625C124.292,55.9028 132.125,49.0278 140.167,49.0278C143.833,49.0278 146.847,50.1528 149.25,52.3889C151.639,54.6111 152.833,57.1944 152.833,60.1389C152.833,62.7361 151.972,64.9306 150.236,66.7361C148.514,68.5278 146.458,69.4305 144.056,69.4305C141.736,69.4305 139.125,68.2778 136.236,65.9861C133.347,63.6806 131.194,62.5278 129.806,62.5278C128.611,62.5278 127.306,63.1944 125.917,64.5278C122.931,67.2639 119.833,71.7639 116.639,78.0278L116.639,121.917C116.639,126.986 117.278,130.819 118.542,133.417C119.403,135.222 120.931,136.722 123.125,137.917C125.319,139.125 128.472,139.722 132.597,139.722L132.597,143.319L85.8333,143.319L85.8333,139.722C90.4861,139.722 93.9444,138.986 96.2083,137.514C97.8611,136.444 99.0278,134.75 99.6945,132.417C100.028,131.292 100.194,128.056 100.194,122.722L100.194,87.2222C100.194,76.5556 99.9722,70.2083 99.5417,68.1806C99.1111,66.1528 98.3194,64.6667 97.1528,63.7361C95.9861,62.7917 94.5417,62.3333 92.8194,62.3333C90.75,62.3333 88.4306,62.8333 85.8333,63.8333L84.8333,60.2361L112.458,49.0278L116.639,49.0278ZM76.9583,108.528C74.5,120.583 69.6806,129.875 62.5,136.361C55.3333,142.861 47.3889,146.111 38.6806,146.111C28.3056,146.111 19.2639,141.75 11.5556,133.014C3.84722,124.292 0,112.486 0,97.625C0,83.2222 4.26389,71.5278 12.8056,62.5278C21.3472,53.5278 31.5972,49.0278 43.5694,49.0278C52.5417,49.0278 59.9167,51.4167 65.6944,56.1805C71.4722,60.9444 74.375,65.9028 74.375,71.0278C74.375,73.5694 73.5556,75.6111 71.9306,77.1806C70.2917,78.75 68.0278,79.5278 65.0972,79.5278C61.1806,79.5278 58.2222,78.2639 56.2222,75.7361C55.0972,74.3333 54.3472,71.6667 53.9861,67.7361C53.6111,63.8056 52.2778,60.7917 49.9444,58.7361C47.6111,56.7361 44.3889,55.7361 40.2778,55.7361C33.625,55.7361 28.2778,58.1944 24.2222,63.125C18.8333,69.6667 16.1528,78.2917 16.1528,89.0278C16.1528,99.9583 18.8194,109.611 24.1667,117.972C29.5278,126.333 36.75,130.514 45.8611,130.514C52.375,130.514 58.2222,128.292 63.4028,123.819C67.0556,120.75 70.6111,115.194 74.0694,107.125L76.9583,108.528Z" style="fill:rgb(125,40,126);fill-rule:nonzero;"/>
    </g>
</svg>
