<?xml version="1.0" standalone="no"?>
<!DOCTYPE svg PUBLIC "-//W3C//DTD SVG 1.1//EN" "http://www.w3.org/Graphics/SVG/1.1/DTD/svg11.dtd">
<svg width="100%" height="100%" viewBox="0 0 400 220" version="1.1" xmlns="http://www.w3.org/2000/svg" xmlns:xlink="http://www.w3.org/1999/xlink" xml:space="preserve" style="fill-rule:evenodd;clip-rule:evenodd;stroke-linejoin:round;stroke-miterlimit:1.41421;">
    <path d="M57.64,82.03C56.22,74.04 61,66.8 66.01,61.08C65.11,70.86 67.82,81.11 74.46,88.49C79.44,93.92 84.41,100.27 84.75,107.94C85.2,112.77 83.6,117.41 81.7,121.76C81,115.03 76.83,109.45 72.43,104.59C66.51,97.88 59.48,91.16 57.64,82.03Z" style="fill:rgb(97,187,71);fill-rule:nonzero;"/>
    <path d="M107.75,79.88C118.91,79.97 130.08,79.67 141.23,80.04C141.33,83.14 141.32,86.24 141.29,89.34C133.58,89.83 125.85,89.45 118.13,89.56C118.12,93.85 118.12,98.15 118.13,102.44C123.85,102.56 129.6,102.13 135.31,102.75C134.87,105.88 134.31,108.99 133.68,112.09C128.49,112.16 123.31,112.11 118.12,112.13C118.05,121.82 118.29,131.51 117.99,141.19C114.7,141.21 111.39,141.48 108.12,141.08C106.82,140.3 107.72,138.27 107.41,137.01C107.47,122.02 107.41,107.02 107.44,92.03C107.46,87.98 107.22,83.91 107.75,79.88Z" style="fill:rgb(103,103,103);fill-rule:nonzero;"/>
    <path d="M318.71,83.73C323.88,79.17 331.47,79.27 337.79,80.97C337.32,83.86 336.79,86.75 336.25,89.63C333.18,89.44 329.88,88.58 327,90.05C324.42,91.95 324.58,95.52 324.39,98.38C327.79,98.35 331.21,98.21 334.58,98.77C333.98,101.77 333.43,104.79 332.84,107.8C330.06,107.88 327.28,107.87 324.51,107.89C324.43,119 324.63,130.12 324.4,141.23C320.89,141.35 317.37,141.35 313.86,141.22C313.75,130.11 313.86,119 313.8,107.89C311.55,107.61 308.74,108.56 306.86,107.19C306.61,104.33 306.75,101.45 306.76,98.59C309.07,98.43 311.4,98.36 313.72,98.34C313.66,93.11 314.59,87.37 318.71,83.73Z" style="fill:rgb(103,103,103);fill-rule:nonzero;"/>
    <path d="M180.39,81.48C184.41,79.62 189.4,83.42 188.59,87.81C188.45,92.63 181.71,94.93 178.51,91.45C175.36,88.64 176.48,82.98 180.39,81.48Z" style="fill:rgb(103,103,103);fill-rule:nonzero;"/>
    <path d="M226.15,82.39C229.5,81.71 232.89,81.19 236.3,80.84C236.58,88.02 236.4,95.21 236.42,102.39C241.85,96.82 251.4,95.54 257.75,100.27C261.6,103.25 263.14,108.32 263.11,113.04C263.14,122.43 263.15,131.82 263.08,141.21C259.62,141.36 256.14,141.36 252.68,141.2C252.55,132.77 252.68,124.33 252.62,115.9C252.61,113.28 252.28,110.48 250.53,108.41C247.92,106.29 244.18,106.98 241.39,108.34C237.69,110.66 236.96,115.38 236.56,119.36C236.25,126.64 236.58,133.94 236.39,141.23C232.95,141.37 229.5,141.37 226.07,141.16C226.01,121.57 225.85,101.97 226.15,82.39Z" style="fill:rgb(103,103,103);fill-rule:nonzero;"/>
    <path d="M270.49,82.46C273.89,81.68 277.34,81.12 280.82,80.99C281.05,101.05 280.91,121.12 280.9,141.18C277.47,141.34 274.04,141.35 270.61,141.29C270.24,121.69 270.47,102.07 270.49,82.46Z" style="fill:rgb(103,103,103);fill-rule:nonzero;"/>
    <path d="M292.39,81.43C296.5,79.63 301.43,83.62 300.54,88.02C300.11,92.93 292.98,94.99 290.03,91.03C287.17,88.11 288.65,82.8 292.39,81.43Z" style="fill:rgb(103,103,103);fill-rule:nonzero;"/>
    <path d="M40.44,100.29C42.65,94.1 45.84,88.19 50.41,83.41C51.26,86.75 52.07,90.17 53.84,93.16C58.37,101.06 66.39,106.08 71.42,113.6C74.35,117.78 76.72,122.84 75.74,128.08C75.36,131.16 73.06,133.44 71.15,135.7C79.31,134.96 85.26,128.44 88.16,121.22C88.77,129.8 85.84,139.55 77.63,143.62C73.35,145.5 67.67,148.04 63.57,144.56C53.9,138.42 49.33,126.74 49.48,115.62C47.4,121.33 46.08,127.57 47.59,133.6C49.42,141.8 55.51,147.94 61.46,153.45C63.52,155.1 63.52,157.71 63.12,160.09C56.99,154.09 50.7,148.2 43.61,143.32C39.18,140.3 34.85,137.07 31.17,133.14C33.01,133.03 34.85,132.94 36.69,132.85C33.31,127.38 30.85,121.26 30.4,114.79C32.36,115.6 34.33,116.4 36.29,117.2C34.91,110.61 34.7,103.78 35.84,97.14C37.36,98.21 38.89,99.26 40.44,100.29Z" style="fill:rgb(97,187,71);fill-rule:nonzero;"/>
    <path d="M200.44,86.97C203.94,86 207.54,85.46 211.18,85.44C211.28,89.76 211.25,94.07 211.26,98.39C214.65,98.33 218.05,98.26 221.43,98.68C221.04,101.75 220.58,104.82 219.81,107.82C216.96,107.88 214.11,107.88 211.26,107.88C211.45,115.3 210.81,122.77 211.58,130.15C212.27,134.79 218.06,132.61 221.17,132.42C221.25,135.34 221.26,138.27 221.23,141.19C215.76,142.52 209.4,142.74 204.65,139.28C201.25,136.65 200.54,132.07 200.44,128.04C200.39,121.33 200.47,114.62 200.42,107.91C198.23,107.87 196.04,107.85 193.86,107.79C193.69,104.66 193.71,101.53 193.89,98.4C196.07,98.37 198.25,98.39 200.43,98.38C200.44,94.58 200.43,90.78 200.44,86.97Z" style="fill:rgb(103,103,103);fill-rule:nonzero;"/>
    <path d="M141.37,98.74C148.41,97.17 156.38,96.28 162.98,99.83C167.68,102.33 169.56,107.87 169.67,112.9C169.72,121.92 169.69,130.94 169.66,139.97C160.67,142.15 150.64,144.12 141.88,140.07C133.86,136.22 132.91,124.07 139.39,118.37C144.66,113.32 152.43,113.36 159.25,113.72C158.66,111.61 158.84,108.62 156.45,107.64C151.19,105.12 145.37,107.49 139.97,108.21C140.02,105.01 140.57,101.84 141.37,98.74Z" style="fill:rgb(103,103,103);fill-rule:nonzero;"/>
    <path d="M177.54,98.47C180.96,98.35 184.38,98.34 187.81,98.45C188.08,112.69 187.89,126.93 187.9,141.18C184.47,141.35 181.02,141.36 177.59,141.28C177.31,127.01 177.41,112.74 177.54,98.47Z" style="fill:rgb(103,103,103);fill-rule:nonzero;"/>
    <path d="M289.64,98.75C292.95,97.88 296.51,98.39 299.89,98.73C299.8,112.88 300,127.03 299.78,141.18C296.4,141.33 293.02,141.35 289.64,141.34C289.05,131.57 289.54,121.75 289.38,111.96C289.55,107.56 288.99,103.11 289.64,98.75Z" style="fill:rgb(103,103,103);fill-rule:nonzero;"/>
    <path d="M338.04,106.04C342.53,98.64 353.06,94.99 360.86,99.18C367.1,102.84 369.57,110.43 369.78,117.29C363.58,123.71 354.37,125.34 346.06,127.29C347.17,129.31 348.46,131.5 350.82,132.22C356.33,134.6 362.26,132.54 367.74,131.14C368.56,133.86 369.27,136.61 369.85,139.4C362.01,142.38 352.89,143.45 345.08,139.82C339.32,137.17 335.54,131.23 334.86,125.02C334.15,118.61 334.41,111.62 338.04,106.04Z" style="fill:rgb(103,103,103);fill-rule:nonzero;"/>
    <path d="M347.07,109.07C349.32,106.69 353.55,105.44 356.26,107.78C358.15,109.24 358.76,111.67 359.54,113.81C354.92,116.2 349.81,117.18 344.75,118.1C345.06,115.04 344.8,111.49 347.07,109.07Z" style="fill:white;fill-rule:nonzero;"/>
    <path d="M148.4,123.4C151.74,121.93 155.5,122.37 159.03,122.6C159.07,126.07 159.07,129.55 159.07,133.02C155.52,133.16 151.7,134.04 148.33,132.56C144.59,131.02 144.85,125.01 148.4,123.4Z" style="fill:white;fill-rule:nonzero;"/>
</svg>
