<?xml version="1.0" standalone="no"?>
<!DOCTYPE svg PUBLIC "-//W3C//DTD SVG 1.1//EN" "http://www.w3.org/Graphics/SVG/1.1/DTD/svg11.dtd">
<svg width="100%" height="100%" viewBox="0 0 400 220" version="1.1" xmlns="http://www.w3.org/2000/svg" xmlns:xlink="http://www.w3.org/1999/xlink" xml:space="preserve" style="fill-rule:evenodd;clip-rule:evenodd;stroke-linejoin:round;stroke-miterlimit:1.41421;">
    <g>
        <path d="M85.6687,54.1364C98.697,53.9365 111.898,58.0262 122.023,66.352C134.984,76.4363 143.15,92.5018 143.27,108.967C143.79,121.835 139.593,134.784 131.667,144.908C122.076,157.417 107.009,165.743 91.2237,166.635C77.3828,167.741 63.0757,163.585 52.2587,154.819C40.8024,146 32.9694,132.519 31.1977,118.159C28.8665,102.373 33.7687,85.628 44.3725,73.6654C54.5101,61.6496 69.9628,54.4694 85.6687,54.1364Z" style="fill:black;fill-rule:nonzero;"/>
        <path d="M94.0478,55.2154C107.649,57.4267 120.704,64.1007 129.483,74.8777C139.061,86.041 143.617,101.161 142.151,115.774C140.313,143.549 114.376,166.768 86.6811,166.036C72.8269,165.489 60.7045,153.367 60.4114,139.46C59.8253,128.363 66.6325,117.373 76.8499,112.977C84.0168,109.46 92.5158,111.511 99.6561,107.901C110.313,103.172 117.174,91.2496 115.682,79.6467C114.643,67.884 105.264,58.186 94.0478,55.2154Z" style="fill:white;fill-rule:nonzero;"/>
        <path d="M82.8845,71.0811C86.1482,70.2419 90.5709,70.0953 92.6624,73.2924C93.8613,77.9416 93.2752,82.8705 93.2352,87.6262C93.3551,95.7389 77.929,94.7531 79.5409,86.4406C80.1803,81.4851 77.2896,73.8253 82.8845,71.0811Z" style="fill:white;fill-rule:nonzero;"/>
        <path d="M83.3508,74.558C85.3356,74.7578 87.7734,73.8253 89.4786,75.1841C90.3045,79.7799 89.9049,84.5223 89.4653,89.1582C87.4404,89.1182 85.4156,89.1049 83.3907,89.1182C82.8845,84.2826 82.9245,79.3936 83.3508,74.558Z" style="fill:black;fill-rule:nonzero;"/>
        <path d="M184.14,77.7285C186.884,74.5047 191.6,75.4105 195.317,75.7169C199.633,76.0899 202.777,84.7888 196.995,85.2017C195.796,83.2835 195.863,79.5002 192.799,79.8732C191.134,79.7133 189.495,79.8199 187.883,80.2195C186.338,82.0046 186.911,84.3492 186.991,86.4673C191.174,87.3331 197.182,85.9211 199.513,90.4237C200.472,93.7407 200.605,97.484 199.233,100.694C196.622,105.051 190.681,104.185 186.458,103.385C182.968,102.107 180.277,94.8997 185.552,94.3801C186.858,96.2185 187.031,99.9351 190.068,99.4556C191.773,99.4689 193.492,99.4156 195.197,99.3223C195.876,96.8712 195.969,94.3535 195.65,91.8358C191.693,91.183 186.365,92.3286 183.727,88.5187C182.062,85.215 181.902,80.8057 184.14,77.7285Z" style="fill:black;fill-rule:nonzero;"/>
        <path d="M207.905,76.05C213.154,75.3173 219.761,74.1583 224.504,76.9158C224.291,77.542 223.864,78.7942 223.651,79.4203C219.695,80.1663 215.632,79.7533 211.635,79.8199C211.622,82.2577 211.622,84.6955 211.595,87.1466C213.887,87.5729 218.696,86.334 218.056,90.104C217.124,92.5151 213.62,91.3295 211.595,91.9024C211.622,94.4201 211.622,96.9511 211.635,99.4822C215.925,99.682 220.401,98.8161 224.53,100.255C225.183,101.893 224.304,104.238 222.199,103.852C217.47,103.772 212.488,104.624 207.919,103.279C207.186,94.3002 207.199,85.0285 207.905,76.05Z" style="fill:black;fill-rule:nonzero;"/>
        <path d="M237.066,75.9167C239.797,74.6113 243.873,75.1841 244.406,78.6876C246.431,86.5072 247.057,94.6066 248.655,102.519C247.949,103.039 246.564,104.091 245.871,104.611C244.046,102.213 243.726,99.2158 243.3,96.3517C240.916,96.3517 238.531,96.365 236.147,96.365C235.307,99.0692 236.04,102.932 232.963,104.305C232.457,103.798 231.431,102.799 230.911,102.293C231.617,96.0453 233.189,89.9308 234.162,83.7231C234.748,81.0321 234.948,77.9283 237.066,75.9167Z" style="fill:black;fill-rule:nonzero;"/>
        <path d="M255.516,75.8501C260.711,75.0908 266.04,75.3839 271.275,75.6104C273.766,74.8644 273.819,80.4993 271.248,79.7C269.503,79.8599 267.758,79.9531 266.013,79.9664C265.906,87.3997 266.2,94.8464 265.893,102.266C266.599,104.638 261.297,104.797 262.07,102.186C261.684,94.7931 262.003,87.3864 261.937,79.9798C259.086,80.033 252.598,80.2861 255.516,75.8501Z" style="fill:black;fill-rule:nonzero;"/>
        <path d="M279.481,75.8368C284.756,75.1441 290.138,75.3573 295.44,75.6237C298.077,74.9843 298.011,80.3661 295.347,79.7C293.641,79.8599 291.923,79.9531 290.218,79.9798C290.031,87.8127 290.697,95.6989 289.872,103.505L288.459,104.131C287.94,103.971 286.928,103.638 286.408,103.465C285.702,95.6723 286.301,87.7994 286.115,79.9664C283.198,79.9398 277.19,80.5393 279.481,75.8368Z" style="fill:black;fill-rule:nonzero;"/>
        <path d="M304.259,76.4496C305.577,73.7587 308.521,75.9567 308.175,78.2347C308.348,85.3216 308.162,92.4086 308.228,99.4822C312.651,99.7353 317.3,98.7495 321.563,100.228C322.416,101.734 321.776,103.585 319.964,103.772C315.275,104.051 310.52,104.145 305.817,103.745C303.686,103.625 304.072,101.054 303.952,99.6021C304.139,91.889 303.553,84.1227 304.259,76.4496Z" style="fill:black;fill-rule:nonzero;"/>
        <path d="M328.823,75.6503C334.072,75.4638 339.414,74.9443 344.622,75.8368C344.742,76.7693 344.995,78.6476 345.115,79.5801C340.959,79.8998 336.789,79.8465 332.62,79.8332C332.62,82.271 332.62,84.7088 332.606,87.1466C334.884,87.5196 337.895,86.6005 339.347,88.945C339.2,92.5285 335.018,91.4894 332.62,91.8757C332.62,94.4201 332.62,96.9511 332.62,99.4822C336.869,99.762 341.399,98.6696 345.448,100.281C346.154,101.947 345.675,103.652 343.65,103.772C338.721,104.158 333.752,103.958 328.823,103.692C328.277,94.3668 328.277,84.9753 328.823,75.6503Z" style="fill:black;fill-rule:nonzero;"/>
        <path d="M236.959,91.7691C237.932,87.453 238.091,82.8572 240.17,78.8474C241.289,83.097 241.968,87.4397 242.687,91.7825C240.769,91.7691 238.864,91.7691 236.959,91.7691Z" style="fill:white;fill-rule:nonzero;"/>
        <path d="M161.201,122.515C166.489,119.597 176.534,120.956 175.934,128.776C174.376,133.305 170.939,128.616 170.805,126.072C168.381,125.992 165.903,125.725 163.519,126.285C161.414,131.24 162.866,137.048 162.586,142.337C162.546,146.733 168.035,145.094 170.859,145.148C171.445,143.363 172.644,138.993 175.308,141.165C177.146,144.628 174.242,149.53 170.299,149.797C166.263,150.41 160.495,150.356 158.856,145.721C157.777,141.564 158.43,137.195 158.243,132.959C158.31,129.389 157.764,124.819 161.201,122.515Z" style="fill:black;fill-rule:nonzero;"/>
        <path d="M186.791,121.822C191.054,120.863 197.515,120.41 199.526,125.312C200.752,129.975 200.032,134.89 200.219,139.659C200.299,143.176 200.112,147.959 196.169,149.357C191.786,150.556 184.899,150.889 183.061,145.654C181.915,140.579 182.608,135.303 182.475,130.135C182.342,126.911 183.287,122.888 186.791,121.822Z" style="fill:black;fill-rule:nonzero;"/>
        <path d="M207.972,121.676C212.208,121.076 216.844,120.77 220.947,122.182C225.676,124.833 224.197,131.08 224.49,135.556C224.171,139.886 225.583,145.454 221.746,148.611C217.896,150.849 213.101,149.917 208.851,149.85C205.707,149.69 206.92,145.641 206.587,143.563C206.96,136.382 205.894,129.056 207.159,121.969L207.972,121.676Z" style="fill:black;fill-rule:nonzero;"/>
        <path d="M233.123,121.489C237.718,121.089 242.394,121.063 246.99,121.502C249.095,121.915 249.002,125.139 247.003,125.659C243.3,126.138 239.557,125.819 235.84,125.872C235.84,128.256 235.827,130.641 235.827,133.025C238.012,133.438 241.941,132.186 242.274,135.423C242.128,138.66 237.945,137.421 235.827,137.874C235.827,140.379 235.84,142.87 235.84,145.361C239.69,145.388 243.553,145.148 247.39,145.534C249.614,146.027 249.201,149.304 247.283,149.81C242.594,150.117 237.852,150.183 233.163,149.77C232.843,149.491 232.177,148.931 231.844,148.638C231.244,141.178 231.737,133.651 231.577,126.165C231.777,124.593 231.138,122.168 233.123,121.489Z" style="fill:black;fill-rule:nonzero;"/>
        <path d="M255.596,122.462C258.34,120.104 262.776,121.676 266.16,121.382C273.979,121.529 274.912,133.079 269.65,137.142C270.529,140.672 271.781,144.095 272.461,147.666C273.207,149.051 270.316,151.249 269.343,149.797C267.265,146.187 266.732,141.937 265.454,138.008C263.415,138.008 261.377,137.994 259.339,137.994C259.312,141.618 259.539,145.254 259.166,148.864C258.42,150.09 257.367,150.45 256.009,149.943C254.503,146.253 255.369,142.137 255.169,138.261C255.409,132.999 254.61,127.63 255.596,122.462Z" style="fill:black;fill-rule:nonzero;"/>
        <path d="M280.24,121.902C284.303,120.783 289.059,120.983 293.189,122.022C298.357,124.473 296.692,131.08 296.998,135.636C296.812,140.405 298.331,147.905 292.229,149.584C288.153,149.824 283.011,151.222 279.534,148.758C279.121,139.992 279.095,131.16 279.561,122.408L280.24,121.902Z" style="fill:black;fill-rule:nonzero;"/>
        <path d="M307.949,121.782C312.185,120.876 318.472,120.437 320.524,125.246C321.75,129.948 321.004,134.89 321.217,139.686C321.283,143.15 321.15,147.785 317.353,149.291C313.584,150.356 308.761,150.769 305.577,148.065C302.26,144.335 303.872,138.9 303.473,134.371C303.486,130.001 302.66,123.514 307.949,121.782Z" style="fill:black;fill-rule:nonzero;"/>
        <path d="M329.423,125.073C327.971,120.37 333.885,121.382 336.709,121.249C339.48,121.676 344.875,119.877 344.902,124.193C344.915,131.067 345.315,137.994 344.676,144.828C343.557,150.57 336.416,150.649 331.927,149.544C328.29,148.625 327.238,144.628 327.251,141.338C328.117,141.218 329.836,140.992 330.701,140.885C331.141,145.854 336.523,146.307 340.24,144.682C341.359,138.514 340.479,132.159 340.746,125.925C336.989,125.685 332.953,126.684 329.423,125.073Z" style="fill:black;fill-rule:nonzero;"/>
        <path d="M355.932,121.929C360.301,120.77 367.162,120.357 369.067,125.565C370.279,131.107 369.56,136.889 369.626,142.523C369.693,145.694 367.855,149.131 364.498,149.69C360.395,150.37 354.347,150.623 352.575,145.867C351.403,140.778 352.109,135.476 351.962,130.294C351.842,127.137 352.562,123.154 355.932,121.929Z" style="fill:black;fill-rule:nonzero;"/>
        <path d="M82.5515,125.499C84.6829,123.94 87.5203,124.993 89.9448,124.966C90.2912,130.987 90.0914,137.022 90.1313,143.056C92.023,143.203 93.9279,143.376 95.8195,143.549C95.6597,144.229 95.3267,145.601 95.1668,146.28C90.6375,147.279 85.4822,147.439 81.0062,146.213C79.5941,142.457 84.3099,143.403 86.5079,143.003C86.4946,138.287 86.5079,133.585 86.4813,128.882C84.7229,128.19 81.1394,128.376 82.5515,125.499Z" style="fill:black;fill-rule:nonzero;"/>
        <path d="M187.297,126.072C190.055,125.965 192.826,125.978 195.583,126.125C196.116,132.439 196.116,138.793 195.596,145.108C192.826,145.308 190.041,145.321 187.271,145.161C186.405,138.86 186.378,132.386 187.297,126.072Z" style="fill:white;fill-rule:nonzero;"/>
        <path d="M210.889,125.885C213.807,125.912 216.724,125.978 219.655,126.112C220.521,132.399 220.507,138.833 219.668,145.121C216.737,145.294 213.807,145.374 210.889,145.401C210.876,138.9 210.876,132.386 210.889,125.885Z" style="fill:white;fill-rule:nonzero;"/>
        <path d="M259.339,125.885C262.283,126.085 265.467,125.392 268.211,126.751C268.691,128.709 268.504,130.734 268.451,132.732C265.454,133.372 262.39,133.425 259.339,133.425C259.339,130.907 259.339,128.403 259.339,125.885Z" style="fill:white;fill-rule:nonzero;"/>
        <path d="M283.291,125.925C286.261,125.925 289.232,125.952 292.203,126.032C292.949,132.186 293.282,138.58 292.216,144.695C289.445,145.867 286.235,145.174 283.291,145.374C283.317,138.887 283.304,132.399 283.291,125.925Z" style="fill:white;fill-rule:nonzero;"/>
        <path d="M308.268,127.151C309.96,125.272 314.916,125.126 316.754,127.217C316.901,133.039 317.433,139.007 316.408,144.735C313.677,145.587 307.789,146.64 307.802,142.324C307.882,137.301 307.136,132.066 308.268,127.151Z" style="fill:white;fill-rule:nonzero;"/>
        <path d="M356.532,126.152C359.302,125.992 362.087,125.952 364.871,126.072C365.75,132.386 365.723,138.847 364.897,145.174C362.1,145.321 359.302,145.308 356.518,145.094C356.052,138.793 356.052,132.453 356.532,126.152Z" style="fill:white;fill-rule:nonzero;"/>
    </g>
</svg>
