<?xml version="1.0" standalone="no"?>
<!DOCTYPE svg PUBLIC "-//W3C//DTD SVG 1.1//EN" "http://www.w3.org/Graphics/SVG/1.1/DTD/svg11.dtd">
<svg width="100%" height="100%" viewBox="0 0 300 100" version="1.1" xmlns="http://www.w3.org/2000/svg" xmlns:xlink="http://www.w3.org/1999/xlink" xml:space="preserve" style="fill-rule:evenodd;clip-rule:evenodd;stroke-linejoin:round;stroke-miterlimit:1.41421;">
    <path d="M46.58,6.84C56.36,6.69 66.27,9.76 73.87,16.01C83.6,23.58 89.73,35.64 89.82,48C90.21,57.66 87.06,67.38 81.11,74.98C73.91,84.37 62.6,90.62 50.75,91.29C40.36,92.12 29.62,89 21.5,82.42C12.9,75.8 7.02,65.68 5.69,54.9C3.94,43.05 7.62,30.48 15.58,21.5C23.19,12.48 34.79,7.09 46.58,6.84Z" style="fill:black;fill-rule:nonzero;"/>
    <path d="M52.87,7.65C63.08,9.31 72.88,14.32 79.47,22.41C86.66,30.79 90.08,42.14 88.98,53.11C87.6,73.96 68.13,91.39 47.34,90.84C36.94,90.43 27.84,81.33 27.62,70.89C27.18,62.56 32.29,54.31 39.96,51.01C45.34,48.37 51.72,49.91 57.08,47.2C65.08,43.65 70.23,34.7 69.11,25.99C68.33,17.16 61.29,9.88 52.87,7.65Z" style="fill:white;fill-rule:nonzero;"/>
    <path d="M44.49,19.56C46.94,18.93 50.26,18.82 51.83,21.22C52.73,24.71 52.29,28.41 52.26,31.98C52.35,38.07 40.77,37.33 41.98,31.09C42.46,27.37 40.29,21.62 44.49,19.56Z" style="fill:white;fill-rule:nonzero;"/>
    <path d="M44.84,22.17C46.33,22.32 48.16,21.62 49.44,22.64C50.06,26.09 49.76,29.65 49.43,33.13C47.91,33.1 46.39,33.09 44.87,33.1C44.49,29.47 44.52,25.8 44.84,22.17Z" style="fill:black;fill-rule:nonzero;"/>
    <path d="M120.5,24.55C122.56,22.13 126.1,22.81 128.89,23.04C132.13,23.32 134.49,29.85 130.15,30.16C129.25,28.72 129.3,25.88 127,26.16C125.75,26.04 124.52,26.12 123.31,26.42C122.15,27.76 122.58,29.52 122.64,31.11C125.78,31.76 130.29,30.7 132.04,34.08C132.76,36.57 132.86,39.38 131.83,41.79C129.87,45.06 125.41,44.41 122.24,43.81C119.62,42.85 117.6,37.44 121.56,37.05C122.54,38.43 122.67,41.22 124.95,40.86C126.23,40.87 127.52,40.83 128.8,40.76C129.31,38.92 129.38,37.03 129.14,35.14C126.17,34.65 122.17,35.51 120.19,32.65C118.94,30.17 118.82,26.86 120.5,24.55Z" style="fill:black;fill-rule:nonzero;"/>
    <path d="M138.34,23.29C142.28,22.74 147.24,21.87 150.8,23.94C150.64,24.41 150.32,25.35 150.16,25.82C147.19,26.38 144.14,26.07 141.14,26.12C141.13,27.95 141.13,29.78 141.11,31.62C142.83,31.94 146.44,31.01 145.96,33.84C145.26,35.65 142.63,34.76 141.11,35.19C141.13,37.08 141.13,38.98 141.14,40.88C144.36,41.03 147.72,40.38 150.82,41.46C151.31,42.69 150.65,44.45 149.07,44.16C145.52,44.1 141.78,44.74 138.35,43.73C137.8,36.99 137.81,30.03 138.34,23.29Z" style="fill:black;fill-rule:nonzero;"/>
    <path d="M160.23,23.19C162.28,22.21 165.34,22.64 165.74,25.27C167.26,31.14 167.73,37.22 168.93,43.16C168.4,43.55 167.36,44.34 166.84,44.73C165.47,42.93 165.23,40.68 164.91,38.53C163.12,38.53 161.33,38.54 159.54,38.54C158.91,40.57 159.46,43.47 157.15,44.5C156.77,44.12 156,43.37 155.61,42.99C156.14,38.3 157.32,33.71 158.05,29.05C158.49,27.03 158.64,24.7 160.23,23.19Z" style="fill:black;fill-rule:nonzero;"/>
    <path d="M174.08,23.14C177.98,22.57 181.98,22.79 185.91,22.96C187.78,22.4 187.82,26.63 185.89,26.03C184.58,26.15 183.27,26.22 181.96,26.23C181.88,31.81 182.1,37.4 181.87,42.97C182.4,44.75 178.42,44.87 179,42.91C178.71,37.36 178.95,31.8 178.9,26.24C176.76,26.28 171.89,26.47 174.08,23.14Z" style="fill:black;fill-rule:nonzero;"/>
    <path d="M192.07,23.13C196.03,22.61 200.07,22.77 204.05,22.97C206.03,22.49 205.98,26.53 203.98,26.03C202.7,26.15 201.41,26.22 200.13,26.24C199.99,32.12 200.49,38.04 199.87,43.9L198.81,44.37C198.42,44.25 197.66,44 197.27,43.87C196.74,38.02 197.19,32.11 197.05,26.23C194.86,26.21 190.35,26.66 192.07,23.13Z" style="fill:black;fill-rule:nonzero;"/>
    <path d="M210.67,23.59C211.66,21.57 213.87,23.22 213.61,24.93C213.74,30.25 213.6,35.57 213.65,40.88C216.97,41.07 220.46,40.33 223.66,41.44C224.3,42.57 223.82,43.96 222.46,44.1C218.94,44.31 215.37,44.38 211.84,44.08C210.24,43.99 210.53,42.06 210.44,40.97C210.58,35.18 210.14,29.35 210.67,23.59Z" style="fill:black;fill-rule:nonzero;"/>
    <path d="M229.11,22.99C233.05,22.85 237.06,22.46 240.97,23.13C241.06,23.83 241.25,25.24 241.34,25.94C238.22,26.18 235.09,26.14 231.96,26.13C231.96,27.96 231.96,29.79 231.95,31.62C233.66,31.9 235.92,31.21 237.01,32.97C236.9,35.66 233.76,34.88 231.96,35.17C231.96,37.08 231.96,38.98 231.96,40.88C235.15,41.09 238.55,40.27 241.59,41.48C242.12,42.73 241.76,44.01 240.24,44.1C236.54,44.39 232.81,44.24 229.11,44.04C228.7,37.04 228.7,29.99 229.11,22.99Z" style="fill:black;fill-rule:nonzero;"/>
    <path d="M160.15,35.09C160.88,31.85 161,28.4 162.56,25.39C163.4,28.58 163.91,31.84 164.45,35.1C163.01,35.09 161.58,35.09 160.15,35.09Z" style="fill:white;fill-rule:nonzero;"/>
    <path d="M103.28,58.17C107.25,55.98 114.79,57 114.34,62.87C113.17,66.27 110.59,62.75 110.49,60.84C108.67,60.78 106.81,60.58 105.02,61C103.44,64.72 104.53,69.08 104.32,73.05C104.29,76.35 108.41,75.12 110.53,75.16C110.97,73.82 111.87,70.54 113.87,72.17C115.25,74.77 113.07,78.45 110.11,78.65C107.08,79.11 102.75,79.07 101.52,75.59C100.71,72.47 101.2,69.19 101.06,66.01C101.11,63.33 100.7,59.9 103.28,58.17Z" style="fill:black;fill-rule:nonzero;"/>
    <path d="M122.49,57.65C125.69,56.93 130.54,56.59 132.05,60.27C132.97,63.77 132.43,67.46 132.57,71.04C132.63,73.68 132.49,77.27 129.53,78.32C126.24,79.22 121.07,79.47 119.69,75.54C118.83,71.73 119.35,67.77 119.25,63.89C119.15,61.47 119.86,58.45 122.49,57.65Z" style="fill:black;fill-rule:nonzero;"/>
    <path d="M138.39,57.54C141.57,57.09 145.05,56.86 148.13,57.92C151.68,59.91 150.57,64.6 150.79,67.96C150.55,71.21 151.61,75.39 148.73,77.76C145.84,79.44 142.24,78.74 139.05,78.69C136.69,78.57 137.6,75.53 137.35,73.97C137.63,68.58 136.83,63.08 137.78,57.76L138.39,57.54Z" style="fill:black;fill-rule:nonzero;"/>
    <path d="M157.27,57.4C160.72,57.1 164.23,57.08 167.68,57.41C169.26,57.72 169.19,60.14 167.69,60.53C164.91,60.89 162.1,60.65 159.31,60.69C159.31,62.48 159.3,64.27 159.3,66.06C160.94,66.37 163.89,65.43 164.14,67.86C164.03,70.29 160.89,69.36 159.3,69.7C159.3,71.58 159.31,73.45 159.31,75.32C162.2,75.34 165.1,75.16 167.98,75.45C169.65,75.82 169.34,78.28 167.9,78.66C164.38,78.89 160.82,78.94 157.3,78.63C157.06,78.42 156.56,78 156.31,77.78C155.86,72.18 156.23,66.53 156.11,60.91C156.26,59.73 155.78,57.91 157.27,57.4Z" style="fill:black;fill-rule:nonzero;"/>
    <path d="M174.14,58.13C176.2,56.36 179.53,57.54 182.07,57.32C187.94,57.43 188.64,66.1 184.69,69.15C185.35,71.8 186.29,74.37 186.8,77.05C187.36,78.09 185.19,79.74 184.46,78.65C182.9,75.94 182.5,72.75 181.54,69.8C180.01,69.8 178.48,69.79 176.95,69.79C176.93,72.51 177.1,75.24 176.82,77.95C176.26,78.87 175.47,79.14 174.45,78.76C173.32,75.99 173.97,72.9 173.82,69.99C174,66.04 173.4,62.01 174.14,58.13Z" style="fill:black;fill-rule:nonzero;"/>
    <path d="M192.64,57.71C195.69,56.87 199.26,57.02 202.36,57.8C206.24,59.64 204.99,64.6 205.22,68.02C205.08,71.6 206.22,77.23 201.64,78.49C198.58,78.67 194.72,79.72 192.11,77.87C191.8,71.29 191.78,64.66 192.13,58.09L192.64,57.71Z" style="fill:black;fill-rule:nonzero;"/>
    <path d="M213.44,57.62C216.62,56.94 221.34,56.61 222.88,60.22C223.8,63.75 223.24,67.46 223.4,71.06C223.45,73.66 223.35,77.14 220.5,78.27C217.67,79.07 214.05,79.38 211.66,77.35C209.17,74.55 210.38,70.47 210.08,67.07C210.09,63.79 209.47,58.92 213.44,57.62Z" style="fill:black;fill-rule:nonzero;"/>
    <path d="M229.56,60.09C228.47,56.56 232.91,57.32 235.03,57.22C237.11,57.54 241.16,56.19 241.18,59.43C241.19,64.59 241.49,69.79 241.01,74.92C240.17,79.23 234.81,79.29 231.44,78.46C228.71,77.77 227.92,74.77 227.93,72.3C228.58,72.21 229.87,72.04 230.52,71.96C230.85,75.69 234.89,76.03 237.68,74.81C238.52,70.18 237.86,65.41 238.06,60.73C235.24,60.55 232.21,61.3 229.56,60.09Z" style="fill:black;fill-rule:nonzero;"/>
    <path d="M249.46,57.73C252.74,56.86 257.89,56.55 259.32,60.46C260.23,64.62 259.69,68.96 259.74,73.19C259.79,75.57 258.41,78.15 255.89,78.57C252.81,79.08 248.27,79.27 246.94,75.7C246.06,71.88 246.59,67.9 246.48,64.01C246.39,61.64 246.93,58.65 249.46,57.73Z" style="fill:black;fill-rule:nonzero;"/>
    <path d="M44.24,60.41C45.84,59.24 47.97,60.03 49.79,60.01C50.05,64.53 49.9,69.06 49.93,73.59C51.35,73.7 52.78,73.83 54.2,73.96C54.08,74.47 53.83,75.5 53.71,76.01C50.31,76.76 46.44,76.88 43.08,75.96C42.02,73.14 45.56,73.85 47.21,73.55C47.2,70.01 47.21,66.48 47.19,62.95C45.87,62.43 43.18,62.57 44.24,60.41Z" style="fill:black;fill-rule:nonzero;"/>
    <path d="M122.87,60.84C124.94,60.76 127.02,60.77 129.09,60.88C129.49,65.62 129.49,70.39 129.1,75.13C127.02,75.28 124.93,75.29 122.85,75.17C122.2,70.44 122.18,65.58 122.87,60.84Z" style="fill:white;fill-rule:nonzero;"/>
    <path d="M140.58,60.7C142.77,60.72 144.96,60.77 147.16,60.87C147.81,65.59 147.8,70.42 147.17,75.14C144.97,75.27 142.77,75.33 140.58,75.35C140.57,70.47 140.57,65.58 140.58,60.7Z" style="fill:white;fill-rule:nonzero;"/>
    <path d="M176.95,60.7C179.16,60.85 181.55,60.33 183.61,61.35C183.97,62.82 183.83,64.34 183.79,65.84C181.54,66.32 179.24,66.36 176.95,66.36C176.95,64.47 176.95,62.59 176.95,60.7Z" style="fill:white;fill-rule:nonzero;"/>
    <path d="M194.93,60.73C197.16,60.73 199.39,60.75 201.62,60.81C202.18,65.43 202.43,70.23 201.63,74.82C199.55,75.7 197.14,75.18 194.93,75.33C194.95,70.46 194.94,65.59 194.93,60.73Z" style="fill:white;fill-rule:nonzero;"/>
    <path d="M213.68,61.65C214.95,60.24 218.67,60.13 220.05,61.7C220.16,66.07 220.56,70.55 219.79,74.85C217.74,75.49 213.32,76.28 213.33,73.04C213.39,69.27 212.83,65.34 213.68,61.65Z" style="fill:white;fill-rule:nonzero;"/>
    <path d="M249.91,60.9C251.99,60.78 254.08,60.75 256.17,60.84C256.83,65.58 256.81,70.43 256.19,75.18C254.09,75.29 251.99,75.28 249.9,75.12C249.55,70.39 249.55,65.63 249.91,60.9Z" style="fill:white;fill-rule:nonzero;"/>
</svg>
