<?xml version="1.0" standalone="no"?>
<!DOCTYPE svg PUBLIC "-//W3C//DTD SVG 1.1//EN" "http://www.w3.org/Graphics/SVG/1.1/DTD/svg11.dtd">
<svg width="100%" height="100%" viewBox="0 0 400 220" version="1.1" xmlns="http://www.w3.org/2000/svg" xmlns:xlink="http://www.w3.org/1999/xlink" xml:space="preserve" style="fill-rule:evenodd;clip-rule:evenodd;stroke-linejoin:round;stroke-miterlimit:1.41421;">
    <g id="outlines_8_">
        <g>
            <path d="M149.146,118.028L139.847,98.5156C137.636,93.8662 135.35,88.607 134.511,86.1679L134.359,86.3204C134.664,89.8265 134.74,94.2473 134.74,97.8297L134.969,117.952L128.185,117.952L128.185,76.3355L135.959,76.3355L146.097,96.6863C148.002,100.497 149.832,105.452 150.365,107.433L150.518,107.281C150.365,105.147 149.908,99.2016 149.908,95.3906L149.755,76.3355L156.31,76.3355L156.31,118.028L149.146,118.028Z" style="fill:black;fill-rule:nonzero;"/>
            <path d="M168.734,104.613L168.734,105.071C168.734,109.263 170.335,113.76 176.28,113.76C179.1,113.76 181.615,112.769 183.826,110.787L186.417,114.827C183.216,117.571 179.557,118.866 175.442,118.866C166.829,118.866 161.417,112.693 161.417,102.936C161.417,97.601 162.56,94.0186 165.228,91.046C167.667,88.2259 170.716,86.9301 174.527,86.9301C177.5,86.9301 180.32,87.6923 182.911,90.0552C185.579,92.4942 186.875,96.229 186.875,103.318L186.875,104.689C186.951,104.613 168.734,104.613 168.734,104.613ZM174.603,91.8845C170.868,91.8845 168.81,94.8571 168.81,99.8114L180.015,99.8114C180.091,94.7808 177.881,91.8845 174.603,91.8845Z" style="fill:black;fill-rule:nonzero;"/>
            <path d="M222.165,118.104L215.991,118.104L212.256,104.08C211.265,100.497 210.274,95.7717 210.274,95.7717L210.122,95.7717C210.122,95.7717 209.665,98.7443 208.14,104.385L204.482,118.104L198.308,118.104L190,87.9972L196.555,87.0826L199.908,101.793C200.747,105.604 201.509,109.796 201.509,109.796L201.661,109.796C201.661,109.796 202.271,105.833 203.414,101.641L207.302,87.5399L213.78,87.5399L217.21,101.26C218.43,106.214 219.116,109.949 219.116,109.949L219.268,109.949C219.268,109.949 220.03,105.299 220.793,101.793L223.918,87.6161L230.778,87.6161L222.165,118.104Z" style="fill:black;fill-rule:nonzero;"/>
            <path d="M269.269,118.028L265.61,111.549C262.714,106.443 260.808,103.546 258.522,101.26C257.76,100.497 257.15,100.04 255.778,100.04L255.778,118.028L248.994,118.028L248.994,76.4117L261.723,76.4117C271.022,76.4117 275.29,81.8234 275.29,88.3021C275.29,94.2473 271.479,99.7352 264.924,99.7352C266.449,100.497 269.193,104.537 271.327,108.043L277.501,118.028L269.269,118.028ZM259.665,82.052L255.854,82.052L255.854,95.1619L259.436,95.1619C263.019,95.1619 265,94.7046 266.22,93.4089C267.363,92.2656 268.049,90.5125 268.049,88.3783C268.049,84.1862 265.763,82.052 259.665,82.052Z" style="fill:black;fill-rule:nonzero;"/>
            <path d="M286.571,104.613L286.571,105.071C286.571,109.263 288.171,113.76 294.117,113.76C296.937,113.76 299.452,112.769 301.662,110.787L304.254,114.827C301.053,117.571 297.394,118.866 293.278,118.866C284.665,118.866 279.254,112.693 279.254,102.936C279.254,97.601 280.397,94.0186 283.065,91.046C285.504,88.2259 288.553,86.9301 292.364,86.9301C295.336,86.9301 298.156,87.6923 300.748,90.0552C303.416,92.4942 304.711,96.229 304.711,103.318L304.711,104.689C304.787,104.613 286.571,104.613 286.571,104.613ZM292.44,91.8845C288.705,91.8845 286.647,94.8571 286.647,99.8114L297.928,99.8114C297.851,94.7808 295.717,91.8845 292.44,91.8845Z" style="fill:black;fill-rule:nonzero;"/>
            <path d="M317.135,118.714C310.428,118.714 310.428,112.693 310.428,110.101L310.428,84.1862C310.428,79.9941 310.275,77.7837 309.818,75.2684L316.602,73.744C317.059,75.5733 317.135,78.1648 317.135,82.1283L317.135,107.967C317.135,112.083 317.288,112.693 317.745,113.455C318.126,113.988 319.117,114.293 319.879,113.912L320.946,118.028C319.879,118.485 318.66,118.714 317.135,118.714Z" style="fill:black;fill-rule:nonzero;"/>
            <path d="M328.644,83.1191C326.205,83.1191 324.376,81.1374 324.376,78.6984C324.376,76.2593 326.282,74.2776 328.797,74.2776C331.16,74.2776 333.141,76.1831 333.141,78.6984C333.065,81.1374 331.083,83.1191 328.644,83.1191ZM325.291,118.028L325.291,88.0735L331.998,86.8539L331.998,118.028L325.291,118.028Z" style="fill:black;fill-rule:nonzero;"/>
            <path d="M350.901,118.866C342.593,118.866 337.943,113.074 337.943,103.241C337.943,92.1893 344.574,86.9301 351.358,86.9301C354.712,86.9301 357.075,87.6923 359.742,90.2838L356.389,94.7046C354.559,93.104 353.035,92.3418 351.282,92.3418C349.148,92.3418 347.471,93.4089 346.48,95.3906C345.565,97.2199 345.26,100.116 345.26,103.851C345.26,108.043 345.87,110.635 347.318,112.159C348.309,113.226 349.757,113.912 351.358,113.912C353.492,113.912 355.55,112.921 357.532,110.94L360.657,114.979C357.913,117.571 355.017,118.866 350.901,118.866Z" style="fill:black;fill-rule:nonzero;"/>
            <path d="M366.297,118.714C363.858,118.714 361.876,116.732 361.876,114.217C361.876,111.702 363.858,109.72 366.297,109.72C368.736,109.72 370.718,111.702 370.718,114.217C370.718,116.732 368.736,118.714 366.297,118.714ZM366.297,110.635C364.392,110.635 362.867,112.235 362.867,114.217C362.867,116.199 364.392,117.799 366.297,117.799C368.203,117.799 369.727,116.199 369.727,114.217C369.803,112.235 368.203,110.635 366.297,110.635ZM367.212,116.732C367.059,116.427 366.907,116.275 366.755,115.894C366.221,114.979 366.145,114.751 365.916,114.674C365.84,114.598 365.84,114.598 365.764,114.598L365.764,116.656L364.773,116.656L364.773,111.702L366.602,111.702C367.517,111.702 368.05,112.312 368.05,113.15C368.05,113.912 367.517,114.522 366.907,114.522C366.983,114.598 367.059,114.674 367.059,114.751C367.364,115.132 368.279,116.656 368.279,116.656L367.212,116.732ZM366.678,112.616C366.602,112.54 366.373,112.54 366.145,112.54L365.764,112.54L365.764,113.912L366.069,113.912C366.45,113.912 366.678,113.836 366.831,113.76C366.983,113.607 366.983,113.455 366.983,113.226C367.059,112.845 366.907,112.693 366.678,112.616Z" style="fill:black;fill-rule:nonzero;"/>
        </g>
        <g>
            <path d="M104.709,92.418C101.203,76.1831 81.6906,66.6555 61.2636,71.1525C40.7603,75.5733 27.0406,92.3418 30.5468,108.577C34.0529,124.812 53.5653,134.339 73.9924,129.918C94.4956,125.421 108.291,108.653 104.709,92.418ZM67.5899,115.437C59.3581,115.437 52.6507,108.729 52.6507,100.497C52.6507,92.2656 59.3581,85.5582 67.5899,85.5582C75.8216,85.5582 82.529,92.2656 82.529,100.497C82.529,108.729 75.8979,115.437 67.5899,115.437Z" style="fill:rgb(0,140,153);fill-rule:nonzero;"/>
            <path d="M70.9435,79.613C59.0532,79.613 49.4494,89.2168 49.4494,101.107C49.4494,112.997 59.0532,122.601 70.9435,122.601C82.8339,122.601 92.4377,112.997 92.4377,101.107C92.4377,89.2168 82.8339,79.613 70.9435,79.613ZM67.5899,113.531C60.3489,113.531 54.5562,107.662 54.5562,100.497C54.5562,93.3327 60.4251,87.4637 67.5899,87.4637C74.7546,87.4637 80.6997,93.3327 80.6997,100.497C80.6997,107.662 74.8308,113.531 67.5899,113.531Z" style="fill:rgb(114,204,210);fill-rule:nonzero;"/>
        </g>
    </g>
</svg>
