<?xml version="1.0" encoding="UTF-8"?>
<!-- Generator: Adobe Illustrator 17.1.0, SVG Export Plug-In . SVG Version: 6.00 Build 0)  -->
<!DOCTYPE svg PUBLIC "-//W3C//DTD SVG 1.1//EN" "http://www.w3.org/Graphics/SVG/1.1/DTD/svg11.dtd">
<svg version="1.1" id="CMYK_-_logo" xmlns="http://www.w3.org/2000/svg" xmlns:xlink="http://www.w3.org/1999/xlink" x="0px" y="0px" width="447.1px" height="80px" viewBox="26.5 210 447.1 80" enable-background="new 26.5 210 447.1 80" xml:space="preserve">
<g id="outlines_8_">
	<g>
		<path d="M182.8,273l-12.2-25.6c-2.9-6.1-5.9-13-7-16.2l-0.2,0.2c0.4,4.6,0.5,10.4,0.5,15.1l0.3,26.4h-8.9v-54.6h10.2l13.3,26.7    c2.5,5,4.9,11.5,5.6,14.1l0.2-0.2c-0.2-2.8-0.8-10.6-0.8-15.6l-0.2-25h8.6V273H182.8z"/>
		<path d="M208.5,255.4v0.6c0,5.5,2.1,11.4,9.9,11.4c3.7,0,7-1.3,9.9-3.9l3.4,5.3c-4.2,3.6-9,5.3-14.4,5.3    c-11.3,0-18.4-8.1-18.4-20.9c0-7,1.5-11.7,5-15.6c3.2-3.7,7.2-5.4,12.2-5.4c3.9,0,7.6,1,11,4.1c3.5,3.2,5.2,8.1,5.2,17.4v1.8    C232.4,255.4,208.5,255.4,208.5,255.4z M216.2,238.7c-4.9,0-7.6,3.9-7.6,10.4h14.7C223.4,242.5,220.5,238.7,216.2,238.7z"/>
		<path d="M278.6,273.1h-8.1l-4.9-18.4c-1.3-4.7-2.6-10.9-2.6-10.9h-0.2c0,0-0.6,3.9-2.6,11.3l-4.8,18h-8.1l-10.9-39.5l8.6-1.2    l4.4,19.3c1.1,5,2.1,10.5,2.1,10.5h0.2c0,0,0.8-5.2,2.3-10.7l5.1-18.5h8.5l4.5,18c1.6,6.5,2.5,11.4,2.5,11.4h0.2c0,0,1-6.1,2-10.7    l4.1-18.6h9L278.6,273.1z"/>
		<path d="M340.4,273l-4.8-8.5c-3.8-6.7-6.3-10.5-9.3-13.5c-1-1-1.8-1.6-3.6-1.6V273h-8.9v-54.6h16.7c12.2,0,17.8,7.1,17.8,15.6    c0,7.8-5,15-13.6,15c2,1,5.6,6.3,8.4,10.9l8.1,13.1H340.4z M327.8,225.8h-5V243h4.7c4.7,0,7.3-0.6,8.9-2.3    c1.5-1.5,2.4-3.8,2.4-6.6C338.8,228.6,335.8,225.8,327.8,225.8z"/>
		<path d="M363.1,255.4v0.6c0,5.5,2.1,11.4,9.9,11.4c3.7,0,7-1.3,9.9-3.9l3.4,5.3c-4.2,3.6-9,5.3-14.4,5.3    c-11.3,0-18.4-8.1-18.4-20.9c0-7,1.5-11.7,5-15.6c3.2-3.7,7.2-5.4,12.2-5.4c3.9,0,7.6,1,11,4.1c3.5,3.2,5.2,8.1,5.2,17.4v1.8    C387,255.4,363.1,255.4,363.1,255.4z M370.8,238.7c-4.9,0-7.6,3.9-7.6,10.4H378C377.9,242.5,375.1,238.7,370.8,238.7z"/>
		<path d="M403.2,273.9c-8.8,0-8.8-7.9-8.8-11.3v-34c0-5.5-0.2-8.4-0.8-11.7l8.9-2c0.6,2.4,0.7,5.8,0.7,11v33.9    c0,5.4,0.2,6.2,0.8,7.2c0.5,0.7,1.8,1.1,2.8,0.6l1.4,5.4C406.8,273.6,405.2,273.9,403.2,273.9z"/>
		<path d="M418.3,227.2c-3.2,0-5.6-2.6-5.6-5.8c0-3.2,2.5-5.8,5.8-5.8c3.1,0,5.7,2.5,5.7,5.8C424.1,224.6,421.5,227.2,418.3,227.2z     M413.9,273v-39.3l8.8-1.6V273H413.9z"/>
		<path d="M447.5,274.1c-10.9,0-17-7.6-17-20.5c0-14.5,8.7-21.4,17.6-21.4c4.4,0,7.5,1,11,4.4l-4.4,5.8c-2.4-2.1-4.4-3.1-6.7-3.1    c-2.8,0-5,1.4-6.3,4c-1.2,2.4-1.6,6.2-1.6,11.1c0,5.5,0.8,8.9,2.7,10.9c1.3,1.4,3.2,2.3,5.3,2.3c2.8,0,5.5-1.3,8.1-3.9l4.1,5.3    C456.7,272.4,452.9,274.1,447.5,274.1z"/>
		<path d="M467.7,273.9c-3.2,0-5.8-2.6-5.8-5.9s2.6-5.9,5.8-5.9s5.8,2.6,5.8,5.9C473.5,271.3,470.9,273.9,467.7,273.9z M467.7,263.3    c-2.5,0-4.5,2.1-4.5,4.7s2,4.7,4.5,4.7c2.5,0,4.5-2.1,4.5-4.7C472.3,265.4,470.2,263.3,467.7,263.3z M468.9,271.3    c-0.2-0.4-0.4-0.6-0.6-1.1c-0.7-1.2-0.8-1.5-1.1-1.6c-0.1-0.1-0.1-0.1-0.2-0.1v2.7h-1.3v-6.5h2.4c1.2,0,1.9,0.8,1.9,1.9    c0,1-0.7,1.8-1.5,1.8c0.1,0.1,0.2,0.2,0.2,0.3c0.4,0.5,1.6,2.5,1.6,2.5L468.9,271.3L468.9,271.3z M468.2,265.9    c-0.1-0.1-0.4-0.1-0.7-0.1H467v1.8h0.4c0.5,0,0.8-0.1,1-0.2c0.2-0.2,0.2-0.4,0.2-0.7C468.7,266.2,468.5,266,468.2,265.9z"/>
	</g>
	<g>
		<path fill="#008C99" d="M124.5,239.4c-4.6-21.3-30.2-33.8-57-27.9c-26.9,5.8-44.9,27.8-40.3,49.1c4.6,21.3,30.2,33.8,57,28    C111.1,282.7,129.2,260.7,124.5,239.4z M75.8,269.6c-10.8,0-19.6-8.8-19.6-19.6s8.8-19.6,19.6-19.6s19.6,8.8,19.6,19.6    S86.7,269.6,75.8,269.6z"/>
		<path fill="#72CCD2" d="M80.2,222.6c-15.6,0-28.2,12.6-28.2,28.2s12.6,28.2,28.2,28.2s28.2-12.6,28.2-28.2S95.8,222.6,80.2,222.6z     M75.8,267.1c-9.5,0-17.1-7.7-17.1-17.1s7.7-17.1,17.1-17.1S93,240.6,93,250S85.3,267.1,75.8,267.1z"/>
	</g>
</g>
</svg>