<?xml version="1.0" standalone="no"?>
<!DOCTYPE svg PUBLIC "-//W3C//DTD SVG 1.1//EN" "http://www.w3.org/Graphics/SVG/1.1/DTD/svg11.dtd">
<svg width="100%" height="100%" viewBox="0 0 612 103" version="1.1" xmlns="http://www.w3.org/2000/svg" xmlns:xlink="http://www.w3.org/1999/xlink" xml:space="preserve" style="fill-rule:evenodd;clip-rule:evenodd;stroke-linejoin:round;stroke-miterlimit:1.41421;">
    <g>
        <g>
            <path d="M107.5,37.6L98.5,37.6L98.5,32.8L107.5,32.8L107.5,29.7C107.5,20.3 107.9,10.8 119.3,10.8C121,10.8 123.5,11 124.5,11.6L124.1,16.4C123.1,15.8 121.4,15.4 119.7,15.4C112.1,15.4 113,23.6 113,28.8L113,32.6L123,32.6L123,37.4L113,37.4L113,77.5L107.5,77.5L107.5,37.6ZM137.5,20.8L132,20.8L132,13.5L137.5,13.5L137.5,20.8ZM132.1,32.8L137.6,32.8L137.6,77.5L132.1,77.5L132.1,32.8Z" style="fill:rgb(63,63,63);fill-rule:nonzero;"/>
            <rect x="148.9" y="11.8" width="5.5" height="65.7" style="fill:rgb(63,63,63);fill-rule:nonzero;"/>
            <path d="M190.6,70.4C187.9,75.6 181.8,78.6 176.1,78.6C163.3,78.6 161.4,70 161.4,66C161.4,51.1 177.4,50.3 188.9,50.3L189.9,50.3L189.9,48C189.9,40.4 187.2,36.5 179.8,36.5C175.2,36.5 170.8,37.5 166.6,40.3L166.6,35.1C170,33.4 175.8,32 179.8,32C190.9,32 195.5,37 195.5,48.6L195.5,68C195.5,71.6 195.5,74.3 195.9,77.4L190.4,77.4L190.6,70.4ZM190,55L188.3,55C178.6,55 167.3,56 167.3,65.7C167.3,71.6 171.5,73.7 176.5,73.7C189.5,73.7 189.7,62.4 189.7,57.5L189.7,55L190,55Z" style="fill:rgb(63,63,63);fill-rule:nonzero;"/>
            <path d="M259.3,77.5L259.3,47.7C259.3,41.4 257,36.4 249.9,36.4C243.8,36.4 237.9,41.6 237.9,52.8L237.9,77.6L232.4,77.6L232.4,47.8C232.4,41.5 230.1,36.5 223,36.5C216.9,36.5 211,41.7 211,52.9L211,77.7L205.5,77.7L205.5,43.5C205.5,40.1 205.5,36.6 205.1,33L210.3,33L210.3,40.6L210.5,40.6C212.2,37.5 214.9,32 224.4,32C228.4,32 234.9,33.7 236.2,41.4L236.4,41.4C238.5,36.2 243.7,32 250.7,32C259.7,32 264.8,38.3 264.8,46.9L264.8,77.8L259.3,77.5Z" style="fill:rgb(63,63,63);fill-rule:nonzero;"/>
            <path d="M304.8,76.2C301,77.9 296,78.7 291.8,78.7C276.9,78.7 271.4,68.6 271.4,55.2C271.4,41.6 279,31.7 290.3,31.7C302.9,31.7 308.1,41.8 308.1,54L308.1,56.7L277.4,56.7C277.4,66.1 282.4,73.7 292.1,73.7C296.1,73.7 302,72 304.7,70.3L304.7,76.2L304.8,76.2ZM302.1,52.1C302.1,44.3 299,36.6 290.8,36.6C282.6,36.6 277.6,44.8 277.6,52.1L302.1,52.1Z" style="fill:rgb(63,63,63);fill-rule:nonzero;"/>
            <path d="M315.1,43.3C315.1,39.9 315.1,36.4 314.7,32.8L319.9,32.8L319.9,40.8L320.1,40.8C322,36.8 325.3,31.8 334.6,31.8C345.7,31.8 349.9,39.1 349.9,49L349.9,77.6L344.4,77.6L344.4,50.3C344.4,41.9 341.5,36.4 333.7,36.4C323.6,36.4 320.5,45.2 320.5,52.8L320.5,77.6L315,77.6L315.1,43.3Z" style="fill:rgb(63,63,63);fill-rule:nonzero;"/>
            <path d="M379.8,37.6L369.7,37.6L369.7,66.6C369.7,70.6 371.2,73.9 375.6,73.9C377.7,73.9 379.2,73.5 380.6,72.9L381,77.5C379.7,77.9 377,78.8 374.3,78.8C364.4,78.8 364.2,72.1 364.2,63.9L364.2,37.7L355.4,37.7L355.4,32.9L364.2,32.9L364.2,22.2L369.7,20.3L369.7,33L379.8,33L379.8,37.6Z" style="fill:rgb(63,63,63);fill-rule:nonzero;"/>
            <path d="M438.4,73.9C438.4,86.3 432.7,96.6 417.4,96.6C411.5,96.6 406.1,94.9 404,94.3L404.4,88.8C407.8,90.5 412.8,91.9 417.6,91.9C431.9,91.9 433.1,81.6 433.1,69L432.9,69C430,75.5 424.9,77.8 419.3,77.8C405,77.8 400.4,65.4 400.4,55.3C400.4,41.7 405.6,31.8 418.9,31.8C424.8,31.8 428.8,32.6 432.8,37.9L433,37.9L433,32.9L438.5,32.9L438.5,73.9L438.4,73.9ZM419.1,72.9C429.2,72.9 432.7,63.5 432.7,55.3C432.7,44.6 429.6,36.6 419.5,36.6C409,36.6 406.3,46.7 406.3,55.3C406.3,63.8 409.8,72.9 419.1,72.9Z" style="fill:rgb(63,63,63);fill-rule:nonzero;"/>
            <path d="M448,42.9C448,38.1 448,36.2 447.6,32.8L453.1,32.8L453.1,41.4L453.3,41.4C455.4,36.4 459.2,31.7 464.8,31.7C466.1,31.7 467.7,31.9 468.6,32.1L468.6,38C467.6,37.6 465.9,37.4 464.6,37.4C455.8,37.4 453.5,47.3 453.5,55.2L453.5,77.2L448,77.2L448,42.9Z" style="fill:rgb(63,63,63);fill-rule:nonzero;"/>
            <path d="M489.6,31.7C504.1,31.7 510.4,43 510.4,55.2C510.4,67.4 503.9,78.7 489.6,78.7C475.1,78.7 468.8,67.4 468.8,55.2C468.8,43.1 475.1,31.7 489.6,31.7ZM489.6,73.9C499.3,73.9 504.5,65.5 504.5,55.2C504.5,44.9 499.3,36.5 489.6,36.5C479.9,36.5 474.7,44.9 474.7,55.2C474.7,65.5 479.9,73.9 489.6,73.9Z" style="fill:rgb(63,63,63);fill-rule:nonzero;"/>
            <path d="M552.4,67C552.4,70.4 552.4,73.9 552.8,77.5L547.6,77.5L547.6,69.5L547.4,69.5C545.5,73.5 542.2,78.5 532.9,78.5C521.8,78.5 517.6,71.2 517.6,61.3L517.6,32.7L523.1,32.7L523.1,60C523.1,68.4 526,73.9 533.8,73.9C543.9,73.9 547,65.1 547,57.5L547,32.7L552.5,32.7L552.4,67Z" style="fill:rgb(63,63,63);fill-rule:nonzero;"/>
            <path d="M562.2,32.8L567.7,32.8L567.3,41L567.5,41C569,38.5 572.3,31.8 581.8,31.8C595,31.8 600.3,41.7 600.3,55.3C600.3,68.5 594.2,78.8 581.8,78.8C574.9,78.8 570.5,75.9 567.9,70.2L567.7,70.2L567.7,96.2L562.2,96.2L562.2,32.8ZM580.9,36.6C571,36.6 567.7,47.1 567.7,55.3C567.7,63.5 571.1,74 580.9,74C591.4,74 594.1,63.9 594.1,55.3C594.4,46.4 591.6,36.6 580.9,36.6Z" style="fill:rgb(63,63,63);fill-rule:nonzero;"/>
        </g>
        <g>
            <path d="M17,19.1L67.6,19.1C70.5,19.1 72.8,21.4 72.8,24.1L72.8,75C72.8,77.7 70.5,80 67.6,80L17,80C14.1,80 11.8,77.7 11.8,75L11.8,24.2C11.8,21.4 14.1,19.1 17,19.1Z" style="fill:white;fill-rule:nonzero;"/>
            <path d="M18.1,20.6L66.4,20.6C69.1,20.6 71.2,22.7 71.2,25.4L71.2,73.7C71.2,76.4 68.9,78.5 66.4,78.5L18.1,78.5C15.4,78.5 13.3,76.4 13.3,73.7L13.3,25.4C13.2,22.7 15.3,20.6 18.1,20.6Z" style="fill:url(#tag1);fill-rule:nonzero;"/>
            <path d="M18.1,20.6C15.4,20.6 13.3,22.7 13.3,25.4L13.3,45C13.3,61 16,69.6 21.5,78.6L48.4,78.6C39.4,67.5 28.9,44.6 23.4,20.7L18.1,20.6Z" style="fill:url(#tag2);fill-rule:nonzero;"/>
            <path d="M66.3,20.6L47,20.6C46.4,49.2 48.9,65.7 56,78.5L66.3,78.5C69,78.5 71.1,76.4 71.1,73.7L71.1,25.4C71.2,22.7 69.1,20.6 66.3,20.6Z" style="fill:url(#tag3);fill-rule:nonzero;"/>
        </g>
    </g>
    <defs>
        <linearGradient id="tag1" x1="0" y1="0" x2="1" y2="0" gradientUnits="userSpaceOnUse" gradientTransform="matrix(3.55397e-15,-58.0407,58.0407,3.55397e-15,42.199,78.5494)"><stop offset="0%" style="stop-color:rgb(0,119,8);stop-opacity:1"/><stop offset="100%" style="stop-color:rgb(0,162,26);stop-opacity:1"/></linearGradient>
        <linearGradient id="tag2" x1="0" y1="0" x2="1" y2="0" gradientUnits="userSpaceOnUse" gradientTransform="matrix(1.70338e-15,-27.8184,27.8184,1.70338e-15,30.7568,69.6834)"><stop offset="0%" style="stop-color:rgb(4,183,25);stop-opacity:0.77"/><stop offset="29%" style="stop-color:rgb(3,178,25);stop-opacity:0.77"/><stop offset="100%" style="stop-color:rgb(1,169,26);stop-opacity:0.77"/></linearGradient>
        <linearGradient id="tag3" x1="0" y1="0" x2="1" y2="0" gradientUnits="userSpaceOnUse" gradientTransform="matrix(1.70338e-15,-27.8184,27.8184,1.70338e-15,59.0534,69.6834)"><stop offset="0%" style="stop-color:rgb(4,183,25);stop-opacity:0.77"/><stop offset="29%" style="stop-color:rgb(3,178,25);stop-opacity:0.77"/><stop offset="100%" style="stop-color:rgb(1,169,26);stop-opacity:0.77"/></linearGradient>
    </defs>
</svg>
