<?xml version="1.0" standalone="no"?>
<!DOCTYPE svg PUBLIC "-//W3C//DTD SVG 1.1//EN" "http://www.w3.org/Graphics/SVG/1.1/DTD/svg11.dtd">
<svg width="100%" height="100%" viewBox="0 0 400 220" version="1.1" xmlns="http://www.w3.org/2000/svg" xmlns:xlink="http://www.w3.org/1999/xlink" xml:space="preserve" style="fill-rule:evenodd;clip-rule:evenodd;stroke-linejoin:round;stroke-miterlimit:1.41421;">
    <g>
        <g>
            <path d="M85.0391,100.674L79.8258,100.674L79.8258,97.8936L85.0391,97.8936L85.0391,96.0979C85.0391,90.6529 85.2708,85.15 91.8743,85.15C92.859,85.15 94.3072,85.2659 94.8864,85.6134L94.6547,88.3938C94.0755,88.0463 93.0907,87.8146 92.106,87.8146C87.7037,87.8146 88.225,92.5645 88.225,95.5766L88.225,97.7777L94.0175,97.7777L94.0175,100.558L88.225,100.558L88.225,123.786L85.0391,123.786L85.0391,100.674ZM102.417,90.9425L99.2308,90.9425L99.2308,86.714L102.417,86.714L102.417,90.9425ZM99.2888,97.8936L102.475,97.8936L102.475,123.786L99.2888,123.786L99.2888,97.8936Z" style="fill:rgb(63,63,63);fill-rule:nonzero;"/>
            <rect x="109.02" y="85.7293" width="3.1859" height="38.057" style="fill:rgb(63,63,63);fill-rule:nonzero;"/>
            <path d="M133.175,119.674C131.611,122.686 128.078,124.423 124.776,124.423C117.361,124.423 116.261,119.442 116.261,117.125C116.261,108.494 125.529,108.031 132.19,108.031L132.77,108.031L132.77,106.698C132.77,102.296 131.206,100.037 126.919,100.037C124.255,100.037 121.706,100.616 119.273,102.238L119.273,99.2259C121.242,98.2411 124.602,97.4302 126.919,97.4302C133.349,97.4302 136.013,100.326 136.013,107.046L136.013,118.283C136.013,120.369 136.013,121.933 136.245,123.728L133.059,123.728L133.175,119.674ZM132.828,110.753L131.843,110.753C126.224,110.753 119.678,111.332 119.678,116.951C119.678,120.369 122.111,121.585 125.008,121.585C132.538,121.585 132.654,115.04 132.654,112.201L132.654,110.753L132.828,110.753Z" style="fill:rgb(63,63,63);fill-rule:nonzero;"/>
            <path d="M172.97,123.786L172.97,106.524C172.97,102.875 171.638,99.9789 167.525,99.9789C163.991,99.9789 160.574,102.991 160.574,109.479L160.574,123.844L157.388,123.844L157.388,106.582C157.388,102.933 156.056,100.037 151.943,100.037C148.409,100.037 144.992,103.049 144.992,109.537L144.992,123.902L141.806,123.902L141.806,104.092C141.806,102.122 141.806,100.095 141.574,98.0094L144.586,98.0094L144.586,102.412L144.702,102.412C145.687,100.616 147.251,97.4302 152.754,97.4302C155.071,97.4302 158.836,98.4149 159.589,102.875L159.705,102.875C160.921,99.8631 163.934,97.4302 167.988,97.4302C173.202,97.4302 176.156,101.079 176.156,106.061L176.156,123.96L172.97,123.786Z" style="fill:rgb(63,63,63);fill-rule:nonzero;"/>
            <path d="M199.326,123.033C197.125,124.018 194.228,124.481 191.796,124.481C183.165,124.481 179.979,118.631 179.979,110.869C179.979,102.991 184.381,97.2564 190.927,97.2564C198.225,97.2564 201.237,103.107 201.237,110.174L201.237,111.738L183.454,111.738C183.454,117.183 186.351,121.585 191.969,121.585C194.286,121.585 197.704,120.6 199.268,119.616L199.268,123.033L199.326,123.033ZM197.762,109.073C197.762,104.555 195.966,100.095 191.216,100.095C186.466,100.095 183.57,104.845 183.57,109.073L197.762,109.073Z" style="fill:rgb(63,63,63);fill-rule:nonzero;"/>
            <path d="M205.292,103.976C205.292,102.006 205.292,99.9789 205.061,97.8936L208.073,97.8936L208.073,102.528L208.189,102.528C209.289,100.211 211.201,97.3143 216.588,97.3143C223.017,97.3143 225.45,101.543 225.45,107.278L225.45,123.844L222.264,123.844L222.264,108.031C222.264,103.165 220.585,99.9789 216.066,99.9789C210.216,99.9789 208.42,105.076 208.42,109.479L208.42,123.844L205.234,123.844L205.292,103.976Z" style="fill:rgb(63,63,63);fill-rule:nonzero;"/>
            <path d="M242.77,100.674L236.92,100.674L236.92,117.472C236.92,119.789 237.788,121.701 240.337,121.701C241.554,121.701 242.422,121.469 243.233,121.122L243.465,123.786C242.712,124.018 241.148,124.539 239.584,124.539C233.849,124.539 233.734,120.658 233.734,115.908L233.734,100.732L228.636,100.732L228.636,97.9515L233.734,97.9515L233.734,91.7535L236.92,90.6529L236.92,98.0094L242.77,98.0094L242.77,100.674Z" style="fill:rgb(63,63,63);fill-rule:nonzero;"/>
            <path d="M276.714,121.701C276.714,128.884 273.413,134.85 264.55,134.85C261.132,134.85 258.004,133.865 256.788,133.518L257.02,130.332C258.989,131.317 261.885,132.128 264.666,132.128C272.949,132.128 273.644,126.161 273.644,118.863L273.528,118.863C271.849,122.628 268.894,123.96 265.651,123.96C257.367,123.96 254.703,116.777 254.703,110.927C254.703,103.049 257.715,97.3143 265.419,97.3143C268.836,97.3143 271.153,97.7777 273.47,100.848L273.586,100.848L273.586,97.9515L276.772,97.9515L276.772,121.701L276.714,121.701ZM265.535,121.122C271.385,121.122 273.413,115.677 273.413,110.927C273.413,104.729 271.617,100.095 265.766,100.095C259.684,100.095 258.12,105.945 258.12,110.927C258.12,115.85 260.148,121.122 265.535,121.122Z" style="fill:rgb(63,63,63);fill-rule:nonzero;"/>
            <path d="M282.275,103.744C282.275,100.964 282.275,99.8631 282.043,97.8936L285.229,97.8936L285.229,102.875L285.345,102.875C286.562,99.9789 288.763,97.2564 292.007,97.2564C292.76,97.2564 293.686,97.3723 294.208,97.4881L294.208,100.906C293.628,100.674 292.644,100.558 291.891,100.558C286.793,100.558 285.461,106.293 285.461,110.869L285.461,123.612L282.275,123.612L282.275,103.744Z" style="fill:rgb(63,63,63);fill-rule:nonzero;"/>
            <path d="M306.372,97.2564C314.771,97.2564 318.421,103.802 318.421,110.869C318.421,117.936 314.655,124.481 306.372,124.481C297.973,124.481 294.324,117.936 294.324,110.869C294.324,103.86 297.973,97.2564 306.372,97.2564ZM306.372,121.701C311.991,121.701 315.003,116.835 315.003,110.869C315.003,104.903 311.991,100.037 306.372,100.037C300.753,100.037 297.741,104.903 297.741,110.869C297.741,116.835 300.753,121.701 306.372,121.701Z" style="fill:rgb(63,63,63);fill-rule:nonzero;"/>
            <path d="M342.749,117.704C342.749,119.674 342.749,121.701 342.981,123.786L339.969,123.786L339.969,119.152L339.853,119.152C338.752,121.469 336.841,124.366 331.454,124.366C325.024,124.366 322.591,120.137 322.591,114.402L322.591,97.8357L325.777,97.8357L325.777,113.649C325.777,118.515 327.457,121.701 331.975,121.701C337.826,121.701 339.621,116.603 339.621,112.201L339.621,97.8357L342.807,97.8357L342.749,117.704Z" style="fill:rgb(63,63,63);fill-rule:nonzero;"/>
            <path d="M348.426,97.8936L351.612,97.8936L351.38,102.643L351.496,102.643C352.365,101.195 354.276,97.3143 359.779,97.3143C367.425,97.3143 370.496,103.049 370.496,110.927C370.496,118.573 366.962,124.539 359.779,124.539C355.782,124.539 353.234,122.859 351.728,119.558L351.612,119.558L351.612,134.618L348.426,134.618L348.426,97.8936ZM359.258,100.095C353.523,100.095 351.612,106.177 351.612,110.927C351.612,115.677 353.581,121.759 359.258,121.759C365.34,121.759 366.904,115.908 366.904,110.927C367.078,105.771 365.456,100.095 359.258,100.095Z" style="fill:rgb(63,63,63);fill-rule:nonzero;"/>
        </g>
        <g>
            <path d="M32.6166,89.9578L61.9269,89.9578C63.6067,89.9578 64.939,91.2901 64.939,92.8541L64.939,122.338C64.939,123.902 63.6067,125.234 61.9269,125.234L32.6166,125.234C30.9368,125.234 29.6045,123.902 29.6045,122.338L29.6045,92.912C29.6045,91.2901 30.9368,89.9578 32.6166,89.9578Z" style="fill:white;fill-rule:nonzero;"/>
            <path d="M33.2538,90.8267L61.2318,90.8267C62.7957,90.8267 64.0122,92.0431 64.0122,93.6071L64.0122,121.585C64.0122,123.149 62.6799,124.366 61.2318,124.366L33.2538,124.366C31.6898,124.366 30.4734,123.149 30.4734,121.585L30.4734,93.6071C30.4154,92.0431 31.6319,90.8267 33.2538,90.8267Z" style="fill:url(#tag1);fill-rule:nonzero;"/>
            <path d="M33.2538,90.8267C31.6898,90.8267 30.4734,92.0431 30.4734,93.6071L30.4734,104.96C30.4734,114.229 32.0374,119.21 35.2233,124.423L50.8052,124.423C45.5919,117.994 39.5097,104.729 36.3238,90.8846L33.2538,90.8267Z" style="fill:url(#tag2);fill-rule:nonzero;"/>
            <path d="M61.1738,90.8267L49.9942,90.8267C49.6467,107.393 51.0948,116.951 55.2075,124.366L61.1738,124.366C62.7378,124.366 63.9543,123.149 63.9543,121.585L63.9543,93.6071C64.0122,92.0431 62.7957,90.8267 61.1738,90.8267Z" style="fill:url(#tag3);fill-rule:nonzero;"/>
        </g>
    </g>
    <defs>
        <linearGradient id="tag1" x1="0" y1="0" x2="1" y2="0" gradientUnits="userSpaceOnUse" gradientTransform="matrix(2.05865e-15,-33.6203,33.6203,2.05865e-15,47.2133,124.394)"><stop offset="0%" style="stop-color:rgb(0,119,8);stop-opacity:1"/><stop offset="100%" style="stop-color:rgb(0,162,26);stop-opacity:1"/></linearGradient>
        <linearGradient id="tag2" x1="0" y1="0" x2="1" y2="0" gradientUnits="userSpaceOnUse" gradientTransform="matrix(9.86692e-16,-16.1139,16.1139,9.86692e-16,40.5853,119.258)"><stop offset="0%" style="stop-color:rgb(4,183,25);stop-opacity:0.77"/><stop offset="29%" style="stop-color:rgb(3,178,25);stop-opacity:0.77"/><stop offset="100%" style="stop-color:rgb(1,169,26);stop-opacity:0.77"/></linearGradient>
        <linearGradient id="tag3" x1="0" y1="0" x2="1" y2="0" gradientUnits="userSpaceOnUse" gradientTransform="matrix(9.86692e-16,-16.1139,16.1139,9.86692e-16,56.9762,119.258)"><stop offset="0%" style="stop-color:rgb(4,183,25);stop-opacity:0.77"/><stop offset="29%" style="stop-color:rgb(3,178,25);stop-opacity:0.77"/><stop offset="100%" style="stop-color:rgb(1,169,26);stop-opacity:0.77"/></linearGradient>
    </defs>
</svg>
