<?xml version="1.0" encoding="utf-8"?>
<!-- Generator: Adobe Illustrator 16.0.4, SVG Export Plug-In . SVG Version: 6.00 Build 0)  -->
<!DOCTYPE svg PUBLIC "-//W3C//DTD SVG 1.1//EN" "http://www.w3.org/Graphics/SVG/1.1/DTD/svg11.dtd">
<svg version="1.1" xmlns="http://www.w3.org/2000/svg" xmlns:xlink="http://www.w3.org/1999/xlink" x="0px" y="0px" width="169px"
	 height="433px" viewBox="0 0 169 433" enable-background="new 0 0 169 433" xml:space="preserve">
<g id="Layer_1" xmlns:sketch="http://www.bohemiancoding.com/sketch/ns" display="none">
	<title>Untitled</title>
	<description>Created with Sketch (http://www.bohemiancoding.com/sketch)</description>
	<g id="Page-1" sketch:type="MSPage" display="inline">
		<path id="Path-1" sketch:type="MSShapeGroup" fill="#FFFFFF" d="M62.713,310.991l-47.13-8.792L0.139,229.515h7.667v-34.573
			l14.942-24.113L7.806,118.104l21.871-5.228l-12.152-12.96l19.561-8.034L27.11,82.44L81.514,0.173l54.644,79.523l-5.99,9.832
			l17.831,2.354l-7.634,13.907l14.408,4.303l-11.319,60.737l16.198,27.048v28.815h8.859l-20.513,75.507l-46.019,9.792l4,109.319
			H60.325L62.713,310.991z"/>
		<path id="Path-1_1_" sketch:type="MSShapeGroup" fill="#008535" d="M75.215,300.648l-52.467-8.362l-11.949-52.311l18.878,3.539
			l-13.929-16.579l1.777-27.56l16.58-24.728l-12.119-50.556l18.047-3.266l-4.518-17.73l18.993-6.656L41.536,80.429l40.067-60.571
			l40.738,62.278l-8.218,12.199l16.045,9.194l-5.484,11.458l15.682,4.802l-7.898,55.303l15.34,27.289l0.192,22.804l-10.14,15.509
			l15.021-0.659l-12.551,50.51l-50.547,9.412l5.486,132.373H71.293L75.215,300.648z"/>
	</g>
</g>
<g id="Layer_1_copy" xmlns:sketch="http://www.bohemiancoding.com/sketch/ns" display="none">
	<title>Untitled</title>
	<description>Created with Sketch (http://www.bohemiancoding.com/sketch)</description>
	<g id="Page-1_1_" sketch:type="MSPage" display="inline">
		<path id="Path-1_2_" sketch:type="MSShapeGroup" fill="#FFFFFF" d="M77.603,294.129l-54.63-8.707l-12.441-54.467l19.656,3.685
			l-14.503-17.262l1.851-28.696l17.263-25.748l-12.619-52.64l18.791-3.4l-4.704-18.46l19.776-6.93L42.535,64.833L84.254,1.765
			l42.417,64.845l-8.557,12.702l16.706,9.572l-5.711,11.931l16.328,5l-8.224,57.582l15.972,28.413l0.2,23.744l-10.558,16.148
			l15.641-0.687l-13.067,52.592l-52.631,9.8l5.713,137.829H73.52L77.603,294.129z"/>
	</g>
</g>
<g id="Layer_1_copy_2" xmlns:sketch="http://www.bohemiancoding.com/sketch/ns">
	<title>Untitled</title>
	<description>Created with Sketch (http://www.bohemiancoding.com/sketch)</description>
	<g id="Page-1_2_" sketch:type="MSPage">
		<path id="Path-1_3_" sketch:type="MSShapeGroup" fill="#0B4F4D" d="M77.603,294.129l-54.63-8.707l-12.441-54.467l19.656,3.685
			l-14.503-17.262l1.851-28.696l17.263-25.748l-12.619-52.64l18.791-3.4l-4.704-18.46l19.776-6.93L42.535,64.833L84.254,1.765
			l42.417,64.845l-8.557,12.702l16.706,9.572l-5.711,11.931l16.328,5l-8.224,57.582l15.972,28.413l0.2,23.744l-10.558,16.148
			l15.641-0.687l-13.067,52.592l-52.631,9.8l5.713,137.829H73.52L77.603,294.129z"/>
	</g>
</g>
</svg>
