<?xml version="1.0" standalone="no"?>
<!DOCTYPE svg PUBLIC "-//W3C//DTD SVG 1.1//EN" "http://www.w3.org/Graphics/SVG/1.1/DTD/svg11.dtd">
<svg width="100%" height="100%" viewBox="0 0 1249 1249" version="1.1" xmlns="http://www.w3.org/2000/svg" xmlns:xlink="http://www.w3.org/1999/xlink" xml:space="preserve" style="fill-rule:evenodd;clip-rule:evenodd;stroke-linecap:square;stroke-miterlimit:3.864;">
    <clipPath id="tag1">
        <rect x="2.51239" y="29.1984" width="1245.61" height="1175.77"/>
    </clipPath>
    <g clip-path="url(#tag1)">
        <path d="M782.92,939.166L572.846,938.669L572.846,761.89L782.421,762.715L782.92,939.166Z" style="fill:rgb(255,222,109);fill-rule:nonzero;"/>
        <path d="M326.964,738.354L327.789,656.295L493.635,655.45L493.635,739.2L326.964,738.354Z" style="fill:rgb(186,226,248);fill-rule:nonzero;"/>
        <path d="M478.784,612.546L485.796,612.546L486.209,619.558L496.525,619.971L495.288,613.783L530.767,612.546L530.767,537.05L478.371,536.638" style="fill:rgb(180,191,128);fill-rule:nonzero;"/>
        <rect x="445.054" y="537.611" width="33.5125" height="40.9958" style="fill:rgb(229,230,231);fill-rule:nonzero;"/>
        <rect x="478.317" y="612.494" width="52.65" height="13.9667" style="fill:rgb(229,230,231);fill-rule:nonzero;"/>
        <path d="M1016.48,738.683L1086.18,738.683L1086.18,628.499L1245.84,628.499L1245.84,949.066L1107.4,949.066M269.354,735.691L304.104,735.691M578.171,1002.55L543.533,1002.58M532.142,1002.58L500.975,1002.6M304.104,867.687L304.146,930.766L283.667,930.766L267.437,945.574L267.437,983.737L283.667,1002.6L295.9,1002.6L311.592,1002.7L311.592,1062.99L295.937,1062.99L295.9,1123.9L311.008,1123.9L311.008,1182.52L295.9,1182.52L295.9,1200.74M1096.3,949.066L1086.23,949.066L1086.22,962.37L1082.45,962.37M88.3457,533.287L88.3166,549.92L23.4582,549.92L23.4582,700.012L48.4374,700.012M59.5416,700.012L62.9582,700.012M73.6416,700.012L101.646,700.012L101.646,637.728M304.104,800.478L304.104,754.487" style="fill:none;stroke-width:4.56px;stroke:rgb(41,37,38);"/>
    </g>
    <path d="M1014.73,738.683L1086.18,738.683L1086.18,625.445L1245.84,625.445L1245.84,949.066L1106.18,949.066M1097.14,949.066L1086.23,949.066L1086.22,962.37L1081.41,962.37" style="fill:none;stroke-width:1.64px;stroke:white;"/>
    <rect x="101.536" y="784.696" width="73.2681" height="134.759" style="fill:rgb(226,108,152);fill-opacity:0.737255;"/>
    <clipPath id="tag2">
        <rect x="2.51239" y="29.1984" width="1245.61" height="1175.77"/>
    </clipPath>
    <g clip-path="url(#tag2)">
        <path d="M327.389,865.494L327.389,919.548C327.389,919.548 340.068,935.135 342.98,936.802C345.893,938.46 352.339,938.669 356.909,935.965L356.909,904.565L372.951,904.565L372.951,909.406L380.068,909.406L380.068,904.577L395.789,904.577L395.789,937.215L411.793,937.215L411.793,921.627L403.893,921.627L403.893,926.198M363.693,889.19L370.834,889.19L370.834,875.265L366.889,875.265M356.705,875.052L349.005,875.052C349.005,875.052 345.893,874.431 343.814,871.94L327.389,871.94M413.872,772.427L413.872,890.44M429.876,907.415L429.876,890.44L525.714,890.44L525.714,907.415M429.876,918.802L429.876,938.669L525.714,938.669L525.714,918.802M443.397,913.519L515.109,913.519M515.53,898.756L515.53,929.31M443.28,898.756L443.28,927.231M542.551,808.023L542.551,825.785L559.601,825.785M559.601,760.719L559.601,779.423L554.209,779.423L554.209,782.96M572.284,761.552L572.284,938.669L563.964,938.669M557.422,938.669L534.864,938.669L534.864,902.081M534.864,888.773L534.864,902.081L571.872,902.081M361.222,655.298L401.397,655.298M408.105,655.298L421.355,655.298M427.905,655.298L480.705,655.298M487.464,655.298L495.364,655.298L495.364,738.685L491.722,738.685M484.972,738.685L420.789,738.685M413.872,738.685L406.593,738.685M359.197,738.685L327.389,738.685L327.384,655.298L354.414,655.298M399.839,738.685L365.847,738.685" style="fill:none;stroke-width:2.28px;stroke-linecap:butt;stroke:rgb(41,37,38);"/>
        <path d="M563.964,626.423L557.627,626.336L557.627,655.307L495.364,655.298L495.364,738.682L327.389,738.682L327.389,761.136L413.685,761.136L413.685,876.715L445.139,876.715L445.139,890.04L535.131,890.04L535.131,902.082L571.868,902.082L571.868,761.553L1086.6,761.553L1086.6,738.682L1000.11,738.682L1000.11,626.423L758.127,626.423L758.127,510.423L651.697,510.423L651.697,626.423L563.964,626.423Z" style="fill:rgb(229,230,231);fill-rule:nonzero;"/>
        <path d="M394.029,1202.69L394.034,1178.24C394.034,1173.83 388.625,1173.4 383.363,1173.68L383.363,1123.9L345.054,1123.69L345.054,1182.52L295.9,1182.52L295.9,1202.69L394.029,1202.69" style="fill:rgb(229,230,231);fill-rule:nonzero;"/>
        <path d="M357.116,1002.5L357.116,1031.58L372.295,1031.58L372.295,1020.58L392.458,1020.58L392.458,1002.5L357.116,1002.5Z" style="fill:rgb(229,230,231);fill-rule:nonzero;"/>
        <rect x="683.846" y="317.632" width="40.7583" height="40.7583" style="fill:rgb(229,230,231);fill-rule:nonzero;"/>
        <rect x="683.846" y="317.633" width="40.7583" height="40.7583" style="fill:none;stroke-width:1.14px;stroke-linecap:butt;stroke:rgb(41,37,38);"/>
        <rect x="783.083" y="920.373" width="30.35" height="19.9625" style="fill:rgb(229,230,231);fill-rule:nonzero;"/>
        <path d="M122.164,659.789L101.647,680.306M121.88,673.448L101.647,693.677M126.18,615.618L101.647,640.152M126.272,628.898L101.647,653.523M122.164,646.381L101.647,666.898M178.439,536.581L101.647,613.368M191.822,536.564L101.647,626.743M206.776,557.56L206.776,536.777" style="fill:none;stroke-width:1.14px;stroke-linecap:butt;stroke:rgb(146,148,151);"/>
        <path d="M543.103,325.037L543.103,363.766L459.378,363.766L459.378,405.228L354.578,405.228L354.578,515.837L334.503,515.837" style="fill:none;stroke-width:1.14px;stroke-linecap:butt;stroke:rgb(41,37,38);"/>
        <path d="M309.926,405.229L309.926,386.521L282.488,386.521L255.547,360.263L322.68,293.129L354.597,325.038L595.517,325.038M190.363,296.729L68.7757,418.317M88.8549,411.608L68.7132,431.75M197.134,303.329L95.6841,404.775M88.5924,425.242L68.7757,445.063M203.905,309.929L109.059,404.775M88.5924,438.617L68.7757,458.429M210.676,316.529L122.43,404.775M88.5924,451.988L68.5216,472.058M217.451,323.129L135.801,404.775M88.5924,465.358L68.7757,485.175M328.947,225.004L149.176,404.775M88.5924,478.729L68.6382,498.683M335.126,232.2L162.547,404.775M88.5924,492.104L68.7757,511.921M341.834,238.858L175.917,404.775M348.413,245.654L189.288,404.775M88.5924,518.842L57.5174,549.921M355.022,252.417L202.659,404.775M88.5924,532.217L70.7049,550.1M258.08,362.729L216.03,404.775M264.847,369.329L229.405,404.775M110.922,536.629L101.122,546.429M271.622,375.933L242.772,404.775M124.292,536.629L101.122,559.8M278.397,382.529L256.147,404.775M137.663,536.629L101.122,573.171M204.876,536.629L167.263,574.242M287.776,386.521L269.522,404.775M151.034,536.629L101.122,586.546M206.851,548.021L180.576,574.292M301.151,386.521L282.892,404.775M164.405,536.629L101.122,599.913M309.926,391.108L296.263,404.775M8.21739,532.358L3.09239,537.483M21.5924,532.358L3.34656,550.604M34.9632,532.358L3.20906,564.113M48.3341,532.358L30.5549,550.142M90.2924,490.4L68.9424,511.75M61.7049,532.358L44.1424,549.921M88.5924,505.475L68.9424,525.125M23.6591,637.258L3.14239,657.775M23.3757,650.917L3.14239,671.15M23.3757,664.292L3.14239,684.525M23.3757,677.658L3.14239,697.892M23.6591,597.108L3.14239,617.629M23.6591,610.479L3.14239,630.996M23.6591,623.85L3.14239,644.367M23.5216,557.096L3.14239,577.475M23.5216,570.467L3.14239,590.842M23.5216,583.842L3.14239,604.213M23.3757,691.204L3.14239,711.438M27.9341,700.013L3.14239,724.808M41.4757,700.013L9.25073,732.238M54.8466,700.013L22.6257,732.238M68.2424,700.013L36.0216,732.238M81.6174,700.013L45.0841,736.546M95.0132,700.013L56.2674,738.763M121.909,686.488L69.7174,738.683M121.784,700.013L96.2799,725.521M121.909,713.258L109.672,725.496M206.726,561.125L193.672,574.171" style="fill:none;stroke-width:1.14px;stroke-linecap:butt;stroke:rgb(146,148,151);"/>
        <path d="M564.052,557.706L601.197,557.706L601.197,344.968L595.518,324.927" style="fill:none;stroke-width:1.14px;stroke-linecap:butt;stroke:rgb(41,37,38);"/>
        <clipPath id="tag3">
            <rect x="2.51239" y="29.1984" width="1245.61" height="1175.77"/>
        </clipPath>
        <g clip-path="url(#tag3)">
            <path d="M379.638,276.623L483.301,276.623L493.838,266.09L493.838,252.99L400.142,159.294L379.638,159.294L328.947,209.985L328.947,225.935L379.638,276.623ZM393.855,93.2396L258.03,229.065M400.626,99.8396L264.701,235.756M407.397,106.44L271.384,242.452M414.167,113.04L278.042,249.165M420.98,119.64L381.451,159.123M328.947,211.669L282.538,258.04M506.655,187.777L497.809,196.619L387.042,85.8188L250.917,221.948L282.597,253.631L282.526,268.156L225.572,325.11L219.426,325.035L183.947,290.473L68.7757,401.49L68.7757,532.452L3.08406,532.452L3.15489,732.24L41.1257,732.24L47.5716,738.681L75.0132,738.681L88.3174,725.585L121.913,725.44L121.913,639.427L126.18,633.881L126.18,607.827L160.784,574.223L206.776,574.223M595.551,324.927L591.513,310.798L576.138,282.323L556.205,254.981L525.163,223.94L553.359,195.748L526.022,168.41L520.892,173.535M362.051,258.752L325.184,295.623M368.601,265.577L331.947,302.235M375.342,272.21L338.401,309.152M384.48,276.444L345.009,315.919M397.672,276.623L351.688,322.61M411.042,276.623L362.409,325.256M424.413,276.623L375.651,325.39M437.809,276.623L389.18,325.256M451.184,276.623L402.422,325.39M464.58,276.623L415.947,325.256M477.951,276.623L429.192,325.39M534.563,233.41L442.713,325.256M541.526,239.815L455.959,325.39M548.159,246.581L469.484,325.256M554.634,253.473L482.726,325.39M560.567,260.944L496.255,325.256M566.238,268.644L509.497,325.39M571.655,276.623L523.022,325.256M577.201,284.452L536.267,325.39M581.83,293.219L549.792,325.256M586.592,301.827L563.038,325.39M591.305,310.515L576.559,325.256M594.367,320.827L589.805,325.39M461.013,159.79L430.792,190.015M467.705,166.469L437.467,196.715M474.392,173.16L444.284,203.269M447.772,146.552L417.551,176.773M454.463,153.227L424.226,183.469M434.53,133.306L404.309,163.531M441.217,139.985L410.984,170.231M427.98,126.744L395.43,159.294M480.947,179.715L450.709,209.956M487.634,186.402L457.526,216.506M494.33,193.102L464.092,223.34M529.284,171.523L470.913,229.894M535.984,178.219L477.476,236.723M542.667,184.906L484.297,243.277M549.367,191.606L490.863,250.11M527.788,226.556L493.838,260.51" style="fill:none;stroke-width:1.14px;stroke-linecap:butt;stroke:rgb(146,148,151);"/>
        </g>
    </g>
    <path d="M508.36,189.483L430.898,112.02M522.598,175.241L445.139,97.7788M435.456,117.145L432.039,120.562L387.044,75.5663L277.685,184.925L254.906,162.141L387.044,29.9996L454.823,97.7788L449.981,102.625M563.964,539.762L564.177,529.795L333.506,529.795M562.469,510.145L380.21,510.145L380.21,432.116L562.469,432.116L562.469,510.145Z" style="fill:none;stroke-width:1.14px;stroke-linecap:butt;stroke:rgb(41,37,38);"/>
    <clipPath id="tag4">
        <rect x="2.51239" y="29.1984" width="1245.61" height="1175.77"/>
    </clipPath>
    <g clip-path="url(#tag4)">
        <path d="M332.934,511.852L175.163,511.852L175.163,490.777L173.384,489.002M168.684,484.306L155.229,470.844L116.213,470.844L116.213,492.49L88.3045,492.49M318.942,536.615L333.079,536.615M304.034,536.615L312.217,536.615M339.446,536.615L339.446,549.09L327.388,549.09L327.388,561.352L339.834,561.352L339.834,567.223L342.463,567.223" style="fill:none;stroke-width:2.28px;stroke-linecap:butt;stroke:rgb(41,37,38);"/>
        <path d="M823.466,1002.6L826.941,1002.6L826.941,1202.69L1018.52,1202.69L1018.52,962.227L1071.82,962.215M304.17,587.894L304.137,626.423L276.903,626.423M265.441,626.423L238.828,626.423L238.828,735.69L258.466,735.69" style="fill:none;stroke-width:4.56px;stroke:rgb(41,37,38);"/>
        <path d="M564.052,554.729L563.964,626.425L651.697,626.229L651.697,524.383M333.081,517.267L333.081,405.229L275.981,405.229M563.964,544.158L563.964,536.617L333.081,536.617L333.081,528.371M304.102,743.238L304.102,735.688" style="fill:none;stroke-width:4.56px;stroke:rgb(41,37,38);"/>
        <path d="M510.639,975.761L510.639,1002.24M782.605,938.669L768.368,938.669M1072.98,809.803L1086.08,809.803M1053.73,761.136L1053.73,809.49M782.664,1002.54L782.668,940.54L782.668,761.523M981.614,761.136L981.614,753.648M1013.85,761.136L1013.85,786.911M1001.78,761.136L1001.78,786.494" style="fill:none;stroke-width:2.28px;stroke-linecap:butt;stroke:rgb(41,37,38);"/>
        <path d="M736.201,746.655L736.201,626.213M614.897,719.763L657.309,719.763L657.309,626.426M557.626,626.334L557.626,642.068" style="fill:none;stroke-width:2.28px;stroke-linecap:butt;stroke:rgb(41,37,38);"/>
        <path d="M651.697,513.259L651.697,510.422L758.135,510.422L758.135,534.497" style="fill:none;stroke-width:4.56px;stroke:rgb(41,37,38);"/>
    </g>
    <path d="M530.915,607.297L530.915,625.801M478.736,605.222L478.736,626.422M782.244,827.659L813.432,827.659L813.432,889.188M782.669,940.538L801.794,940.538M803.457,1202.69L803.457,1036.79L782.244,1036.79L782.244,1002.28M444.015,1063.61L557.107,1063.61L557.107,1124.31L444.015,1124.31" style="fill:none;stroke-width:2.28px;stroke-linecap:butt;stroke:rgb(41,37,38);"/>
    <clipPath id="tag5">
        <rect x="2.51239" y="29.1984" width="1245.61" height="1175.77"/>
    </clipPath>
    <g clip-path="url(#tag5)">
        <path d="M444.014,1003.53L444.014,1071.92M443.81,1200.17L443.81,1106.13" style="fill:none;stroke-width:4.56px;stroke:rgb(41,37,38);"/>
        <path d="M443.809,1201.59L443.809,1104.2" style="fill:none;stroke-width:1.64px;stroke:white;"/>
        <path d="M208.06,1008.94C198.91,1026.4 191.843,1056.33 191.843,1056.33L203.902,1058.83C210.972,1027.65 215.956,1018.5 228.852,998.96L244.652,998.96L244.652,963.614L233.006,963.614L233.006,973.597C233.006,973.597 217.752,990.43 208.06,1008.94ZM192.26,1131.18C192.26,1131.18 198.493,1170.26 223.443,1202.69L244.235,1202.69L244.235,1188.14L228.431,1188.14C228.431,1188.14 216.372,1166.52 212.631,1157.37C208.889,1148.22 204.318,1129.1 204.318,1129.1L192.26,1131.18Z" style="fill:none;stroke-width:1.14px;stroke-linecap:butt;stroke:rgb(41,37,38);"/>
        <path d="M340.693,1062.99L383.522,1062.99L383.522,1032.32L394.952,1032.32L394.952,1035.86L398.864,1035.85M309.927,1123.9L326.339,1123.9M333.414,1123.69L383.36,1123.9M345.056,1123.69L345.056,1182.51L310.722,1182.51" style="fill:none;stroke-width:2.28px;stroke-linecap:butt;stroke:rgb(41,37,38);"/>
        <path d="M489.56,1002.6L444.014,1002.6L444.014,1070.62" style="fill:none;stroke-width:4.56px;stroke:rgb(41,37,38);"/>
        <path d="M491.843,1002.6L444.014,1002.6L444.014,1072.96" style="fill:none;stroke-width:1.64px;stroke:white;"/>
        <path d="M378.115,1002.67L331.74,1002.7M398.865,1045.42L393.082,1045.42L393.082,1062.99L383.519,1062.99" style="fill:none;stroke-width:2.28px;stroke-linecap:butt;stroke:rgb(41,37,38);"/>
        <path d="M383.48,1057.34L392.872,1057.34M383.48,1051.64L392.872,1051.64M383.48,1045.93L392.872,1045.93M383.739,1032.61L393.08,1045.42M394.926,1045.47L394.926,1036.07" style="fill:none;stroke-width:0.82px;stroke:rgb(41,37,38);"/>
        <path d="M399.015,1040.09L388.061,1040.09L388.061,1045.91" style="fill:none;stroke-width:0.82px;stroke-linecap:butt;stroke:rgb(41,37,38);"/>
        <path d="M388.059,1045.92L391.567,1043.58L388.059,1052.94L384.55,1043.58L388.059,1045.92Z" style="fill:black;"/>
        <path d="M418.342,1002.64L384.975,1002.66" style="fill:none;stroke-width:2.28px;stroke-linecap:butt;stroke:rgb(41,37,38);"/>
        <path d="M591.434,1002.54L589.418,1002.55M650.501,1002.6L602.539,1002.6M688.201,1002.6L662.284,1002.6M749.997,1002.6L698.734,1002.6M766.655,1002.6L760.68,1002.6M812.505,1002.6L777.193,1002.6" style="fill:none;stroke-width:4.56px;stroke:rgb(41,37,38);"/>
        <path d="M814.887,1002.6L775.082,1002.6" style="fill:none;stroke-width:1.64px;stroke:white;"/>
        <path d="M344.643,1002.25L344.643,969.228L327.806,969.228L327.806,963.72" style="fill:none;stroke-width:2.28px;stroke-linecap:butt;stroke:rgb(41,37,38);"/>
        <path d="M443.997,1083.07L444.002,1095.23" style="fill:none;stroke-width:4.56px;stroke:rgb(41,37,38);"/>
        <path d="M443.997,1081.23L444.002,1097.41" style="fill:none;stroke-width:1.64px;stroke:white;"/>
        <path d="M304.103,856.724L304.103,811.157" style="fill:none;stroke-width:4.56px;stroke:rgb(41,37,38);"/>
        <path d="M327.389,774.333L327.389,797.3M327.389,810.195L327.389,825.579" style="fill:none;stroke-width:2.28px;stroke-linecap:butt;stroke:rgb(41,37,38);"/>
        <path d="M332.277,810.409L322.711,810.409M332.277,825.584L322.711,825.584" style="fill:none;stroke-width:0.82px;stroke:rgb(41,37,38);"/>
        <path d="M327.389,838.469L327.389,858.631" style="fill:none;stroke-width:2.28px;stroke-linecap:butt;stroke:rgb(41,37,38);"/>
        <path d="M332.277,838.684L322.711,838.684M354.415,652.438L354.415,658.175" style="fill:none;stroke-width:0.82px;stroke:rgb(41,37,38);"/>
        <path d="M304.103,858.631L304.103,809.306" style="fill:none;stroke-width:1.64px;stroke:white;"/>
        <path d="M304.103,735.69L304.103,688.703M304.103,681.865L304.103,627.761" style="fill:none;stroke-width:2.28px;stroke-linecap:butt;stroke:rgb(41,37,38);"/>
        <path d="M304.135,538.051L304.102,576.501" style="fill:none;stroke-width:4.56px;stroke:rgb(41,37,38);"/>
        <path d="M403.474,626.423L414.899,626.423M421.562,626.423L542.657,626.423M445.053,536.615L445.053,578.607M391.837,536.615L391.837,567.382L349.424,567.382M327.512,587.607L327.512,579.023L374.791,579.023M381.337,579.023L465.074,579.023M478.757,536.615L478.732,598.357M530.941,536.615L530.916,600.486M530.703,612.707L494.324,612.707M478.32,612.494L486.216,612.494L486.216,619.561L497.232,619.561" style="fill:none;stroke-width:2.28px;stroke-linecap:butt;stroke:rgb(41,37,38);"/>
        <path d="M651.697,514.701L651.697,510.422L758.135,510.422L758.135,536.097" style="fill:none;stroke-width:1.64px;stroke:white;"/>
        <path d="M586.005,701.42L552.001,701.42L552.001,728.816M536.701,718.516L536.667,655.037M505.53,738.633L536.667,738.633L536.667,725.603M495.467,738.683L498.747,738.683M495.676,655.299L505.655,655.299M512.784,655.299L561.526,655.299M568.363,655.299L582.517,655.299L582.517,738.683L551.73,738.683L551.73,735.712M592.659,701.262L624.047,701.262M603.051,738.266L658.355,738.266M602.426,719.762L614.897,719.762M615.105,701.262L615.105,738.683M609.492,701.049C609.492,701.049 611.247,708.295 607.409,708.949C601.392,709.991 602.838,714.778 602.838,714.778L602.838,728.078C602.838,728.078 602.551,730.266 606.167,730.991C610.326,731.82 608.663,738.474 608.663,738.474M671.451,728.078L720.917,728.078L720.917,738.683L706.167,738.683M698.055,718.72L698.055,728.078M621.759,761.133L327.388,761.133M655.026,761.133L628.413,761.133M691.542,761.133L661.863,761.133M720.242,761.133L698.576,761.133M1086.6,761.133L726.951,761.133M604.959,938.67L660.117,938.67M666.997,938.67L695.563,938.67M702.334,938.67L751.317,938.67M735.684,738.683L805.117,738.683M811.772,738.683L825.076,738.683M831.73,738.683L862.492,738.683M869.251,738.683L907.401,738.683M897.838,738.683L897.838,690.033L916.963,690.033M937.238,738.683L914.255,738.683" style="fill:none;stroke-width:2.28px;stroke-linecap:butt;stroke:rgb(41,37,38);"/>
        <path d="M144.266,536.616L155.658,536.616M265.016,405.229L166.479,405.229" style="fill:none;stroke-width:4.56px;stroke:rgb(41,37,38);"/>
        <path d="M1013.84,793.642L1013.84,809.788L1027.97,809.788M1034.75,809.7L1066.02,809.7M989.174,827.263L1027.8,827.263M1004.48,827.246L1004.48,850.321M952.299,848.034L952.299,941.3M993.466,848.242L914.674,848.242M983.895,953.092L983.895,964.317L1019.66,964.317M1016.97,933.055L1016.96,942.621L1069.76,942.621L1069.76,827.246L1043.03,827.246M989.937,738.684L981.404,738.684L981.404,712.492L999.912,712.492M981.404,702.925L981.404,685.046L999.912,685.046M980.991,674.892L980.991,655.942L1000.11,655.942M980.991,626.421L980.991,645.7M968.516,626.421L968.516,738.684L963.941,738.684M956.874,738.684L947.52,738.684L947.52,716.021L968.304,716.021M1060.2,738.684L1060.2,748.65M951.47,1035.96L951.47,1157.79" style="fill:none;stroke-width:2.28px;stroke-linecap:butt;stroke:rgb(41,37,38);"/>
        <path d="M1042.53,1182.32L1127.34,1182.32L1127.34,1010.18L1042.53,1010.18L1042.53,1182.32ZM1115.29,1029.52L1115.29,1009.77M1115.29,1182.73L1115.29,1088.76M1054.17,1029.52L1054.17,1009.77M1054.17,1182.73L1054.17,1089.13M1042.11,1097.08L1126.93,1097.08M1119.03,895.43L1203.84,895.43L1203.84,723.297L1119.03,723.297L1119.03,895.43Z" style="fill:none;stroke-width:0.57px;stroke-linecap:butt;stroke:rgb(41,37,38);"/>
    </g>
    <path d="M1019.25,1190.69L1019.25,1202.69L1155.62,1202.69L1155.62,962.371L1140.4,962.371M1104.06,962.371L1133.75,962.371M1028.39,942.621L1028.39,961.133M1069.76,942.621L1069.76,947.496M981.404,738.683L981.404,746.996" style="fill:none;stroke-width:2.28px;stroke-linecap:butt;stroke:rgb(41,37,38);"/>
    <path d="M101.647,612.242L101.618,536.617L117.214,536.617M101.647,622.775L101.647,626.334M88.3178,515.771L88.3178,522.392M127.893,536.617L133.018,536.617" style="fill:none;stroke-width:4.56px;stroke:rgb(41,37,38);"/>
    <path d="M361.069,652.431L361.069,658.173M401.51,652.594L401.51,658.327M408.16,652.594L408.16,658.327M326.464,1120.8L326.464,1126.53M333.119,1120.8L333.119,1126.53M334.069,1060.37L334.069,1066.11M340.723,1060.37L340.723,1066.11M324.935,999.96L324.935,1005.69M331.589,999.96L331.589,1005.69M378.177,999.615L378.177,1005.35M384.831,999.615L384.831,1005.35M418.502,999.448L418.502,1005.19M425.156,999.448L425.156,1005.19M1133.7,959.702L1133.7,965.435M1140.35,959.702L1140.35,965.435M1097.44,959.452L1097.44,965.19M1104.09,959.452L1104.09,965.19M802.052,937.435L802.052,943.177M808.71,937.435L808.71,943.177M695.656,935.981L695.656,941.723M702.306,935.981L702.306,941.723M660.169,935.973L660.169,941.706M666.823,935.973L666.823,941.706M426.96,918.802L432.698,918.802M426.96,907.456L432.698,907.456M324.364,865.415L330.106,865.415M324.364,858.76L330.106,858.76" style="fill:none;stroke-width:0.82px;stroke:rgb(41,37,38);"/>
    <path d="M327.389,753.061L327.389,767.373" style="fill:none;stroke-width:2.28px;stroke-linecap:butt;stroke:rgb(41,37,38);"/>
    <path d="M557.355,935.52L557.355,941.262M564.005,935.52L564.005,941.262M528.105,776.425L528.105,782.166M534.755,776.425L534.755,782.166M621.609,758.237L621.609,763.97M628.264,758.237L628.264,763.97M655.059,758.341L655.059,764.075M661.714,758.341L661.714,764.075M658.401,735.266L658.401,741.004M665.059,735.266L665.059,741.004" style="fill:none;stroke-width:0.82px;stroke:rgb(41,37,38);"/>
    <path d="M678.411,738.683L700.969,738.683" style="fill:none;stroke-width:0.82px;stroke-linecap:butt;stroke:rgb(41,37,38);"/>
    <path d="M691.875,758.13L691.875,763.871M698.525,758.13L698.525,763.871M720.204,758.13L720.204,763.871M726.854,758.13L726.854,763.871M804.963,735.68L804.963,741.417M811.613,735.68L811.613,741.417M824.925,735.784L824.925,741.521M831.571,735.784L831.571,741.521M862.442,735.784L862.442,741.521M869.1,735.784L869.1,741.521M907.35,735.575L907.35,741.313M914,735.575L914,741.313M937.375,735.575L937.375,741.313M957.034,735.884L957.034,741.625M963.688,735.884L963.688,741.625M989.779,735.68L989.779,741.417M996.425,735.68L996.425,741.417M978.688,753.725L984.434,753.725M978.688,747.071L984.434,747.071M1057.28,748.634L1063.01,748.634" style="fill:none;stroke-width:0.82px;stroke:rgb(41,37,38);"/>
    <path d="M1191.79,895.483L1191.79,723.3M1119.01,810.195L1203.43,810.195M1130.67,895.433L1130.67,723.3" style="fill:none;stroke-width:0.57px;stroke-linecap:butt;stroke:rgb(41,37,38);"/>
    <path d="M1028.09,806.754L1028.09,812.491M1034.74,806.754L1034.74,812.491M1066.33,806.862L1066.33,812.591M1072.98,806.862L1072.98,812.591M998.696,793.266L1004.43,793.266M998.696,786.612L1004.43,786.612M1010.95,793.67L1016.7,793.67M1010.95,787.012L1016.7,787.012M814.513,783.458L820.242,783.458M814.513,790.108L820.242,790.108M585.996,698.262L585.996,704M592.65,698.262L592.65,704M549.063,735.433L554.8,735.433M549.063,728.775L554.8,728.775M533.588,725.42L539.325,725.42M533.588,718.775L539.325,718.775M484.963,735.633L484.963,741.375M491.617,735.633L491.617,741.375M498.767,735.795L498.767,741.533M505.421,735.795L505.421,741.533M414.021,735.633L414.021,741.375M420.675,735.633L420.675,741.375M399.725,735.633L399.725,741.375M406.379,735.633L406.379,741.375M359.192,735.529L359.192,741.266M365.842,735.529L365.842,741.266M324.509,774.045L330.254,774.045M324.509,767.4L330.254,767.4M332.279,797.52L322.709,797.52M324.721,963.645L330.459,963.645M324.721,956.991L330.459,956.991M301.146,688.675L306.888,688.675M301.146,682.02L306.888,682.02M342.709,564.445L342.709,570.183M349.363,564.445L349.363,570.183M374.825,575.883L374.825,581.616M381.484,575.883L381.484,581.616M396.904,623.066L396.904,628.808M403.554,623.066L403.554,628.808M414.834,623.279L414.834,629.012M421.484,623.279L421.484,629.012M421.504,652.362L421.504,658.1M428.154,652.362L428.154,658.1M528.029,607.229L533.771,607.229M528.029,600.575L533.771,600.575M475.854,605.145L481.592,605.145M475.854,598.495L481.592,598.495M542.7,623.379L542.7,629.12M549.35,623.379L549.35,629.12M480.592,652.679L480.592,658.416M487.246,652.679L487.246,658.416M505.809,652.054L505.809,657.791M512.459,652.054L512.459,657.791M561.592,652.262L561.592,658M568.25,652.262L568.25,658" style="fill:none;stroke-width:0.82px;stroke:rgb(41,37,38);"/>
    <path d="M166.479,536.616L274.27,536.616" style="fill:none;stroke-width:4.56px;stroke:rgb(41,37,38);"/>
    <path d="M510.639,938.67L510.639,950.987" style="fill:none;stroke-width:2.28px;stroke-linecap:butt;stroke:rgb(41,37,38);"/>
    <path d="M507.696,975.326L513.429,975.326M507.696,951.018L513.429,951.018" style="fill:none;stroke-width:0.82px;stroke:rgb(41,37,38);"/>
    <path d="M285.874,536.616L304.103,536.616" style="fill:none;stroke-width:4.56px;stroke:rgb(41,37,38);"/>
    <path d="M283.527,536.616L304.135,536.616L304.106,578.779M164.631,536.616L276.26,536.616M141.989,536.616L157.368,536.616M126.181,536.616L134.727,536.616M101.647,614.158L101.622,536.616L119.185,536.616" style="fill:none;stroke-width:1.64px;stroke:white;"/>
    <path d="M119.215,533.818L119.215,539.56M125.869,533.818L125.869,539.56" style="fill:none;stroke-width:0.82px;stroke:rgb(41,37,38);"/>
    <path d="M101.647,621.016L101.647,628.683" style="fill:none;stroke-width:1.64px;stroke:white;"/>
    <path d="M98.7391,620.994L104.477,620.994M98.7391,614.34L104.477,614.34M98.7391,635.444L104.477,635.444M98.7391,628.79L104.477,628.79" style="fill:none;stroke-width:0.82px;stroke:rgb(41,37,38);"/>
    <path d="M88.317,513.881L88.317,524.423" style="fill:none;stroke-width:1.64px;stroke:white;"/>
    <path d="M155.23,405.229L88.3174,405.229L88.3174,505.017" style="fill:none;stroke-width:4.56px;stroke:rgb(41,37,38);"/>
    <path d="M157.222,405.229L88.3178,405.229L88.3178,507.154" style="fill:none;stroke-width:1.64px;stroke:white;"/>
    <path d="M85.5274,513.818L91.2649,513.818M85.5274,507.164L91.2649,507.164" style="fill:none;stroke-width:0.82px;stroke:rgb(41,37,38);"/>
    <path d="M267.258,405.229L164.4,405.229" style="fill:none;stroke-width:1.64px;stroke:white;"/>
    <path d="M157.515,402.383L157.515,408.12M164.169,402.383L164.169,408.12" style="fill:none;stroke-width:0.82px;stroke:rgb(41,37,38);"/>
    <path d="M333.08,518.259L333.08,405.23L274.267,405.23M563.963,546.022L563.963,536.618L333.08,536.618L333.08,527.518" style="fill:none;stroke-width:1.64px;stroke:white;"/>
    <path d="M267.289,402.255L267.289,407.988M273.943,402.255L273.943,407.988" style="fill:none;stroke-width:0.82px;stroke:rgb(41,37,38);"/>
    <path d="M327.512,594.463L327.441,626.425L396.966,626.425M562.616,626.334L549.512,626.334" style="fill:none;stroke-width:2.28px;stroke-linecap:butt;stroke:rgb(41,37,38);"/>
    <path d="M564.052,553.431L563.964,626.423L651.697,626.231L651.697,522.677" style="fill:none;stroke-width:1.64px;stroke:white;"/>
    <path d="M561.136,552.76L566.869,552.76M561.136,546.11L566.869,546.11M648.965,522.01L654.702,522.01M648.965,515.36L654.702,515.36" style="fill:none;stroke-width:0.82px;stroke:rgb(41,37,38);"/>
    <path d="M731.84,626.423L758.124,626.423" style="fill:none;stroke-width:2.28px;stroke-linecap:butt;stroke:rgb(41,37,38);"/>
    <path d="M725.065,623.3L725.065,629.042M731.715,623.3L731.715,629.042" style="fill:none;stroke-width:0.82px;stroke:rgb(41,37,38);"/>
    <path d="M758.116,545.674L758.133,626.424L969.42,626.424" style="fill:none;stroke-width:4.56px;stroke:rgb(41,37,38);"/>
    <path d="M758.116,543.666L758.133,626.424L971.27,626.424" style="fill:none;stroke-width:1.64px;stroke:white;"/>
    <path d="M980.725,626.423L1000.11,626.423L1000.11,738.682L1005.59,738.682" style="fill:none;stroke-width:4.56px;stroke:rgb(41,37,38);"/>
    <path d="M1000.15,738.683L996.582,738.683" style="fill:none;stroke-width:2.28px;stroke-linecap:butt;stroke:rgb(41,37,38);"/>
    <path d="M979.03,626.423L1000.11,626.423L1000.11,738.682L1007.36,738.682" style="fill:none;stroke-width:1.64px;stroke:white;"/>
    <path d="M971.718,623.449L971.718,629.183M978.372,623.449L978.372,629.183M1008,735.574L1008,741.312M978.906,709.708L984.643,709.708M978.906,703.053L984.643,703.053" style="fill:none;stroke-width:0.82px;stroke:rgb(41,37,38);"/>
    <path d="M981.404,712.491L981.404,709.775" style="fill:none;stroke-width:2.28px;stroke-linecap:butt;stroke:rgb(41,37,38);"/>
    <path d="M978.479,709.708L984.221,709.708M978.479,703.053L984.221,703.053" style="fill:none;stroke-width:0.82px;stroke:rgb(41,37,38);"/>
    <path d="M981.404,684.721L981.404,682.009" style="fill:none;stroke-width:2.28px;stroke-linecap:butt;stroke:rgb(41,37,38);"/>
    <path d="M978.409,681.941L984.147,681.941M978.409,675.291L984.147,675.291" style="fill:none;stroke-width:0.82px;stroke:rgb(41,37,38);"/>
    <path d="M980.991,655.942L980.991,652.605" style="fill:none;stroke-width:2.28px;stroke-linecap:butt;stroke:rgb(41,37,38);"/>
    <path d="M978.267,652.611L984.004,652.611M978.267,645.957L984.004,645.957M943.887,735.682L943.887,741.42" style="fill:none;stroke-width:0.82px;stroke:rgb(41,37,38);"/>
    <path d="M947.611,738.683L944.04,738.683" style="fill:none;stroke-width:2.28px;stroke-linecap:butt;stroke:rgb(41,37,38);"/>
    <path d="M1057.28,754.187L1063.01,754.187" style="fill:none;stroke-width:0.82px;stroke:rgb(41,37,38);"/>
    <path d="M1086.25,817.564L1086.19,738.53" style="fill:none;stroke-width:2.28px;stroke-linecap:butt;stroke:rgb(41,37,38);"/>
    <path d="M1083.36,824.328L1089.1,824.328M1083.36,817.678L1089.1,817.678M441.138,1104.16L446.875,1104.16M441.138,1097.51L446.875,1097.51M441.275,1080.72L447.013,1080.72M441.275,1074.07L447.013,1074.07" style="fill:none;stroke-width:0.82px;stroke:rgb(41,37,38);"/>
    <path d="M592.657,1002.54L587.953,1002.55M652.174,1002.6L600.916,1002.6M689.337,1002.6L660.153,1002.6M751.132,1002.6L697.028,1002.6M767.653,1002.6L759.257,1002.6" style="fill:none;stroke-width:1.64px;stroke:white;"/>
    <path d="M451.689,876.942L559.602,876.942L559.602,795.85L542.552,795.85L542.552,801.259" style="fill:none;stroke-width:2.28px;stroke-linecap:butt;stroke:rgb(41,37,38);"/>
    <path d="M539.808,807.653L545.542,807.653M539.808,801.003L545.542,801.003M445.075,873.795L445.075,879.528M451.729,873.795L451.729,879.528" style="fill:none;stroke-width:0.82px;stroke:rgb(41,37,38);"/>
    <path d="M554.208,795.496L554.208,789.513" style="fill:none;stroke-width:2.28px;stroke-linecap:butt;stroke:rgb(41,37,38);"/>
    <path d="M551.631,789.745L557.364,789.745M551.631,783.091L557.364,783.091" style="fill:none;stroke-width:0.82px;stroke:rgb(41,37,38);"/>
    <path d="M534.845,779.426L554.208,779.426M536.483,701.276L539.766,701.276" style="fill:none;stroke-width:2.28px;stroke-linecap:butt;stroke:rgb(41,37,38);"/>
    <path d="M539.789,698.389L539.789,704.13M546.443,698.389L546.443,704.13" style="fill:none;stroke-width:0.82px;stroke:rgb(41,37,38);"/>
    <path d="M546.833,701.42L552.245,701.42M557.624,655.308L557.624,648.691" style="fill:none;stroke-width:2.28px;stroke-linecap:butt;stroke:rgb(41,37,38);"/>
    <path d="M554.865,648.706L560.599,648.706M554.865,642.056L560.599,642.056M755.174,543.265L760.903,543.265M755.174,536.619L760.903,536.619" style="fill:none;stroke-width:0.82px;stroke:rgb(41,37,38);"/>
    <path d="M837.964,862.702L884.531,862.702L884.531,827.677M813.648,895.456L813.648,904.768" style="fill:none;stroke-width:2.28px;stroke-linecap:butt;stroke:rgb(41,37,38);"/>
    <path d="M810.678,911.106L816.411,911.106M810.678,904.456L816.411,904.456M810.544,895.418L816.286,895.418M810.544,888.764L816.286,888.764" style="fill:none;stroke-width:0.82px;stroke:rgb(41,37,38);"/>
    <path d="M391.838,567.382L391.838,570.803M391.838,579.203L391.838,577.211" style="fill:none;stroke-width:2.28px;stroke-linecap:butt;stroke:rgb(41,37,38);"/>
    <path d="M389.05,576.948L394.783,576.948M389.05,570.293L394.783,570.293M471.642,576.173L471.642,581.91" style="fill:none;stroke-width:0.82px;stroke:rgb(41,37,38);"/>
    <path d="M478.174,579.127L471.766,579.127" style="fill:none;stroke-width:2.28px;stroke-linecap:butt;stroke:rgb(41,37,38);"/>
    <path d="M465.073,576.173L465.073,581.906M733.669,753.073L739.406,753.073M733.669,746.415L739.406,746.415M410.802,772.34L416.535,772.34M410.802,765.694L416.535,765.694" style="fill:none;stroke-width:0.82px;stroke:rgb(41,37,38);"/>
    <path d="M414.076,876.717L445.139,876.717" style="fill:none;stroke-width:2.28px;stroke-linecap:butt;stroke:rgb(41,37,38);"/>
    <path d="M276.613,533.635L276.613,539.377M283.263,533.635L283.263,539.377" style="fill:none;stroke-width:0.82px;stroke:rgb(41,37,38);"/>
    <path d="M304.103,744.518L304.103,735.693" style="fill:none;stroke-width:1.64px;stroke:white;"/>
    <path d="M1069.55,863.275L1027.8,863.275L1027.8,827.262L1036.34,827.262" style="fill:none;stroke-width:2.28px;stroke-linecap:butt;stroke:rgb(41,37,38);"/>
    <path d="M1036.09,824.141L1036.09,829.875M1042.74,824.141L1042.74,829.875" style="fill:none;stroke-width:0.82px;stroke:rgb(41,37,38);"/>
    <path d="M206.774,557.559L218.737,557.559L218.737,596.005L206.774,596.005L206.774,557.559ZM206.774,626.422L218.737,626.422L218.737,664.868L206.774,664.868L206.774,626.422ZM206.774,695.113L218.737,695.113L218.737,733.555L206.774,733.555L206.774,695.113Z" style="fill:none;stroke-width:1.14px;stroke-linecap:butt;stroke:rgb(41,37,38);"/>
    <path d="M327.389,737.697L327.389,742.809" style="fill:none;stroke-width:2.28px;stroke-linecap:butt;stroke:rgb(41,37,38);"/>
    <path d="M324.511,752.691L330.252,752.691M324.511,742.908L330.252,742.908" style="fill:none;stroke-width:0.82px;stroke:rgb(41,37,38);"/>
    <path d="M836.064,940.433L889.935,940.433L889.935,947.399L899.919,957.387L920.702,957.387M842.314,853.303L842.314,857.083L837.848,857.083L837.964,889.028L828.369,889.028L828.369,940.433L830.748,940.433" style="fill:none;stroke-width:2.28px;stroke-linecap:butt;stroke:rgb(41,37,38);"/>
    <path d="M839.499,852.985L845.233,852.985M839.499,846.335L845.233,846.335" style="fill:none;stroke-width:0.82px;stroke:rgb(41,37,38);"/>
    <path d="M921.535,1002.5L921.535,974.013L950.223,974.013L950.223,1021.41L991.802,1021.41L991.802,1157.79L889.102,1157.79L889.102,1035.96L906.148,1035.96L906.148,1020.58L921.535,1020.58L921.535,1002.5Z" style="fill:none;stroke-width:2.28px;stroke-linecap:butt;stroke:rgb(41,37,38);"/>
    <path d="M255.874,930.756L255.874,759.943L245.895,759.943L245.895,919.131L232.595,919.131L232.595,944.493L245.066,944.493L245.066,930.768L255.874,930.768L255.874,930.756Z" style="fill:none;stroke-width:1.14px;stroke-linecap:butt;stroke:rgb(41,37,38);"/>
    <path d="M304.103,802.47L304.103,752.495" style="fill:none;stroke-width:1.64px;stroke:white;"/>
    <path d="M88.3432,531.419L88.3141,549.919L23.4599,549.919L23.4599,700.015L48.4349,700.015M58.9766,700.015L63.3891,700.015M73.6432,700.015L101.647,700.015L101.647,635.565" style="fill:none;stroke-width:1.64px;stroke:white;"/>
    <path d="M1066.81,954.01L1072.55,954.01M1066.81,947.356L1072.55,947.356" style="fill:none;stroke-width:0.82px;stroke:rgb(41,37,38);"/>
    <path d="M1069.8,954.124L1069.8,961.132M357.118,1002.49L357.118,1031.58L372.293,1031.58L372.293,1020.58L392.46,1020.58L392.46,1002.49M782.668,920.374L813.431,920.374M783.081,901.253L813.643,901.253M813.852,911.228L813.852,940.524L808.86,940.524M861.247,941.165L861.247,918.295L884.11,918.295M842.318,846.186L842.318,840.761L837.847,840.761L837.847,827.245L919.581,827.245M904.072,827.674L904.072,852.186M914.885,838.878L929.852,838.878L929.743,827.245L978.389,827.245L978.497,839.503L992.214,839.503M900.747,925.357L900.747,941.79L1008.01,941.79L1008.01,927.061M817.381,761.524L817.381,783.378M909.093,761.349L909.06,809.786L1001.65,809.786L1001.65,793.24M1018.45,1002.6L950.222,1002.6M921.577,1002.6L826.943,1002.6M324.893,1002.7L311.589,1002.7L311.589,1062.99L333.977,1062.99" style="fill:none;stroke-width:2.28px;stroke-linecap:butt;stroke:rgb(41,37,38);"/>
    <path d="M295.902,1202.69L295.902,1182.52L311.006,1182.52L311.006,1123.9L295.902,1123.9L295.935,1062.99L311.589,1062.99L311.589,1002.7L295.902,1002.6L283.664,1002.6L267.435,983.738L267.435,945.575L283.664,930.767L304.102,930.767L304.102,865.492" style="fill:none;stroke-width:1.64px;stroke:white;"/>
    <path d="M350.673,938.049L350.673,945.949L362.731,959.249L362.731,969.645L371.664,969.645L371.664,962.786L384.973,962.786L384.973,969.645L394.123,969.645L394.16,960.382L405.556,947.611L405.556,937.215" style="fill:none;stroke-width:2.28px;stroke-linecap:butt;stroke:rgb(41,37,38);"/>
    <path d="M580.018,1002.55L542.109,1002.58M532.851,1002.58L499.176,1002.6" style="fill:none;stroke-width:1.64px;stroke:white;"/>
    <path d="M580.501,999.782L580.501,1005.52M587.155,999.782L587.155,1005.52M534.226,999.782L534.226,1005.52M540.876,999.782L540.876,1005.52M491.939,999.869L491.939,1005.61M498.593,999.869L498.593,1005.61" style="fill:none;stroke-width:0.82px;stroke:rgb(41,37,38);"/>
    <rect x="206.774" y="761.18" width="11.5333" height="11.5333" style="fill:none;stroke-width:1.14px;stroke-linecap:butt;stroke:rgb(41,37,38);"/>
    <path d="M324.757,594.423L330.491,594.423M324.757,587.769L330.491,587.769M301.291,752.065L307.032,752.065M301.291,745.415L307.032,745.415" style="fill:none;stroke-width:0.82px;stroke:rgb(41,37,38);"/>
    <path d="M268.573,735.69L304.102,735.69M304.169,585.611L304.136,626.423L275.694,626.423M267.223,626.423L238.827,626.423L238.827,735.69L259.961,735.69" style="fill:none;stroke-width:1.64px;stroke:white;"/>
    <path d="M274.737,629.311L274.737,623.578M268.083,629.311L268.083,623.578" style="fill:none;stroke-width:0.82px;stroke:rgb(41,37,38);"/>
    <path d="M1072.47,962.215L1018.52,962.227L1018.52,1202.69L826.944,1202.69L826.944,1002.6L822.369,1002.6" style="fill:none;stroke-width:1.64px;stroke:white;"/>
    <clipPath id="tag6">
        <rect x="2.51239" y="29.1984" width="1245.61" height="1175.77"/>
    </clipPath>
    <g clip-path="url(#tag6)">
        <path d="M404.037,1202.69L404.037,1172.61C404.037,1169.11 403.808,1165.43 395.016,1165.43L383.362,1165.43L383.362,1173.68L388.391,1173.68C390.887,1173.68 394.033,1175.92 394.033,1178.24L394.029,1202.69" style="fill:none;stroke-width:2.28px;stroke-linecap:butt;stroke:rgb(41,37,38);"/>
        <rect x="101.648" y="784.674" width="61.2708" height="134.129" style="fill:none;stroke-width:1.14px;stroke-linecap:butt;stroke:rgb(146,148,151);"/>
        <rect x="162.919" y="784.674" width="11.1083" height="134.129" style="fill:none;stroke-width:1.14px;stroke-linecap:butt;stroke:rgb(41,37,38);"/>
        <path d="M301.086,865.414L306.823,865.414M301.086,858.76L306.823,858.76M312.261,533.91L312.261,539.643M318.915,533.91L318.915,539.643M301.173,585.248L306.911,585.248M301.173,578.589L306.911,578.589M85.5274,531.248L91.2649,531.248M85.5274,524.593L91.2649,524.593M267.477,738.368L267.477,732.631M260.819,738.368L260.819,732.631M135.119,533.818L135.119,539.56M141.769,533.818L141.769,539.56M157.569,533.818L157.569,539.56M164.219,533.818L164.219,539.56M171.277,491.039L175.332,486.981M166.573,486.339L170.627,482.277M1013.98,735.573L1013.98,741.31M330.311,526.431L336.044,526.431M330.311,519.777L336.044,519.777M814.894,999.585L814.894,1005.32M821.548,999.585L821.548,1005.32M1098.32,946.189L1098.32,951.923M1104.97,946.189L1104.97,951.923M1073.66,959.452L1073.66,965.189M1080.32,959.452L1080.32,965.189M383.319,1129.54L392.715,1129.54M383.319,1135.26L392.715,1135.26M383.319,1140.96L392.715,1140.96M383.586,1154.28L392.932,1141.46M394.773,1141.41L394.773,1150.81" style="fill:none;stroke-width:0.82px;stroke:rgb(41,37,38);"/>
        <path d="M398.863,1146.8L387.905,1146.8L387.905,1140.97" style="fill:none;stroke-width:0.82px;stroke-linecap:butt;stroke:rgb(41,37,38);"/>
        <path d="M387.905,1140.97L384.397,1143.31L387.905,1133.95L391.414,1143.31L387.905,1140.97Z" style="fill:black;"/>
        <path d="M398.704,1141.47L392.929,1141.47L392.929,1123.9L383.359,1123.9L383.359,1154.56L394.796,1154.56L394.796,1151.03L398.704,1151.04" style="fill:none;stroke-width:2.28px;stroke-linecap:butt;stroke:rgb(41,37,38);"/>
        <path d="M665.205,738.683L671.234,738.683L671.234,718.933L721.755,718.933L721.755,626.424" style="fill:none;stroke-width:2.28px;stroke-linecap:butt;stroke:rgb(41,37,38);"/>
        <path d="M583.827,938.67L572.281,938.67" style="fill:none;stroke-width:2.28px;stroke-linecap:butt;stroke:rgb(41,37,38);"/>
        <path d="M433.787,1200.73L439.029,1195.48L439.029,1192.08L435.058,1196.05L435.058,1185.7L432.512,1185.7L432.512,1196.05L428.541,1192.08L428.541,1195.48L433.787,1200.73Z" style="fill:black;fill-rule:nonzero;"/>
        <path d="M895.143,781.239L898.427,781.239L898.464,761.889M817.452,781.239L822.527,781.239M857.031,761.21L857.031,770.889M817.593,790.239L817.593,809.785L898.235,809.785L898.235,792.348L885.135,792.348M817.543,792.348L829.222,792.348" style="fill:none;stroke-width:2.28px;stroke-linecap:butt;stroke:rgb(41,37,38);"/>
        <path d="M783.133,811.105L799.095,827.067" style="fill:none;stroke-width:0.82px;stroke:rgb(41,37,38);"/>
        <path d="M813.373,824.088L813.373,827.659M817.486,808.546L813.373,812.625L813.373,817.396" style="fill:none;stroke-width:2.28px;stroke-linecap:butt;stroke:rgb(41,37,38);"/>
        <path d="M816.431,817.489L810.702,817.489M816.431,824.143L810.702,824.143" style="fill:none;stroke-width:0.82px;stroke:rgb(41,37,38);"/>
        <path d="M813.699,900.946L817.229,900.946" style="fill:none;stroke-width:2.28px;stroke-linecap:butt;stroke:rgb(41,37,38);"/>
        <path d="M817.466,897.84L817.466,903.581M824.012,897.84L824.012,903.581" style="fill:none;stroke-width:0.82px;stroke-linecap:butt;stroke:rgb(41,37,38);"/>
        <path d="M828.288,900.863L824.259,900.863M845.647,802.597L845.647,809.813M870.701,802.597L870.701,809.813M837.863,823.705L837.863,827.276M837.863,810.343L837.863,813.693" style="fill:none;stroke-width:2.28px;stroke-linecap:butt;stroke:rgb(41,37,38);"/>
        <path d="M840.921,813.783L835.192,813.783M840.921,823.762L835.192,823.762" style="fill:none;stroke-width:0.82px;stroke:rgb(41,37,38);"/>
        <g transform="matrix(4.16667,0,0,4.16667,-673.617,-604.081)">
            <text x="354.892px" y="375.446px" style="font-family:Arial;font-size:3.6908px;fill:black;">Spa </text>
            <text x="349.866px" y="378.727px" style="font-family:Arial;font-size:3.6908px;fill:black;">Reception </text>
            <text x="350.274px" y="382.008px" style="font-family:Arial;font-size:3.6908px;fill:black;">&amp; Lounge</text>
        </g>
        <g transform="matrix(-0.0437182,-4.16644,4.16644,-0.0437182,-672.617,-604.081)">
            <text x="-294.146px" y="278.881px" style="font-family:Arial;font-size:3.5645px;fill:black;">Discovery </text>
            <text x="-292.216px" y="283.159px" style="font-family:Arial;font-size:3.5645px;fill:black;">Theater</text>
        </g>
        <g transform="matrix(4.16667,0,0,4.16667,-672.617,-604.081)">
            <text x="245.789px" y="278.426px" style="font-family:Arial;font-size:3.5644px;fill:black;">Men </text>
            <text x="255.822px" y="278.822px" style="font-family:Arial;font-size:3.5644px;fill:black;">Women</text>
        </g>
        <text x="373.161px" y="700.806px" style="font-family:Arial;font-size:19.8025px;fill:black;">San Juan</text>
        <text x="239.626px" y="584.203px" style="font-family:Arial;font-size:19.8025px;fill:black;">Patio</text>
        <g transform="matrix(-0.0436598,-4.16644,4.16644,-0.0436598,-672.617,-604.081)">
            <text x="-305.49px" y="171.091px" style="font-family:Arial;font-size:4.75266px;fill:black;">Packers </text>
            <text x="-303.904px" y="176.794px" style="font-family:Arial;font-size:4.75266px;fill:black;">Oyster </text>
            <text x="-300.604px" y="182.497px" style="font-family:Arial;font-size:4.75266px;fill:black;">Bar</text>
        </g>
        <text x="112.024px" y="856.515px" style="font-family:Arial;font-size:19.8025px;fill:black;">Deck</text>
        <text x="626.112px" y="862.163px" style="font-family:Arial;font-size:19.8025px;fill:black;">Semiahmoo</text>
        <g transform="matrix(-0.0104783,-0.999945,0.999945,-0.0104783,-75.6171,-1282.99)">
            <text x="-2151.13px" y="334.85px" style="font-family:Arial;font-size:19.8028px;fill:black;">Patio</text>
        </g>
        <g transform="matrix(4.16667,0,0,4.16667,-672.617,-604.081)">
            <text x="272.876px" y="362.487px" style="font-family:Arial;font-size:3.5644px;fill:black;">Men </text>
            <text x="270.203px" y="368.379px" style="font-family:Arial;font-size:3.5644px;fill:black;">Women</text>
        </g>
        <g transform="matrix(4.16667,0,0,4.16667,-672.617,-604.081)">
            <text x="374.334px" y="356.547px" style="font-family:Arial;font-size:4.7526px;fill:black;">Men’s </text>
            <text x="373.871px" y="360.706px" style="font-family:Arial;font-size:4.7526px;fill:black;">Locker </text>
            <text x="374.665px" y="364.864px" style="font-family:Arial;font-size:4.7526px;fill:black;">Room</text>
        </g>
        <g transform="matrix(4.16667,0,0,4.16667,-672.617,-604.081)">
            <text x="393.585px" y="356.747px" style="font-family:Arial;font-size:4.7526px;fill:black;">Women’s<tspan x="413.391px " y="356.747px "> </tspan></text>
            <text x="396.685px" y="360.905px" style="font-family:Arial;font-size:4.7526px;fill:black;">Locker </text>
            <text x="397.479px" y="365.064px" style="font-family:Arial;font-size:4.7526px;fill:black;">Room</text>
        </g>
        <g transform="matrix(-0.0104783,-0.999945,0.999945,-0.0104783,-75.6171,-1282.99)">
            <text x="-2487.54px" y="870.746px" style="font-family:Arial;font-size:19.8028px;fill:black;">Covered Wa<tspan x="-2377.48px " y="870.746px ">l</tspan>kway</text>
        </g>
        <g transform="matrix(-0.0436598,-4.16644,4.16644,-0.0436598,-672.617,-604.081)">
            <text x="-416.522px" y="379.356px" style="font-family:Arial;font-size:4.75266px;fill:black;">Pool </text>
            <text x="-421.147px" y="391.632px" style="font-family:Arial;font-size:4.75266px;fill:black;">Lap Pool</text>
        </g>
        <g transform="matrix(4.16667,0,0,4.16667,-672.617,-606.522)">
            <text x="273.234px" y="406.151px" style="font-family:Arial;font-size:4.7526px;fill:black;">Covered </text>
            <text x="272.444px" y="411.854px" style="font-family:Arial;font-size:4.7526px;fill:black;">Entryway</text>
        </g>
        <g transform="matrix(4.16667,0,0,4.16667,-674.617,-604.081)">
            <text x="258.906px" y="425.213px" style="font-family:Arial;font-size:3.5644px;fill:black;">F<tspan x="261.208px 262.52px 264.628px 266.735px " y="425.213px 425.213px 425.213px 425.213px ">ront</tspan> </text>
            <text x="259.006px" y="428.777px" style="font-family:Arial;font-size:3.5644px;fill:black;">Desk</text>
        </g>
        <g transform="matrix(-0.0104783,-0.999945,0.999945,-0.0104783,-75.6171,-1282.99)">
            <text x="-2408.63px" y="470.822px" style="font-family:Arial;font-size:19.8028px;fill:black;">Lobby</text>
        </g>
        <g transform="matrix(4.16667,0,0,4.16667,-672.617,-604.081)">
            <text x="234.103px" y="406.399px" style="font-family:Arial;font-size:3.5644px;fill:black;">Seaview </text>
            <text x="235.985px" y="410.676px" style="font-family:Arial;font-size:3.5644px;fill:black;">Lobby</text>
        </g>
        <path d="M851.062,992.498L855.732,992.498L855.732,940.861M841.949,1002.75L841.949,992.498L845.178,992.498M837.966,889.032L837.966,939.911" style="fill:none;stroke-width:2.28px;stroke-linecap:butt;stroke:rgb(41,37,38);"/>
        <path d="M844.772,989.83L844.772,995.571M851.426,989.83L851.426,995.571M830.342,937.813L830.342,943.555M836.051,937.813L836.051,943.555" style="fill:none;stroke-width:0.82px;stroke:rgb(41,37,38);"/>
        <path d="M828.849,932.695L837.582,932.695M828.753,930.795L837.49,930.795M828.844,928.807L837.578,928.807M828.753,926.907L837.486,926.907M828.849,925.007L837.582,925.007M828.753,923.107L837.49,923.107M828.844,921.115L837.578,921.115M828.753,919.215L837.486,919.215M828.94,917.315L837.674,917.315M828.849,915.42L837.582,915.42M828.94,913.428L837.674,913.428M828.844,911.528L837.578,911.528M828.565,909.728L837.294,909.728M828.469,907.824L837.207,907.824M828.561,905.828L837.294,905.828M828.469,903.932L837.203,903.932M828.94,902.082L837.674,902.082M828.849,900.182L837.582,900.182M828.94,898.19L837.674,898.19M828.844,896.295L837.578,896.295" style="fill:none;stroke-width:0.57px;stroke:rgb(41,37,38);"/>
    </g>
</svg>
