<svg xmlns="http://www.w3.org/2000/svg" width="400" height="220" viewBox="0 0 400 220"><g><defs><filter id="a" filterUnits="userSpaceOnUse" x="30" y="53.027" width="118.9" height="118.899"><feColorMatrix values="1 0 0 0 0 0 1 0 0 0 0 0 1 0 0 0 0 0 1 0"/></filter></defs><mask maskUnits="userSpaceOnUse" x="30" y="53.027" width="118.9" height="118.899" id="c"><g filter="url(#a)"><radialGradient id="b" cx="285.45" cy="-86.943" r="57.835" gradientTransform="matrix(1 0 0 -1 -196 26)" gradientUnits="userSpaceOnUse"><stop offset=".945" stop-color="#fff"/><stop offset=".946" stop-color="#F8F8F8"/><stop offset=".95" stop-color="#C4C4C4"/><stop offset=".954" stop-color="#969696"/><stop offset=".959" stop-color="#6D6D6D"/><stop offset=".964" stop-color="#4B4B4B"/><stop offset=".969" stop-color="#303030"/><stop offset=".975" stop-color="#1B1B1B"/><stop offset=".981" stop-color="#0C0C0C"/><stop offset=".989" stop-color="#030303"/><stop offset="1"/></radialGradient><path fill="url(#b)" d="M147.286 112.941c0 31.949-25.895 57.837-57.835 57.837-31.941 0-57.834-25.888-57.834-57.837 0-31.94 25.893-57.833 57.834-57.833 31.94.001 57.835 25.893 57.835 57.833z"/></g></mask><path mask="url(#c)" fill="#fff" d="M148.9 112.48c0 32.828-26.616 59.445-59.45 59.445-32.832 0-59.45-26.617-59.45-59.445 0-32.839 26.619-59.454 59.45-59.454 32.834.001 59.45 26.615 59.45 59.454z"/><path fill="#231F20" d="M358.949 47.741c6.287 0 11.145 4.556 11.145 10.575 0 6.025-4.857 10.583-11.145 10.583-6.289 0-10.848-5.001-10.848-10.583.001-5.579 4.559-10.575 10.848-10.575zM350.818 81.113h16.537v66.162h-16.537zM217.178 128.674c-3.895 4.102-8.892 7.017-16.064 7.017-9.24 0-16.683-5.934-17.789-15.709h50.449v-4.545c0-23.025-12.537-35.98-31.021-35.98-19.979 0-35.965 13.917-35.965 34.736 0 20.81 15.986 34.74 35.965 34.74 9.112 0 17.696-2.83 24.862-9.814l-10.437-10.445zm-16.761-36.818c10.339 0 16.681 6.075 16.829 15.718h-33.92c1.241-9.519 7.311-15.718 17.091-15.718zM256.85 99.72c0-4.967 5.236-7.031 9.656-7.031 5.613 0 9.742 2.319 12.904 6.699l10.523-10.512c-5.445-6.797-14.475-9.42-23.021-9.42-13.367 0-26.609 6.609-26.609 21.365 0 25.23 35.705 14.471 35.705 28.119 0 5.237-6.201 7.581-11.025 7.581-7.014 0-11.418-3.424-15.68-8.099l-10.682 10.683c6.705 7.27 15.383 9.827 25.395 9.827 13.504 0 28.543-5.514 28.543-21.229 0-25.786-35.709-16.137-35.709-27.983zM342.436 80.409c-1.91-.541-3.828-.952-5.875-.952-8.693 0-16 4.548-19.586 12.118h-.266v-10.462h-16.537v66.162h16.537v-35.432c0-3.583 2.201-16.675 17.781-16.675 2.398 0 4.787.473 7.299 1.073l.647-15.832zM380.197 80.783c2.947 0 5.361 2.408 5.361 5.355 0 2.953-2.414 5.353-5.361 5.353-2.949 0-5.354-2.399-5.354-5.353.001-2.947 2.405-5.355 5.354-5.355zm0 9.762c2.439 0 4.41-1.973 4.41-4.407 0-2.429-1.969-4.401-4.41-4.401-2.434 0-4.404 1.973-4.404 4.401 0 2.435 1.971 4.407 4.404 4.407zm-2.058-7.502h2.361c1.473 0 2.156.666 2.156 1.845 0 1.068-.625 1.585-1.461 1.683l1.596 2.589h-1.184l-1.523-2.504h-.818v2.504h-1.125v-6.116h-.002zm1.125 2.667h.82c.689 0 1.461-.041 1.461-.869 0-.824-.771-.868-1.461-.847h-.82v1.716z"/><radialGradient id="d" cx="269.586" cy="-77.545" r="36.335" gradientTransform="matrix(1 0 0 -1 -196 26)" gradientUnits="userSpaceOnUse"><stop offset="0" stop-color="#B9E0F7"/><stop offset="1" stop-color="#007AC2"/></radialGradient><path fill="url(#d)" d="M141.22 113.051c0 28.296-22.94 51.236-51.238 51.236-28.293 0-51.232-22.94-51.232-51.236 0-28.293 22.939-51.237 51.232-51.237 28.297.001 51.238 22.943 51.238 51.237z"/><radialGradient id="e" cx="267.562" cy="-78.053" r="44.572" gradientTransform="matrix(1 0 0 -1 -196 26)" gradientUnits="userSpaceOnUse"><stop offset="0" stop-color="#B2D235"/><stop offset=".961" stop-color="#009E46"/></radialGradient><path fill="url(#e)" d="M46.482 117.558c-2.325-7.834.368-15.174 6.181-15.754 5.216-.525 9.691-8.281 13.367-13.368 7.556-10.463 19.178-8.718 18.596-13.951-1.673-7.675-10.545-1.97-16.271-1.742-3.951.158-7.735.685-11.509 1.247-10.685 9.072-17.595 22.442-18.056 37.448 3.017 3.184 7.005 10.374 11.605 14.535.61-.274 1.273-.499 1.976-.713-2.257-2.62-5.412-6.096-5.889-7.702z"/><radialGradient id="f" cx="278.83" cy="-75.137" r="56.663" gradientTransform="matrix(1 0 0 -1 -196 26)" gradientUnits="userSpaceOnUse"><stop offset="0" stop-color="#B2D235"/><stop offset=".961" stop-color="#009E46"/></radialGradient><path fill="url(#f)" d="M81.723 145.976c2.708-7.056 4.237-10.159.579-17.435-8.049-2.274-10.49-2.991-18.596-4.655-4.23-.865-4.383-.642-9.142.744-.759.219-1.493.418-2.194.629-.629.17-1.119.416-1.975.713-1.882.844-3.241 2.126-3.56 4.868-.572 4.979 4.16 8.888 8.152 10.033 5.059 1.443 5.484-.248 8.138 3.344 1.854 2.504 2.214 7.156 3.16 10.215.532 1.711 1.247 3.416 2.105 5.084 3.616 1.684 7.452 2.961 11.468 3.769.997-5.907.541-13.874 1.865-17.309z"/><radialGradient id="g" cx="282.982" cy="-50.967" r="74.886" gradientTransform="matrix(1 0 0 -1 -196 26)" gradientUnits="userSpaceOnUse"><stop offset="0" stop-color="#B2D235"/><stop offset=".961" stop-color="#009E46"/></radialGradient><path fill="url(#g)" d="M141.159 110.762c-.623-14.15-6.977-26.805-16.803-35.703-.922.26-2.095.301-3.693.009-10.657-1.939-13.168 4.286-16.274 8.721-2.37 3.386-10.695 4.315-13.368 8.13-2.078 2.975.072 8.831-1.74 12.206-.835 1.554-.454 6.067.567 7.543 3.206 4.664 8.533 2.07 12.542 3.752 4.889 2.039 5.447 7.713 9.505 11.866 4.06 4.156-5.182 10.554 2.362 25.661.81 1.624 1.749 2.815 2.756 3.625 5.1-3.177 9.597-7.223 13.294-11.933 1.142-7.632-1.436-10.077 1.789-17.06 1.99-4.308 5.388-11.76 9.063-16.817z"/><path fill="#231F20" d="M73.562 101.611c8.719-3.703 18.17-6.666 30.91-7.736-3.245-7.787-6.827-13.287-11.043-18.326-9.393.754-17.968 3.284-25.379 6.353 1.09 5.766 3.148 12.75 5.512 19.709zm40.646 21.468c-12.061-.143-22.59 2.742-29.786 6.281 3.049 6.567 9.08 15.269 11.334 18.849 3.92-1.46 8.137-2.558 11.406-3.068 3.269-.504 7.628-.985 10.58-.934-.533-7.643-1.427-12.807-3.534-21.128zm-31.969 1.901c9.639-4.432 20.222-6.432 30.879-6.141-2.907-10.073-4.577-14.745-7.047-20.875-11.843.509-21.941 3.434-31.144 7.786-.001 0 3.391 10.904 7.312 19.23zm37.051-48.63c-5.906-1.071-14.527-1.752-20.919-1.366 4.359 6.041 7.556 11.296 10.558 18.792 8.088.197 19.079 2.61 23.586 4.383-2.688-7.17-7.798-16.276-13.225-21.809zm18.382 47.622c-.362-6.659-1.382-15.547-3.851-21.739-6.538-2.629-15.474-4.269-23.317-4.345 2.419 5.646 5.232 15.083 6.61 21.152 5.666.678 14.531 2.281 20.558 4.932zm-5.399-46.549c-8.427-10.322-27.51-19.106-48.75-17.786 4.747 3.134 8.696 7.856 12.16 11.75 5.303-.484 16.44.39 20.632 1.548-.715-.843-1.588-1.682-1.815-2.176-.596-1.28.836-1.552 1.983-.821 1.451.927 3.129 2.038 4.458 3.394 2.464.549 8.523 2.629 11.332 4.091zm10.171 49.696c-.24.827-1.696 1.659-2.373 1.451.098 1.47-.245 8.779-.628 11.596 1.011-2.089 2.951-7.255 3.534-9.443l.821-3.214c.815-2.732 3.465-12.171 1.066-24.581-2.661-13.788-7.653-18.714-9.395-20.907-4.433-2.409-11.143-4.597-11.143-4.597 6.081 8.23 8.187 12.102 11.819 21.901 2.108 1.096 5.934 3.217 6.413 3.795.383.46.387 1.29-.814 1.269-.999-.012-2.936-.965-4.434-1.361 1.596 5.336 2.833 15.309 2.74 21.989.001-.001 2.637 1.274 2.394 2.102zm-7.749 20.294c.871-.873 2.178-2.724 2.687-3.799.509-4.374.527-13.354.341-15.971-5.282-2.145-13.441-3.834-19.399-4.276 1.938 7.112 2.908 17.572 3.053 20.98 2.856.293 10.073 1.757 13.318 3.066zm-13.563 12.03c4.623-2.885 8.963-6.195 12.109-10.178-2.709-.684-8.768-1.504-11.77-1.315.001 0-.094 7.204-.339 11.493zm-12.611 5.941c2.296-.737 8.149-3.39 9.367-4.188.29-4.723.243-10.079.048-13.293-6.153 0-14.822 1.798-19.786 3.886 2.883 4.637 6.856 9.744 10.371 13.595zm-27.66-4.03c1.719 1.731 8.535 6.245 8.535 6.245 4.531.2 10.26-.335 14.349-1.047-2.255-2.574-7.886-10.543-9.591-13.225-4.361 1.827-9.88 5.191-13.293 8.027zm-18.625-18.972c4.333 5.562 11.118 12.617 15.843 16.519 4.472-3.597 9.538-6.954 13.753-9-3.635-5.637-9.01-13.831-11.264-18.86-8.064 3.572-12.639 6.572-18.332 11.341zm-11.527-22.293c2.759 7.876 5.432 13.888 8.918 18.853 4.079-3.544 12.442-9.146 18.835-12.211-2.107-4.525-5.146-12.992-7.264-19.327-8.235 4.038-14.384 7.983-20.489 12.685zm-6.609-23.664c.657 4.538 2.833 14.313 4.792 19.277 4.652-3.505 15.184-10 21.143-12.628-2.083-7.595-3.486-12.387-4.649-20.053-8.427 3.744-17.337 9.567-21.286 13.404zm-1.023-16.147c-.292 2.286.013 6.506.585 11.548 4.65-4.157 13.633-9.582 21.14-12.895-.867-5.722-1.79-14.849-1.695-17.281-6.945 3.814-14.57 11.473-20.154 19.328m22.726-23.813c9.982-4.135 19.701-6.401 30.924-4.868 1.249.17 1.144 1.226-.185 1.236l-1.58.04c-9.038.146-22.335 3.015-29.212 6.908-.145 4.589.725 11.877 1.647 17.622 6.247-2.629 15.91-5.331 23.248-6.13-4.164-4.434-9.83-8.619-10.508-9.105-.68-.488-1.017-1.315-1.017-2.387.095-1.994 1.815-2.244 2.732-2.01 3.056-.593 6.093-1.259 11.263-1.103 21.865-.953 41.838 11.41 49.463 25.509 19.313 30.543.003 72.677-25.28 83.901-10.814 4.802-20.09 6.871-37.189 4.489-17.128-2.396-31.135-10.77-42.01-28.372-13.398-21.688-5.855-46.957-3.973-52.255 8.065-19.022 21.286-29.099 31.677-33.475zm-25.794 37.588c-.216-3.288-.48-7.79-.48-7.79-2.413 5.25-3.857 8.416-4.529 14.549 1.689-2.995 5.009-6.759 5.009-6.759zm35.284 66.583c-3.635-2.712-12.629-11.24-16.358-16.383-1.37.808-2.896 2.997-4.88 3.38-.779.148-2.532.362-3.052.148-.516-.221.12-1.317.679-2.044.971-1.271 2.385-2.914 4.456-4.516-4.431-6.501-6.539-11.25-9.552-19.081-1.743 1.089-3.007 2.059-4.531 3.269-.51.401-1.917.654-2.602.045-1.242-1.118-1.26-3.074.486-4.314.712-.514 4.258-2.959 5.082-3.65-2.178-6.284-3.998-14.539-4.482-18.824-1.455 1.264-3.497 2.703-4.07 3.09-.825.238-1.379-.028-1.616-.067-.83 8.881.127 18.667 2.768 27.5 4.543 15.196 17.28 29.682 34.471 35.071.403-.602 2.377-2.888 3.201-3.624zm8.961 6.089c-1.699-.975-3.826-2.483-5.812-3.8-.826.73-1.489 1.798-2.147 2.66 2.276.777 5.344.847 7.959 1.14z"/></g></svg>