<svg xmlns="http://www.w3.org/2000/svg" width="400" height="220" viewBox="0 0 400 220"><g><path fill="#0F0D0E" d="M95.485 103.684h-28.571c-.736 0-1.336.57-1.336 1.275v13.329c0 .702.6 1.276 1.336 1.276h11.146v16.561s-2.503.813-9.422.813c-8.164 0-19.566-2.845-19.566-26.774 0-23.932 11.874-27.081 23.021-27.081 9.65 0 13.807 1.621 16.452 2.402.831.242 1.6-.548 1.6-1.251l3.188-12.879c0-.33-.116-.727-.51-.996-1.074-.73-7.628-4.23-24.185-4.23-19.074 0-38.638 7.744-38.638 44.969 0 37.226 22.399 42.773 41.276 42.773 15.629 0 25.11-6.373 25.11-6.373.391-.206.434-.729.434-.966v-41.573c0-.705-.597-1.275-1.335-1.275zM242.727 70.59c0-.709-.589-1.281-1.324-1.281h-16.088c-.735 0-1.332.572-1.332 1.281l.005 29.666h-25.076v-29.666c0-.709-.592-1.281-1.327-1.281h-16.087c-.731 0-1.328.572-1.328 1.281v80.33c0 .707.597 1.285 1.328 1.285h16.087c.735 0 1.327-.578 1.327-1.285v-34.36h25.076l-.044 34.36c0 .707.596 1.285 1.332 1.285h16.124c.736 0 1.325-.578 1.326-1.285v-80.33z"/><g fill="#0F0D0E"><path d="M125.842 81.131c0-5.528-4.644-9.995-10.373-9.995-5.724 0-10.371 4.467-10.371 9.995 0 5.521 4.647 10.001 10.371 10.001 5.729 0 10.373-4.48 10.373-10.001zM124.692 133.975v-37.081c0-.704-.596-1.28-1.332-1.28h-16.035c-.736 0-1.395.725-1.395 1.43v53.124c0 1.561 1.02 2.024 2.34 2.024h14.448c1.585 0 1.974-.742 1.974-2.05v-16.167z"/></g><path fill="#0F0D0E" d="M303.866 95.735h-15.963c-.733 0-1.328.575-1.328 1.284v39.388s-4.057 2.833-9.812 2.833c-5.757 0-7.285-2.493-7.285-7.871v-34.35c0-.709-.593-1.284-1.326-1.284h-16.202c-.731 0-1.329.575-1.329 1.284v36.949c0 15.976 9.329 19.885 22.165 19.885 10.529 0 19.02-5.552 19.02-5.552s.405 2.926.586 3.272c.186.346.66.694 1.176.694l10.307-.043c.732 0 1.33-.576 1.33-1.282l-.005-53.922c0-.709-.597-1.285-1.334-1.285zM347.498 93.931c-9.066 0-15.233 3.859-15.233 3.859v-27.2c0-.709-.595-1.281-1.327-1.281h-16.134c-.733 0-1.328.572-1.328 1.281v80.33c0 .707.595 1.285 1.33 1.285h11.193c.504 0 .886-.249 1.168-.683.278-.432.681-3.704.681-3.704s6.596 5.965 19.083 5.965c14.661 0 23.069-7.097 23.069-31.856 0-24.761-13.428-27.996-22.502-27.996zm-6.296 45.259c-5.537-.162-9.293-2.559-9.293-2.559v-25.439s3.706-2.167 8.251-2.553c5.749-.492 11.289 1.164 11.289 14.251 0 13.8-2.501 16.523-10.247 16.3zM170.927 95.607h-12.067l-.018-15.213c0-.577-.312-.864-1.009-.864h-16.444c-.639 0-.981.269-.981.854v15.721s-8.242 1.897-8.799 2.053c-.555.152-.964.642-.964 1.224v9.879c0 .71.596 1.283 1.331 1.283h8.432v23.767c0 17.653 12.976 19.387 21.73 19.387 4.002 0 8.786-1.227 9.576-1.506.479-.166.757-.64.757-1.15l.013-10.868c0-.708-.626-1.282-1.334-1.282-.702 0-2.501.273-4.354.273-5.926 0-7.936-2.629-7.936-6.034v-22.586h12.067c.736 0 1.332-.573 1.332-1.283v-12.375c0-.709-.596-1.28-1.332-1.28z"/></g></svg>