<?xml version="1.0" encoding="UTF-8" standalone="no"?>
<svg width="169px" height="433px" viewBox="0 0 169 433" version="1.1" xmlns="http://www.w3.org/2000/svg" xmlns:xlink="http://www.w3.org/1999/xlink" xmlns:sketch="http://www.bohemiancoding.com/sketch/ns">
    <title>Untitled</title>
    <description>Created with Sketch (http://www.bohemiancoding.com/sketch)</description>
    <defs></defs>
    <g id="Page-1" stroke="none" stroke-width="1" fill="none" fill-rule="evenodd" sketch:type="MSPage">
        <path d="M62.7127403,310.991306 L15.5828098,302.198643 L0.139166264,229.514927 L7.80588475,229.514927 L7.80588475,194.94173 L22.7476296,170.82848 L7.80588475,118.103718 L29.6767394,112.876247 L17.5250007,99.9159279 L37.0859896,91.881855 L27.110438,82.4404869 L81.5140139,0.173282597 L136.158209,79.6966567 L130.167922,89.5282019 L147.998999,91.8818526 L140.364757,105.788484 L154.773978,110.091943 L143.453894,170.828477 L159.652457,197.876893 L159.652457,226.692445 L168.511252,226.692445 L147.998999,302.19864 L101.980101,311.991306 L105.980101,421.310123 L60.3249268,421.310123 L62.7127403,310.991306 Z" id="Path-1" fill="#FFFFFF" sketch:type="MSShapeGroup"></path>
        <path d="M75.2147023,300.648537 L22.74763,292.286215 L10.798453,239.975841 L29.6767385,243.514922 L15.7478163,226.93551 L17.5250007,199.375774 L34.1044121,174.648068 L21.9851605,124.091946 L40.0321823,120.826131 L35.514694,103.096327 L54.5076366,96.4404844 L41.5361008,80.4286255 L81.6030117,19.8572097 L122.340666,82.1351048 L114.123577,94.3346163 L130.167922,103.528202 L124.683492,114.986264 L140.364757,119.788484 L132.466796,175.091408 L147.806,202.379789 L147.999006,225.183168 L137.8595,240.692447 L152.881486,240.033169 L140.33036,290.543428 L89.7837932,299.954862 L95.2701337,432.328352 L71.2934308,432.328352 L75.2147023,300.648537 Z" id="Path-1" fill="#008535" sketch:type="MSShapeGroup"></path>
    </g>
</svg>