<?xml version="1.0" standalone="no"?>
<!DOCTYPE svg PUBLIC "-//W3C//DTD SVG 1.1//EN" "http://www.w3.org/Graphics/SVG/1.1/DTD/svg11.dtd">
<svg width="100%" height="100%" viewBox="0 0 400 220" version="1.1" xmlns="http://www.w3.org/2000/svg" xmlns:xlink="http://www.w3.org/1999/xlink" xml:space="preserve" style="fill-rule:evenodd;clip-rule:evenodd;stroke-linejoin:round;stroke-miterlimit:1.41421;">
    <g>
        <path d="M85.7991,77.7483L108.956,105.738L109.705,104.903C112.202,102.186 114.567,99.5257 116.786,96.9079C119.011,94.3041 124.708,88.1027 126.763,85.4396L135.869,101.992C134.311,104.214 132.268,106.796 129.738,109.74C127.217,112.687 124.203,116.071 120.7,119.901L144.534,149.312L120.374,149.312L107.542,133.567C95.7635,145.733 83.5214,151.811 70.8081,151.811C59.4147,151.811 49.7514,148.179 41.812,140.893C34.0349,133.567 30.1487,124.515 30.1487,113.74C30.1487,100.908 36.3095,90.2462 48.6421,81.7468L57.0573,75.9994C57.1697,75.9463 57.3631,75.8044 57.6377,75.5782L58.8031,74.6686C50.3099,65.6122 46.0586,56.7009 46.0586,47.9206C46.0586,39.2558 48.8949,32.2026 54.5565,26.7625C60.3336,21.3193 67.7799,18.5954 76.8831,18.5954C85.7196,18.5954 93.0177,21.2304 98.7932,26.5082C104.569,31.7939 107.458,38.4508 107.458,46.5025C107.458,52.0565 105.878,57.0878 102.709,61.584C99.5982,66.0896 93.96,71.4704 85.7991,77.7483ZM70.3853,88.6627L69.301,89.4131C61.3585,94.9141 55.9419,99.326 53.0572,102.652C50.2241,105.989 48.8106,109.52 48.8106,113.237C48.8106,118.571 50.948,123.459 55.2227,127.896C59.6627,132.176 64.5505,134.311 69.8892,134.311C77.3824,134.311 86.0238,129.4 95.7931,119.572L70.3853,88.6627L70.3853,88.6627ZM74.5523,64.0864L76.1327,62.9164C78.8551,60.8726 81.1048,59.0738 82.8817,57.5496C84.6556,56.0207 85.9395,54.7289 86.7165,53.6712C88.3795,51.6228 89.2142,49.0892 89.2142,46.0953C89.2142,42.7052 88.0753,39.9594 85.7991,37.8424C83.5214,35.7347 80.4636,34.6754 76.632,34.6754C73.1342,34.6754 70.1934,35.7612 67.8018,37.9251C65.4164,39.9844 64.2167,42.6194 64.2167,45.8426C64.2167,49.6212 65.719,53.3389 68.7191,57.0082L73.5476,62.8384C73.7177,63.1145 74.0515,63.5357 74.5523,64.0864L74.5523,64.0864Z" style="fill:rgb(234,58,148);fill-rule:nonzero;"/>
        <path d="M116.864,61.7556C121.412,62.2143 125.629,62.4764 129.491,62.5513C133.364,62.6355 137.657,62.6699 142.361,62.6699C146.901,62.6699 151.533,62.6355 156.238,62.5513C160.941,62.4764 165.572,62.2143 170.12,61.7556L170.12,64.4858C166.786,64.7916 163.603,65.7823 160.562,67.4469C157.536,69.1193 156.016,71.8526 156.016,75.639C156.016,78.6781 156.994,82.7406 158.976,87.8172C160.941,92.9078 163.25,98.3666 165.912,104.204C168.566,110.053 171.304,116.007 174.104,122.075C176.909,128.147 179.149,133.761 180.816,138.92C181.58,137.4 182.756,134.898 184.348,131.405C185.942,127.913 187.763,123.929 189.808,119.459C191.855,114.989 193.914,110.315 195.953,105.465C198.008,100.608 199.9,96.0576 201.654,91.8063C203.39,87.5519 204.832,83.8436 205.966,80.6563C207.116,77.4643 207.684,75.3426 207.684,74.277C207.684,72.4595 207.264,71.0149 206.431,69.954C205.595,68.8916 204.574,68.0179 203.353,67.3299C202.136,66.659 200.699,66.127 199.027,65.7401C197.362,65.3673 195.755,64.9476 194.251,64.4874L194.251,61.7572C197.733,62.2159 201.233,62.478 204.716,62.5529C208.206,62.6371 211.773,62.6714 215.419,62.6714C218.899,62.6714 222.328,62.6371 225.664,62.5529C228.992,62.478 232.41,62.2159 235.901,61.7572L235.901,64.4874C231.653,65.0989 227.517,67.7137 223.495,72.3363C219.478,76.9713 215.77,82.246 212.355,88.1651C208.932,94.081 205.926,99.8861 203.351,105.568C200.776,111.261 198.802,115.476 197.432,118.211C191.072,131.403 185.293,142.711 180.135,152.118C174.975,161.529 170.305,169.384 166.138,175.676C161.962,181.98 158.166,186.951 154.759,190.589C151.347,194.24 148.08,196.999 144.966,198.895C141.857,200.795 138.822,202.003 135.872,202.542C132.914,203.07 129.838,203.337 126.644,203.337C123.914,203.337 121.226,202.951 118.569,202.196C115.915,201.438 113.556,200.263 111.517,198.673C109.461,197.076 107.789,195.062 106.495,192.639C105.218,190.199 104.569,187.328 104.569,183.988C104.569,180.952 105.667,178.225 107.859,175.798C110.068,173.369 112.68,172.15 115.725,172.15C119.213,172.15 122.011,173.024 124.143,174.773C126.268,176.511 127.323,179.206 127.323,182.854C127.323,185.427 126.714,187.592 125.502,189.339C124.293,191.079 123.686,192.333 123.686,193.093C123.686,194.006 124.786,194.572 126.991,194.804C129.187,195.027 131.345,195.14 133.479,195.14C138.022,195.14 142.504,193.28 146.897,189.562C151.298,185.849 155.203,181.6 158.617,176.826C162.041,172.042 164.806,167.482 166.935,163.167C169.065,158.844 170.118,156.067 170.118,154.855C170.118,154.398 169.588,152.839 168.531,150.189C167.46,147.536 166.023,144.123 164.21,139.939C162.38,135.772 160.331,131.116 158.057,125.949C155.784,120.785 153.509,115.667 151.238,110.584C148.958,105.501 146.681,100.568 144.393,95.7877C142.125,91.0107 140.153,86.9482 138.479,83.6127C136.966,80.1321 135.672,77.3145 134.612,75.1866C133.548,73.0633 132.257,71.3565 130.749,70.0663C129.232,68.7792 127.404,67.7558 125.284,66.9945C123.156,66.2378 120.346,65.4047 116.862,64.4889L116.862,61.7556L116.864,61.7556Z" style="fill:rgb(12,185,237);fill-rule:nonzero;"/>
        <path d="M241.674,98.6256C241.674,106.523 242.703,113.044 244.733,118.211C246.8,123.364 249.373,127.466 252.496,130.494C255.598,133.536 258.928,135.659 262.5,136.867C266.067,138.084 284.55,137.667 289.694,135.62C294.859,133.573 299.639,130.344 304.047,125.946L307.909,129.587C301.694,136.265 295.315,141.347 288.792,144.836C282.266,148.324 274.451,150.073 265.347,150.073C258.813,150.073 252.977,148.781 247.816,146.199C242.655,143.628 238.259,140.209 234.614,135.956C230.978,131.712 228.212,126.849 226.31,121.389C224.406,115.933 223.466,110.312 223.466,104.545C223.466,98.7831 224.408,93.1636 226.31,87.7064C228.212,82.2429 230.978,77.3863 234.614,73.1397C238.259,68.8884 242.655,65.4749 247.816,62.893C252.978,60.3172 258.813,59.0208 265.347,59.0208C277.328,59.0208 286.974,62.283 294.265,68.8104C301.54,75.341 306.006,85.2804 307.683,98.6256L241.674,98.6256L241.674,98.6256ZM286.068,91.8048C285.598,87.7064 284.995,84.0292 284.235,80.7624C283.48,77.4986 282.264,74.7731 280.605,72.5718C278.916,70.3705 276.717,68.7028 274.001,67.5655C271.26,66.4235 267.774,65.8509 263.528,65.8509C260.348,65.8509 257.415,66.6575 254.763,68.2457C252.101,69.8339 249.833,71.8854 247.934,74.3894C246.034,76.8949 244.586,79.6999 243.602,82.8124C242.614,85.9248 242.129,88.9233 242.129,91.8048L286.068,91.8048Z" style="fill:rgb(12,185,237);fill-rule:nonzero;"/>
        <path d="M301.396,69.7231L301.396,66.0802C306.249,65.9336 310.42,64.7198 313.925,62.4405C317.417,60.1628 320.436,57.2797 323.019,53.7898C325.606,50.3014 327.759,46.4307 329.508,42.181C331.249,37.9375 332.807,33.8423 334.18,29.8921L337.353,29.8921L337.353,62.893L368.541,62.893L368.541,69.7231L337.353,69.7231L337.353,122.754C337.353,124.731 337.478,126.664 337.706,128.562C337.927,130.461 338.386,132.169 339.066,133.683C339.75,135.199 340.732,136.417 342.024,137.324C343.318,138.238 345.102,138.694 347.377,138.694C351.934,138.694 355.728,137.706 358.752,135.737C361.795,133.759 364.822,131.261 367.872,128.218L369.917,130.494C367.328,132.773 364.822,135.09 362.407,137.432C359.973,139.797 357.432,141.918 354.789,143.814C352.126,145.713 349.243,147.226 346.13,148.359C343.007,149.501 339.645,150.075 335.994,150.075C329.618,150.075 325.298,148.137 323.022,144.268C320.741,140.396 319.602,135.806 319.602,130.494L319.602,69.7231L301.396,69.7231L301.396,69.7231Z" style="fill:rgb(12,185,237);fill-rule:nonzero;"/>
    </g>
</svg>
