<?xml version="1.0" standalone="no"?>
<!DOCTYPE svg PUBLIC "-//W3C//DTD SVG 1.1//EN" "http://www.w3.org/Graphics/SVG/1.1/DTD/svg11.dtd">
<svg width="100%" height="100%" viewBox="0 0 400 220" version="1.1" xmlns="http://www.w3.org/2000/svg" xmlns:xlink="http://www.w3.org/1999/xlink" xml:space="preserve" style="fill-rule:evenodd;clip-rule:evenodd;stroke-linejoin:round;stroke-miterlimit:1.41421;">
    <g id="Layer_2">
        <path d="M186.789,94.2139C185.547,94.3094 185.535,95.0019 185.311,95.5451C180.217,107.881 175.078,120.198 170.057,132.563C169.106,134.908 167.725,135.762 165.201,135.715C158.626,135.59 159.696,136.078 157.435,130.578C152.706,119.079 148.183,107.492 143.563,95.946C143.35,95.4097 143.166,94.7988 142.305,94.4968C141.736,95.6145 141.954,96.8276 141.953,97.9713C141.933,109.641 140.911,121.27 140.651,132.931C140.604,135.038 139.99,135.634 137.806,135.627C132.661,135.611 131.892,136.362 132.173,130.274C132.864,115.255 133.633,100.234 133.931,85.198C133.99,82.2285 134.601,81.6975 137.61,81.6714C139.554,81.6558 141.5,81.668 143.445,81.6714C146.888,81.6784 147.074,81.7738 148.396,85.0314C150.699,90.6943 152.973,96.3677 155.238,102.046C158.072,109.144 160.885,116.253 163.724,123.353C163.83,123.615 164.099,123.816 164.358,124.122C165.654,123.485 165.651,122.088 166.08,121.064C171.217,108.855 176.296,96.6176 181.321,84.358C182.069,82.5305 183.065,81.5309 185.163,81.6367C187.716,81.7669 190.279,81.694 192.839,81.6662C194.481,81.6471 195.276,82.4281 195.384,84.0421C195.505,85.88 195.788,87.711 195.816,89.5489C196.033,103.667 197.008,117.758 197.407,131.871C197.51,135.488 197.339,135.654 193.669,135.665C192.952,135.665 192.235,135.682 191.519,135.661C188.952,135.59 188.527,135.245 188.398,132.624C188.018,124.859 187.617,117.098 187.379,109.33C187.225,104.32 186.421,99.3458 186.789,94.2139Z" style="fill:black;fill-rule:nonzero;"/>
        <path d="M91.5396,136.071C88.2716,140.076 85.0453,143.711 81.1995,146.808C74.6167,144.103 69.0232,140.005 63.1884,136.362C61.8833,135.545 60.7257,135.155 59.2609,135.158C54.5612,135.168 49.8441,135.338 45.1634,135.026C37.6504,134.523 38.2353,134.92 36.859,127.053C36.4234,124.558 36.1631,122.031 35.8438,119.688C36.2655,118.719 36.9909,118.664 37.7025,118.535C45.3023,117.168 52.8309,115.462 60.6424,115.417C65.4567,115.387 69.6844,116.808 73.5459,119.342C79.8579,123.485 85.1998,128.796 90.4775,134.151C90.9756,134.655 91.3591,135.26 91.5396,136.071Z" style="fill:rgb(244,128,31);fill-rule:nonzero;"/>
        <path d="M76.6333,73.3931C76.583,75.4688 75.5625,77.2841 74.9169,79.1827C72.81,85.3681 70.4879,91.4684 66.9596,97.0324C65.1773,99.8439 63.0322,102.213 60.0402,103.787C51.9371,108.046 43.2301,110.38 34.1794,112.261C32.3346,108.055 30.9167,103.947 30.0819,99.6513C29.7521,97.9592 30.4221,96.8745 32.0222,95.9651C36.6282,93.3445 41.2707,90.7794 46.0798,88.5735C48.9208,87.2702 50.9184,85.4757 52.3415,82.6798C54.5994,78.2421 57.3415,74.0682 60.2953,70.0522C61.8868,67.8863 62.7979,67.4611 65.2172,68.6569C68.0461,70.0557 71.2463,70.2865 73.9988,71.8329C74.8683,72.3188 75.894,72.5323 76.6333,73.3931Z" style="fill:rgb(0,131,164);fill-rule:nonzero;"/>
        <path d="M83.8478,75.0921C87.5323,75.7863 91.2636,76.2706 94.8891,77.3309C98.794,78.4729 98.9849,78.643 99.0196,82.5062C99.0682,88.0338 98.8495,93.5597 98.3115,99.0543C98.1744,100.463 98.4035,101.486 99.0752,102.628C101.97,107.546 104.988,112.399 107.43,117.576C108.801,120.484 108.721,121.26 106.486,123.514C103.922,126.1 100.79,127.952 97.9141,130.132C97.0949,130.752 96.1803,130.432 95.4636,129.663C89.4032,123.141 83.3845,116.579 79.6375,108.36C78.1259,105.043 78.0165,101.564 78.3758,97.8949C79.0769,90.736 80.9339,83.8825 82.928,77.0324C83.1311,76.3469 83.3307,75.6787 83.8478,75.0921Z" style="fill:rgb(202,7,37);fill-rule:nonzero;"/>
        <path d="M336.78,157.058C336.072,155.231 336.987,153.726 337.584,152.289C339.571,147.494 341.664,142.744 343.844,138.039C344.541,136.534 344.62,135.354 343.877,133.782C339.078,123.657 334.399,113.482 329.738,103.292C327.818,99.0994 327.372,97.9574 333.019,98.2681C333.632,98.3011 334.26,98.3618 334.857,98.2594C336.732,97.9383 337.638,98.9362 338.341,100.495C341.728,108.008 345.17,115.5 348.594,122.997C348.793,123.431 348.88,124.014 349.902,124.028C351.589,120.307 353.356,116.472 355.073,112.612C356.848,108.61 358.601,104.596 360.314,100.566C360.982,99.0005 361.888,98.0859 363.764,98.2386C365.676,98.393 367.608,98.2733 369.486,98.2733C370.475,99.9567 369.831,101.257 369.264,102.548C364.33,113.73 359.382,124.903 354.456,136.09C351.751,142.239 348.733,148.259 346.511,154.608C345.742,156.814 344.498,157.681 342.209,157.383C340.414,157.136 338.554,157.654 336.78,157.058Z" style="fill:black;fill-rule:nonzero;"/>
        <path d="M315.243,98.2698C317.858,98.2698 320.196,98.2264 322.527,98.282C324.812,98.3375 325.137,98.728 325.119,101.045C325.093,103.961 324.55,104.762 322.374,104.82C320.055,104.879 317.733,104.833 315.178,104.833C315.178,107.393 315.178,109.623 315.178,111.848C315.178,118.6 315.196,125.347 315.17,132.097C315.159,135.222 314.708,135.637 311.688,135.663C306.574,135.701 306.57,135.701 306.569,130.699C306.565,122.22 306.567,113.742 306.567,105.219C305.331,104.453 303.726,105.34 302.77,104.2C302.051,103.339 302.275,102.248 302.299,101.243C302.35,98.8998 302.77,98.5891 306.315,98.1466C306.919,95.6961 306.642,93.1293 306.867,90.618C307.938,78.8287 316.923,75.5156 326.449,76.34C326.954,76.3834 327.449,76.5482 327.95,76.6402C330.482,77.1123 330.781,77.5062 330.546,80.0973C330.258,83.2855 329.828,83.5805 326.541,83.1432C324.614,82.888 322.698,82.9002 320.784,83.4868C318.099,84.3094 316.452,85.9651 315.774,88.7089C315.036,91.7339 315.178,94.778 315.243,98.2698Z" style="fill:black;fill-rule:nonzero;"/>
        <path d="M296.912,117.579C296.912,122.593 296.937,127.602 296.902,132.612C296.881,135.364 296.621,135.592 293.95,135.66C288.299,135.805 288.28,135.791 288.278,130.222C288.276,121.22 288.271,112.223 288.287,103.225C288.292,99.8526 288.563,99.6738 291.938,99.4621C297.277,99.1289 296.921,98.4885 296.911,104.389C296.905,108.784 296.912,113.181 296.912,117.579Z" style="fill:black;fill-rule:nonzero;"/>
        <path d="M298.091,84.4153C298.063,87.4212 295.741,89.6513 292.603,89.686C289.464,89.719 287.256,87.4784 287.265,84.273C287.273,81.0588 289.342,79.1376 292.77,79.1602C296.199,79.1827 298.124,81.0831 298.091,84.4153Z" style="fill:black;fill-rule:nonzero;"/>
        <path d="M280.862,105.628C277.843,98.6672 270.927,95.4409 263.474,96.897C260.37,97.5062 257.898,99.1532 254.972,101.526C254.972,99.8162 254.972,98.813 254.972,97.8134C254.972,91.7738 254.996,85.7343 254.965,79.6947C254.951,77.0255 254.587,76.7253 251.909,76.8277C251.501,76.8433 251.093,76.878 250.684,76.9092C246.348,77.2407 246.352,77.2442 246.345,81.6454C246.314,98.2299 246.282,114.814 246.239,131.397C246.232,133.997 246.289,134.254 249.019,134.912C255.222,136.404 261.503,137.154 267.817,135.698C273.566,134.368 278.193,131.316 280.665,125.807C283.644,119.172 283.761,112.303 280.862,105.628ZM273.894,119.486C272.435,128.207 266.317,130.783 257.702,129.419C256.909,129.294 256.142,129.002 254.972,128.679C254.972,121.926 254.986,115.306 254.955,108.683C254.95,107.721 255.512,107.235 256.128,106.684C261.586,101.802 271.388,102.223 273.565,112.204C274.094,114.639 274.295,117.074 273.894,119.486Z" style="fill:black;fill-rule:nonzero;"/>
        <path d="M234.497,100.373C226.755,94.3615 213.632,95.4757 207.107,102.773C202.103,108.369 201.578,115.158 203.009,122.079C204.642,130.017 210.581,135.227 219.066,136.263C225.987,137.102 234.07,134.712 238.353,127.076C240.305,123.601 240.963,119.806 240.993,115.868C241.017,109.785 239.538,104.289 234.497,100.373ZM231.109,123.351C229.41,127.086 226.692,129.354 222.49,129.604C218.004,129.877 214.724,127.775 212.822,123.938C210.458,119.172 210.236,114.139 212.369,109.15C214.028,105.267 217.121,103.398 221.225,103.258C225.493,103.114 228.679,105.056 230.685,108.811C231.959,111.196 232.457,113.78 232.24,116.147C232.313,118.846 232.109,121.146 231.109,123.351Z" style="fill:black;fill-rule:nonzero;"/>
    </g>
</svg>
