<?xml version="1.0" standalone="no"?>
<!DOCTYPE svg PUBLIC "-//W3C//DTD SVG 1.1//EN" "http://www.w3.org/Graphics/SVG/1.1/DTD/svg11.dtd">
<svg width="100%" height="100%" viewBox="0 0 400 220" version="1.1" xmlns="http://www.w3.org/2000/svg" xmlns:xlink="http://www.w3.org/1999/xlink" xml:space="preserve" style="fill-rule:evenodd;clip-rule:evenodd;stroke-linejoin:round;stroke-miterlimit:1.41421;">
    <g>
        <path d="M186.244,91.1713C185.095,94.0425 183.947,96.9616 182.75,99.8329C178.444,110.169 174.137,120.554 169.83,130.89C169.208,132.374 168.203,133.091 166.576,133.044C164.949,132.996 163.274,133.044 161.647,133.044C159.733,133.044 158.967,132.517 158.249,130.794C154.564,121.75 150.927,112.706 147.243,103.613C145.663,99.6415 144.084,95.6696 142.362,91.4105C142.314,92.5112 142.218,93.4204 142.218,94.2818C141.883,103.518 141.596,112.706 141.261,121.941C141.165,124.621 141.069,127.253 140.974,129.933C140.878,132.374 140.208,133.044 137.815,133.044C136.571,133.044 135.375,133.091 134.131,133.044C132.551,132.996 131.786,132.23 131.834,130.699C132.073,123.138 132.408,115.529 132.695,107.968C132.934,102.178 133.126,96.3874 133.365,90.597C133.461,87.4865 133.604,84.376 133.7,81.2176C133.748,79.6863 134.657,78.8249 136.14,78.777C139.203,78.7292 142.266,78.777 145.281,78.777C146.812,78.777 147.578,79.7341 148.104,81.0262C149.97,85.7638 151.884,90.4535 153.799,95.191C157.244,103.853 160.738,112.466 164.327,121.367C164.566,120.889 164.709,120.554 164.853,120.267C170.26,107.202 175.668,94.1382 181.123,81.074C181.889,79.2077 182.559,78.7292 184.569,78.7292C187.297,78.7292 190.072,78.7292 192.8,78.7292C194.714,78.7292 195.48,79.447 195.575,81.409C196.102,93.9468 196.628,106.437 197.202,118.975C197.346,122.803 197.537,126.583 197.729,130.364C197.824,131.991 197.011,132.9 195.384,132.948C193.709,132.996 192.034,132.996 190.359,132.948C188.78,132.9 188.014,132.23 187.967,130.651C187.727,125.913 187.488,121.224 187.297,116.486C186.962,108.112 186.627,99.6415 186.244,91.1713Z" style="fill:rgb(2,2,2);fill-rule:nonzero;"/>
        <path d="M254.914,98.5887C257.451,95.9088 260.322,94.3296 263.815,93.8511C272.573,92.6547 279.703,97.2487 281.952,105.815C283.675,112.323 283.292,118.783 279.799,124.717C276.64,130.029 271.663,132.565 265.729,133.474C259.7,134.384 253.718,133.666 247.88,132.087C245.87,131.56 245.487,130.89 245.583,128.785C245.679,126.392 245.774,123.999 245.774,121.607C245.774,106.867 245.774,92.1762 245.774,77.4371C245.774,74.9966 246.396,74.3745 248.837,74.2309C250.033,74.1352 251.278,74.0395 252.474,73.9438C254.244,73.8002 255.01,74.4702 255.01,76.2886C255.01,83.5146 254.962,90.7884 254.914,98.0144C254.914,98.1101 254.914,98.2537 254.914,98.5887ZM255.01,115.242C255.01,118.448 255.01,121.654 255.01,124.861C255.01,125.531 255.154,125.913 255.919,126.009C257.738,126.248 259.508,126.727 261.327,126.775C266.591,126.918 270.946,124.813 272.716,119.166C273.865,115.433 273.817,111.653 272.525,107.92C271.185,103.948 268.553,101.316 264.15,101.125C260.944,100.981 258.216,102.178 255.824,104.235C255.249,104.714 255.01,105.24 255.01,106.006C255.058,109.069 255.01,112.179 255.01,115.242Z" style="fill:rgb(2,2,2);fill-rule:nonzero;"/>
        <path d="M349.044,121.319C350.766,117.491 352.393,113.806 354.02,110.122C355.982,105.719 357.897,101.364 359.811,96.9616C360.337,95.7653 361.151,95.191 362.491,95.2389C364.261,95.2867 365.984,95.2389 367.755,95.2389C369.717,95.2389 370.434,96.2438 369.669,98.0623C367.515,103.231 365.314,108.351 363.065,113.471C357.609,125.913 352.106,138.308 346.603,150.702C346.268,151.467 345.981,152.281 345.694,153.047C345.263,154.243 344.497,154.817 343.205,154.817C341.387,154.769 339.521,154.817 337.702,154.817C335.74,154.817 335.022,153.86 335.788,152.042C337.415,148.022 339.138,144.05 340.813,140.078C341.674,138.068 342.535,136.011 343.492,134.049C343.827,133.379 343.78,132.804 343.492,132.134C338.707,121.894 333.969,111.653 329.232,101.412C328.706,100.264 328.227,99.1151 327.796,97.9187C327.27,96.3395 327.94,95.3346 329.615,95.3346C331.433,95.2867 333.3,95.3346 335.118,95.3346C336.41,95.2867 337.271,95.861 337.798,97.0573C341.387,104.905 344.976,112.753 348.613,120.602C348.661,120.745 348.804,120.937 349.044,121.319Z" style="fill:rgb(2,2,2);fill-rule:nonzero;"/>
        <path d="M107.524,114.189C107.572,114.237 107.619,114.285 107.667,114.381C109.486,117.922 109.438,118.687 106.423,121.224C103.36,123.76 100.106,126.153 96.7565,128.737C93.2153,124.573 89.6741,120.649 86.42,116.534C84.2666,113.806 82.4003,110.791 80.5818,107.825C78.6677,104.714 77.9977,101.221 78.1413,97.5359C78.3327,91.602 81.2518,77.9635 83.6445,72.1732C88.3342,72.9388 93.0718,73.5609 97.57,75.2837C98.91,75.8101 99.4364,76.7193 99.3885,78.0592C99.2449,82.9404 99.1492,87.8215 99.0535,92.7026C99.0057,94.7603 98.8621,96.8181 98.7664,98.8758C98.6707,99.9764 98.575,101.077 98.5271,102.178C98.3836,105.336 98.24,108.542 98.0486,111.701C97.9529,113.28 97.7136,114.859 97.6179,116.438C97.57,117.778 97.7136,119.118 97.7615,120.745C98.4793,120.314 98.8621,120.075 99.2449,119.836C102.02,117.922 104.796,116.055 107.524,114.189Z" style="fill:rgb(201,8,38);fill-rule:nonzero;"/>
        <path d="M60.8659,66.6699C61.6794,65.33 62.7801,65.0429 64.2636,65.3779C67.2305,66.0478 74.9829,69.0148 77.4235,70.5461C76.8492,72.3646 76.275,74.2788 75.605,76.1451C73.5473,82.1268 71.2024,87.965 68.044,93.4683C65.6513,97.5359 62.3494,100.455 58.0904,102.417C50.7208,105.815 42.9206,107.92 35.0725,109.643C34.8333,109.691 34.6419,109.691 34.1633,109.739C33.1105,106.628 31.962,103.565 31.0049,100.407C30.5742,98.9715 30.335,97.4402 30.0479,95.9567C29.8564,94.9517 30.2393,94.1861 31.1964,93.7075C34.8811,91.6977 38.518,89.6399 42.2028,87.6779C44.5955,86.3859 47.0361,85.2374 49.4288,83.9931C49.8116,83.8017 50.0987,83.5146 50.4337,83.3232C50.9123,83.1796 51.3908,83.0839 51.8215,82.8446C58.0425,79.8298 64.2157,76.815 70.3889,73.7524C71.0589,73.4174 71.6331,72.891 72.3031,72.3646C72.0159,72.0775 71.9202,71.9339 71.7767,71.8861C69.049,70.6418 66.2734,69.4455 63.5936,68.1534C62.6365,67.7706 61.7751,67.1963 60.8659,66.6699Z" style="fill:rgb(1,131,164);fill-rule:nonzero;"/>
        <path d="M41.0543,131.943C39.3794,131.991 38.3745,131.129 38.0873,129.55C37.4174,126.057 36.8431,122.516 36.2689,118.975C36.1253,118.017 36.0775,117.013 35.9818,115.864C39.523,115.194 42.9206,114.381 46.3661,113.902C50.673,113.28 54.9799,112.849 59.2867,112.514C65.1249,112.036 70.2932,113.663 75.0307,117.156C81.3475,121.75 86.9464,127.158 92.4497,132.948C90.2962,135.388 88.1906,137.781 86.0372,140.126C85.0323,141.179 83.9316,142.088 82.831,143.045C81.6825,144.05 80.534,144.194 79.1941,143.38C75.7007,141.275 72.1595,139.265 68.6661,137.159C66.4649,135.819 64.2636,134.384 62.0623,133.044C61.6316,132.804 61.153,132.661 60.7224,132.469C60.3874,132.134 60.1003,131.752 59.6696,131.512C56.559,129.502 53.4007,127.493 50.2902,125.483C47.2753,123.569 44.3084,121.607 41.2936,119.692C40.9586,119.501 40.5279,119.453 40.1451,119.357C40.0494,119.74 39.858,120.123 39.858,120.506C39.9537,122.324 40.1451,124.143 40.2886,125.913C40.5758,127.923 40.815,129.933 41.0543,131.943Z" style="fill:rgb(243,128,32);fill-rule:nonzero;"/>
        <path d="M201.892,113.041C201.988,106.82 204.141,100.886 210.171,96.9616C214.526,94.0904 219.407,93.3247 224.527,93.8032C228.978,94.2339 232.949,95.7174 236.156,98.9715C239.218,102.13 240.654,105.958 241.037,110.265C241.515,115.146 240.941,119.884 238.548,124.238C235.103,130.46 229.552,133.379 222.613,133.761C215.291,134.144 209.214,131.608 205.05,125.387C202.658,121.798 201.892,117.826 201.892,113.041ZM232.088,113.902C231.992,113.902 231.897,113.854 231.801,113.854C231.801,111.174 231.418,108.542 230.174,106.102C228.212,102.369 225.053,100.551 220.842,100.742C216.918,100.934 213.951,102.752 212.516,106.437C210.506,111.557 210.649,116.678 213.234,121.559C215.243,125.291 218.497,126.966 222.709,126.583C226.681,126.2 229.312,123.951 230.605,120.314C231.37,118.257 231.609,116.008 232.088,113.902Z" style="fill:rgb(2,2,2);fill-rule:nonzero;"/>
        <path d="M314.828,95.2867C317.508,95.2867 319.805,95.2867 322.102,95.2867C324.494,95.2867 325.021,95.861 324.925,98.2058C324.782,102.226 324.734,102.273 320.714,102.273C318.943,102.273 317.221,102.273 315.45,102.273C315.354,102.273 315.306,102.273 315.067,102.321L315.067,130.077C315.067,132.517 314.493,133.091 312.052,133.091C310.808,133.091 309.516,133.091 308.272,133.091C306.597,133.044 305.927,132.422 305.831,130.747L305.831,102.465C304.539,101.986 302.673,102.991 301.955,101.46C301.429,100.407 301.572,99.0193 301.572,97.7751C301.668,94.9039 304.156,95.861 305.879,95.2389C305.879,93.8032 305.736,92.3198 305.927,90.8841C306.166,88.4914 306.406,86.003 307.028,83.706C308.32,78.9685 311.478,75.9537 316.12,74.4702C320.235,73.1303 324.447,73.0824 328.658,73.9916C330.093,74.3266 330.524,74.9487 330.428,76.4322C330.38,77.2936 330.237,78.1549 330.141,79.0642C329.95,80.5955 329.232,81.074 327.653,81.0262C325.547,80.9305 323.394,80.7391 321.288,80.9305C318.034,81.3133 316.024,83.3232 315.594,86.5773C315.211,89.305 315.115,92.2241 314.828,95.2867Z" style="fill:rgb(4,4,4);fill-rule:nonzero;"/>
        <path d="M296.978,114.572C296.978,119.788 296.978,125.004 296.978,130.268C296.978,132.326 296.308,132.996 294.251,133.044C292.863,133.044 291.427,133.044 290.039,133.044C288.508,132.996 287.838,132.326 287.695,130.842L287.695,99.1629C287.695,97.488 288.365,96.7223 290.087,96.5788C291.619,96.4352 293.198,96.3874 294.777,96.3395C296.26,96.2917 296.978,97.0573 296.978,98.7322C296.978,103.948 296.978,109.26 296.978,114.572Z" style="fill:rgb(4,4,4);fill-rule:nonzero;"/>
        <path d="M41.0543,131.943C37.4174,132.039 37.7524,128.497 37.3695,126.057C36.9389,123.616 36.5082,121.032 36.2689,118.975C36.221,118.592 35.8861,116.247 35.9818,115.864C36.3646,115.96 41.0065,119.405 41.3414,119.597C44.3562,121.511 47.3232,123.473 50.338,125.387C53.4485,127.397 56.6069,129.407 59.7174,131.417C60.1003,131.656 60.3874,132.087 60.7702,132.374C55.7934,132.374 50.8166,132.374 45.7919,132.278C44.2127,132.374 42.6335,132.134 41.0543,131.943Z" style="fill:rgb(224,117,27);fill-rule:nonzero;"/>
        <path d="M60.8659,66.6699C61.823,65.2822 62.7801,64.9472 63.9286,65.33C66.7998,66.2393 68.5704,66.5264 71.2981,67.7706C73.6908,68.7755 77.0885,70.3069 77.4235,70.594C76.7535,71.0725 71.0589,73.5131 70.3889,73.8481C64.2157,76.9107 57.9947,79.9255 51.8215,82.9404C51.3908,83.1318 50.9123,83.2753 50.4337,83.4189C53.5921,77.5807 56.7505,71.8382 60.8659,66.6699Z" style="fill:rgb(1,119,148);fill-rule:nonzero;"/>
        <path d="M107.524,114.189C107.907,115.194 110.347,117.682 107.619,120.075C107.237,120.314 97.4743,128.21 96.7565,128.689C96.7087,127.062 97.57,117.682 97.6179,116.343C97.6658,114.763 97.9529,113.184 98.0486,111.605C98.24,108.447 98.3836,105.24 98.5271,102.082C98.575,100.981 98.6707,99.8807 98.7664,98.7801C101.686,103.948 104.605,109.069 107.524,114.189Z" style="fill:rgb(187,8,36);fill-rule:nonzero;"/>
        <path d="M292.384,76.1929C295.83,76.1929 298.127,78.3464 298.127,81.5526C298.127,84.7588 295.734,87.008 292.289,87.008C288.747,87.008 286.498,84.9024 286.498,81.5526C286.498,78.2985 288.795,76.1929 292.384,76.1929Z" style="fill:rgb(2,2,2);fill-rule:nonzero;"/>
    </g>
</svg>
