<?xml version="1.0" standalone="no"?>
<!DOCTYPE svg PUBLIC "-//W3C//DTD SVG 1.1//EN" "http://www.w3.org/Graphics/SVG/1.1/DTD/svg11.dtd">
<svg width="100%" height="100%" viewBox="0 0 200 60" version="1.1" xmlns="http://www.w3.org/2000/svg" xmlns:xlink="http://www.w3.org/1999/xlink" xml:space="preserve" style="fill-rule:evenodd;clip-rule:evenodd;stroke-linejoin:round;stroke-miterlimit:1.41421;">
    <g id="Layer_2">
        <path d="M92.104,22.057C91.388,22.112 91.381,22.511 91.252,22.824C88.317,29.932 85.356,37.029 82.463,44.154C81.915,45.505 81.119,45.997 79.665,45.97C75.876,45.898 76.493,46.179 75.19,43.01C72.465,36.384 69.859,29.708 67.197,23.055C67.074,22.746 66.968,22.394 66.472,22.22C66.144,22.864 66.27,23.563 66.269,24.222C66.258,30.946 65.669,37.647 65.519,44.366C65.492,45.58 65.138,45.923 63.88,45.919C60.915,45.91 60.472,46.343 60.634,42.835C61.032,34.181 61.475,25.526 61.647,16.862C61.681,15.151 62.033,14.845 63.767,14.83C64.887,14.821 66.008,14.828 67.129,14.83C69.113,14.834 69.22,14.889 69.982,16.766C71.309,20.029 72.619,23.298 73.924,26.57C75.557,30.66 77.178,34.756 78.814,38.847C78.875,38.998 79.03,39.114 79.179,39.29C79.926,38.923 79.924,38.118 80.171,37.528C83.131,30.493 86.058,23.442 88.953,16.378C89.384,15.325 89.958,14.749 91.167,14.81C92.638,14.885 94.115,14.843 95.59,14.827C96.536,14.816 96.994,15.266 97.056,16.196C97.126,17.255 97.289,18.31 97.305,19.369C97.43,27.504 97.992,35.623 98.222,43.755C98.281,45.839 98.183,45.935 96.068,45.941C95.655,45.941 95.242,45.951 94.829,45.939C93.35,45.898 93.105,45.699 93.031,44.189C92.812,39.715 92.581,35.243 92.444,30.767C92.355,27.88 91.892,25.014 92.104,22.057Z" style="fill:black;fill-rule:nonzero;"/>
        <path d="M37.221,46.175C35.338,48.483 33.479,50.577 31.263,52.362C27.47,50.803 24.247,48.442 20.885,46.343C20.133,45.872 19.466,45.647 18.622,45.649C15.914,45.655 13.196,45.753 10.499,45.573C6.17,45.283 6.507,45.512 5.714,40.979C5.463,39.541 5.313,38.085 5.129,36.735C5.372,36.177 5.79,36.145 6.2,36.071C10.579,35.283 14.917,34.3 19.418,34.274C22.192,34.257 24.628,35.076 26.853,36.536C30.49,38.923 33.568,41.983 36.609,45.069C36.896,45.359 37.117,45.708 37.221,46.175Z" style="fill:rgb(244,128,31);fill-rule:nonzero;"/>
        <path d="M28.632,10.06C28.603,11.256 28.015,12.302 27.643,13.396C26.429,16.96 25.091,20.475 23.058,23.681C22.031,25.301 20.795,26.666 19.071,27.573C14.402,30.027 9.385,31.372 4.17,32.456C3.107,30.032 2.29,27.665 1.809,25.19C1.619,24.215 2.005,23.59 2.927,23.066C5.581,21.556 8.256,20.078 11.027,18.807C12.664,18.056 13.815,17.022 14.635,15.411C15.936,12.854 17.516,10.449 19.218,8.135C20.135,6.887 20.66,6.642 22.054,7.331C23.684,8.137 25.528,8.27 27.114,9.161C27.615,9.441 28.206,9.564 28.632,10.06Z" style="fill:rgb(0,131,164);fill-rule:nonzero;"/>
        <path d="M32.789,11.039C34.912,11.439 37.062,11.718 39.151,12.329C41.401,12.987 41.511,13.085 41.531,15.311C41.559,18.496 41.433,21.68 41.123,24.846C41.044,25.658 41.176,26.247 41.563,26.905C43.231,29.739 44.97,32.535 46.377,35.518C47.167,37.194 47.121,37.641 45.833,38.94C44.356,40.43 42.551,41.497 40.894,42.753C40.422,43.11 39.895,42.926 39.482,42.483C35.99,38.725 32.522,34.944 30.363,30.208C29.492,28.297 29.429,26.292 29.636,24.178C30.04,20.053 31.11,16.104 32.259,12.157C32.376,11.762 32.491,11.377 32.789,11.039Z" style="fill:rgb(202,7,37);fill-rule:nonzero;"/>
        <path d="M178.529,58.268C178.121,57.215 178.648,56.348 178.992,55.52C180.137,52.757 181.343,50.02 182.599,47.309C183.001,46.442 183.046,45.762 182.618,44.856C179.853,39.022 177.157,33.159 174.471,27.288C173.365,24.872 173.108,24.214 176.362,24.393C176.715,24.412 177.077,24.447 177.421,24.388C178.501,24.203 179.023,24.778 179.428,25.676C181.38,30.005 183.363,34.322 185.336,38.642C185.451,38.892 185.501,39.228 186.09,39.236C187.062,37.092 188.08,34.882 189.069,32.658C190.092,30.352 191.102,28.039 192.089,25.717C192.474,24.815 192.996,24.288 194.077,24.376C195.179,24.465 196.292,24.396 197.374,24.396C197.944,25.366 197.573,26.115 197.246,26.859C194.403,33.302 191.552,39.74 188.714,46.186C187.155,49.729 185.416,53.198 184.136,56.856C183.693,58.127 182.976,58.627 181.657,58.455C180.623,58.313 179.551,58.611 178.529,58.268Z" style="fill:black;fill-rule:nonzero;"/>
        <path d="M166.119,24.394C167.626,24.394 168.973,24.369 170.316,24.401C171.633,24.433 171.82,24.658 171.81,25.993C171.795,27.673 171.482,28.135 170.228,28.168C168.892,28.202 167.554,28.176 166.082,28.176C166.082,29.651 166.082,30.936 166.082,32.218C166.082,36.108 166.092,39.996 166.077,43.885C166.071,45.686 165.811,45.925 164.071,45.94C161.124,45.962 161.122,45.962 161.121,43.08C161.119,38.194 161.12,33.309 161.12,28.398C160.408,27.957 159.483,28.468 158.932,27.811C158.518,27.315 158.647,26.686 158.661,26.107C158.69,24.757 158.932,24.578 160.975,24.323C161.323,22.911 161.163,21.432 161.293,19.985C161.91,13.192 167.087,11.283 172.576,11.758C172.867,11.783 173.152,11.878 173.441,11.931C174.9,12.203 175.072,12.43 174.937,13.923C174.771,15.76 174.523,15.93 172.629,15.678C171.519,15.531 170.415,15.538 169.312,15.876C167.765,16.35 166.816,17.304 166.425,18.885C166,20.628 166.082,22.382 166.119,24.394Z" style="fill:black;fill-rule:nonzero;"/>
        <path d="M155.557,35.52C155.557,38.409 155.571,41.295 155.551,44.182C155.539,45.768 155.389,45.899 153.85,45.938C150.594,46.022 150.583,46.014 150.582,42.805C150.581,37.618 150.578,32.434 150.587,27.249C150.59,25.306 150.746,25.203 152.691,25.081C155.767,24.889 155.562,24.52 155.556,27.92C155.553,30.452 155.557,32.986 155.557,35.52Z" style="fill:black;fill-rule:nonzero;"/>
        <path d="M156.236,16.411C156.22,18.143 154.882,19.428 153.074,19.448C151.265,19.467 149.993,18.176 149.998,16.329C150.003,14.477 151.195,13.37 153.17,13.383C155.146,13.396 156.255,14.491 156.236,16.411Z" style="fill:black;fill-rule:nonzero;"/>
        <path d="M146.309,28.634C144.569,24.623 140.584,22.764 136.29,23.603C134.501,23.954 133.077,24.903 131.391,26.27C131.391,25.285 131.391,24.707 131.391,24.131C131.391,20.651 131.405,17.171 131.387,13.691C131.379,12.153 131.169,11.98 129.626,12.039C129.391,12.048 129.156,12.068 128.92,12.086C126.422,12.277 126.424,12.279 126.42,14.815C126.402,24.371 126.384,33.927 126.359,43.482C126.355,44.98 126.388,45.128 127.961,45.507C131.535,46.367 135.154,46.799 138.792,45.96C142.105,45.194 144.771,43.435 146.195,40.261C147.912,36.438 147.979,32.48 146.309,28.634ZM142.294,36.619C141.453,41.644 137.928,43.128 132.964,42.342C132.507,42.27 132.065,42.102 131.391,41.916C131.391,38.025 131.399,34.21 131.381,30.394C131.378,29.84 131.702,29.56 132.057,29.242C135.202,26.429 140.85,26.672 142.104,32.423C142.409,33.826 142.525,35.229 142.294,36.619Z" style="fill:black;fill-rule:nonzero;"/>
        <path d="M119.593,25.606C115.132,22.142 107.571,22.784 103.811,26.989C100.928,30.213 100.625,34.125 101.45,38.113C102.391,42.687 105.813,45.689 110.702,46.286C114.69,46.769 119.347,45.392 121.815,40.992C122.94,38.99 123.319,36.803 123.336,34.534C123.35,31.029 122.498,27.862 119.593,25.606ZM117.641,38.846C116.662,40.998 115.096,42.305 112.675,42.449C110.09,42.606 108.2,41.395 107.104,39.184C105.742,36.438 105.614,33.538 106.843,30.663C107.799,28.426 109.581,27.349 111.946,27.268C114.405,27.185 116.241,28.304 117.397,30.468C118.131,31.842 118.418,33.331 118.293,34.695C118.335,36.25 118.217,37.575 117.641,38.846Z" style="fill:black;fill-rule:nonzero;"/>
    </g>
</svg>
