<?xml version="1.0" encoding="utf-8"?>
<!-- Generator: Adobe Illustrator 19.0.0, SVG Export Plug-In . SVG Version: 6.00 Build 0)  -->
<svg version="1.1" id="Layer_1" xmlns="http://www.w3.org/2000/svg" xmlns:xlink="http://www.w3.org/1999/xlink" x="0px" y="0px"
	 viewBox="0 0 720 216" style="enable-background:new 0 0 720 216;" xml:space="preserve">
<style type="text/css">
	.st0{display:none;fill:#FEFEFE;}
	.st1{fill:#020202;}
	.st2{fill:#C90826;}
	.st3{fill:#0183A4;}
	.st4{fill:#F38020;}
	.st5{fill:#040404;}
	.st6{fill:#E0751B;}
	.st7{fill:#017794;}
	.st8{fill:#BB0824;}
</style>
<g>
	<path class="st0" d="M1.2,214.4c0-67.1,0-134,0-200.9c239.2,0,478.5,0,717.7,0c0,67,0,133.9,0,200.9
		C479.6,214.4,240.4,214.4,1.2,214.4z M27.5,156.7c3.3,0.3,6.6,0.8,9.9,0.9c10.4,0.2,20.8,0.1,31.3,0.2c0.9,0.4,2,0.6,2.8,1.2
		c4.6,2.8,9.1,5.8,13.8,8.6c7.3,4.4,14.7,8.6,22,13c2.8,1.7,5.2,1.5,7.6-0.7c2.3-2,4.6-3.9,6.7-6.1c4.5-4.9,8.9-9.9,13.4-15
		c-11.5-12.2-23.2-23.4-36.4-33c-9.9-7.2-20.7-10.7-32.9-9.7c-9,0.8-18.1,1.7-27,2.9c-7.2,1-14.3,2.7-21.7,4.1
		c0.2,2.4,0.2,4.4,0.6,6.5c1.2,7.4,2.4,14.7,3.8,22.1C21.9,155,24,156.9,27.5,156.7z M68.9,20.3c-8.5,10.8-15.1,22.9-21.8,34.8
		c-0.7,0.5-1.4,1.1-2.1,1.4c-5,2.6-10.1,5-15.1,7.7c-7.7,4.1-15.3,8.4-23,12.6c-1.9,1-2.8,2.6-2.4,4.7c0.6,3.1,1,6.3,2,9.3
		c2.1,6.6,4.4,13,6.6,19.5c1-0.1,1.4-0.1,1.9-0.2c16.5-3.7,32.7-8.1,48.1-15.1c8.9-4.1,15.8-10.2,20.7-18.7
		c6.6-11.5,11.5-23.7,15.8-36.2c1.3-3.9,2.5-7.8,3.8-11.7c-5-3.2-21.2-9.4-27.5-10.8C72.9,16.9,70.5,17.5,68.9,20.3z M148.1,87.5
		c0.2-4.3,0.5-8.6,0.6-12.9c0.3-10.2,0.5-20.4,0.7-30.6c0.1-2.9-1-4.8-3.8-5.8c-9.4-3.6-19.3-4.9-29.1-6.5c-5,12-11.1,40.6-11.5,53
		c-0.2,7.7,1.1,15,5.1,21.5c3.8,6.2,7.7,12.5,12.2,18.2c6.8,8.6,14.2,16.8,21.6,25.5c7-5.4,13.8-10.3,20.2-15.7
		c6.3-5.3,6.4-6.9,2.6-14.3c-0.1-0.1-0.2-0.3-0.3-0.4C160.3,108.9,154.2,98.2,148.1,87.5z M330.9,71.5c0.8,17.8,1.5,35.4,2.3,53.1
		c0.4,9.9,0.8,19.7,1.4,29.6c0.2,3.3,1.8,4.7,5,4.8c3.5,0.1,7,0.1,10.5,0c3.4-0.1,5-2,4.9-5.4c-0.4-7.9-0.8-15.9-1.1-23.8
		c-1.1-26.2-2.2-52.3-3.4-78.5c-0.2-4.1-1.7-5.6-5.8-5.6c-5.7,0-11.5,0-17.2,0c-4.2,0-5.6,1-7.2,4.9c-11.3,27.3-22.6,54.6-34,81.9
		c-0.3,0.7-0.6,1.3-1.1,2.3c-7.5-18.6-14.7-36.6-22-54.7c-4-9.9-7.9-19.7-11.9-29.6c-1.1-2.7-2.8-4.7-5.9-4.7
		c-6.4,0-12.8-0.1-19.1,0c-3.2,0-5,1.9-5.1,5.1c-0.3,6.5-0.5,13-0.7,19.6c-0.5,12.1-0.9,24.2-1.4,36.3c-0.6,15.8-1.2,31.7-1.8,47.5
		c-0.1,3.2,1.5,4.8,4.8,4.9c2.5,0.1,5.1,0,7.7,0c5,0,6.5-1.4,6.6-6.5c0.2-5.6,0.4-11.1,0.6-16.7c0.7-19.3,1.3-38.5,2-57.8
		c0.1-1.8,0.2-3.6,0.3-6c3.5,8.9,6.8,17.2,10.2,25.5c7.6,18.9,15.3,37.8,23,56.8c1.5,3.7,3.1,4.7,7.1,4.7c3.4,0,6.9-0.1,10.3,0
		c3.4,0.1,5.5-1.4,6.8-4.5c8.9-21.7,18-43.3,27-64.9C326.1,83.5,328.5,77.5,330.9,71.5z M474.4,87c0-0.7,0-1,0-1.3
		c0.1-15.1,0.2-30.3,0.2-45.4c0-3.8-1.6-5.2-5.3-4.9c-2.5,0.2-5.1,0.4-7.6,0.6c-5.2,0.3-6.4,1.6-6.4,6.7c0,30.8,0,61.5,0,92.3
		c0,5-0.2,10-0.4,15c-0.2,4.4,0.6,5.8,4.8,6.9c12.3,3.3,24.7,4.8,37.3,2.9c12.3-1.9,22.8-7.2,29.4-18.3c7.4-12.4,8.1-25.8,4.5-39.5
		c-4.7-18-19.5-27.6-37.9-25C485.7,78.1,479.7,81.4,474.4,87z M671.1,134.5c-0.5-0.9-0.7-1.3-0.9-1.7c-7.5-16.4-15.1-32.8-22.6-49.2
		c-1.1-2.5-2.9-3.7-5.6-3.6c-3.8,0.1-7.7,0-11.5,0c-3.5,0.1-4.9,2.1-3.8,5.4c0.9,2.5,1.9,4.9,3,7.3c9.9,21.4,19.8,42.8,29.8,64.2
		c0.7,1.4,0.7,2.6,0,4c-2,4.2-3.8,8.4-5.6,12.6c-3.6,8.3-7.1,16.6-10.5,25c-1.6,3.9-0.1,5.8,4,5.8c3.8,0,7.7-0.1,11.5,0
		c2.7,0.1,4.3-1.2,5.2-3.7c0.6-1.6,1.1-3.3,1.9-4.9c11.5-25.9,23-51.9,34.4-77.8c4.7-10.7,9.3-21.4,13.8-32.2c1.6-3.8,0-5.8-4-5.9
		c-3.7,0-7.3,0.1-11,0c-2.7-0.1-4.5,1.1-5.6,3.6c-4,9.2-8,18.4-12.1,27.5C678.1,118.8,674.7,126.5,671.1,134.5z M363.6,117.2
		c0,10.1,1.6,18.4,6.5,25.7c8.7,13.1,21.4,18.3,36.7,17.5c14.5-0.8,26-6.9,33.3-19.9c5-9.1,6.2-19,5.2-29.2c-0.8-9-3.8-17-10.2-23.6
		c-6.7-6.8-15-10-24.3-10.8c-10.7-1-20.9,0.7-30,6.6C368.3,91.7,363.8,104.1,363.6,117.2z M599.6,80.1c0.5-6.4,0.7-12.4,1.6-18.4
		c0.9-6.8,5.1-11,11.9-11.8c4.4-0.5,8.9-0.1,13.3,0.2c3.3,0.2,4.8-0.8,5.2-4.1c0.2-1.8,0.5-3.6,0.6-5.5c0.2-3.1-0.7-4.5-3.7-5.1
		c-8.8-1.9-17.6-1.8-26.2,1c-9.7,3.1-16.4,9.5-19,19.3c-1.3,4.9-1.8,10-2.3,15c-0.3,3.1-0.1,6.2-0.1,9.1c-3.7,1.3-8.9-0.7-9,5.3
		c-0.1,2.6-0.3,5.5,0.8,7.7c1.5,3.2,5.4,1.1,8.1,2.1c0,1,0,1.8,0,2.7c0,18.2,0,36.3,0,54.5c0,0.6,0,1.3,0,1.9
		c0.2,3.5,1.5,4.8,5.1,4.9c2.6,0,5.3,0,7.9,0c5.2,0,6.3-1.1,6.3-6.3c0-18.5,0-37,0-55.5c0-0.8,0-1.7,0-2.5c0.5-0.1,0.7-0.1,0.8-0.1
		c3.7,0,7.3,0,11,0c8.4,0,8.5-0.1,8.8-8.5c0.2-4.9-0.9-6-5.9-6.1C610,80.1,605.2,80.1,599.6,80.1z M562.3,120.4
		c0-11.1,0-22.2,0-33.2c0-3.5-1.5-5.1-4.6-5c-3.3,0.1-6.5,0.3-9.8,0.5c-3.6,0.3-5,1.8-5,5.4c0,21.8,0,43.7,0,65.5c0,0.2,0,0.5,0,0.7
		c0.3,3.2,1.7,4.6,4.9,4.6c2.9,0.1,5.9,0,8.8,0c4.3,0,5.7-1.4,5.7-5.8C562.3,142.3,562.3,131.3,562.3,120.4z M552.7,40.2
		c-7.5,0-12.3,4.4-12.3,11.2c0,7,4.6,11.4,12.1,11.4c7.3,0,12.3-4.7,12.2-11.4C564.7,44.7,559.9,40.2,552.7,40.2z"/>
	<path class="st1" d="M330.9,71.5c-2.4,6-4.8,12.1-7.3,18.1c-9,21.6-18,43.3-27,64.9c-1.3,3.1-3.4,4.6-6.8,4.5
		c-3.4-0.1-6.9,0-10.3,0c-4,0-5.6-1.1-7.1-4.7c-7.7-18.9-15.3-37.8-23-56.8c-3.3-8.3-6.6-16.6-10.2-25.5c-0.1,2.3-0.3,4.2-0.3,6
		c-0.7,19.3-1.3,38.5-2,57.8c-0.2,5.6-0.4,11.1-0.6,16.7c-0.2,5.1-1.6,6.5-6.6,6.5c-2.6,0-5.1,0.1-7.7,0c-3.3-0.1-4.9-1.7-4.8-4.9
		c0.5-15.8,1.2-31.7,1.8-47.5c0.5-12.1,0.9-24.2,1.4-36.3c0.2-6.5,0.5-13,0.7-19.6c0.1-3.2,2-5,5.1-5.1c6.4-0.1,12.8,0,19.1,0
		c3.2,0,4.8,2,5.9,4.7c3.9,9.9,7.9,19.7,11.9,29.6c7.2,18.1,14.5,36.1,22,54.7c0.5-1,0.8-1.7,1.1-2.3c11.3-27.3,22.6-54.6,34-81.9
		c1.6-3.9,3-4.9,7.2-4.9c5.7,0,11.5,0,17.2,0c4,0,5.6,1.5,5.8,5.6c1.1,26.2,2.2,52.3,3.4,78.5c0.3,8,0.7,15.9,1.1,23.8
		c0.2,3.4-1.5,5.3-4.9,5.4c-3.5,0.1-7,0.1-10.5,0c-3.3-0.1-4.9-1.5-5-4.8c-0.5-9.9-1-19.7-1.4-29.6
		C332.4,106.9,331.7,89.2,330.9,71.5z"/>
	<path class="st1" d="M474.4,87c5.3-5.6,11.3-8.9,18.6-9.9c18.3-2.5,33.2,7.1,37.9,25c3.6,13.6,2.8,27.1-4.5,39.5
		c-6.6,11.1-17,16.4-29.4,18.3c-12.6,1.9-25.1,0.4-37.3-2.9c-4.2-1.1-5-2.5-4.8-6.9c0.2-5,0.4-10,0.4-15c0-30.8,0-61.5,0-92.3
		c0-5.1,1.3-6.4,6.4-6.7c2.5-0.2,5.1-0.4,7.6-0.6c3.7-0.3,5.3,1.1,5.3,4.9c0,15.1-0.1,30.3-0.2,45.4C474.4,86,474.4,86.3,474.4,87z
		 M474.6,121.8c0,6.7,0,13.4,0,20.1c0,1.4,0.3,2.2,1.9,2.4c3.8,0.5,7.5,1.5,11.3,1.6c11,0.3,20.1-4.1,23.8-15.9
		c2.4-7.8,2.3-15.7-0.4-23.5c-2.8-8.3-8.3-13.8-17.5-14.2c-6.7-0.3-12.4,2.2-17.4,6.5c-1.2,1-1.7,2.1-1.7,3.7
		C474.7,108.9,474.6,115.4,474.6,121.8z"/>
	<path class="st1" d="M671.1,134.5c3.6-8,7-15.7,10.4-23.4c4.1-9.2,8.1-18.3,12.1-27.5c1.1-2.5,2.8-3.7,5.6-3.6c3.7,0.1,7.3,0,11,0
		c4.1,0,5.6,2.1,4,5.9c-4.5,10.8-9.1,21.5-13.8,32.2c-11.4,26-22.9,51.9-34.4,77.8c-0.7,1.6-1.3,3.3-1.9,4.9
		c-0.9,2.5-2.5,3.7-5.2,3.7c-3.8-0.1-7.7,0-11.5,0c-4.1,0-5.6-2-4-5.8c3.4-8.4,7-16.7,10.5-25c1.8-4.2,3.6-8.5,5.6-12.6
		c0.7-1.4,0.6-2.6,0-4c-10-21.4-19.9-42.8-29.8-64.2c-1.1-2.4-2.1-4.8-3-7.3c-1.1-3.3,0.3-5.4,3.8-5.4c3.8-0.1,7.7,0,11.5,0
		c2.7-0.1,4.5,1.1,5.6,3.6c7.5,16.4,15,32.8,22.6,49.2C670.3,133.3,670.6,133.7,671.1,134.5z"/>
	<path class="st2" d="M166.4,119.6c0.1,0.1,0.2,0.2,0.3,0.4c3.8,7.4,3.7,9-2.6,14.3c-6.4,5.3-13.2,10.3-20.2,15.7
		c-7.4-8.7-14.8-16.9-21.6-25.5c-4.5-5.7-8.4-12-12.2-18.2c-4-6.5-5.4-13.8-5.1-21.5c0.4-12.4,6.5-40.9,11.5-53
		c9.8,1.6,19.7,2.9,29.1,6.5c2.8,1.1,3.9,3,3.8,5.8c-0.3,10.2-0.5,20.4-0.7,30.6c-0.1,4.3-0.4,8.6-0.6,12.9
		c-0.2,2.3-0.4,4.6-0.5,6.9c-0.3,6.6-0.6,13.3-1,19.9c-0.2,3.3-0.7,6.6-0.9,9.9c-0.1,2.8,0.2,5.6,0.3,9c1.5-0.9,2.3-1.4,3.1-1.9
		C154.9,127.4,160.7,123.5,166.4,119.6z"/>
	<path class="st3" d="M68.9,20.3c1.7-2.8,4-3.4,7.1-2.7c6.2,1.4,22.4,7.6,27.5,10.8c-1.2,3.8-2.4,7.8-3.8,11.7
		c-4.3,12.5-9.2,24.7-15.8,36.2C78.9,84.8,72,90.9,63.1,95c-15.4,7.1-31.7,11.5-48.1,15.1c-0.5,0.1-0.9,0.1-1.9,0.2
		c-2.2-6.5-4.6-12.9-6.6-19.5c-0.9-3-1.4-6.2-2-9.3c-0.4-2.1,0.4-3.7,2.4-4.7c7.7-4.2,15.3-8.5,23-12.6c5-2.7,10.1-5.1,15.1-7.7
		c0.8-0.4,1.4-1,2.1-1.4c1-0.3,2-0.5,2.9-1c13-6.3,25.9-12.6,38.8-19c1.4-0.7,2.6-1.8,4-2.9c-0.6-0.6-0.8-0.9-1.1-1
		c-5.7-2.6-11.5-5.1-17.1-7.8C72.6,22.6,70.8,21.4,68.9,20.3z"/>
	<path class="st4" d="M27.5,156.7c-3.5,0.1-5.6-1.7-6.2-5c-1.4-7.3-2.6-14.7-3.8-22.1c-0.3-2-0.4-4.1-0.6-6.5
		c7.4-1.4,14.5-3.1,21.7-4.1c9-1.3,18-2.2,27-2.9c12.2-1,23,2.4,32.9,9.7c13.2,9.6,24.9,20.9,36.4,33c-4.5,5.1-8.9,10.1-13.4,15
		c-2.1,2.2-4.4,4.1-6.7,6.1c-2.4,2.1-4.8,2.4-7.6,0.7c-7.3-4.4-14.7-8.6-22-13c-4.6-2.8-9.2-5.8-13.8-8.6c-0.9-0.5-1.9-0.8-2.8-1.2
		c-0.7-0.7-1.3-1.5-2.2-2c-6.5-4.2-13.1-8.4-19.6-12.6c-6.3-4-12.5-8.1-18.8-12.1c-0.7-0.4-1.6-0.5-2.4-0.7
		c-0.2,0.8-0.6,1.6-0.6,2.4c0.2,3.8,0.6,7.6,0.9,11.3C26.5,148.3,27,152.5,27.5,156.7z"/>
	<path class="st1" d="M363.6,117.2c0.2-13,4.7-25.4,17.3-33.6c9.1-6,19.3-7.6,30-6.6c9.3,0.9,17.6,4,24.3,10.8
		c6.4,6.6,9.4,14.6,10.2,23.6c1,10.2-0.2,20.1-5.2,29.2c-7.2,13-18.8,19.1-33.3,19.9c-15.3,0.8-28-4.5-36.7-17.5
		C365.2,135.5,363.6,127.2,363.6,117.2z M426.7,119c-0.2,0-0.4-0.1-0.6-0.1c0-5.6-0.8-11.1-3.4-16.2c-4.1-7.8-10.7-11.6-19.5-11.2
		c-8.2,0.4-14.4,4.2-17.4,11.9c-4.2,10.7-3.9,21.4,1.5,31.6c4.2,7.8,11,11.3,19.8,10.5c8.3-0.8,13.8-5.5,16.5-13.1
		C425.2,128.1,425.7,123.4,426.7,119z"/>
	<path class="st5" d="M599.6,80.1c5.6,0,10.4,0,15.2,0c5,0,6.1,1.2,5.9,6.1c-0.3,8.4-0.4,8.5-8.8,8.5c-3.7,0-7.3,0-11,0
		c-0.2,0-0.3,0-0.8,0.1c0,0.8,0,1.6,0,2.5c0,18.5,0,37,0,55.5c0,5.1-1.2,6.3-6.3,6.3c-2.6,0-5.3,0-7.9,0c-3.5-0.1-4.9-1.4-5.1-4.9
		c0-0.6,0-1.3,0-1.9c0-18.2,0-36.3,0-54.5c0-0.9,0-1.7,0-2.7c-2.7-1-6.6,1.1-8.1-2.1c-1.1-2.2-0.8-5.1-0.8-7.7c0.2-6,5.4-4,9-5.3
		c0-3-0.3-6.1,0.1-9.1c0.5-5,1-10.2,2.3-15c2.7-9.9,9.3-16.2,19-19.3c8.6-2.8,17.4-2.9,26.2-1c3,0.7,3.9,2,3.7,5.1
		c-0.1,1.8-0.4,3.6-0.6,5.5c-0.4,3.2-1.9,4.2-5.2,4.1c-4.4-0.2-8.9-0.6-13.3-0.2c-6.8,0.8-11,5-11.9,11.8
		C600.4,67.6,600.2,73.7,599.6,80.1z"/>
	<path class="st5" d="M562.3,120.4c0,10.9,0,21.8,0,32.8c0,4.3-1.4,5.7-5.7,5.8c-2.9,0-5.9,0-8.8,0c-3.2-0.1-4.6-1.5-4.9-4.6
		c0-0.2,0-0.5,0-0.7c0-21.8,0-43.7,0-65.5c0-3.5,1.4-5.1,5-5.4c3.2-0.3,6.5-0.4,9.8-0.5c3.1-0.1,4.6,1.5,4.6,5
		C562.3,98.2,562.3,109.3,562.3,120.4z"/>
	<path class="st6" d="M27.5,156.7c-7.6,0.2-6.9-7.2-7.7-12.3c-0.9-5.1-1.8-10.5-2.3-14.8c-0.1-0.8-0.8-5.7-0.6-6.5
		c0.8,0.2,10.5,7.4,11.2,7.8c6.3,4,12.5,8.1,18.8,12.1c6.5,4.2,13.1,8.4,19.6,12.6c0.8,0.5,1.4,1.4,2.2,2c-10.4,0-20.8,0-31.3-0.2
		C34.1,157.6,30.8,157.1,27.5,156.7z"/>
	<path class="st7" d="M68.9,20.3c2-2.9,4-3.6,6.4-2.8c6,1.9,9.7,2.5,15.4,5.1c5,2.1,12.1,5.3,12.8,5.9c-1.4,1-13.3,6.1-14.7,6.8
		c-12.9,6.4-25.9,12.7-38.8,19c-0.9,0.4-1.9,0.7-2.9,1C53.7,43.1,60.3,31.1,68.9,20.3z"/>
	<path class="st8" d="M166.4,119.6c0.8,2.1,5.9,7.3,0.2,12.3c-0.8,0.5-21.2,17-22.7,18c-0.1-3.4,1.7-23,1.8-25.8
		c0.1-3.3,0.7-6.6,0.9-9.9c0.4-6.6,0.7-13.3,1-19.9c0.1-2.3,0.3-4.6,0.5-6.9C154.2,98.2,160.3,108.9,166.4,119.6z"/>
	<path class="st1" d="M552.7,40.2c7.2,0,12,4.5,12,11.2c0,6.7-5,11.4-12.2,11.4c-7.4,0-12.1-4.4-12.1-11.4
		C540.4,44.6,545.2,40.2,552.7,40.2z"/>
	<path class="st0" d="M474.6,121.8c0-6.5,0.1-12.9,0-19.4c0-1.6,0.5-2.6,1.7-3.7c5-4.4,10.8-6.8,17.4-6.5
		c9.2,0.5,14.6,5.9,17.5,14.2c2.6,7.7,2.8,15.7,0.4,23.5c-3.7,11.8-12.8,16.2-23.8,15.9c-3.8-0.1-7.5-1.1-11.3-1.6
		c-1.5-0.2-1.9-1-1.9-2.4C474.6,135.2,474.6,128.5,474.6,121.8z"/>
	<path class="st0" d="M426.7,119c-1,4.5-1.6,9.1-3.1,13.4c-2.7,7.7-8.2,12.4-16.5,13.1c-8.8,0.8-15.7-2.7-19.8-10.5
		c-5.4-10.2-5.8-20.9-1.5-31.6c3.1-7.7,9.2-11.5,17.4-11.9c8.8-0.4,15.4,3.3,19.5,11.2c2.7,5,3.4,10.5,3.4,16.2
		C426.3,118.9,426.5,118.9,426.7,119z"/>
</g>
</svg>
