<svg xmlns="http://www.w3.org/2000/svg" xmlns:xlink="http://www.w3.org/1999/xlink" width="400" height="220" viewBox="0 0 400 220"><g><defs><path id="a" d="M30 78.332h338.686v63.759h-338.686z"/></defs><clipPath id="b"><use xlink:href="#a" overflow="visible"/></clipPath><g clip-path="url(#b)"><defs><path id="c" d="M30 77.776h340v64.447h-340z"/></defs><clipPath id="d"><use xlink:href="#c" overflow="visible"/></clipPath><path clip-path="url(#d)" fill="#F05F22" d="M348.618 100.255c-11.073 0-20.063 9.388-20.063 20.984 0 11.587 8.99 20.984 20.063 20.984 11.071 0 20.067-9.397 20.067-20.984.001-11.596-8.996-20.984-20.067-20.984m10.042 22.403l-14.975 9.467c-1.227.792-2.242.145-2.242-1.424v-18.925c0-1.577 1.016-2.213 2.242-1.437l14.975 9.472c1.229.795 1.229 2.059 0 2.847z"/></g><defs><path id="e" d="M30 77.776h340v64.447h-340z"/></defs><clipPath id="f"><use xlink:href="#e" overflow="visible"/></clipPath><path clip-path="url(#f)" fill="#F05F22" d="M160.884 110.589c0 4.01-3.487 6.76-8.056 6.76-3.305 0-5.878-1.74-5.878-4.781v-.127c0-3.279 2.623-5.255 7.081-5.255 2.743 0 5.086.533 6.854 1.256v2.147m-6.681-20.606c-4.797 0-8.052 1.016-11.372 2.567l1.83 5.672c2.743-1.195 5.258-1.967 8.627-1.967 4.851 0 7.478 2.388 7.478 6.867v.775c-2.339-.775-4.738-1.312-8.107-1.312-7.371 0-12.451 3.348-12.451 10.152v.129c0 6.323 5.03 9.732 10.675 9.732 4.632 0 7.769-2.025 9.828-4.602v3.938h6.74v-18.694c0-4.125-1.029-7.464-3.254-9.736-2.115-2.273-5.482-3.521-9.994-3.521m-27.234 7.524v-7.105h-6.913v31.535h6.913v-11.999c0-8.363 4.225-12.485 10.283-12.485h.399v-7.648c-5.312-.243-8.798 2.985-10.682 7.702m-58.247 24.43h6.906v-43.605h-6.906v43.605zm35.744-13.739c0 4.906-2.792 7.765-6.791 7.765-4.117 0-6.458-2.74-6.458-7.638v-17.924h-6.906v20.071c0 7.347 3.935 12.128 10.738 12.128 4.682 0 7.478-2.568 9.417-5.553v4.889h6.971v-31.535h-6.971v17.797zm116.601-6.164c2.29-.355 4.602-.645 6.908-.892v-10.741h-6.908v11.633zm98.003-11.633v-8.666h-6.913v8.666h-3.832v6.209h3.832v13.248c2.375.631 4.675 1.262 6.913 1.909v-15.157h8.114v-6.209h-8.114zm-98.283-4.841h7.418v-6.867h-7.418v6.867zm70.87 4.183c-4.684 0-7.473 2.567-9.43 5.491v-16.902h-6.906v24.056c2.331.315 4.648.664 6.938 1.037.266-4.468 2.977-7.113 6.773-7.113 4.117 0 6.45 2.806 6.45 7.706v1.875c2.351.496 4.643 1.008 6.912 1.534v-5.62c.001-7.287-3.936-12.064-10.737-12.064m-31.919 5.373c-2.347-2.922-5.484-5.373-10.57-5.373-5.927 0-11.6 3.931-13.227 10.769 2.49-.133 4.98-.209 7.471-.235 1.427-2.769 4.25-4.44 7.586-4.44 3.504 0 6.593 1.878 8.019 4.888 2.559.17 5.099.386 7.635.635v-10.959h-6.913v4.715zm-61.922 12.85c3.329-1.236 6.715-2.298 10.168-3.205-1.219-.581-2.509-1.049-3.752-1.46-3.545-1.195-6.799-2.144-6.799-4.477v-.122c0-1.793 1.542-3.104 4.222-3.104 2.511 0 5.599 1.137 8.519 2.988l2.725-5.141c-3.188-2.214-7.305-3.582-11.069-3.582-5.996 0-10.737 3.643-10.737 9.617v.118c-.001 4.827 3.175 7.012 6.723 8.368m-21.688 11.418c2.244-1.598 4.549-3.092 6.912-4.453v-36.599h-6.912v41.052zm-121.967-13.154c0 6.21-3.887 10.095-8.631 10.095-4.682 0-8.789-4.056-8.789-10.095v-.119c0-6.031 4.107-10.099 8.789-10.099 4.682 0 8.631 4.007 8.631 10.099v.119zm-6.972-16.487c-4.914 0-8.051 2.63-10.276 5.916v-5.258h-6.914v41.097h6.915v-14.45c2.108 2.93 5.249 5.553 10.276 5.553 7.139 0 13.995-5.91 13.995-16.37v-.119c0-10.514-6.912-16.369-13.996-16.369"/><path clip-path="url(#f)" fill="#F05F22" d="M295.305 123.092h6.912v-12.681c-2.359-.504-4.648-.968-6.912-1.406v14.087m-20.164 0h6.913v-16.369c-2.36-.345-4.656-.649-6.913-.915v17.284zm50.223-6.368c-.875.299-1.796.457-2.761.457-1.971 0-3.238-.822-3.597-2.733-2.382-.628-4.724-1.21-7.028-1.774v1.693c0 6.937 3.586 9.264 8.673 9.264 1.626 0 2.979-.232 4.172-.651-.016-.278-.028-.549-.028-.842 0-1.862.199-3.667.569-5.414m-121.246-5.417c1.742.728 2.946 1.618 2.946 3.125v.111c0 2.094-1.702 3.409-4.682 3.409-2.404 0-5.048-.806-7.67-2.382-1.888 1.021-3.571 2.05-5.081 3.053l-.212.347c3.771 3.1 8.513 4.725 12.789 4.725 6.283 0 11.193-3.286 11.193-9.926v-.12c0-2.038-.639-3.616-1.671-4.869-2.749.78-5.272 1.631-7.612 2.527m55.546-5.664v.12c0 5.142-4.059 8.669-8.848 8.669-4.747 0-8.565-3.527-8.565-8.669v-.12c0-.482.033-.941.1-1.396-2.424.1-4.772.232-7.031.42-.008.344-.041.68-.041 1.04v.117c0 9.263 6.624 14.751 13.712 14.751 4.959 0 8.102-2.391 10.623-5.785v2.439c0 6.334-3.383 9.688-9.543 9.688-4.11 0-7.487-1.262-10.741-3.354l-2.558 5.445c3.878 2.446 8.501 3.751 13.471 3.751 5.423 0 9.646-1.36 12.396-4.232 2.51-2.634 3.816-6.573 3.816-11.891v-11.73c-2.349-.197-4.648-.369-6.876-.492.043.398.085.813.085 1.229m-38.774 17.449h6.909v-17.616c-2.415.332-4.706.714-6.909 1.146v16.47z"/></g></svg>