<?xml version="1.0" standalone="no"?>
<!DOCTYPE svg PUBLIC "-//W3C//DTD SVG 1.1//EN" "http://www.w3.org/Graphics/SVG/1.1/DTD/svg11.dtd">
<svg width="100%" height="100%" viewBox="0 0 400 220" version="1.1" xmlns="http://www.w3.org/2000/svg" xmlns:xlink="http://www.w3.org/1999/xlink" xml:space="preserve" style="fill-rule:evenodd;clip-rule:evenodd;stroke-linejoin:round;stroke-miterlimit:1.41421;">
    <g>
        <path id="path5056" d="M370.246,106.47L370.246,100.493L362.823,100.493L362.823,91.2002L362.573,91.277L355.601,93.41L355.464,93.4519L355.464,100.493L344.46,100.493L344.46,96.5709C344.46,94.7445 344.868,93.3467 345.673,92.4146C346.472,91.4936 347.616,91.0255 349.073,91.0255C350.122,91.0255 351.207,91.2725 352.299,91.7595L352.573,91.8816L352.573,85.5865L352.444,85.5392C351.425,85.1731 350.039,84.9885 348.322,84.9885C346.157,84.9885 344.189,85.4595 342.474,86.3933C340.757,87.3283 339.407,88.6631 338.461,90.3605C337.518,92.0558 337.04,94.0138 337.04,96.1805L337.04,100.493L331.871,100.493L331.871,106.47L337.04,106.47L337.04,131.652L344.46,131.652L344.46,106.47L355.464,106.47L355.464,122.473C355.464,129.063 358.573,132.403 364.703,132.403C365.711,132.403 366.771,132.285 367.854,132.054C368.956,131.817 369.706,131.579 370.148,131.326L370.246,131.269L370.246,125.236L369.944,125.436C369.541,125.704 369.04,125.923 368.452,126.086C367.861,126.252 367.368,126.336 366.986,126.336C365.55,126.336 364.487,125.949 363.828,125.185C363.161,124.414 362.823,123.066 362.823,121.181L362.823,106.47L370.246,106.47ZM315.301,126.336C312.608,126.336 310.485,125.443 308.989,123.684C307.483,121.916 306.72,119.396 306.72,116.193C306.72,112.889 307.483,110.303 308.989,108.504C310.487,106.717 312.59,105.81 315.241,105.81C317.814,105.81 319.862,106.676 321.328,108.386C322.803,110.105 323.551,112.67 323.551,116.013C323.551,119.396 322.847,121.995 321.46,123.734C320.082,125.46 318.011,126.336 315.301,126.336M315.632,99.7422C310.494,99.7422 306.413,101.248 303.503,104.217C300.596,107.187 299.121,111.296 299.121,116.433C299.121,121.311 300.56,125.235 303.399,128.094C306.238,130.954 310.101,132.403 314.88,132.403C319.861,132.403 323.861,130.876 326.769,127.866C329.677,124.858 331.151,120.788 331.151,115.771C331.151,110.817 329.768,106.863 327.04,104.023C324.311,101.182 320.472,99.7422 315.632,99.7422M287.158,99.7421C283.663,99.7421 280.772,100.636 278.563,102.399C276.341,104.172 275.215,106.497 275.215,109.311C275.215,110.774 275.458,112.074 275.937,113.176C276.418,114.281 277.164,115.255 278.154,116.072C279.137,116.882 280.654,117.731 282.664,118.595C284.354,119.29 285.614,119.879 286.415,120.342C287.197,120.796 287.753,121.253 288.066,121.698C288.371,122.133 288.526,122.729 288.526,123.465C288.526,125.558 286.958,126.576 283.733,126.576C282.536,126.576 281.171,126.327 279.676,125.834C278.18,125.342 276.782,124.635 275.522,123.728L275.215,123.507L275.215,130.65L275.328,130.703C276.378,131.187 277.701,131.596 279.261,131.918C280.818,132.239 282.233,132.403 283.462,132.403C287.255,132.403 290.309,131.505 292.537,129.732C294.78,127.947 295.917,125.566 295.917,122.654C295.917,120.554 295.305,118.753 294.098,117.301C292.901,115.86 290.822,114.537 287.922,113.368C285.612,112.441 284.132,111.671 283.522,111.08C282.933,110.509 282.634,109.702 282.634,108.68C282.634,107.774 283.003,107.048 283.761,106.46C284.524,105.869 285.586,105.569 286.918,105.569C288.154,105.569 289.419,105.764 290.677,106.146C291.934,106.529 293.038,107.042 293.96,107.669L294.263,107.876L294.263,101.1L294.147,101.049C293.296,100.685 292.175,100.373 290.813,100.12C289.457,99.8691 288.227,99.7421 287.158,99.7421M255.871,126.336C253.179,126.336 251.055,125.443 249.559,123.684C248.053,121.916 247.291,119.396 247.291,116.193C247.291,112.889 248.054,110.303 249.56,108.504C251.056,106.717 253.159,105.81 255.812,105.81C258.383,105.81 260.431,106.676 261.899,108.386C263.373,110.105 264.121,112.67 264.121,116.013C264.121,119.396 263.417,121.995 262.03,123.734C260.652,125.46 258.581,126.336 255.871,126.336M256.202,99.7422C251.063,99.7422 246.982,101.248 244.074,104.217C241.166,107.187 239.691,111.296 239.691,116.433C239.691,121.313 241.131,125.235 243.969,128.094C246.808,130.954 250.671,132.403 255.451,132.403C260.43,132.403 264.431,130.876 267.34,127.866C270.247,124.858 271.721,120.788 271.721,115.771C271.721,110.817 270.338,106.863 267.61,104.023C264.879,101.182 261.041,99.7422 256.202,99.7422M228.427,105.889L228.427,100.493L221.098,100.493L221.098,131.651L228.427,131.651L228.427,115.713C228.427,113.002 229.042,110.776 230.254,109.094C231.451,107.432 233.047,106.59 234.995,106.59C235.655,106.59 236.396,106.699 237.198,106.915C237.993,107.129 238.568,107.361 238.908,107.605L239.215,107.829L239.215,100.44L239.097,100.389C238.414,100.098 237.449,99.9521 236.227,99.9521C234.385,99.9521 232.737,100.544 231.325,101.709C230.086,102.733 229.19,104.138 228.505,105.889L228.427,105.889L228.427,105.889ZM207.972,99.7421C204.61,99.7421 201.611,100.463 199.059,101.885C196.503,103.309 194.526,105.343 193.181,107.929C191.842,110.509 191.162,113.523 191.162,116.884C191.162,119.828 191.822,122.53 193.124,124.91C194.428,127.295 196.273,129.161 198.609,130.455C200.941,131.748 203.637,132.403 206.622,132.403C210.105,132.403 213.079,131.707 215.463,130.334L215.559,130.278L215.559,123.564L215.251,123.788C214.171,124.575 212.964,125.203 211.666,125.655C210.37,126.108 209.189,126.336 208.154,126.336C205.278,126.336 202.969,125.436 201.293,123.662C199.613,121.886 198.762,119.391 198.762,116.252C198.762,113.093 199.65,110.535 201.4,108.647C203.145,106.765 205.458,105.81 208.275,105.81C210.684,105.81 213.031,106.626 215.252,108.237L215.559,108.46L215.559,101.385L215.46,101.329C214.624,100.861 213.485,100.475 212.069,100.182C210.66,99.8896 209.282,99.7421 207.972,99.7421M186.114,100.493L178.785,100.493L178.785,131.651L186.114,131.651L186.114,100.493ZM182.524,87.2194C181.318,87.2194 180.266,87.63 179.402,88.4438C178.534,89.26 178.093,90.2874 178.093,91.4998C178.093,92.6933 178.528,93.7019 179.388,94.4963C180.242,95.2883 181.297,95.6898 182.524,95.6898C183.751,95.6898 184.811,95.2883 185.675,94.4976C186.545,93.7019 186.986,92.6933 186.986,91.4998C186.986,90.3298 186.557,89.3126 185.711,88.4766C184.866,87.6423 183.794,87.2194 182.524,87.2194M164.237,98.1942L164.237,131.651L171.717,131.651L171.717,88.1736L161.365,88.1736L148.206,120.467L135.436,88.1736L124.662,88.1736L124.662,131.651L131.691,131.651L131.691,98.1909L131.933,98.1909L145.417,131.651L150.722,131.651L163.996,98.1942L164.237,98.1942Z" style="fill:rgb(112,109,110);fill-rule:nonzero;"/>
        <rect id="path5058" x="30.3626" y="73.6446" width="34.4792" height="34.4792" style="fill:rgb(241,81,27);fill-rule:nonzero;"/>
        <rect id="path5060" x="68.4321" y="73.6446" width="34.4788" height="34.4792" style="fill:rgb(128,204,40);fill-rule:nonzero;"/>
        <rect id="path5062" x="30.3626" y="111.727" width="34.4784" height="34.4792" style="fill:rgb(0,173,239);fill-rule:nonzero;"/>
        <rect id="path5064" x="68.4321" y="111.727" width="34.4788" height="34.4792" style="fill:rgb(251,188,9);fill-rule:nonzero;"/>
    </g>
</svg>
