<svg xmlns="http://www.w3.org/2000/svg" width="400" height="220" viewBox="0 0 400 220"><g><path d="M369.983 173.723h-339.928l-.055-127.446h340l-.017 127.446zm-329.555-10.204h96.295v-106.945h-96.303l.008 106.945z"/><path fill="#ff0" d="M136.905 56.566l-96.676-.006-.031 61.539h16.709c13.758.252 12.479 9.615 13.683 18.124 1.231 8.657 9.514 12.907 16.461 12.907 9.098 0 16.298-7.803 16.298-17.1 0-7.169-3.287-12.318-17.437-18.361-16.044-6.777-20.08-16.336-20.08-25.639 0-15.221 11.622-25.396 25.136-25.396 7.072 0 14.792 2.259 20.015 8.136 4.229 4.781 5.751 9.573 5.585 15.506-.076 2.604-.382 5.94 4.891 6.01l15.446.033v-35.753z"/><path fill="#f00" d="M137.028 100.95l-14.568-.064s-15.421 1.195-14.549-10.625c.419-5.695-1.26-10.041-2.447-11.872-3.073-4.749-8.194-7.12-14.379-7.12-9.098 0-15.786 7.57-15.786 15.506 0 6.906 3.361 14.63 17.629 20.154 12.385 4.781 20.081 13.104 20.081 24.67 0 12.186-9.257 26.421-25.935 26.421-8.59 0-16.359-2.05-22.319-10.575-3.021-4.324-4.184-9.906-4.399-15.498-.156-4.284-1.294-5.229-4.233-5.229l-15.888.04.007 37.049h96.747v-62.338l.039-.519z"/><path d="M136.124 101.541m1.2.037l-14.174-.001-1.299-.019c-1.696-.008-5.2-.175-8.403-1.569-3.188-1.357-6.126-4.169-6.105-9.064 0-.332.013-.664.042-.996.041-.64.069-1.252.069-1.826-.007-4.423-1.263-7.105-2.24-8.633-3.852-5.919-8.623-7.637-14.344-7.57-4.403.047-8.289 2.14-10.891 4.967-2.596 2.825-4.117 6.604-4.114 10.346.008 3.326.839 6.701 3.384 9.955 2.554 3.264 6.872 6.441 13.912 9.164 12.567 4.814 20.238 13.58 20.221 25.521 0 6.287-2.208 12.928-6.591 18.041-4.366 5.113-10.947 8.653-19.507 8.642h-.149c-8.64 0-16.752-2.183-22.827-10.899-3.149-4.514-4.051-9.463-4.26-15.107-.073-2.059-.481-3.42-1.079-4.184-.596-.757-1.372-1.096-2.696-1.112h-16.203v-9.944l17.681.006c3.304.061 5.479.791 7.471 1.92 1.991 1.129 3.285 2.756 4.104 4.588 1.642 3.68 1.59 8.195 2.201 12.379.584 4.093 2.809 7.105 5.748 9.164 2.938 2.029 6.607 3.055 9.917 3.055 4.312 0 8.178-1.846 10.976-4.814 2.798-2.955 4.524-7.039 4.524-11.488-.016-3.453-.763-6.275-3.22-9.064-2.454-2.79-6.708-5.555-13.73-8.547-8.118-3.439-13.281-7.617-16.403-12.172-3.124-4.549-4.169-9.46-4.167-14.211-.003-7.818 2.988-14.393 7.738-18.992 4.748-4.584 11.237-7.207 18.194-7.207 7.237-.007 14.791 2.26 20.203 8.361 4.167 4.688 5.944 9.918 5.943 15.68 0 .277-.006.561-.016.83l-.017.863c0 1.129.144 2.084.663 2.707.5.619 1.503 1.178 3.72 1.211h15.779v10.022h-.055zM137.725 101.251"/><g fill="#f00"><path d="M172.438 163.896h-25.24v-47.556h7.123v41.455h18.118v6.101zM238.23 163.896h-7.501l-4.239-13.991h-14.368l-4.058 13.991h-7.312l14.371-47.556h8.732l14.375 47.556zm-12.913-19.515l-3.685-12.443c-.854-3.097-1.655-6.452-2.325-9.376h-.13c-.667 2.924-1.4 6.397-2.201 9.318l-3.745 12.501h12.086zM290.13 138.405c4.914 1.247 9.396 5.219 9.396 11.877 0 5.024-2.328 7.946-4.051 9.572-3.138 3.047-8.301 4.478-16.037 4.478-4.182 0-7.305-.319-9.33-.56v-46.816c2.635-.559 6.808-.996 10.99-.996 14.311 0 16.768 7.099 16.768 11.887 0 4.528-2.822 8.502-7.736 10.371v.187zm-8.6-2.23c5.645 0 9.209-3.182 9.209-7.594 0-5.715-4.543-7.143-8.97-7.143-2.331 0-3.744.189-4.598.365v14.371h4.359zm-4.358 22.374c1.038.177 2.454.243 4.292.243 5.711 0 10.625-2.424 10.625-8.699s-5.346-8.572-10.805-8.572h-4.112v17.028zM356.598 123.732c-1.546-.866-4.485-2.104-8.362-2.104-5.58 0-7.923 3.297-7.923 6.337 0 4.032 2.644 6.024 8.597 8.647 7.561 3.354 11.18 7.508 11.18 14.045 0 7.952-5.836 13.912-16.402 13.912-4.416 0-9.085-1.295-11.355-2.855l1.594-6.025c2.523 1.548 6.329 2.802 10.193 2.802 5.591 0 8.732-2.919 8.732-7.213 0-4.04-2.396-6.53-7.994-8.888-7.001-2.857-11.729-7.148-11.729-13.613 0-7.528 5.957-13.182 15.299-13.182 4.487 0 7.855 1.125 9.885 2.177l-1.715 5.96z"/></g><g fill="#ff0"><path d="M171.437 64.362c-1.727-1.129-4.93-2.792-9.178-2.792-5.191 0-7.959 3.232-7.959 7.092 0 4.113 2.678 6.042 8.737 8.675 7.621 3.153 12.037 7.18 12.037 14.359 0 8.5-6.408 14.109-16.707 14.109-4.676 0-9.176-1.31-12.379-3.231l1.992-5.61c2.506 1.488 6.574 3.232 10.645 3.232 6.322 0 9.435-3.414 9.435-7.711 0-4.457-2.51-6.91-8.741-9.463-7.967-3.229-12.036-7.703-12.036-13.48 0-7.449 5.893-13.58 15.41-13.58 4.503 0 8.313 1.312 10.821 2.889l-2.077 5.511zM219.36 93.448c0 3.951.08 8.068.69 11.389h-6.584l-.688-6.126h-.254c-2.427 3.769-7.272 7.188-13.936 7.188-9.002 0-13.771-6.665-13.771-13.58 0-11.488 9.87-17.697 27.351-17.615 0-4.031 0-13.134-10.725-13.134-4.076 0-8.309 1.132-11.521 3.413l-1.727-5.004c3.815-2.524 9.093-4.018 14.377-4.018 13.317 0 16.787 9.546 16.787 19.008v18.479zm-7.093-13.395c-8.929 0-20.086 1.31-20.086 11.39 0 6.125 3.812 8.846 8.135 8.846 7.006 0 11.951-5.437 11.951-11.222v-9.014zM269.07 92.144c0 4.9.253 9.022.434 12.693h-6.501l-.337-7.531h-.261c-2.162 3.779-7.008 8.594-15.074 8.594-7.094 0-15.482-4.117-15.482-20.586v-28.223h7.181v26.895c0 9.297 2.689 15.771 10.56 15.771 5.631 0 12.285-4.549 12.285-12.95v-29.716h7.196v35.053zM314.601 103.087c-2.076 1.053-6.74 2.719-12.812 2.719-13.495 0-22.417-9.721-22.417-24.345 0-14.729 9.607-25.499 24.151-25.499 5.285 0 9.517 1.572 11.343 2.532l-1.826 5.868c-1.989-1.129-5.104-2.453-9.695-2.453-10.891 0-16.609 8.861-16.609 19.104 0 11.571 6.841 18.843 16.354 18.843 4.671 0 7.883-1.328 10.216-2.367l1.295 5.598zM357.546 102.835c-2.68 1.305-7.617 2.971-14.799 2.971-13.77 0-21.991-9.802-21.991-24.086 0-14.988 8.319-25.758 21.038-25.758 14.543 0 18.262 13.48 18.262 21.814 0 1.66-.089 2.889-.166 4.021h-32.117c.079 13.238 7.525 18.225 16.014 18.225 5.877 0 9.43-1.229 12.385-2.455l1.374 5.268zm-4.591-26.461c.095-6.491-2.595-14.9-11.858-14.9-8.654 0-12.454 8.332-13.148 14.9h25.006z"/></g></g></svg>