<?xml version="1.0" standalone="no"?>
<!DOCTYPE svg PUBLIC "-//W3C//DTD SVG 1.1//EN" "http://www.w3.org/Graphics/SVG/1.1/DTD/svg11.dtd">
<svg width="100%" height="100%" viewBox="0 0 340 53" version="1.1" xmlns="http://www.w3.org/2000/svg" xmlns:xlink="http://www.w3.org/1999/xlink" xml:space="preserve" style="fill-rule:evenodd;clip-rule:evenodd;stroke-linejoin:round;stroke-miterlimit:1.41421;">
    <g>
        <path d="M52.657,26.68C52.657,32.46 51.213,37.37 48.251,41.705C43.339,48.857 35.106,53.19 26.365,53.19C18.781,53.19 12.352,50.374 7.295,45.027C2.454,39.9 0,33.543 0,25.957C0,18.879 2.745,12.377 7.8,7.393C12.857,2.409 19.214,-0.191 26.51,-0.191C37.49,-0.191 47.096,6.526 51.214,17.505L36.91,17.505C33.73,14.182 30.41,12.523 26.364,12.523C18.854,12.523 12.929,18.661 12.929,26.029C12.929,34.192 19.283,40.476 26.363,40.476C31.13,40.476 35.393,38.021 37.921,33.543L23.26,33.543L23.26,23.285L52.514,23.285C52.584,24.44 52.657,25.595 52.657,26.679L52.657,26.68ZM55.838,52.18L55.838,0.82L72.885,0.82C78.301,0.82 82.419,1.183 85.885,3.64C90.438,6.816 92.821,11.656 92.821,18.013C92.821,26.32 88.487,32.531 81.193,34.553L93.763,52.181L78.233,52.181L68.408,35.638L68.408,52.182L55.838,52.182L55.838,52.18ZM70.861,24.512C77.075,24.512 80.108,22.924 80.108,18.302C80.108,14.039 77.436,12.305 71.874,12.305L68.407,12.305L68.407,24.512L70.862,24.512L70.861,24.512ZM102.574,7.394C107.631,2.41 113.986,-0.116 121.284,-0.116C128.144,-0.116 134.644,2.556 139.629,7.467C144.829,12.595 147.575,19.169 147.575,26.177C147.575,33.543 144.975,40.117 140.135,45.102C135.151,50.302 128.36,53.119 121.209,53.119C113.625,53.119 107.123,50.375 102.069,45.029C97.229,39.899 94.772,33.543 94.772,25.959C94.772,18.879 97.516,12.377 102.572,7.393L102.574,7.394ZM121.21,40.404C128.577,40.404 134.573,34.48 134.573,26.102C134.573,18.589 128.577,12.594 121.353,12.594C113.697,12.594 107.701,18.588 107.701,26.102C107.703,34.192 114.131,40.402 121.211,40.402L121.21,40.404ZM163.467,0.82L163.467,32.46C163.467,38.237 165.272,41.2 169.534,41.2C173.942,41.2 176.034,38.31 176.034,32.46L176.034,0.82L188.604,0.82L188.604,32.965C188.604,45.535 180.947,52.972 169.462,52.972C157.832,52.972 150.826,45.822 150.826,32.965L150.826,0.82L163.467,0.82ZM192.23,52.18L192.23,0.82L209.276,0.82C214.692,0.82 218.81,1.183 222.276,3.64C226.829,6.816 229.212,11.656 229.212,18.086C229.212,24.731 226.177,30.22 221.049,33.326C217.796,35.276 213.752,35.636 208.407,35.636L204.797,35.636L204.797,52.181L192.227,52.181L192.23,52.18ZM207.252,24.512C213.465,24.512 216.498,22.924 216.498,18.302C216.498,14.039 213.826,12.305 208.264,12.305L204.941,12.305L204.941,24.512L207.253,24.512L207.252,24.512ZM238.675,7.394C243.732,2.41 250.087,-0.116 257.385,-0.116C264.245,-0.116 270.745,2.556 275.73,7.467C280.93,12.595 283.677,19.169 283.677,26.177C283.677,33.543 281.077,40.117 276.237,45.102C271.253,50.302 264.462,53.119 257.311,53.119C249.728,53.119 243.226,50.375 238.171,45.029C233.331,39.899 230.875,33.543 230.875,25.959C230.875,18.879 233.619,12.377 238.675,7.393L238.675,7.394ZM257.311,40.404C264.679,40.404 270.676,34.48 270.676,26.102C270.676,18.589 264.68,12.594 257.456,12.594C249.8,12.594 243.804,18.588 243.804,26.102C243.804,34.192 250.234,40.402 257.312,40.402L257.311,40.404ZM286.14,52.18L286.14,0.82L297.478,0.82L316.331,29.353L316.331,0.82L328.901,0.82L328.901,52.18L317.849,52.18L298.709,23.576L298.709,52.181L286.139,52.181L286.14,52.18Z" style="fill:rgb(99,167,10);fill-rule:nonzero;"/>
        <path d="M338.873,6.446C338.125,7.201 337.213,7.578 336.149,7.578C335.083,7.578 334.175,7.201 333.431,6.446C332.683,5.696 332.311,4.786 332.311,3.716C332.311,2.656 332.687,1.752 333.438,1.001C334.185,0.254 335.088,-0.119 336.148,-0.119C337.212,-0.119 338.124,0.254 338.871,1.001C339.621,1.751 339.998,2.655 339.998,3.716C339.998,4.782 339.622,5.692 338.871,6.446L338.873,6.446ZM333.811,1.378C333.171,2.024 332.849,2.805 332.849,3.721C332.849,4.644 333.169,5.431 333.809,6.081C334.449,6.729 335.229,7.055 336.149,7.055C337.073,7.055 337.849,6.73 338.495,6.08C339.137,5.43 339.458,4.643 339.458,3.72C339.458,2.805 339.138,2.024 338.495,1.378C337.849,0.728 337.065,0.403 336.15,0.403C335.237,0.403 334.46,0.728 333.81,1.378L333.811,1.378ZM336.076,1.592C336.601,1.592 336.984,1.642 337.229,1.744C337.667,1.926 337.886,2.284 337.886,2.816C337.886,3.192 337.746,3.471 337.474,3.649C337.328,3.742 337.124,3.809 336.864,3.852C337.194,3.905 337.434,4.042 337.587,4.266C337.74,4.489 337.817,4.706 337.817,4.921L337.817,5.229C337.817,5.327 337.821,5.432 337.827,5.544C337.835,5.656 337.85,5.729 337.864,5.764L337.89,5.817L337.196,5.817C337.189,5.802 337.189,5.789 337.181,5.774C337.181,5.76 337.175,5.744 337.175,5.728L337.157,5.591L337.157,5.256C337.157,4.769 337.027,4.446 336.759,4.29C336.602,4.198 336.325,4.153 335.931,4.153L335.344,4.153L335.344,5.815L334.6,5.815L334.6,1.59L336.075,1.59L336.076,1.592ZM336.882,2.257C336.692,2.153 336.394,2.1 335.982,2.1L335.344,2.1L335.344,3.63L336.019,3.63C336.333,3.63 336.569,3.6 336.727,3.536C337.015,3.42 337.161,3.2 337.161,2.876C337.161,2.569 337.069,2.363 336.881,2.256L336.882,2.257Z" style="fill:rgb(108,179,63);fill-rule:nonzero;"/>
    </g>
</svg>
