<?xml version="1.0" standalone="no"?>
<!DOCTYPE svg PUBLIC "-//W3C//DTD SVG 1.1//EN" "http://www.w3.org/Graphics/SVG/1.1/DTD/svg11.dtd">
<svg width="100%" height="100%" viewBox="0 0 1103 399" version="1.1" xmlns="http://www.w3.org/2000/svg" xmlns:xlink="http://www.w3.org/1999/xlink" xml:space="preserve" style="fill-rule:evenodd;clip-rule:evenodd;stroke-linejoin:round;stroke-miterlimit:1.41421;">
    <path d="M184.36,83C198.49,58.54 212.52,34.02 226.76,9.62C262.83,9.79 298.9,9.4 334.96,9.82C340.61,20.81 347.44,31.17 353.22,42.1C353.46,43.21 353.68,44.33 353.89,45.45C348.34,37.12 343.65,28.22 338.38,19.7C336.27,16.41 334.91,10.87 330.01,11.21C299.02,11.15 268.02,11.13 237.02,11.15C233.82,11.4 230.36,10.86 227.38,12.21C225.25,14.62 224.07,17.68 222.46,20.43C210.87,40.53 199.22,60.6 187.62,80.7C185.26,85.09 182.32,89.22 180.8,94.01C187.58,91.88 194.14,89 201.12,87.57C207.39,86.4 213.59,84.72 220.01,84.57C238.4,83.76 257.3,86.22 273.97,94.41C273.47,94.59 272.46,94.97 271.96,95.16C251.04,85.96 227.22,83.31 204.87,88.24C194.72,90.16 185.16,94.16 175.81,98.42C178.45,93.16 181.63,88.21 184.36,83Z" style="fill:rgb(49,179,165);fill-rule:nonzero;"/>
    <path d="M227.38,12.21C230.36,10.86 233.82,11.4 237.02,11.15C268.02,11.13 299.02,11.15 330.01,11.21C334.91,10.87 336.27,16.41 338.38,19.7C343.65,28.22 348.34,37.12 353.89,45.45C353.68,44.33 353.46,43.21 353.22,42.1C364.53,61.68 375.77,81.35 387.14,100.93C388.57,102.64 387.53,104.79 386.52,106.4C381.63,114.62 377.09,123.04 372.05,131.17C371.91,133.67 371.56,137.07 368.55,137.65C362.93,147.03 357.59,156.56 352.1,166C350.97,167.9 350.13,170.02 348.55,171.61C344.75,174.78 343.29,179.7 340.05,183.33C338.95,181.32 338.01,179.21 337.6,176.94C335.93,168.84 334.24,160.64 330.78,153.07C330.09,151.68 328.88,150.66 327.88,149.51C316.53,125.5 296.46,105.57 271.96,95.16C272.46,94.97 273.47,94.59 273.97,94.41C257.3,86.22 238.4,83.76 220.01,84.57C213.59,84.72 207.39,86.4 201.12,87.57C194.14,89 187.58,91.88 180.8,94.01C182.32,89.22 185.26,85.09 187.62,80.7C199.22,60.6 210.87,40.53 222.46,20.43C224.07,17.68 225.25,14.62 227.38,12.21Z" style="fill:rgb(1,190,170);fill-rule:nonzero;"/>
    <path d="M176.35,102.54C201.51,88.69 232.33,85.73 259.7,94.4C275.33,99.4 289.9,107.92 301.63,119.43C319.54,136.32 330.97,159.78 333.78,184.21C334.34,188.32 334.53,192.47 334.4,196.62C331,195.37 327.92,193.46 324.86,191.58C277.43,164.21 230.05,136.74 182.64,109.33C179.91,107.66 177.14,106.06 174.21,104.77C174.85,103.95 175.56,103.21 176.35,102.54Z" style="fill:rgb(1,190,170);fill-rule:nonzero;"/>
    <path d="M7.69,196.98C25.71,165.85 43.48,134.58 61.66,103.55C96.81,103.84 131.97,103.5 167.13,103.72C149.06,115.7 134.4,132.92 125.93,152.92C116.3,175.09 114.38,200.49 120.45,223.88C126.77,249.6 142.99,272.54 164.7,287.62C163.17,288.21 161.63,288.97 159.94,288.93C130.96,288.87 101.98,288.95 73,288.87C69.05,289.18 64.6,287.81 61.09,290.13C43.61,258.9 25.34,228.11 7.69,196.98Z" style="fill:rgb(75,93,103);fill-rule:nonzero;"/>
    <path d="M121.43,182.96C125.4,151.82 143.66,122.5 170.52,106.05C170.87,127.7 170.43,149.37 171.22,171.01C171.41,199.68 171.65,228.35 171.78,257.02C171.66,262.35 172.35,267.67 172.21,273.01C172.04,277.69 172.86,282.49 171.53,287.07C170.38,286.78 169.22,286.45 168.28,285.69C152.61,275.11 139.62,260.5 131.41,243.43C122.3,224.81 118.71,203.52 121.43,182.96Z" style="fill:rgb(75,93,103);fill-rule:nonzero;"/>
    <path d="M177.89,111.21C187.73,116.25 197.15,122.1 206.72,127.66C201.87,128.25 198.29,124.6 194.04,123.15C192,123.86 190.75,125.79 189.25,127.23C196.97,140.67 205.02,153.94 212.78,167.35C214.76,172.47 218.68,176.89 219.09,182.54C205.23,158.84 191.58,135.02 177.89,111.21Z" style="fill:rgb(12,184,168);fill-rule:nonzero;"/>
    <path d="M174.26,112.62L174.85,113.56C190.73,140.91 206.44,168.35 222.28,195.71C223.21,196.77 222.51,197.94 221.93,198.97C207.58,223.81 193.24,248.66 178.96,273.54C177.94,275.39 176.88,277.21 175.73,278.98C175.27,223.53 174.32,168.08 174.26,112.62Z" style="fill:rgb(75,93,103);fill-rule:nonzero;"/>
    <path d="M189.25,127.23C190.75,125.79 192,123.86 194.04,123.15C198.29,124.6 201.87,128.25 206.72,127.66C240.65,147.12 274.47,166.8 308.33,186.38C308.9,190.57 314.36,191.09 317.18,193.47C315.45,194.9 313.13,194.84 311,194.87C285.35,194.59 259.69,194.93 234.04,194.71C231.03,194.75 228.06,194.24 225.2,193.33C223.2,189.71 221,186.21 219.09,182.54C218.68,176.89 214.76,172.47 212.78,167.35C205.02,153.94 196.97,140.67 189.25,127.23Z" style="fill:rgb(1,190,170);fill-rule:nonzero;"/>
    <path d="M392.93,124.06C414.37,123.74 435.83,124.02 457.28,123.92C457.27,127.47 457.25,131.02 457.35,134.56C435.93,134.97 414.49,134.61 393.05,134.75C392.83,131.19 392.87,127.62 392.93,124.06Z" style="fill:rgb(32,95,172);fill-rule:nonzero;"/>
    <path d="M465.5,123.93C483.32,123.92 501.14,123.92 518.97,123.93C528.72,123.89 538.98,123.54 548,127.89C551.58,129.62 554.95,131.83 557.75,134.67C526.99,134.77 496.22,134.82 465.46,134.63C465.51,131.06 465.49,127.49 465.5,123.93Z" style="fill:rgb(32,95,172);fill-rule:nonzero;"/>
    <path d="M573.78,123.94C590.89,123.9 608.01,123.94 625.12,123.92C626.42,127.53 627.77,131.12 629.03,134.74C610.65,134.76 592.28,134.69 573.9,134.77C573.63,131.16 573.73,127.55 573.78,123.94Z" style="fill:rgb(32,95,172);fill-rule:nonzero;"/>
    <path d="M664.91,134.72C666.19,131.14 667.5,127.56 668.78,123.98C685.85,123.86 702.94,123.94 720.02,123.94C720.1,127.54 720.13,131.15 719.95,134.75C701.6,134.71 683.26,134.77 664.91,134.72Z" style="fill:rgb(32,95,172);fill-rule:nonzero;"/>
    <path d="M370,131.25C371.88,133.07 369.89,135.2 368.83,136.83C367.45,138.65 366.85,141.19 364.64,142.24C366.05,138.4 368.18,134.89 370,131.25Z" style="fill:rgb(51,181,166);fill-rule:nonzero;"/>
    <path d="M392.93,141.52C414.38,141.46 435.82,141.49 457.27,141.51C457.27,145.08 457.27,148.66 457.27,152.24C435.82,152.27 414.37,152.31 392.92,152.22C392.9,148.65 392.91,145.09 392.93,141.52Z" style="fill:rgb(32,95,172);fill-rule:nonzero;"/>
    <path d="M465.5,141.5C498.09,141.47 530.67,141.51 563.25,141.48C565.2,144.81 566.5,148.46 567.34,152.23C533.4,152.3 499.45,152.28 465.51,152.23C465.48,148.65 465.48,145.08 465.5,141.5Z" style="fill:rgb(32,95,172);fill-rule:nonzero;"/>
    <path d="M573.75,141.53C592.96,141.41 612.17,141.58 631.38,141.44C632.83,144.99 634.16,148.59 635.37,152.23C614.83,152.31 594.28,152.27 573.74,152.24C573.72,148.67 573.73,145.1 573.75,141.53Z" style="fill:rgb(32,95,172);fill-rule:nonzero;"/>
    <path d="M662.28,141.6C681.53,141.38 700.79,141.51 720.05,141.53C720.07,145.09 720.07,148.66 720.06,152.23C699.53,152.29 679,152.29 658.48,152.24C659.78,148.7 661.08,145.17 662.28,141.6Z" style="fill:rgb(32,95,172);fill-rule:nonzero;"/>
    <path d="M327.88,149.51C328.88,150.66 330.09,151.68 330.78,153.07C334.24,160.64 335.93,168.84 337.6,176.94C338.01,179.21 338.95,181.32 340.05,183.33C343.29,179.7 344.75,174.78 348.55,171.61C347.78,174.74 345.67,177.25 344.18,180.05C342.15,183.35 340.62,187 338.02,189.9C337.53,185.11 336.91,180.32 335.99,175.58C334.5,166.55 331.26,157.97 327.88,149.51Z" style="fill:rgb(63,185,172);fill-rule:nonzero;"/>
    <path d="M356.11,157.28C356.65,157.76 356.65,157.76 356.11,157.28Z" style="fill:rgb(83,193,180);fill-rule:nonzero;"/>
    <path d="M411.45,159.37C420.7,159.13 429.96,159.32 439.22,159.25C439.27,162.86 439.26,166.47 439.28,170.08C430.02,170.05 420.76,170.08 411.5,170.06C411.49,166.5 411.51,162.93 411.45,159.37Z" style="fill:rgb(32,95,172);fill-rule:nonzero;"/>
    <path d="M484.05,159.22C493.21,159.29 502.36,159.2 511.52,159.27C511.48,162.82 511.48,166.37 511.56,169.92C502.36,170.25 493.15,169.98 483.95,170.06C483.91,166.45 483.88,162.83 484.05,159.22Z" style="fill:rgb(32,95,172);fill-rule:nonzero;"/>
    <path d="M591.87,159.21C607.22,159.32 622.57,159.23 637.92,159.25C639.31,162.82 640.58,166.44 641.89,170.04C625.18,170.08 608.47,170.13 591.76,170.02C591.73,166.41 591.65,162.81 591.87,159.21Z" style="fill:rgb(32,95,172);fill-rule:nonzero;"/>
    <path d="M656.02,159.26C671.35,159.25 686.68,159.27 702,159.25C702.12,162.84 702.1,166.44 702.02,170.04C685.39,170.08 668.77,170.15 652.14,169.97C653.31,166.36 654.63,162.8 656.02,159.26Z" style="fill:rgb(32,95,172);fill-rule:nonzero;"/>
    <path d="M538.29,159.28C548.15,159.2 558.02,159.35 567.89,159.19C567.83,162.88 567.3,166.54 566.25,170.07C556.93,170.06 547.62,170.07 538.3,170.07C538.24,166.47 538.23,162.87 538.29,159.28Z" style="fill:rgb(32,95,172);fill-rule:nonzero;"/>
    <path d="M411.5,176.73C420.76,176.75 430.03,176.7 439.29,176.76C439.26,180.33 439.27,183.91 439.27,187.49C430.02,187.54 420.76,187.53 411.51,187.49C411.47,183.9 411.49,180.32 411.5,176.73Z" style="fill:rgb(32,95,172);fill-rule:nonzero;"/>
    <path d="M483.92,176.74C510.35,176.76 536.78,176.66 563.2,176.78C560.64,180.95 557.49,185.16 553.1,187.45C530.05,187.56 506.99,187.55 483.94,187.46C483.93,183.89 483.93,180.31 483.92,176.74Z" style="fill:rgb(32,95,172);fill-rule:nonzero;"/>
    <path d="M591.75,176.74C609.25,176.68 626.74,176.83 644.24,176.67C645.25,178.99 645.9,181.47 647.03,183.75C649.53,186.9 653.6,185.43 656.99,185.31C661.26,184.9 665.6,185.63 669.85,184.9C671.13,184.23 672.07,183.07 673.14,182.12C673.3,182.45 673.46,182.79 673.63,183.12C673.17,184.57 672.71,186.02 672.26,187.47C655.39,187.53 638.52,187.61 621.66,187.43C621.03,185.55 620.43,183.67 619.87,181.78C622.08,183.22 624.04,185.64 626.98,185.18C633.27,184.77 639.6,186.02 645.86,184.93C645.11,183.07 644.43,181.16 643.39,179.44C641.68,178.76 639.81,178.87 638.02,178.82C624.68,178.96 611.34,178.94 598,178.79C596.31,179 593.12,178.58 593.17,181.07C593.09,182.8 593.83,185.28 596.01,185C602.92,185.52 609.88,185.46 616.78,184.74C617.38,183.69 617.98,182.64 618.63,181.61C618.84,181.63 619.27,181.66 619.48,181.68C619.51,183.61 619.53,185.54 619.55,187.47C610.27,187.53 600.99,187.6 591.71,187.42C591.74,183.86 591.74,180.3 591.75,176.74Z" style="fill:rgb(32,95,172);fill-rule:nonzero;"/>
    <path d="M647.03,183.75C647.88,181.38 648.75,179.02 649.69,176.68C667.14,176.81 684.59,176.68 702.04,176.75C702.1,180.36 702.16,183.97 701.84,187.57C692.68,187.46 683.53,187.53 674.37,187.52C674.18,186.05 674.43,184.44 673.63,183.12C673.46,182.79 673.3,182.45 673.14,182.12C672.07,183.07 671.13,184.23 669.85,184.9C665.6,185.63 661.26,184.9 656.99,185.31C653.6,185.43 649.53,186.9 647.03,183.75Z" style="fill:rgb(32,95,172);fill-rule:nonzero;"/>
    <path d="M593.17,181.07C593.12,178.58 596.31,179 598,178.79C611.34,178.94 624.68,178.96 638.02,178.82C639.81,178.87 641.68,178.76 643.39,179.44C644.43,181.16 645.11,183.07 645.86,184.93C639.6,186.02 633.27,184.77 626.98,185.18C624.04,185.64 622.08,183.22 619.87,181.78L619.48,181.68C619.27,181.66 618.84,181.63 618.63,181.61C617.98,182.64 617.38,183.69 616.78,184.74C609.88,185.46 602.92,185.52 596.01,185C593.83,185.28 593.09,182.8 593.17,181.07Z" style="fill:rgb(32,95,172);fill-rule:nonzero;"/>
    <path d="M758.73,186.01C769.49,185.98 780.25,186.02 791.02,185.99C797.57,186 804.98,187.39 809.28,192.81C815.11,200.92 813.45,214.57 803.85,219.1C808.37,220.9 812.68,224 814.32,228.78C816.73,236 816.02,244.86 810.7,250.66C806.03,255.87 798.78,258.03 791.95,258.02C780.88,257.99 769.8,258 758.73,258.01C758.76,234.01 758.77,210.01 758.73,186.01Z" style="fill:rgb(80,80,80);fill-rule:nonzero;"/>
    <path d="M822.01,185.99C825.76,185.99 829.51,186 833.27,185.99C833.24,210 833.23,234 833.27,258.01C829.51,258 825.75,258 821.99,258.01C822.01,234 821.99,209.99 822.01,185.99Z" style="fill:rgb(80,80,80);fill-rule:nonzero;"/>
    <path d="M948,186C953.86,186.04 959.74,185.92 965.61,186.06C971.12,205.06 977.09,223.92 982.55,242.94C988.65,224.05 994.19,204.98 1000.04,186.01C1005.95,186.01 1011.85,185.96 1017.76,186.04C1017.75,210.01 1017.74,233.99 1017.76,257.97C1013.83,258.02 1009.91,258 1005.99,258C1005.77,238.85 1006.49,219.64 1005.62,200.52C1000.32,219.74 994.12,238.71 988.66,257.89C984.58,258.09 980.5,258.03 976.43,257.93C970.8,238.55 965.01,219.23 959.3,199.88C959.19,219.25 959.26,238.62 959.26,257.99C955.5,258.01 951.75,258.01 948,258C948,234 948,210 948,186Z" style="fill:rgb(80,80,80);fill-rule:nonzero;"/>
    <path d="M1027.02,185.98C1030.87,185.99 1034.72,185.94 1038.57,186.08C1038.48,189.88 1038.5,193.69 1038.5,197.49C1034.69,197.51 1030.9,197.47 1027.1,197.56C1026.93,193.7 1026.97,189.84 1027.02,185.98Z" style="fill:rgb(80,80,80);fill-rule:nonzero;"/>
    <path d="M317.18,193.47C314.36,191.09 308.9,190.57 308.33,186.38C312.68,188.81 316.99,191.31 321.32,193.77C322.63,194.56 323.94,195.37 325.24,196.2C292.47,196.54 259.69,196.26 226.91,196.35C226.34,195.34 225.77,194.34 225.2,193.33C228.06,194.24 231.03,194.75 234.04,194.71C259.69,194.93 285.35,194.59 311,194.87C313.13,194.84 315.45,194.9 317.18,193.47Z" style="fill:rgb(39,171,159);fill-rule:nonzero;"/>
    <path d="M484.1,194.44C506.93,194.63 529.78,194.32 552.61,194.59C557.1,196.85 560.37,201.08 563.16,205.19C536.75,205.38 510.33,205.18 483.92,205.29C483.91,201.67 483.85,198.05 484.1,194.44Z" style="fill:rgb(32,95,172);fill-rule:nonzero;"/>
    <path d="M624.28,194.52C639.39,194.5 654.51,194.44 669.63,194.54C668.43,198.12 667.08,201.66 665.91,205.25C653.28,205.29 640.65,205.26 628.02,205.26C626.79,201.67 625.5,198.11 624.28,194.52Z" style="fill:rgb(32,95,172);fill-rule:nonzero;"/>
    <path d="M411.5,194.52C420.75,194.47 430.01,194.49 439.26,194.52C439.27,198.1 439.28,201.68 439.28,205.27C430.02,205.29 420.76,205.23 411.51,205.29C411.48,201.7 411.48,198.11 411.5,194.52Z" style="fill:rgb(32,95,172);fill-rule:nonzero;"/>
    <path d="M591.75,194.5C601,194.48 610.25,194.51 619.5,194.49C619.51,198.08 619.51,201.68 619.49,205.28C610.25,205.24 601,205.27 591.76,205.28C591.72,201.68 591.72,198.09 591.75,194.5Z" style="fill:rgb(32,95,172);fill-rule:nonzero;"/>
    <path d="M674.29,205.21C674.23,201.61 674.14,198 674.43,194.41C683.64,194.61 692.85,194.4 702.07,194.52C702.07,198.1 702.09,201.68 702.02,205.27C692.77,205.24 683.53,205.34 674.29,205.21Z" style="fill:rgb(32,95,172);fill-rule:nonzero;"/>
    <path d="M770.76,196.25C777.18,196.31 783.6,196.16 790.02,196.3C793.66,196.49 797.94,197.67 799.6,201.27C800.99,204.77 800.62,209.19 798.07,212.08C795.44,214.67 791.49,215.06 788,215.23C782.24,215.29 776.49,215.23 770.75,215.24C770.79,208.91 770.71,202.58 770.76,196.25Z" style="fill:white;fill-rule:nonzero;"/>
    <path d="M187.49,268.67C200.46,245.87 213.65,223.2 226.74,200.46C259.1,200.51 291.47,200.42 323.83,200.52L322.81,201.67C278.93,226.57 234.86,251.15 190.91,275.95C188.87,277.15 186.87,278.41 184.84,279.62C185.98,278.85 187.08,278.04 188.2,277.23C186.76,277.26 185.33,277.28 183.9,277.32C185.42,274.58 186.84,271.76 187.49,268.67Z" style="fill:rgb(0,187,218);fill-rule:nonzero;"/>
    <path d="M326.24,204.04C328.84,202.55 331.53,201.19 334.4,200.3C334.09,208.93 332.77,217.56 330.41,225.87C324.94,244.32 314.77,261.41 300.64,274.53C280.79,293.4 253.39,303.97 226.03,303.54C208.85,303.48 192,298.56 176.74,290.86C176.53,290.38 176.12,289.4 175.91,288.91C181.35,285.25 187.31,282.5 192.92,279.14C237.35,254.09 281.93,229.3 326.24,204.04Z" style="fill:rgb(0,187,218);fill-rule:nonzero;"/>
    <path d="M899.48,210.43C905.81,203.51 916.28,202.18 924.99,204.46C932.09,206.3 937.62,212.26 939.71,219.19C941.49,224.12 941.23,229.42 941.36,234.59C929.06,234.96 916.74,234.65 904.43,234.75C904.53,238.91 905.45,243.37 908.53,246.41C911.95,250.06 917.59,250.46 922.16,249.16C925.87,248.07 928.16,244.69 929.38,241.21C933.15,241.26 936.92,241.24 940.7,241.3C939.29,250.21 931.89,257.5 923.1,259.22C916.09,260.53 908.23,259.9 902.38,255.48C896.29,250.93 893.29,243.32 892.71,235.93C891.9,227.06 893.2,217.21 899.48,210.43Z" style="fill:rgb(80,80,80);fill-rule:nonzero;"/>
    <path d="M841.26,205.26C845.08,205.24 848.91,205.24 852.75,205.26C852.78,216.5 852.72,227.75 852.77,239C852.82,242.58 853.62,246.96 857.23,248.64C861.86,250.35 867.66,249.8 871.42,246.4C874.74,243.25 875.53,238.44 875.51,234.06C875.43,224.51 875.64,214.97 875.39,205.43C879.16,205.12 882.95,205.26 886.75,205.27C886.78,222.83 886.71,240.4 886.78,257.97C883.18,258.03 879.58,258.01 875.99,258C875.99,255.77 875.99,253.55 876.03,251.33C869.71,260.43 855.89,261.95 846.98,255.98C842.07,252.69 841.22,246.44 841.26,240.99C841.23,229.08 841.24,217.17 841.26,205.26Z" style="fill:rgb(80,80,80);fill-rule:nonzero;"/>
    <path d="M1027.03,205.23C1030.86,205.24 1034.69,205.24 1038.52,205.27C1038.52,222.82 1038.43,240.37 1038.57,257.92C1034.71,258.07 1030.85,258.02 1027,257.96C1027.03,240.39 1026.95,222.81 1027.03,205.23Z" style="fill:rgb(80,80,80);fill-rule:nonzero;"/>
    <path d="M1041.71,205.24C1046.12,205.23 1050.53,205.26 1054.95,205.24C1058.71,210.91 1062.2,216.76 1066.09,222.35C1070.01,216.78 1073.28,210.79 1077.16,205.19C1081.43,205.29 1085.71,205.23 1090,205.26C1084.33,213.84 1078.47,222.29 1072.8,230.87C1078.95,239.88 1085.04,248.94 1091.11,258.01C1086.53,257.71 1081.69,258.58 1077.3,257.59C1073.31,251.72 1069.6,245.65 1065.66,239.74C1061.62,245.69 1058.12,252 1054.17,258.01C1049.76,258.02 1045.37,258.02 1040.97,258C1047,249.01 1052.99,239.99 1059,230.99C1053.23,222.41 1047.34,213.91 1041.71,205.24Z" style="fill:rgb(80,80,80);fill-rule:nonzero;"/>
    <path d="M332.66,230.56C335.38,222.83 336.22,214.65 338.06,206.71C344.43,216.6 349.78,227.1 355.93,237.13C357.51,240.01 359.42,242.73 360.57,245.83C360.14,245.63 359.27,245.22 358.84,245.01C352.04,234.14 345.98,222.81 339.3,211.86C336.81,216.33 336.88,221.58 335.4,226.38C334.08,230.71 332.75,235.05 331.16,239.3C328.04,246.8 323.6,253.64 319.63,260.69C318.8,262.47 316.97,263.24 315.34,264.09C322.47,253.69 329,242.7 332.66,230.56Z" style="fill:rgb(65,186,204);fill-rule:nonzero;"/>
    <path d="M335.4,226.38C336.88,221.58 336.81,216.33 339.3,211.86C345.98,222.81 352.04,234.14 358.84,245.01C359.27,245.22 360.14,245.63 360.57,245.83L360.93,246C369.44,261.48 378.54,276.65 387.27,292.01C388,293.25 387.88,294.86 387.08,296.05C377.28,312.6 367.86,329.37 358.17,345.99C356.46,349.29 354.07,352.25 352.95,355.85L352.8,355.09C352.73,354.72 352.6,354 352.53,353.63C346.92,361.59 342.58,370.34 337.83,378.82C336.56,381.12 335.14,383.37 333.31,385.28C331.22,385 329.12,384.74 327.01,384.69C297.36,384.88 267.71,384.73 238.06,384.78C234.93,384.71 231.72,385.09 228.66,384.37C224.46,380.02 221.81,374.46 218.93,369.21C212.58,358.52 206.36,347.73 200.04,337.01C196.71,329.91 191.83,323.69 188.46,316.62C186.55,312.63 183.35,309.24 182.3,304.87C181.72,302.45 184.61,300.36 186.8,301.48C194.49,304.3 202.33,306.95 210.55,307.71C218.59,309.52 226.87,309.54 235.06,309.3C244.15,308.63 252.94,306 261.75,303.83C278.35,298.01 294.2,289.16 306.49,276.41C309.53,273.15 313.59,270.29 314.32,265.58C314.65,265.08 314.99,264.58 315.34,264.09C316.97,263.24 318.8,262.47 319.63,260.69C323.6,253.64 328.04,246.8 331.16,239.3C332.75,235.05 334.08,230.71 335.4,226.38Z" style="fill:rgb(0,187,218);fill-rule:nonzero;"/>
    <path d="M411.5,211.92C420.76,211.97 430.02,211.84 439.28,211.98C439.26,215.52 439.25,219.06 439.31,222.6C430.02,222.84 420.71,222.8 411.42,222.61C411.52,219.05 411.52,215.48 411.5,211.92Z" style="fill:rgb(32,95,172);fill-rule:nonzero;"/>
    <path d="M483.95,211.96C493.15,211.98 502.36,211.73 511.56,212.11C511.48,215.65 511.48,219.19 511.52,222.74C502.37,222.78 493.21,222.72 484.06,222.76C483.88,219.16 483.92,215.56 483.95,211.96Z" style="fill:rgb(32,95,172);fill-rule:nonzero;"/>
    <path d="M538.29,211.93C547.6,211.94 556.91,211.9 566.22,211.94C567.26,215.47 567.88,219.11 567.84,222.8C557.99,222.65 548.13,222.78 538.27,222.73C538.25,219.13 538.25,215.52 538.29,211.93Z" style="fill:rgb(32,95,172);fill-rule:nonzero;"/>
    <path d="M591.76,211.95C601,211.91 610.24,211.91 619.48,211.94C619.51,215.49 619.49,219.05 619.56,222.6C610.31,222.92 601.04,222.64 591.78,222.73C591.72,219.14 591.72,215.54 591.76,211.95Z" style="fill:rgb(32,95,172);fill-rule:nonzero;"/>
    <path d="M630.42,211.93C641.43,211.92 652.44,211.92 663.45,211.93C662.22,215.54 660.94,219.12 659.69,222.72C651.22,222.77 642.74,222.71 634.27,222.74C632.99,219.13 631.71,215.53 630.42,211.93Z" style="fill:rgb(32,95,172);fill-rule:nonzero;"/>
    <path d="M674.25,212C683.52,211.86 692.79,211.95 702.06,211.94C702.07,215.54 702.12,219.15 701.95,222.75C692.72,222.7 683.5,222.77 674.27,222.72C674.25,219.15 674.25,215.57 674.25,212Z" style="fill:rgb(32,95,172);fill-rule:nonzero;"/>
    <path d="M910.09,215.06C915.01,212.1 922.15,212.58 926.19,216.84C928.64,219.44 929.12,223.1 929.52,226.5C921.12,226.48 912.72,226.53 904.32,226.47C904.82,222.19 906.23,217.49 910.09,215.06Z" style="fill:white;fill-rule:nonzero;"/>
    <path d="M770.66,225.4C777.09,225.1 783.54,225.3 789.99,225.26C794.48,225.35 800.05,226.38 802.07,230.99C803.46,234.38 803.42,238.48 801.83,241.81C799.8,245.71 795.09,247.09 790.99,247.21C784.24,247.31 777.49,247.21 770.75,247.25C770.72,239.96 770.84,232.68 770.66,225.4Z" style="fill:white;fill-rule:nonzero;"/>
    <path d="M392.98,230.04C414.42,229.76 435.85,230.04 457.29,229.9C457.27,233.53 457.34,237.16 457.16,240.79C435.77,240.68 414.38,240.77 392.98,240.74C392.88,237.17 392.87,233.6 392.98,230.04Z" style="fill:rgb(32,95,172);fill-rule:nonzero;"/>
    <path d="M465.51,229.94C499.46,230.02 533.42,229.71 567.36,230.1C566.43,233.75 565.12,237.29 563.41,240.64C530.75,240.77 498.07,240.88 465.41,240.59C465.51,237.04 465.49,233.49 465.51,229.94Z" style="fill:rgb(32,95,172);fill-rule:nonzero;"/>
    <path d="M573.72,230.07C588.97,229.74 604.23,230.04 619.48,229.91C619.5,233.47 619.48,237.03 619.57,240.6C604.34,240.97 589.1,240.58 573.87,240.78C573.65,237.21 573.74,233.64 573.72,230.07Z" style="fill:rgb(32,95,172);fill-rule:nonzero;"/>
    <path d="M636.86,229.95C643.57,229.93 650.29,229.87 657.01,229.99C655.83,233.57 654.5,237.1 653.34,240.68C649.08,240.77 644.81,240.83 640.55,240.61C639.42,237.02 638.06,233.51 636.86,229.95Z" style="fill:rgb(32,95,172);fill-rule:nonzero;"/>
    <path d="M674.27,230.03C689.53,229.82 704.8,229.92 720.06,230C720.1,233.58 720.1,237.17 719.96,240.76C704.72,240.71 689.49,240.75 674.26,240.74C674.24,237.17 674.25,233.6 674.27,230.03Z" style="fill:rgb(32,95,172);fill-rule:nonzero;"/>
    <path d="M736.37,235.46C743.58,232.88 751.91,239.32 751.12,246.98C751.25,253.72 744.46,259.28 737.88,257.95C730.97,257.13 726.4,249.28 728.75,242.79C729.91,239.3 732.83,236.49 736.37,235.46Z" style="fill:rgb(63,109,148);fill-rule:nonzero;"/>
    <path d="M735.55,238.18C741.61,234.93 749.68,240.32 748.97,247.15C748.82,253.92 740.17,258.29 734.67,254.27C729.46,251.11 729.3,243.4 733.65,239.41C734.01,243.72 734.04,248.06 734.68,252.35C735.21,252.46 736.26,252.66 736.79,252.77C736.91,250.98 737.02,249.18 737.15,247.4C738.82,247.49 740.49,247.59 742.17,247.7C742.37,249.18 742.57,250.66 742.77,252.15C743.32,252.32 744.42,252.65 744.97,252.82C744.86,250.59 744.63,248.38 744.24,246.19C745.31,243.92 745.45,240.33 742.26,239.89C740.03,239.25 737.78,238.74 735.55,238.18Z" style="fill:rgb(241,255,255);fill-rule:nonzero;"/>
    <path d="M735.35,238.13L735.55,238.18C737.78,238.74 740.03,239.25 742.26,239.89C739.83,239.86 737.41,239.96 734.99,240.04C735.03,244.14 735.04,248.26 734.68,252.35C734.04,248.06 734.01,243.72 733.65,239.41C734.07,239.09 734.92,238.45 735.35,238.13Z" style="fill:rgb(187,223,249);fill-rule:nonzero;"/>
    <path d="M734.99,240.04C737.41,239.96 739.83,239.86 742.26,239.89C745.45,240.33 745.31,243.92 744.24,246.19C744.63,248.38 744.86,250.59 744.97,252.82C744.42,252.65 743.32,252.32 742.77,252.15C742.57,250.66 742.37,249.18 742.17,247.7C740.49,247.59 738.82,247.49 737.15,247.4C737.02,249.18 736.91,250.98 736.79,252.77C736.26,252.66 735.21,252.46 734.68,252.35C735.04,248.26 735.03,244.14 734.99,240.04Z" style="fill:rgb(63,109,148);fill-rule:nonzero;"/>
    <path d="M737.08,241.87C739.44,241.29 742.92,241.53 742.82,244.7C740.98,245.44 739.02,245.64 737.07,245.68C737.03,244.41 737.03,243.14 737.08,241.87Z" style="fill:rgb(231,255,255);fill-rule:nonzero;"/>
    <path d="M392.99,247.25C414.4,247.27 435.81,247.28 457.22,247.25C457.29,250.8 457.27,254.36 457.3,257.92C435.89,258.27 414.46,257.98 393.05,258.08C392.84,254.47 392.86,250.86 392.99,247.25Z" style="fill:rgb(32,95,172);fill-rule:nonzero;"/>
    <path d="M465.43,247.38C496.37,247.11 527.31,247.33 558.26,247.28C551.83,254.08 542.48,258.54 533.02,258.1C510.51,258.02 488,258.14 465.49,258.04C465.49,254.49 465.52,250.93 465.43,247.38Z" style="fill:rgb(32,95,172);fill-rule:nonzero;"/>
    <path d="M573.64,247.45C588.91,247.01 604.22,247.33 619.51,247.28C619.48,250.82 619.48,254.36 619.55,257.89C604.3,258.3 589.03,257.94 573.77,258.08C573.75,254.54 573.76,250.99 573.64,247.45Z" style="fill:rgb(32,95,172);fill-rule:nonzero;"/>
    <path d="M643.04,247.19C645.64,247.23 648.25,247.26 650.87,247.3C649.63,250.94 648.49,254.62 646.87,258.11C645.52,254.5 644.21,250.87 643.04,247.19Z" style="fill:rgb(32,95,172);fill-rule:nonzero;"/>
    <path d="M674.26,247.26C689.5,247.26 704.75,247.27 719.99,247.26C720.1,250.86 720.09,254.46 720.01,258.06C704.76,258.02 689.51,258.2 674.27,257.98C674.25,254.4 674.25,250.83 674.26,247.26Z" style="fill:rgb(32,95,172);fill-rule:nonzero;"/>
    <path d="M268.17,299.49C286.29,292.62 301.94,280.34 314.32,265.58C313.59,270.29 309.53,273.15 306.49,276.41C294.2,289.16 278.35,298.01 261.75,303.83C252.94,306 244.15,308.63 235.06,309.3C226.87,309.54 218.59,309.52 210.55,307.71C202.33,306.95 194.49,304.3 186.8,301.48C184.61,300.36 181.72,302.45 182.3,304.87C183.35,309.24 186.55,312.63 188.46,316.62C191.83,323.69 196.71,329.91 200.04,337.01C206.36,347.73 212.58,358.52 218.93,369.21C221.81,374.46 224.46,380.02 228.66,384.37C231.72,385.09 234.93,384.71 238.06,384.78C267.71,384.73 297.36,384.88 327.01,384.69C329.12,384.74 331.22,385 333.31,385.28C331.91,385.56 330.48,385.73 329.06,385.78C300.39,385.78 271.71,385.79 243.04,385.8C237.33,385.82 231.62,386 225.94,385.4C225.71,385.37 225.25,385.33 225.02,385.3C224.26,382.36 222.49,379.88 220.95,377.31C214.05,365.45 207.3,353.5 200.42,341.63C200.39,341.59 200.35,341.51 200.33,341.47L199.36,339.72C199.34,339.68 199.3,339.6 199.28,339.56C190.75,324.91 182.23,310.24 173.9,295.49C173.7,294.95 173.29,293.88 173.09,293.35C173.34,293.37 173.86,293.4 174.12,293.42C202.45,309.42 238.01,311.56 268.17,299.49Z" style="fill:rgb(17,181,208);fill-rule:nonzero;"/>
    <path d="M179.73,282.18C181.79,277.39 184.55,272.96 187.49,268.67C186.84,271.76 185.42,274.58 183.9,277.32C185.33,277.28 186.76,277.26 188.2,277.23C187.08,278.04 185.98,278.85 184.84,279.62C183.21,280.62 181.48,281.42 179.73,282.18Z" style="fill:rgb(83,187,202);fill-rule:nonzero;"/>
    <path d="M159.94,288.93C161.63,288.97 163.17,288.21 164.7,287.62C165.93,288.42 167.3,289.11 168.17,290.35C136.78,290.39 105.39,290.36 74,290.37C69.7,290.29 65.38,290.58 61.09,290.13C64.6,287.81 69.05,289.18 73,288.87C101.98,288.95 130.96,288.87 159.94,288.93Z" style="fill:rgb(65,76,82);fill-rule:nonzero;"/>
    <path d="M199.28,339.56C199.3,339.6 199.34,339.68 199.36,339.72C199.34,339.68 199.3,339.6 199.28,339.56Z" style="fill:rgb(106,202,218);fill-rule:nonzero;"/>
    <path d="M200.33,341.47C200.35,341.51 200.39,341.59 200.42,341.63C200.39,341.59 200.35,341.51 200.33,341.47Z" style="fill:rgb(115,208,226);fill-rule:nonzero;"/>
    <path d="M337.83,378.82C342.58,370.34 346.92,361.59 352.53,353.63C352.6,354 352.73,354.72 352.8,355.09C351.36,358.64 349.08,361.76 347.27,365.13C343.35,371.59 339.97,378.36 335.87,384.71C335.31,385.49 334.75,386.27 334.19,387.05C298.2,386.87 262.21,387.17 226.22,386.89L225.94,385.4C231.62,386 237.33,385.82 243.04,385.8C271.71,385.79 300.39,385.78 329.06,385.78C330.48,385.73 331.91,385.56 333.31,385.28C335.14,383.37 336.56,381.12 337.83,378.82Z" style="fill:rgb(52,170,187);fill-rule:nonzero;"/>
</svg>
