<?xml version="1.0" standalone="no"?>
<!DOCTYPE svg PUBLIC "-//W3C//DTD SVG 1.1//EN" "http://www.w3.org/Graphics/SVG/1.1/DTD/svg11.dtd">
<svg width="100%" height="100%" viewBox="0 0 400 220" version="1.1" xmlns="http://www.w3.org/2000/svg" xmlns:xlink="http://www.w3.org/1999/xlink" xml:space="preserve" style="fill-rule:evenodd;clip-rule:evenodd;stroke-linejoin:round;stroke-miterlimit:1.41421;">
    <g>
        <path d="M85.4044,75.7274C89.8805,67.9788 94.325,60.2112 98.8361,52.4817C110.263,52.5355 121.689,52.412 133.112,52.545C134.902,56.0265 137.066,59.3084 138.897,62.7709C138.973,63.1225 139.043,63.4773 139.109,63.8321C137.351,61.1933 135.865,58.3739 134.196,55.6749C133.527,54.6326 133.096,52.8776 131.544,52.9854C121.727,52.9663 111.907,52.96 102.086,52.9663C101.073,53.0455 99.9765,52.8745 99.0325,53.3021C98.3577,54.0656 97.9839,55.035 97.4739,55.9061C93.8023,62.2735 90.1118,68.6314 86.4371,74.9988C85.6895,76.3895 84.7581,77.6978 84.2766,79.2152C86.4244,78.5405 88.5025,77.6281 90.7137,77.1751C92.6999,76.8045 94.664,76.2723 96.6978,76.2248C102.523,75.9682 108.511,76.7475 113.792,79.3419C113.633,79.399 113.313,79.5193 113.155,79.5795C106.528,76.6651 98.9818,75.8256 91.9016,77.3874C88.6863,77.9956 85.6578,79.2628 82.6958,80.6123C83.5321,78.946 84.5395,77.3779 85.4044,75.7274Z" style="fill:rgb(49,179,165);fill-rule:nonzero;"/>
        <path d="M99.0325,53.3021C99.9765,52.8745 101.073,53.0455 102.086,52.9663C111.907,52.96 121.727,52.9663 131.544,52.9854C133.096,52.8776 133.527,54.6326 134.196,55.6749C135.865,58.3739 137.351,61.1933 139.109,63.8321C139.043,63.4773 138.973,63.1225 138.897,62.7709C142.48,68.9735 146.04,75.2047 149.642,81.4074C150.095,81.9491 149.766,82.6302 149.446,83.1402C147.897,85.7442 146.459,88.4115 144.862,90.987C144.818,91.779 144.707,92.856 143.753,93.0398C141.973,96.0112 140.281,99.0302 138.542,102.021C138.184,102.623 137.918,103.294 137.417,103.798C136.214,104.802 135.751,106.361 134.725,107.511C134.376,106.874 134.079,106.205 133.949,105.486C133.42,102.92 132.884,100.323 131.788,97.9246C131.57,97.4843 131.186,97.1612 130.869,96.7969C127.274,89.1908 120.916,82.8773 113.155,79.5795C113.313,79.5193 113.633,79.399 113.792,79.3419C108.511,76.7475 102.523,75.9682 96.6978,76.2248C94.664,76.2723 92.6999,76.8045 90.7137,77.1751C88.5025,77.6281 86.4244,78.5405 84.2766,79.2152C84.7581,77.6978 85.6895,76.3895 86.4371,74.9988C90.1118,68.6314 93.8023,62.2735 97.4739,55.9061C97.9839,55.035 98.3577,54.0656 99.0325,53.3021Z" style="fill:rgb(1,190,170);fill-rule:nonzero;"/>
        <path d="M82.8669,81.9174C90.8372,77.5299 100.601,76.5922 109.271,79.3388C114.222,80.9227 118.838,83.6217 122.554,87.2679C128.227,92.6184 131.848,100.05 132.739,107.789C132.916,109.091 132.976,110.406 132.935,111.721C131.858,111.325 130.882,110.72 129.913,110.124C114.888,101.454 99.8783,92.7515 84.8595,84.0684C83.9947,83.5394 83.1172,83.0325 82.189,82.6238C82.3917,82.3641 82.6166,82.1297 82.8669,81.9174Z" style="fill:rgb(1,190,170);fill-rule:nonzero;"/>
        <path d="M29.4378,111.835C35.1463,101.973 40.7755,92.0672 46.5347,82.2374C57.6697,82.3292 68.8079,82.2215 79.9461,82.2912C74.2218,86.0863 69.5777,91.5414 66.8946,97.8771C63.8439,104.9 63.2357,112.947 65.1586,120.356C67.1607,128.504 72.2989,135.771 79.1763,140.548C78.6917,140.735 78.2038,140.976 77.6684,140.963C68.488,140.944 59.3075,140.969 50.1271,140.944C48.8758,141.042 47.4661,140.608 46.3542,141.343C40.8167,131.45 35.0291,121.696 29.4378,111.835Z" style="fill:rgb(75,93,103);fill-rule:nonzero;"/>
        <path d="M65.469,107.393C66.7267,97.5286 72.5112,88.2405 81.02,83.0293C81.1309,89.8878 80.9915,96.7525 81.2418,103.608C81.302,112.69 81.378,121.772 81.4192,130.855C81.3812,132.543 81.5998,134.228 81.5554,135.92C81.5016,137.402 81.7613,138.923 81.34,140.374C80.9757,140.282 80.6082,140.178 80.3104,139.937C75.3464,136.585 71.2313,131.957 68.6305,126.549C65.7446,120.651 64.6074,113.906 65.469,107.393Z" style="fill:rgb(75,93,103);fill-rule:nonzero;"/>
        <path d="M83.3547,84.664C86.4719,86.2606 89.456,88.1138 92.4877,89.8751C90.9513,90.062 89.8172,88.9057 88.4708,88.4464C87.8246,88.6713 87.4286,89.2827 86.9534,89.7389C89.399,93.9965 91.9492,98.2002 94.4074,102.448C95.0346,104.07 96.2764,105.47 96.4063,107.26C92.0157,99.7525 87.6915,92.2066 83.3547,84.664Z" style="fill:rgb(12,184,168);fill-rule:nonzero;"/>
        <path d="M82.2048,85.1106L82.3917,85.4084C87.4223,94.0725 92.399,102.765 97.4169,111.432C97.7115,111.768 97.4897,112.139 97.306,112.465C92.7601,120.334 88.2174,128.206 83.6937,136.088C83.3706,136.674 83.0348,137.25 82.6705,137.811C82.5248,120.245 82.2238,102.68 82.2048,85.1106Z" style="fill:rgb(75,93,103);fill-rule:nonzero;"/>
        <path d="M86.9534,89.7389C87.4286,89.2827 87.8246,88.6713 88.4708,88.4464C89.8172,88.9057 90.9513,90.062 92.4877,89.8751C103.236,96.0397 113.95,102.274 124.676,108.477C124.857,109.804 126.587,109.969 127.48,110.723C126.932,111.176 126.197,111.157 125.522,111.166C117.397,111.078 109.268,111.185 101.142,111.116C100.189,111.128 99.2479,110.967 98.3419,110.678C97.7083,109.532 97.0114,108.423 96.4063,107.26C96.2764,105.47 95.0346,104.07 94.4074,102.448C91.9492,98.2002 89.399,93.9965 86.9534,89.7389Z" style="fill:rgb(1,190,170);fill-rule:nonzero;"/>
        <path d="M151.476,88.7347C158.268,88.6333 165.067,88.722 171.862,88.6903C171.858,89.8149 171.852,90.9395 171.884,92.0609C165.098,92.1908 158.306,92.0767 151.514,92.1211C151.445,90.9933 151.457,89.8624 151.476,88.7347Z" style="fill:rgb(32,95,172);fill-rule:nonzero;"/>
        <path d="M174.466,88.6935C180.111,88.6903 185.756,88.6903 191.404,88.6935C194.493,88.6808 197.743,88.5699 200.6,89.9479C201.734,90.496 202.802,91.1961 203.689,92.0957C193.945,92.1274 184.197,92.1433 174.453,92.0831C174.469,90.9522 174.462,89.8212 174.466,88.6935Z" style="fill:rgb(32,95,172);fill-rule:nonzero;"/>
        <path d="M208.767,88.6966C214.187,88.684 219.611,88.6966 225.031,88.6903C225.443,89.8339 225.87,90.9712 226.27,92.1179C220.447,92.1243 214.628,92.1021 208.805,92.1274C208.72,90.9838 208.751,89.8402 208.767,88.6966Z" style="fill:rgb(32,95,172);fill-rule:nonzero;"/>
        <path d="M237.636,92.1116C238.041,90.9775 238.456,89.8434 238.862,88.7093C244.269,88.6713 249.683,88.6966 255.094,88.6966C255.119,89.8371 255.129,90.9807 255.072,92.1211C249.259,92.1084 243.449,92.1274 237.636,92.1116Z" style="fill:rgb(32,95,172);fill-rule:nonzero;"/>
        <path d="M144.212,91.0123C144.808,91.5889 144.178,92.2636 143.842,92.78C143.405,93.3566 143.215,94.1612 142.515,94.4938C142.961,93.2774 143.636,92.1654 144.212,91.0123Z" style="fill:rgb(51,181,166);fill-rule:nonzero;"/>
        <path d="M151.476,94.2657C158.271,94.2467 165.063,94.2562 171.858,94.2626C171.858,95.3935 171.858,96.5276 171.858,97.6617C165.063,97.6712 158.268,97.6839 151.473,97.6553C151.467,96.5244 151.47,95.3967 151.476,94.2657Z" style="fill:rgb(32,95,172);fill-rule:nonzero;"/>
        <path d="M174.466,94.2594C184.79,94.2499 195.11,94.2626 205.431,94.2531C206.049,95.308 206.461,96.4642 206.727,97.6585C195.975,97.6807 185.22,97.6743 174.469,97.6585C174.459,96.5244 174.459,95.3935 174.466,94.2594Z" style="fill:rgb(32,95,172);fill-rule:nonzero;"/>
        <path d="M208.758,94.2689C214.843,94.2309 220.929,94.2847 227.014,94.2404C227.473,95.365 227.895,96.5054 228.278,97.6585C221.771,97.6839 215.261,97.6712 208.754,97.6617C208.748,96.5308 208.751,95.3998 208.758,94.2689Z" style="fill:rgb(32,95,172);fill-rule:nonzero;"/>
        <path d="M236.803,94.2911C242.901,94.2214 249.002,94.2626 255.103,94.2689C255.11,95.3967 255.11,96.5276 255.107,97.6585C248.603,97.6775 242.099,97.6775 235.599,97.6617C236.011,96.5403 236.423,95.422 236.803,94.2911Z" style="fill:rgb(32,95,172);fill-rule:nonzero;"/>
        <path d="M130.869,96.7969C131.186,97.1612 131.57,97.4843 131.788,97.9246C132.884,100.323 133.42,102.92 133.949,105.486C134.079,106.205 134.376,106.874 134.725,107.511C135.751,106.361 136.214,104.802 137.417,103.798C137.174,104.789 136.505,105.584 136.033,106.471C135.39,107.517 134.905,108.673 134.082,109.592C133.926,108.074 133.73,106.557 133.439,105.055C132.967,102.195 131.94,99.4769 130.869,96.7969Z" style="fill:rgb(63,185,172);fill-rule:nonzero;"/>
        <path d="M139.812,99.2583C139.983,99.4103 139.983,99.4103 139.812,99.2583Z" style="fill:rgb(83,193,180);fill-rule:nonzero;"/>
        <path d="M157.343,99.9204C160.274,99.8443 163.207,99.9045 166.14,99.8823C166.156,101.026 166.153,102.17 166.159,103.313C163.226,103.304 160.293,103.313 157.359,103.307C157.356,102.179 157.362,101.048 157.343,99.9204Z" style="fill:rgb(32,95,172);fill-rule:nonzero;"/>
        <path d="M180.342,99.8728C183.244,99.895 186.142,99.8665 189.044,99.8887C189.031,101.013 189.031,102.138 189.057,103.262C186.142,103.367 183.225,103.281 180.31,103.307C180.298,102.163 180.288,101.016 180.342,99.8728Z" style="fill:rgb(32,95,172);fill-rule:nonzero;"/>
        <path d="M214.498,99.8697C219.36,99.9045 224.223,99.876 229.086,99.8823C229.526,101.013 229.928,102.16 230.343,103.3C225.05,103.313 219.756,103.329 214.463,103.294C214.453,102.151 214.428,101.01 214.498,99.8697Z" style="fill:rgb(32,95,172);fill-rule:nonzero;"/>
        <path d="M234.82,99.8855C239.676,99.8823 244.532,99.8887 249.385,99.8823C249.423,101.02 249.417,102.16 249.392,103.3C244.124,103.313 238.859,103.335 233.59,103.278C233.961,102.135 234.379,101.007 234.82,99.8855Z" style="fill:rgb(32,95,172);fill-rule:nonzero;"/>
        <path d="M197.524,99.8919C200.648,99.8665 203.775,99.914 206.901,99.8633C206.882,101.032 206.714,102.192 206.382,103.31C203.429,103.307 200.48,103.31 197.528,103.31C197.509,102.17 197.505,101.029 197.524,99.8919Z" style="fill:rgb(32,95,172);fill-rule:nonzero;"/>
        <path d="M157.359,105.42C160.293,105.426 163.229,105.41 166.163,105.429C166.153,106.56 166.156,107.694 166.156,108.828C163.226,108.844 160.293,108.841 157.362,108.828C157.35,107.691 157.356,106.557 157.359,105.42Z" style="fill:rgb(32,95,172);fill-rule:nonzero;"/>
        <path d="M180.301,105.423C188.673,105.429 197.046,105.398 205.416,105.436C204.605,106.757 203.607,108.09 202.216,108.816C194.914,108.851 187.609,108.847 180.307,108.819C180.304,107.688 180.304,106.554 180.301,105.423Z" style="fill:rgb(32,95,172);fill-rule:nonzero;"/>
        <path d="M214.46,105.423C220.004,105.404 225.544,105.451 231.088,105.401C231.408,106.136 231.614,106.921 231.972,107.644C232.764,108.641 234.053,108.176 235.127,108.138C236.48,108.008 237.854,108.239 239.201,108.008C239.606,107.796 239.904,107.428 240.243,107.127C240.294,107.232 240.344,107.339 240.398,107.444C240.252,107.903 240.107,108.363 239.964,108.822C234.62,108.841 229.276,108.866 223.935,108.809C223.735,108.214 223.545,107.618 223.368,107.02C224.068,107.476 224.689,108.242 225.62,108.097C227.613,107.967 229.618,108.363 231.601,108.017C231.363,107.428 231.148,106.823 230.819,106.278C230.277,106.063 229.685,106.098 229.117,106.082C224.892,106.126 220.666,106.12 216.44,106.072C215.904,106.139 214.894,106.006 214.91,106.795C214.884,107.343 215.119,108.128 215.809,108.04C217.998,108.204 220.203,108.185 222.389,107.957C222.579,107.625 222.769,107.292 222.975,106.966C223.042,106.972 223.178,106.982 223.244,106.988C223.254,107.599 223.26,108.211 223.266,108.822C220.327,108.841 217.387,108.863 214.447,108.806C214.457,107.678 214.457,106.551 214.46,105.423Z" style="fill:rgb(32,95,172);fill-rule:nonzero;"/>
        <path d="M231.972,107.644C232.241,106.893 232.517,106.145 232.814,105.404C238.342,105.445 243.87,105.404 249.398,105.426C249.417,106.57 249.436,107.713 249.335,108.854C246.433,108.819 243.534,108.841 240.633,108.838C240.572,108.372 240.652,107.862 240.398,107.444C240.344,107.339 240.294,107.232 240.243,107.127C239.904,107.428 239.606,107.796 239.201,108.008C237.854,108.239 236.48,108.008 235.127,108.138C234.053,108.176 232.764,108.641 231.972,107.644Z" style="fill:rgb(32,95,172);fill-rule:nonzero;"/>
        <path d="M214.91,106.795C214.894,106.006 215.904,106.139 216.44,106.072C220.666,106.12 224.892,106.126 229.117,106.082C229.685,106.098 230.277,106.063 230.819,106.278C231.148,106.823 231.363,107.428 231.601,108.017C229.618,108.363 227.613,107.967 225.62,108.097C224.689,108.242 224.068,107.476 223.368,107.02L223.244,106.988C223.178,106.982 223.042,106.972 222.975,106.966C222.769,107.292 222.579,107.625 222.389,107.957C220.203,108.185 217.998,108.204 215.809,108.04C215.119,108.128 214.884,107.343 214.91,106.795Z" style="fill:rgb(32,95,172);fill-rule:nonzero;"/>
        <path d="M267.357,108.36C270.765,108.35 274.174,108.363 277.586,108.353C279.661,108.356 282.008,108.797 283.37,110.514C285.217,113.083 284.691,117.407 281.65,118.842C283.082,119.412 284.447,120.394 284.967,121.908C285.73,124.196 285.505,127.002 283.82,128.84C282.341,130.49 280.044,131.174 277.88,131.171C274.374,131.162 270.864,131.165 267.357,131.168C267.366,123.565 267.369,115.962 267.357,108.36Z" style="fill:rgb(80,80,80);fill-rule:nonzero;"/>
        <path d="M287.403,108.353C288.591,108.353 289.779,108.356 290.97,108.353C290.96,115.959 290.957,123.562 290.97,131.168C289.779,131.165 288.588,131.165 287.397,131.168C287.403,123.562 287.397,115.956 287.403,108.353Z" style="fill:rgb(80,80,80);fill-rule:nonzero;"/>
        <path d="M327.315,108.356C329.171,108.369 331.034,108.331 332.893,108.375C334.639,114.394 336.53,120.369 338.26,126.394C340.192,120.41 341.947,114.369 343.8,108.36C345.673,108.36 347.542,108.344 349.414,108.369C349.411,115.962 349.407,123.559 349.414,131.155C348.169,131.171 346.927,131.165 345.685,131.165C345.615,125.099 345.844,119.013 345.568,112.956C343.889,119.045 341.925,125.054 340.195,131.13C338.903,131.193 337.61,131.174 336.321,131.143C334.537,125.003 332.703,118.883 330.894,112.753C330.86,118.89 330.882,125.026 330.882,131.162C329.691,131.168 328.503,131.168 327.315,131.165C327.315,123.562 327.315,115.959 327.315,108.356Z" style="fill:rgb(80,80,80);fill-rule:nonzero;"/>
        <path d="M352.347,108.35C353.567,108.353 354.786,108.337 356.006,108.382C355.978,109.586 355.984,110.792 355.984,111.996C354.777,112.003 353.576,111.99 352.373,112.018C352.319,110.796 352.331,109.573 352.347,108.35Z" style="fill:rgb(80,80,80);fill-rule:nonzero;"/>
        <path d="M127.48,110.723C126.587,109.969 124.857,109.804 124.676,108.477C126.054,109.247 127.42,110.039 128.791,110.818C129.206,111.068 129.621,111.325 130.033,111.588C119.652,111.695 109.268,111.607 98.8836,111.635C98.703,111.315 98.5225,110.998 98.3419,110.678C99.2479,110.967 100.189,111.128 101.142,111.116C109.268,111.185 117.397,111.078 125.522,111.166C126.197,111.157 126.932,111.176 127.48,110.723Z" style="fill:rgb(39,171,159);fill-rule:nonzero;"/>
        <path d="M180.358,111.03C187.59,111.09 194.829,110.992 202.061,111.078C203.483,111.793 204.519,113.134 205.403,114.435C197.037,114.496 188.667,114.432 180.301,114.467C180.298,113.32 180.279,112.174 180.358,111.03Z" style="fill:rgb(32,95,172);fill-rule:nonzero;"/>
        <path d="M224.765,111.055C229.551,111.049 234.341,111.03 239.131,111.062C238.751,112.196 238.323,113.317 237.953,114.455C233.952,114.467 229.951,114.458 225.95,114.458C225.56,113.32 225.151,112.193 224.765,111.055Z" style="fill:rgb(32,95,172);fill-rule:nonzero;"/>
        <path d="M157.359,111.055C160.289,111.04 163.223,111.046 166.153,111.055C166.156,112.189 166.159,113.324 166.159,114.461C163.226,114.467 160.293,114.448 157.362,114.467C157.353,113.33 157.353,112.193 157.359,111.055Z" style="fill:rgb(32,95,172);fill-rule:nonzero;"/>
        <path d="M214.46,111.049C217.39,111.043 220.32,111.052 223.251,111.046C223.254,112.183 223.254,113.324 223.247,114.464C220.32,114.451 217.39,114.461 214.463,114.464C214.45,113.324 214.45,112.186 214.46,111.049Z" style="fill:rgb(32,95,172);fill-rule:nonzero;"/>
        <path d="M240.607,114.442C240.588,113.301 240.56,112.158 240.652,111.021C243.569,111.084 246.487,111.017 249.408,111.055C249.408,112.189 249.414,113.324 249.392,114.461C246.461,114.451 243.534,114.483 240.607,114.442Z" style="fill:rgb(32,95,172);fill-rule:nonzero;"/>
        <path d="M271.168,111.603C273.201,111.622 275.235,111.575 277.269,111.619C278.422,111.679 279.778,112.053 280.304,113.194C280.744,114.302 280.627,115.703 279.819,116.618C278.986,117.439 277.735,117.562 276.629,117.616C274.804,117.635 272.983,117.616 271.164,117.619C271.177,115.614 271.152,113.609 271.168,111.603Z" style="fill:white;fill-rule:nonzero;"/>
        <path d="M86.3959,134.545C90.5046,127.322 94.683,120.141 98.8297,112.937C109.081,112.953 119.335,112.924 129.586,112.956L129.263,113.32C115.363,121.208 101.402,128.995 87.4793,136.851C86.8331,137.231 86.1995,137.631 85.5564,138.014C85.9175,137.77 86.266,137.513 86.6208,137.257C86.1646,137.266 85.7116,137.273 85.2586,137.285C85.7401,136.417 86.19,135.524 86.3959,134.545Z" style="fill:rgb(0,187,218);fill-rule:nonzero;"/>
        <path d="M130.35,114.071C131.174,113.599 132.026,113.168 132.935,112.886C132.837,115.62 132.419,118.354 131.671,120.987C129.938,126.831 126.716,132.245 122.24,136.401C115.952,142.379 107.272,145.728 98.6048,145.591C93.1624,145.572 87.8246,144.014 82.9904,141.575C82.9239,141.422 82.794,141.112 82.7275,140.957C84.4508,139.797 86.3389,138.926 88.116,137.862C102.191,129.926 116.313,122.073 130.35,114.071Z" style="fill:rgb(0,187,218);fill-rule:nonzero;"/>
        <path d="M311.944,116.095C313.95,113.903 317.266,113.482 320.026,114.204C322.275,114.787 324.027,116.675 324.689,118.87C325.252,120.432 325.17,122.111 325.211,123.749C321.315,123.866 317.412,123.768 313.512,123.8C313.544,125.118 313.836,126.53 314.811,127.493C315.895,128.65 317.681,128.776 319.129,128.365C320.304,128.019 321.03,126.949 321.416,125.846C322.61,125.862 323.805,125.856 325.002,125.875C324.556,128.697 322.211,131.007 319.427,131.551C317.206,131.966 314.716,131.767 312.863,130.367C310.934,128.925 309.983,126.515 309.8,124.173C309.543,121.364 309.955,118.243 311.944,116.095Z" style="fill:rgb(80,80,80);fill-rule:nonzero;"/>
        <path d="M293.501,114.458C294.711,114.451 295.924,114.451 297.141,114.458C297.15,118.018 297.131,121.582 297.147,125.146C297.163,126.28 297.417,127.668 298.56,128.2C300.027,128.742 301.864,128.567 303.055,127.49C304.107,126.492 304.357,124.969 304.351,123.581C304.326,120.556 304.392,117.534 304.313,114.512C305.507,114.413 306.708,114.458 307.912,114.461C307.921,120.024 307.899,125.59 307.921,131.155C306.781,131.174 305.64,131.168 304.503,131.165C304.503,130.459 304.503,129.755 304.516,129.052C302.514,131.935 298.136,132.416 295.313,130.525C293.758,129.483 293.488,127.503 293.501,125.776C293.492,122.004 293.495,118.231 293.501,114.458Z" style="fill:rgb(80,80,80);fill-rule:nonzero;"/>
        <path d="M352.35,114.448C353.564,114.451 354.777,114.451 355.99,114.461C355.99,120.02 355.962,125.58 356.006,131.14C354.783,131.187 353.56,131.171 352.341,131.152C352.35,125.586 352.325,120.017 352.35,114.448Z" style="fill:rgb(80,80,80);fill-rule:nonzero;"/>
        <path d="M357.001,114.451C358.398,114.448 359.795,114.458 361.195,114.451C362.386,116.248 363.492,118.101 364.724,119.872C365.966,118.107 367.002,116.209 368.231,114.435C369.584,114.467 370.939,114.448 372.298,114.458C370.502,117.176 368.646,119.853 366.85,122.571C368.798,125.425 370.727,128.295 372.65,131.168C371.199,131.073 369.666,131.349 368.275,131.035C367.011,129.176 365.836,127.253 364.588,125.38C363.308,127.265 362.199,129.264 360.948,131.168C359.551,131.171 358.16,131.171 356.766,131.165C358.677,128.317 360.574,125.46 362.478,122.609C360.65,119.891 358.784,117.198 357.001,114.451Z" style="fill:rgb(80,80,80);fill-rule:nonzero;"/>
        <path d="M132.384,122.472C133.245,120.024 133.511,117.432 134.094,114.917C136.112,118.05 137.807,121.376 139.755,124.554C140.256,125.466 140.861,126.328 141.225,127.31C141.089,127.246 140.813,127.116 140.677,127.05C138.523,123.606 136.603,120.017 134.487,116.548C133.698,117.964 133.721,119.628 133.252,121.148C132.834,122.52 132.412,123.895 131.909,125.241C130.92,127.617 129.514,129.784 128.256,132.017C127.993,132.581 127.413,132.825 126.897,133.094C129.156,129.8 131.224,126.318 132.384,122.472Z" style="fill:rgb(65,186,204);fill-rule:nonzero;"/>
        <path d="M133.252,121.148C133.721,119.628 133.698,117.964 134.487,116.548C136.603,120.017 138.523,123.606 140.677,127.05C140.813,127.116 141.089,127.246 141.225,127.31L141.339,127.364C144.035,132.267 146.918,137.073 149.683,141.939C149.915,142.332 149.877,142.842 149.623,143.219C146.519,148.461 143.535,153.774 140.465,159.039C139.923,160.084 139.166,161.022 138.811,162.162L138.764,161.922C138.742,161.804 138.7,161.576 138.678,161.459C136.901,163.981 135.526,166.753 134.021,169.439C133.619,170.168 133.169,170.88 132.59,171.485C131.928,171.397 131.262,171.314 130.594,171.299C121.201,171.359 111.808,171.311 102.416,171.327C101.424,171.305 100.407,171.425 99.438,171.197C98.1075,169.819 97.268,168.058 96.3556,166.395C94.3441,163.008 92.3736,159.59 90.3716,156.194C89.3167,153.945 87.7707,151.975 86.7032,149.735C86.0981,148.471 85.0844,147.397 84.7518,146.013C84.568,145.246 85.4835,144.584 86.1773,144.939C88.6134,145.832 91.097,146.672 93.701,146.912C96.2479,147.486 98.8709,147.492 101.465,147.416C104.345,147.204 107.13,146.371 109.92,145.683C115.179,143.84 120.2,141.036 124.093,136.997C125.056,135.964 126.343,135.058 126.574,133.566C126.678,133.408 126.786,133.249 126.897,133.094C127.413,132.825 127.993,132.581 128.256,132.017C129.514,129.784 130.92,127.617 131.909,125.241C132.412,123.895 132.834,122.52 133.252,121.148Z" style="fill:rgb(0,187,218);fill-rule:nonzero;"/>
        <path d="M157.359,116.567C160.293,116.583 163.226,116.542 166.159,116.586C166.153,117.708 166.15,118.829 166.169,119.951C163.226,120.027 160.277,120.014 157.334,119.954C157.365,118.826 157.365,117.695 157.359,116.567Z" style="fill:rgb(32,95,172);fill-rule:nonzero;"/>
        <path d="M180.31,116.58C183.225,116.586 186.142,116.507 189.057,116.628C189.031,117.749 189.031,118.87 189.044,119.995C186.145,120.008 183.244,119.989 180.345,120.001C180.288,118.861 180.301,117.721 180.31,116.58Z" style="fill:rgb(32,95,172);fill-rule:nonzero;"/>
        <path d="M197.524,116.571C200.474,116.574 203.423,116.561 206.372,116.574C206.702,117.692 206.898,118.845 206.885,120.014C203.765,119.967 200.642,120.008 197.518,119.992C197.512,118.851 197.512,117.708 197.524,116.571Z" style="fill:rgb(32,95,172);fill-rule:nonzero;"/>
        <path d="M214.463,116.577C217.39,116.564 220.317,116.564 223.244,116.574C223.254,117.698 223.247,118.826 223.27,119.951C220.339,120.052 217.403,119.963 214.469,119.992C214.45,118.855 214.45,117.714 214.463,116.577Z" style="fill:rgb(32,95,172);fill-rule:nonzero;"/>
        <path d="M226.71,116.571C230.198,116.567 233.686,116.567 237.173,116.571C236.784,117.714 236.378,118.848 235.982,119.989C233.299,120.005 230.613,119.986 227.93,119.995C227.524,118.851 227.119,117.711 226.71,116.571Z" style="fill:rgb(32,95,172);fill-rule:nonzero;"/>
        <path d="M240.595,116.593C243.531,116.548 246.468,116.577 249.404,116.574C249.408,117.714 249.423,118.858 249.37,119.998C246.446,119.982 243.525,120.005 240.601,119.989C240.595,118.858 240.595,117.724 240.595,116.593Z" style="fill:rgb(32,95,172);fill-rule:nonzero;"/>
        <path d="M315.305,117.562C316.864,116.624 319.126,116.777 320.406,118.126C321.182,118.95 321.334,120.109 321.461,121.186C318.8,121.18 316.139,121.196 313.478,121.177C313.636,119.821 314.083,118.332 315.305,117.562Z" style="fill:white;fill-rule:nonzero;"/>
        <path d="M271.136,120.838C273.173,120.743 275.216,120.806 277.259,120.793C278.682,120.822 280.446,121.148 281.086,122.609C281.527,123.682 281.514,124.981 281.01,126.036C280.367,127.272 278.875,127.709 277.576,127.747C275.438,127.779 273.3,127.747 271.164,127.76C271.155,125.45 271.193,123.144 271.136,120.838Z" style="fill:white;fill-rule:nonzero;"/>
        <path d="M151.492,122.308C158.284,122.219 165.073,122.308 171.865,122.263C171.858,123.413 171.881,124.563 171.824,125.713C165.048,125.678 158.271,125.707 151.492,125.697C151.461,124.566 151.457,123.435 151.492,122.308Z" style="fill:rgb(32,95,172);fill-rule:nonzero;"/>
        <path d="M174.469,122.276C185.224,122.301 195.982,122.203 206.733,122.327C206.439,123.483 206.024,124.604 205.482,125.666C195.136,125.707 184.783,125.742 174.437,125.65C174.469,124.525 174.462,123.401 174.469,122.276Z" style="fill:rgb(32,95,172);fill-rule:nonzero;"/>
        <path d="M208.748,122.317C213.579,122.213 218.413,122.308 223.244,122.266C223.251,123.394 223.244,124.522 223.273,125.653C218.448,125.77 213.62,125.647 208.796,125.71C208.726,124.579 208.754,123.448 208.748,122.317Z" style="fill:rgb(32,95,172);fill-rule:nonzero;"/>
        <path d="M228.75,122.279C230.876,122.273 233.004,122.254 235.133,122.292C234.759,123.426 234.338,124.544 233.971,125.678C232.621,125.707 231.268,125.726 229.919,125.656C229.561,124.519 229.13,123.407 228.75,122.279Z" style="fill:rgb(32,95,172);fill-rule:nonzero;"/>
        <path d="M240.601,122.304C245.435,122.238 250.272,122.27 255.107,122.295C255.119,123.429 255.119,124.566 255.075,125.704C250.247,125.688 245.422,125.7 240.598,125.697C240.591,124.566 240.595,123.435 240.601,122.304Z" style="fill:rgb(32,95,172);fill-rule:nonzero;"/>
        <path d="M260.273,124.025C262.557,123.207 265.196,125.247 264.946,127.674C264.987,129.809 262.836,131.57 260.752,131.149C258.563,130.889 257.115,128.403 257.859,126.347C258.227,125.241 259.152,124.351 260.273,124.025Z" style="fill:rgb(63,109,148);fill-rule:nonzero;"/>
        <path d="M260.014,124.886C261.933,123.857 264.49,125.564 264.265,127.728C264.217,129.872 261.477,131.257 259.735,129.983C258.084,128.982 258.034,126.54 259.412,125.276C259.526,126.641 259.535,128.016 259.738,129.375C259.906,129.41 260.239,129.473 260.406,129.508C260.444,128.941 260.479,128.371 260.52,127.807C261.049,127.836 261.579,127.867 262.111,127.902C262.174,128.371 262.237,128.84 262.301,129.312C262.475,129.366 262.823,129.47 262.998,129.524C262.963,128.818 262.89,128.117 262.766,127.424C263.105,126.705 263.15,125.567 262.139,125.428C261.433,125.225 260.72,125.064 260.014,124.886Z" style="fill:rgb(241,255,255);fill-rule:nonzero;"/>
        <path d="M259.95,124.87L260.014,124.886C260.72,125.064 261.433,125.225 262.139,125.428C261.369,125.418 260.603,125.45 259.836,125.475C259.849,126.774 259.852,128.079 259.738,129.375C259.535,128.016 259.526,126.641 259.412,125.276C259.545,125.175 259.814,124.972 259.95,124.87Z" style="fill:rgb(187,223,249);fill-rule:nonzero;"/>
        <path d="M259.836,125.475C260.603,125.45 261.369,125.418 262.139,125.428C263.15,125.567 263.105,126.705 262.766,127.424C262.89,128.117 262.963,128.818 262.998,129.524C262.823,129.47 262.475,129.366 262.301,129.312C262.237,128.84 262.174,128.371 262.111,127.902C261.579,127.867 261.049,127.836 260.52,127.807C260.479,128.371 260.444,128.941 260.406,129.508C260.239,129.473 259.906,129.41 259.738,129.375C259.852,128.079 259.849,126.774 259.836,125.475Z" style="fill:rgb(63,109,148);fill-rule:nonzero;"/>
        <path d="M260.498,126.055C261.246,125.871 262.348,125.947 262.317,126.952C261.734,127.186 261.113,127.249 260.495,127.262C260.482,126.86 260.482,126.458 260.498,126.055Z" style="fill:rgb(231,255,255);fill-rule:nonzero;"/>
        <path d="M151.495,127.76C158.278,127.766 165.06,127.769 171.843,127.76C171.865,128.884 171.858,130.012 171.868,131.14C165.086,131.25 158.297,131.159 151.514,131.19C151.448,130.047 151.454,128.903 151.495,127.76Z" style="fill:rgb(32,95,172);fill-rule:nonzero;"/>
        <path d="M174.443,127.801C184.245,127.715 194.046,127.785 203.851,127.769C201.814,129.923 198.852,131.336 195.855,131.197C188.724,131.171 181.593,131.209 174.462,131.178C174.462,130.053 174.472,128.925 174.443,127.801Z" style="fill:rgb(32,95,172);fill-rule:nonzero;"/>
        <path d="M208.723,127.823C213.56,127.683 218.41,127.785 223.254,127.769C223.244,128.89 223.244,130.012 223.266,131.13C218.435,131.26 213.598,131.146 208.764,131.19C208.758,130.069 208.761,128.944 208.723,127.823Z" style="fill:rgb(32,95,172);fill-rule:nonzero;"/>
        <path d="M230.708,127.741C231.531,127.753 232.358,127.763 233.188,127.775C232.795,128.928 232.434,130.094 231.921,131.2C231.493,130.056 231.078,128.906 230.708,127.741Z" style="fill:rgb(32,95,172);fill-rule:nonzero;"/>
        <path d="M240.598,127.763C245.426,127.763 250.257,127.766 255.084,127.763C255.119,128.903 255.116,130.044 255.091,131.184C250.26,131.171 245.429,131.228 240.601,131.159C240.595,130.025 240.595,128.894 240.598,127.763Z" style="fill:rgb(32,95,172);fill-rule:nonzero;"/>
        <path d="M111.954,144.308C117.694,142.132 122.652,138.242 126.574,133.566C126.343,135.058 125.056,135.964 124.093,136.997C120.2,141.036 115.179,143.84 109.92,145.683C107.13,146.371 104.345,147.204 101.465,147.416C98.8709,147.492 96.2479,147.486 93.701,146.912C91.097,146.672 88.6134,145.832 86.1773,144.939C85.4835,144.584 84.568,145.246 84.7518,146.013C85.0844,147.397 86.0981,148.471 86.7032,149.735C87.7707,151.975 89.3167,153.945 90.3716,156.194C92.3736,159.59 94.3441,163.008 96.3556,166.395C97.268,168.058 98.1075,169.819 99.438,171.197C100.407,171.425 101.424,171.305 102.416,171.327C111.808,171.311 121.201,171.359 130.594,171.299C131.262,171.314 131.928,171.397 132.59,171.485C132.146,171.574 131.693,171.628 131.243,171.644C122.161,171.644 113.076,171.647 103.993,171.65C102.185,171.657 100.376,171.714 98.5763,171.523C98.5035,171.514 98.3577,171.501 98.2849,171.492C98.0441,170.56 97.4834,169.775 96.9956,168.961C94.8097,165.204 92.6714,161.418 90.4919,157.658C90.4824,157.645 90.4698,157.62 90.4634,157.607L90.1561,157.053C90.1498,157.04 90.1371,157.015 90.1308,157.002C87.4286,152.361 84.7296,147.714 82.0908,143.041C82.0274,142.87 81.8975,142.531 81.8342,142.363C81.9134,142.37 82.0781,142.379 82.1605,142.386C91.135,147.454 102.4,148.132 111.954,144.308Z" style="fill:rgb(17,181,208);fill-rule:nonzero;"/>
        <path d="M83.9376,138.825C84.5902,137.307 85.4645,135.904 86.3959,134.545C86.19,135.524 85.7401,136.417 85.2586,137.285C85.7116,137.273 86.1646,137.266 86.6208,137.257C86.266,137.513 85.9175,137.77 85.5564,138.014C85.04,138.331 84.492,138.584 83.9376,138.825Z" style="fill:rgb(83,187,202);fill-rule:nonzero;"/>
        <path d="M77.6684,140.963C78.2038,140.976 78.6917,140.735 79.1763,140.548C79.566,140.802 80,141.02 80.2756,141.413C70.3317,141.426 60.3878,141.416 50.4439,141.419C49.0817,141.394 47.7132,141.486 46.3542,141.343C47.4661,140.608 48.8758,141.042 50.1271,140.944C59.3075,140.969 68.488,140.944 77.6684,140.963Z" style="fill:rgb(65,76,82);fill-rule:nonzero;"/>
        <path d="M90.1308,157.002C90.1371,157.015 90.1498,157.04 90.1561,157.053C90.1498,157.04 90.1371,157.015 90.1308,157.002Z" style="fill:rgb(106,202,218);fill-rule:nonzero;"/>
        <path d="M90.4634,157.607C90.4698,157.62 90.4824,157.645 90.4919,157.658C90.4824,157.645 90.4698,157.62 90.4634,157.607Z" style="fill:rgb(115,208,226);fill-rule:nonzero;"/>
        <path d="M134.021,169.439C135.526,166.753 136.901,163.981 138.678,161.459C138.7,161.576 138.742,161.804 138.764,161.922C138.308,163.046 137.585,164.035 137.012,165.102C135.77,167.149 134.699,169.293 133.401,171.305C133.223,171.552 133.046,171.799 132.868,172.046C121.467,171.989 110.066,172.084 98.665,171.995L98.5763,171.523C100.376,171.714 102.185,171.657 103.993,171.65C113.076,171.647 122.161,171.644 131.243,171.644C131.693,171.628 132.146,171.574 132.59,171.485C133.169,170.88 133.619,170.168 134.021,169.439Z" style="fill:rgb(52,170,187);fill-rule:nonzero;"/>
    </g>
</svg>
