<?xml version="1.0" encoding="utf-8"?>
<!-- Generator: Adobe Illustrator 18.1.1, SVG Export Plug-In . SVG Version: 6.00 Build 0)  -->
<svg version="1.1" id="Layer_1" xmlns="http://www.w3.org/2000/svg" xmlns:xlink="http://www.w3.org/1999/xlink" x="0px" y="0px"
	 viewBox="0 0 290.2 67.6" enable-background="new 0 0 290.2 67.6" xml:space="preserve">
<g>
	<g>
		<g>
			<path fill="#1C3649" d="M85,19.9h2.6V47H85V19.9z"/>
			<path fill="#1C3649" d="M90.8,19.9h11.5c4.6,0,8.7,1.6,8.7,6.6c0,2.8-1.9,5.5-4.7,6.1v0.1c3.5,0.5,5.7,3.1,5.7,6.6
				c0,2.6-0.9,7.7-9.7,7.7H90.8V19.9z M93.4,31.8h8.9c4.1,0,6.1-2,6.1-4.6c0-3.4-2-5.1-6.1-5.1h-8.9V31.8z M93.4,44.8h8.9
				c3.8,0,7.1-1.2,7.1-5.6c0-3.5-2.6-5.2-7.1-5.2h-8.9V44.8z"/>
			<path fill="#1C3649" d="M114.4,19.9h3.8l9.4,23.8l9.3-23.8h3.8V47h-2.6V23.6h-0.1L128.8,47h-2.4l-9.3-23.4H117V47h-2.6V19.9z"/>
		</g>
		<path fill="#1C3649" d="M152.1,19.9h12.8c5.2,0,8.7,1.7,8.7,6.7c0,2.7-1.3,4.5-3.7,5.7c3.3,0.9,5,3.5,5,6.9c0,5.5-4.7,7.9-9.6,7.9
			h-13.1V19.9z M158.1,30.9h6c2.1,0,3.6-0.9,3.6-3.2c0-2.5-2-3.1-4.1-3.1h-5.6V30.9z M158.1,42.4h6.4c2.3,0,4.4-0.8,4.4-3.6
			c0-2.8-1.7-3.9-4.3-3.9h-6.5V42.4z"/>
		<path fill="#1C3649" d="M177.4,19.9h5.4V47h-5.4V19.9z"/>
		<path fill="#1C3649" d="M204.4,47h-5.1v-2.7h-0.1c-1.4,2.2-3.7,3.3-6,3.3c-5.7,0-7.2-3.2-7.2-8.1V27.4h5.4v11.1
			c0,3.2,0.9,4.8,3.5,4.8c2.9,0,4.2-1.6,4.2-5.6V27.4h5.4V47z"/>
		<path fill="#1C3649" d="M212.3,38.5c0.2,3.5,1.8,5,4.8,5c2.2,0,3.9-1.3,4.3-2.5h4.7c-1.5,4.7-4.7,6.6-9.2,6.6
			c-6.2,0-10-4.3-10-10.3c0-5.9,4.1-10.4,10-10.4c6.7,0,9.9,5.6,9.5,11.7H212.3z M221.1,35.1c-0.5-2.7-1.7-4.2-4.3-4.2
			c-3.5,0-4.4,2.7-4.5,4.2H221.1z"/>
		<path fill="#1C3649" d="M229.3,27.4h5.1V30h0.1c1.4-2,3.4-3.2,6-3.2c2.5,0,4.7,0.9,5.7,3.3c1.2-1.7,3.2-3.3,5.9-3.3
			c4.2,0,7.2,1.9,7.2,7V47h-5.4V35.9c0-2.6-0.2-4.8-3.3-4.8c-3,0-3.6,2.5-3.6,5V47h-5.4V36c0-2.3,0.2-4.9-3.3-4.9
			c-1.1,0-3.6,0.7-3.6,4.5V47h-5.4V27.4z"/>
		<path fill="#1C3649" d="M267.9,24.4h-5.4v-4.4h5.4V24.4z M262.5,27.4h5.4V47h-5.4V27.4z"/>
		<path fill="#1C3649" d="M276.9,36.7l-6.5-9.3h6.1l3.5,5.1l3.4-5.1h6l-6.5,9.2l7.2,10.4h-6.1l-4.1-6.2l-4.1,6.2h-6L276.9,36.7z"/>
	</g>
	<g>
		<path fill="#1C3649" d="M20.5,33.8c0,2.5,0.5,4.9,1.5,7.2c0.9,2.2,2.3,4.2,4,5.9c0.4,0.4,0.8,0.7,1.2,1.1l0-28.3
			c-0.4,0.3-0.8,0.7-1.2,1.1c-1.7,1.7-3,3.7-4,5.9C21,28.9,20.5,31.3,20.5,33.8z"/>
		<path fill="#00B29F" d="M52.1,20.7c-1.7-1.7-3.7-3-5.9-4c-2.3-1-4.7-1.5-7.2-1.5c-2.2,0-4.3,0.4-6.3,1.1l24.6,14.2
			c-0.2-1.4-0.6-2.7-1.2-4C55.2,24.4,53.8,22.4,52.1,20.7z"/>
		<path fill="#00B29F" d="M30.4,17.4C30.4,17.4,30.4,17.4,30.4,17.4l9,15.6h18.1c0-0.2,0-0.4,0-0.6L31,17.1
			C30.8,17.2,30.6,17.3,30.4,17.4z"/>
		<path fill="#5AAAFA" d="M57.6,34.6L57.6,34.6l-18.1,0v0l-9,15.7c0,0,0,0,0,0c0.2,0.1,0.4,0.2,0.5,0.3l26.5-15.3
			C57.5,35,57.5,34.8,57.6,34.6z"/>
		<path fill="#5AAAFA" d="M46.3,50.9c2.2-0.9,4.2-2.3,5.9-4c1.7-1.7,3-3.7,4-5.9c0.5-1.3,0.9-2.6,1.2-4L32.7,51.2
			c2,0.7,4.2,1.1,6.3,1.1C41.5,52.3,44,51.8,46.3,50.9z"/>
		<path fill="#1C3649" d="M38.1,33.8L38.1,33.8L38.1,33.8l-9-15.6c0,0,0,0,0,0c-0.1,0-0.5,0.3-0.5,0.3l0,30.6
			c0.2,0.1,0.3,0.2,0.5,0.3l0,0L38.1,33.8z"/>
		<polygon fill="#90908F" points="39.4,34.5 39.4,34.6 39.4,34.6 		"/>
		<path fill="#00B29F" d="M39,13.9c10.2,0,18.7,7.7,19.8,17.6c0,0.3,0.1,0.6,0.1,0.8c0,0,0,0,0,0l9.1-15.8L58.5,0H39.5l-9.2,15.9
			c0.3-0.1,0.6-0.3,0.8-0.4C33.6,14.4,36.2,13.9,39,13.9z"/>
		<rect x="30.5" y="51.7" fill="#90908F" width="0" height="0.7"/>
		<path fill="#5AAAFA" d="M58.9,35.2C58.9,35.2,58.9,35.2,58.9,35.2c0,0.3,0,0.6-0.1,0.9C57.7,46,49.3,53.8,39,53.8
			c-2.8,0-5.5-0.6-7.9-1.6c-0.3-0.1-0.5-0.2-0.8-0.4l9.1,15.8h19.1l9.5-16.5L58.9,35.2z"/>
		<path fill="#1C3649" d="M27.9,17.3H9.5L0,33.8l9.5,16.5h18.3c0,0,0,0,0,0c-0.2-0.2-0.5-0.3-0.7-0.5c-4.9-3.6-8-9.4-8-16
			c0-6.5,3.2-12.4,8-16C27.4,17.6,27.6,17.4,27.9,17.3z"/>
	</g>
</g>
</svg>
