<?xml version="1.0" standalone="no"?>
<!DOCTYPE svg PUBLIC "-//W3C//DTD SVG 1.1//EN" "http://www.w3.org/Graphics/SVG/1.1/DTD/svg11.dtd">
<svg width="100%" height="100%" viewBox="0 0 400 220" version="1.1" xmlns="http://www.w3.org/2000/svg" xmlns:xlink="http://www.w3.org/1999/xlink" xml:space="preserve" style="fill-rule:evenodd;clip-rule:evenodd;stroke-linejoin:round;stroke-miterlimit:1.41421;">
    <g>
        <g>
            <g>
                <rect x="129.722" y="93.6926" width="3.05031" height="31.7936" style="fill:rgb(28,54,73);fill-rule:nonzero;"/>
                <path d="M136.526,93.6926L150.018,93.6926C155.415,93.6926 160.225,95.5697 160.225,101.436C160.225,104.721 157.996,107.888 154.711,108.592L154.711,108.709C158.817,109.296 161.398,112.346 161.398,116.453C161.398,119.503 160.342,125.486 150.018,125.486L136.526,125.486L136.526,93.6926ZM139.577,107.654L150.018,107.654C154.828,107.654 157.175,105.307 157.175,102.257C157.175,98.268 154.828,96.2736 150.018,96.2736L139.577,96.2736L139.577,107.654ZM139.577,122.905L150.018,122.905C154.476,122.905 158.348,121.497 158.348,116.335C158.348,112.229 155.297,110.235 150.018,110.235L139.577,110.235L139.577,122.905Z" style="fill:rgb(28,54,73);fill-rule:nonzero;"/>
                <path d="M164.214,93.6926L168.672,93.6926L179.7,121.615L190.611,93.6926L195.069,93.6926L195.069,125.486L192.018,125.486L192.018,98.0334L191.901,98.0334L181.108,125.486L178.292,125.486L167.381,98.0334L167.264,98.0334L167.264,125.486L164.214,125.486L164.214,93.6926Z" style="fill:rgb(28,54,73);fill-rule:nonzero;"/>
            </g>
            <path d="M208.443,93.6926L223.46,93.6926C229.561,93.6926 233.667,95.687 233.667,101.553C233.667,104.721 232.142,106.832 229.326,108.24C233.198,109.296 235.192,112.346 235.192,116.335C235.192,122.788 229.678,125.604 223.929,125.604L208.561,125.604L208.561,93.6926L208.443,93.6926ZM215.482,106.598L222.522,106.598C224.985,106.598 226.745,105.542 226.745,102.844C226.745,99.9105 224.399,99.2066 221.935,99.2066L215.365,99.2066L215.365,106.598L215.482,106.598ZM215.482,120.089L222.991,120.089C225.689,120.089 228.153,119.151 228.153,115.866C228.153,112.581 226.158,111.291 223.108,111.291L215.482,111.291L215.482,120.089Z" style="fill:rgb(28,54,73);fill-rule:nonzero;"/>
            <rect x="238.125" y="93.6926" width="6.33526" height="31.7936" style="fill:rgb(28,54,73);fill-rule:nonzero;"/>
            <path d="M269.801,125.486L263.818,125.486L263.818,122.319L263.701,122.319C262.058,124.9 259.36,126.19 256.662,126.19C249.974,126.19 248.215,122.436 248.215,116.687L248.215,102.492L254.55,102.492L254.55,115.514C254.55,119.268 255.606,121.145 258.656,121.145C262.058,121.145 263.583,119.268 263.583,114.575L263.583,102.492L269.919,102.492L269.919,125.486L269.801,125.486Z" style="fill:rgb(28,54,73);fill-rule:nonzero;"/>
            <path d="M279.07,115.514C279.304,119.62 281.181,121.38 284.701,121.38C287.282,121.38 289.276,119.855 289.746,118.447L295.26,118.447C293.5,123.961 289.746,126.19 284.466,126.19C277.193,126.19 272.734,121.145 272.734,114.106C272.734,107.184 277.544,101.905 284.466,101.905C292.327,101.905 296.081,108.475 295.612,115.631L279.07,115.631L279.07,115.514ZM289.394,111.525C288.807,108.358 287.399,106.598 284.349,106.598C280.243,106.598 279.187,109.765 279.07,111.525L289.394,111.525Z" style="fill:rgb(28,54,73);fill-rule:nonzero;"/>
            <path d="M299.014,102.492L304.997,102.492L304.997,105.542L305.115,105.542C306.757,103.195 309.103,101.788 312.154,101.788C315.087,101.788 317.668,102.844 318.841,105.659C320.249,103.665 322.595,101.788 325.763,101.788C330.69,101.788 334.21,104.017 334.21,110L334.21,125.486L327.875,125.486L327.875,112.464C327.875,109.413 327.64,106.832 324.003,106.832C320.483,106.832 319.78,109.765 319.78,112.698L319.78,125.486L313.444,125.486L313.444,112.581C313.444,109.883 313.679,106.832 309.573,106.832C308.282,106.832 305.349,107.654 305.349,112.112L305.349,125.486L299.014,125.486L299.014,102.492L299.014,102.492Z" style="fill:rgb(28,54,73);fill-rule:nonzero;"/>
            <path d="M344.299,98.972L337.964,98.972L337.964,93.8099L344.299,93.8099L344.299,98.972ZM337.964,102.492L344.299,102.492L344.299,125.486L337.964,125.486L337.964,102.492Z" style="fill:rgb(28,54,73);fill-rule:nonzero;"/>
            <path d="M354.858,113.402L347.232,102.492L354.389,102.492L358.495,108.475L362.484,102.492L369.523,102.492L361.897,113.285L370.344,125.486L363.188,125.486L358.378,118.212L353.568,125.486L346.528,125.486L354.858,113.402Z" style="fill:rgb(28,54,73);fill-rule:nonzero;"/>
        </g>
        <g>
            <path d="M54.0505,110C54.0505,112.933 54.6371,115.749 55.8103,118.447C56.8662,121.028 58.5087,123.374 60.5031,125.369C60.9724,125.838 61.4417,126.19 61.9109,126.659L61.9109,93.4579C61.4417,93.8099 60.9724,94.2792 60.5031,94.7484C58.5087,96.7429 56.9835,99.0893 55.8103,101.67C54.6371,104.251 54.0505,107.067 54.0505,110Z" style="fill:rgb(28,54,73);fill-rule:nonzero;"/>
            <path d="M91.1235,94.6311C89.1291,92.6367 86.7827,91.1115 84.2017,89.9383C81.5033,88.7651 78.6877,88.1785 75.7547,88.1785C73.1736,88.1785 70.7099,88.6478 68.3635,89.4691L97.2242,106.128C96.9895,104.486 96.5203,102.961 95.8163,101.436C94.7605,98.972 93.118,96.6256 91.1235,94.6311Z" style="fill:rgb(0,178,159);fill-rule:nonzero;"/>
            <path d="M65.6652,90.7596L76.2239,109.061L97.4588,109.061C97.4588,108.827 97.4588,108.592 97.4588,108.358L66.3691,90.4076C66.1345,90.5249 65.8998,90.6423 65.6652,90.7596Z" style="fill:rgb(0,178,159);fill-rule:nonzero;"/>
            <path d="M97.5761,110.939L76.3413,110.939L65.7825,129.358C66.0171,129.475 66.2518,129.592 66.3691,129.71L97.4588,111.76C97.4588,111.408 97.4588,111.173 97.5761,110.939Z" style="fill:rgb(90,170,250);fill-rule:nonzero;"/>
            <path d="M84.319,130.062C86.9,129.006 89.2464,127.363 91.2409,125.369C93.2353,123.374 94.7605,121.028 95.9337,118.447C96.5203,116.922 96.9895,115.397 97.3415,113.754L68.3635,130.414C70.7099,131.235 73.291,131.704 75.7547,131.704C78.6877,131.704 81.6207,131.118 84.319,130.062Z" style="fill:rgb(90,170,250);fill-rule:nonzero;"/>
            <path d="M74.6988,110L64.14,91.6981C64.0227,91.6981 63.5534,92.0501 63.5534,92.0501L63.5534,127.95C63.7881,128.067 63.9054,128.185 64.14,128.302L74.6988,110Z" style="fill:rgb(28,54,73);fill-rule:nonzero;"/>
            <path d="M75.7547,86.6534C87.7213,86.6534 97.6934,95.687 98.984,107.302C98.984,107.654 99.1013,108.006 99.1013,108.24L109.777,89.7037L98.632,70.346L76.3413,70.346L65.5479,88.9998C65.8998,88.8825 66.2518,88.6478 66.4864,88.5305C69.4194,87.24 72.4697,86.6534 75.7547,86.6534Z" style="fill:rgb(0,178,159);fill-rule:nonzero;"/>
            <path d="M99.1013,111.642C99.1013,111.994 99.1013,112.346 98.984,112.698C97.6934,124.313 87.8386,133.464 75.7547,133.464C72.4697,133.464 69.3021,132.76 66.4864,131.587C66.1345,131.469 65.8998,131.352 65.5479,131.118L76.2239,149.654L98.632,149.654L109.777,130.296L99.1013,111.642Z" style="fill:rgb(90,170,250);fill-rule:nonzero;"/>
            <path d="M62.7322,90.6423L41.1454,90.6423L30,110L41.1454,129.358L62.6149,129.358C62.3802,129.123 62.0283,129.006 61.7936,128.771C56.045,124.548 52.4081,117.743 52.4081,110C52.4081,102.374 56.1623,95.4524 61.7936,91.2289C62.1456,90.9942 62.3802,90.7596 62.7322,90.6423Z" style="fill:rgb(28,54,73);fill-rule:nonzero;"/>
        </g>
    </g>
</svg>
