<svg xmlns="http://www.w3.org/2000/svg" width="400" height="220" viewBox="0 0 400 220"><g><path d="M196.197 51.241c8.965 0 34.483 4.896 34.483 30 0 20.207-9.655 26.207-17.242 27.586-5.517 1.035 15.861 0 15.861 25.311 0 35.862-31.034 34.483-31.034 34.483h-51.724v-117.38h49.656zm-20.689 28.621v17.725h17.241s6.896-.828 6.896-9.311l-6.896-8.414h-17.241zm0 43.242v17.932h17.241s6.896-.689 6.896-9.655c0-8.276-6.896-8.276-6.896-8.276h-17.241zm-121.38-71.863v117.38h32.414v-43.45h20.69v43.45h32.414v-117.38h-32.414v44.276h-20.69v-44.276h-32.414z"/><path d="M285.163 170c-33.084 0-60-26.915-60-60 0-33.084 26.916-60 60-60 33.083 0 60 26.916 60 60 0 33.085-26.917 60-60 60zm0-89.655c-16.352 0-29.655 13.303-29.655 29.655 0 16.353 13.304 29.654 29.655 29.654s29.655-13.302 29.655-29.654-13.304-29.655-29.655-29.655z"/><circle cx="285.163" cy="110" r="24.138"/></g></svg>