<?xml version="1.0" standalone="no"?>
<!DOCTYPE svg PUBLIC "-//W3C//DTD SVG 1.1//EN" "http://www.w3.org/Graphics/SVG/1.1/DTD/svg11.dtd">
<svg width="100%" height="100%" viewBox="0 0 400 220" version="1.1" xmlns="http://www.w3.org/2000/svg" xmlns:xlink="http://www.w3.org/1999/xlink" xml:space="preserve" style="fill-rule:evenodd;clip-rule:evenodd;stroke-linejoin:round;stroke-miterlimit:1.41421;">
    <g id="Layer 1">
        <path d="M144.386,148.091L145.401,146.814C146.415,148.091 148.28,149.137 150.506,149.137C153.156,149.137 154.727,147.763 154.727,145.931C154.727,141.61 144.746,144.032 144.746,138.371C144.746,135.95 146.808,133.986 150.375,133.986C153.091,133.986 154.89,135.033 156.036,136.31L155.086,137.521C154.171,136.277 152.469,135.427 150.375,135.427C147.92,135.427 146.415,136.67 146.415,138.306C146.415,142.265 156.396,139.844 156.396,145.931C156.396,148.482 154.432,150.577 150.473,150.577C147.92,150.577 145.957,149.825 144.386,148.091" style="fill:rgb(3,4,4);fill-rule:nonzero;"/>
        <path d="M173.577,142.265C173.577,138.764 171.515,135.525 167.785,135.525C164.12,135.525 162.026,138.764 162.026,142.265C162.026,145.799 164.12,149.04 167.785,149.04C171.515,149.04 173.577,145.799 173.577,142.265M160.193,142.265C160.193,137.652 163.171,133.987 167.785,133.987C172.464,133.987 175.409,137.652 175.409,142.265C175.409,146.879 172.464,150.577 167.785,150.577C163.171,150.577 160.193,146.879 160.193,142.265" style="fill:rgb(3,4,4);fill-rule:nonzero;"/>
        <path d="M180.679,150.185L180.679,135.885L178.061,135.885L178.061,134.379L180.679,134.379L180.679,132.939C180.679,129.864 182.316,128.031 184.966,128.031C186.079,128.031 186.962,128.26 187.977,129.143L187.159,130.321C186.635,129.831 185.98,129.504 185.13,129.504C183.33,129.504 182.381,130.747 182.381,132.939L182.381,134.379L185.588,134.379L185.588,135.885L182.381,135.885L182.381,150.185L180.679,150.185Z" style="fill:rgb(3,4,4);fill-rule:nonzero;"/>
        <path d="M192.068,147.141L192.068,135.885L189.45,135.885L189.45,134.379L192.068,134.379L192.068,130.06L193.802,130.06L193.802,134.379L197.009,134.379L197.009,135.885L193.802,135.885L193.802,146.88C193.802,148.156 194.326,149.039 195.439,149.039C196.191,149.039 196.846,148.679 197.206,148.286L197.86,149.596C197.238,150.185 196.486,150.577 195.177,150.577C193.082,150.577 192.068,149.301 192.068,147.141" style="fill:rgb(3,4,4);fill-rule:nonzero;"/>
        <path d="M216.252,150.185L211.834,136.67L207.383,150.185L205.748,150.185L200.61,134.379L202.443,134.379L206.631,147.796L211.081,134.379L212.554,134.379L217.004,147.796L221.192,134.379L223.025,134.379L217.887,150.185L216.252,150.185Z" style="fill:rgb(3,4,4);fill-rule:nonzero;"/>
        <path d="M236.607,147.075L236.607,143.607C235.494,142.168 233.727,141.415 231.829,141.415C229.212,141.415 227.51,143.083 227.51,145.341C227.51,147.567 229.212,149.235 231.829,149.235C233.727,149.235 235.494,148.515 236.607,147.075M236.607,150.185L236.607,148.319C235.2,149.857 233.433,150.577 231.241,150.577C228.525,150.577 225.71,148.712 225.71,145.309C225.71,141.873 228.492,140.073 231.241,140.073C233.433,140.073 235.233,140.792 236.607,142.331L236.607,139.124C236.607,136.768 234.709,135.492 232.353,135.492C230.389,135.492 228.852,136.179 227.412,137.815L226.463,136.637C228.099,134.87 229.931,133.986 232.55,133.986C235.756,133.986 238.309,135.525 238.309,139.059L238.309,150.185L236.607,150.185Z" style="fill:rgb(3,4,4);fill-rule:nonzero;"/>
        <path d="M244.594,150.185L244.594,134.379L246.295,134.379L246.295,137.095C247.636,135.328 249.436,134.052 251.629,134.052L251.629,135.917C251.335,135.852 251.105,135.852 250.779,135.852C249.175,135.852 247.015,137.292 246.295,138.665L246.295,150.185L244.594,150.185Z" style="fill:rgb(3,4,4);fill-rule:nonzero;"/>
        <path d="M262.296,135.459C258.566,135.459 256.701,138.731 256.571,141.48L268.056,141.48C268.023,138.797 266.257,135.459 262.296,135.459M254.705,142.265C254.705,137.685 257.945,133.987 262.33,133.987C267.14,133.987 269.79,137.815 269.79,142.363L269.79,142.822L256.571,142.822C256.734,146.257 259.024,149.104 262.754,149.104C264.751,149.104 266.584,148.352 267.925,146.912L268.808,148.025C267.238,149.661 265.242,150.577 262.625,150.577C258.01,150.577 254.705,147.141 254.705,142.265" style="fill:rgb(3,4,4);fill-rule:nonzero;"/>
        <path d="M143.112,116.067L145.473,112.328C147.146,114.05 150.442,115.673 153.542,115.673C156.642,115.673 158.217,114.345 158.217,112.476C158.217,107.801 143.85,111.147 143.85,102.045C143.85,98.1576 147.195,94.8118 153.198,94.8118C157.233,94.8118 160.283,96.2386 162.448,98.1576L160.283,101.798C158.856,100.175 156.199,98.945 153.247,98.945C150.541,98.945 148.819,100.175 148.819,101.847C148.819,106.079 163.186,102.93 163.186,112.377C163.186,116.559 159.692,119.757 153.297,119.757C149.262,119.757 145.571,118.478 143.112,116.067" style="fill:rgb(3,4,4);fill-rule:nonzero;"/>
        <path d="M169.435,113.656L169.435,99.9288L165.499,99.9288L165.499,95.4025L169.435,95.4025L169.435,88.9075L174.601,88.9075L174.601,95.4025L179.422,95.4025L179.422,99.9288L174.601,99.9288L174.601,112.377C174.601,114.001 175.388,115.181 176.864,115.181C177.848,115.181 178.783,114.787 179.176,114.345L180.406,118.232C179.471,119.118 177.947,119.757 175.536,119.757C171.55,119.757 169.435,117.592 169.435,113.656" style="fill:rgb(3,4,4);fill-rule:nonzero;"/>
        <path d="M194.675,99.0431C190.247,99.0431 188.229,102.438 187.983,105.341L201.366,105.341C201.268,102.536 199.349,99.0431 194.675,99.0431M182.621,107.26C182.621,100.371 187.639,94.8119 194.675,94.8119C201.809,94.8119 206.385,100.273 206.385,107.752L206.385,108.982L188.032,108.982C188.426,112.574 191.132,115.526 195.61,115.526C197.922,115.526 200.677,114.591 202.35,112.918L204.711,116.313C202.35,118.576 198.857,119.757 195.068,119.757C187.934,119.757 182.621,114.788 182.621,107.26" style="fill:rgb(3,4,4);fill-rule:nonzero;"/>
        <path d="M225.524,113.755L225.524,110.163C224.343,108.539 222.13,107.703 219.866,107.703C216.963,107.703 214.798,109.376 214.798,111.983C214.798,114.542 216.963,116.214 219.866,116.214C222.13,116.214 224.343,115.378 225.524,113.755M225.524,119.166L225.524,116.608C223.753,118.625 220.998,119.757 217.849,119.757C213.962,119.757 209.583,117.149 209.583,111.885C209.583,106.423 213.962,104.16 217.849,104.16C221.047,104.16 223.802,105.193 225.524,107.211L225.524,103.668C225.524,100.913 223.261,99.2402 219.965,99.2402C217.307,99.2402 214.995,100.224 212.928,102.241L210.813,98.6499C213.568,96.042 217.012,94.8118 220.801,94.8118C226.066,94.8118 230.69,97.026 230.69,103.422L230.69,119.166L225.524,119.166Z" style="fill:rgb(3,4,4);fill-rule:nonzero;"/>
        <path d="M265.526,119.166L265.526,103.668C265.526,101.11 264.394,99.3877 261.639,99.3877C259.326,99.3877 257.162,101.011 256.128,102.536L256.128,119.166L250.962,119.166L250.962,103.668C250.962,101.11 249.831,99.3877 247.025,99.3877C244.763,99.3877 242.647,101.011 241.564,102.585L241.564,119.166L236.398,119.166L236.398,95.4021L241.564,95.4021L241.564,98.6499C242.549,97.1736 245.698,94.8118 249.289,94.8118C252.832,94.8118 254.997,96.5833 255.784,99.1906C257.162,97.026 260.31,94.8118 263.853,94.8118C268.232,94.8118 270.692,97.1736 270.692,101.995L270.692,119.166L265.526,119.166Z" style="fill:rgb(3,4,4);fill-rule:nonzero;"/>
        <path d="M274.432,107.26C274.432,100.077 279.5,94.8119 286.732,94.8119C291.358,94.8119 294.162,96.7799 295.835,99.0431L292.44,102.192C291.112,100.322 289.291,99.3878 286.978,99.3878C282.649,99.3878 279.795,102.635 279.795,107.26C279.795,111.885 282.649,115.181 286.978,115.181C289.291,115.181 291.112,114.198 292.44,112.377L295.835,115.526C294.162,117.789 291.358,119.757 286.732,119.757C279.5,119.757 274.432,114.493 274.432,107.26" style="fill:rgb(3,4,4);fill-rule:nonzero;"/>
        <rect x="298.885" y="86.3492" width="5.16619" height="32.8176" style="fill:rgb(3,4,4);fill-rule:nonzero;"/>
        <path d="M327.374,107.26C327.374,103.078 324.913,99.3878 320.485,99.3878C316.106,99.3878 313.646,103.078 313.646,107.26C313.646,111.491 316.106,115.181 320.485,115.181C324.913,115.181 327.374,111.491 327.374,107.26M308.283,107.26C308.283,100.47 312.957,94.8119 320.485,94.8119C328.111,94.8119 332.737,100.47 332.737,107.26C332.737,114.099 328.111,119.757 320.485,119.757C312.957,119.757 308.283,114.099 308.283,107.26" style="fill:rgb(3,4,4);fill-rule:nonzero;"/>
        <path d="M335.984,107.26C335.984,100.077 341.052,94.8119 348.284,94.8119C352.91,94.8119 355.714,96.7799 357.387,99.0431L353.992,102.192C352.663,100.322 350.843,99.3878 348.531,99.3878C344.201,99.3878 341.347,102.635 341.347,107.26C341.347,111.885 344.201,115.181 348.531,115.181C350.843,115.181 352.663,114.198 353.992,112.377L357.387,115.526C355.714,117.789 352.91,119.757 348.284,119.757C341.052,119.757 335.984,114.493 335.984,107.26" style="fill:rgb(3,4,4);fill-rule:nonzero;"/>
        <path d="M376.674,119.166L369.393,109.376L366.095,112.771L366.095,119.166L360.93,119.166L360.93,86.3489L366.095,86.3489L366.095,106.866L376.576,95.4021L382.972,95.4021L373.082,106.178L383.169,119.166L376.674,119.166Z" style="fill:rgb(3,4,4);fill-rule:nonzero;"/>
        <path d="M78.294,79.7106C77.0219,79.7106 75.7316,79.7744 74.4577,79.9001C53.3343,81.9744 37.8245,100.883 39.884,122.051C41.8768,141.869 58.3512,156.815 78.2049,156.815C79.4687,156.815 80.7514,156.752 82.017,156.627C103.13,154.517 118.667,135.611 116.652,114.482C114.678,94.6597 98.1873,79.7106 78.294,79.7106M82.4508,167.142C82.0093,167.142 79.7662,167.096 78.9669,166.178C78.6777,165.851 78.4528,164.887 78.042,162.92C77.8566,162.033 77.6099,160.85 77.4511,160.467C76.3549,160.45 75.2228,160.385 74.1225,160.275L73.3781,160.202C72.5039,160.118 71.6019,160.03 70.7159,159.873C70.4822,160.223 70.007,161.341 69.6504,162.18C68.8695,164.018 68.4634,164.913 68.1163,165.172C67.7586,165.447 67.1813,165.589 66.405,165.589C65.4553,165.589 64.4671,165.384 63.9105,165.209C62.995,164.932 60.8463,163.931 60.4526,162.768C60.3092,162.363 60.4697,161.388 60.844,159.412C61.0134,158.52 61.2389,157.33 61.2389,156.916C60.2997,156.512 59.3063,156.035 58.242,155.474L58.1334,155.408L57.7833,155.224C56.9416,154.777 56.0721,154.317 55.2421,153.792C54.888,154.031 54.0191,154.883 53.3668,155.523C51.9466,156.916 51.2311,157.585 50.8162,157.698C50.6898,157.731 50.5541,157.747 50.4094,157.747C49.3009,157.747 47.6741,156.753 46.9096,156.125C46.1712,155.518 44.5768,153.775 44.6477,152.542C44.6736,152.109 45.1937,151.273 46.2916,149.599C46.7928,148.836 47.4621,147.815 47.6209,147.431C46.8801,146.67 46.134,145.835 45.4003,144.945L44.977,144.432C44.4003,143.735 43.8047,143.015 43.2705,142.252C42.8526,142.342 41.7564,142.785 40.933,143.118C39.3079,143.775 38.2861,144.174 37.7986,144.174L37.7708,144.174L37.6852,144.166C36.4368,144.001 35.0667,141.931 34.6854,141.22C34.2338,140.37 33.4281,138.139 33.9688,137.043C34.1541,136.658 34.9522,136.085 36.6032,134.961C37.3582,134.447 38.3664,133.76 38.6621,133.464C38.2785,132.488 37.9154,131.449 37.5642,130.315L37.4273,129.87C37.1427,128.941 36.8494,127.983 36.6381,127.011C36.2248,126.928 35.0018,126.918 34.0851,126.909C32.0946,126.891 31.1165,126.859 30.7417,126.644C29.6431,126.004 29.1751,123.567 29.0971,122.764C29.0009,121.811 29.1001,119.447 30.0262,118.639C30.3491,118.348 31.319,118.122 33.3012,117.71C34.1813,117.527 35.3542,117.283 35.7385,117.126C35.7544,116.106 35.8146,115.007 35.9226,113.802L35.9362,113.695L35.9982,113.071C36.0844,112.191 36.1735,111.283 36.3311,110.388C35.9775,110.155 34.8678,109.683 34.0343,109.329C32.1896,108.544 31.2918,108.136 31.0274,107.789C30.2635,106.798 30.7405,104.419 30.989,103.587C31.2664,102.667 32.2658,100.521 33.431,100.127C33.5326,100.091 33.6618,100.075 33.8348,100.075C34.4445,100.075 35.6322,100.299 36.7797,100.516C37.7909,100.708 38.8357,100.905 39.2861,100.908C39.7376,99.8796 40.2288,98.8649 40.737,97.9115L40.7742,97.836L41.0392,97.3407C41.4672,96.5385 41.9093,95.7098 42.4122,94.9194C42.1791,94.5705 41.3232,93.6981 40.6815,93.0446C39.2861,91.6232 38.6161,90.9078 38.5051,90.4916C38.184,89.2739 39.5671,87.2144 40.0771,86.5892C40.6644,85.8774 42.3579,84.322 43.5745,84.322L43.6625,84.3243C44.0975,84.3521 44.9351,84.8733 46.6121,85.973C47.3718,86.4712 48.3854,87.1359 48.7679,87.2946C49.5417,86.5432 50.3876,85.7882 51.2577,85.0758L51.7181,84.6968C52.4324,84.1071 53.1696,83.4985 53.95,82.9489C53.8662,82.5352 53.414,81.4142 53.074,80.573C52.3237,78.7148 51.9772,77.7922 52.0386,77.3601C52.2051,76.1199 54.2717,74.7434 54.9818,74.3591C55.7958,73.9235 57.2107,73.4613 58.2331,73.4613C58.6038,73.4613 58.9149,73.5215 59.1581,73.6395C59.5477,73.8302 60.1203,74.63 61.2471,76.284C61.7577,77.0337 62.4383,78.033 62.7364,78.3347C63.8019,77.9203 64.852,77.5549 65.8897,77.2379L66.0001,77.2102L66.5367,77.0455C67.4003,76.7804 68.2922,76.5071 69.1977,76.3029C69.275,75.8797 69.2851,74.6837 69.2921,73.7853C69.3093,71.7784 69.3411,70.792 69.5589,70.4172C70.1976,69.3245 72.6338,68.847 73.4371,68.7655C73.626,68.7478 73.8421,68.7384 74.0758,68.7384C74.5174,68.7384 76.7628,68.785 77.568,69.7029C77.8531,70.0276 78.0762,70.9826 78.4835,72.9359C78.6694,73.8278 78.9174,75.0155 79.0779,75.4092C80.2319,75.4334 81.3411,75.4966 82.4077,75.6005L82.5152,75.614L83.1261,75.6737C84.0045,75.7587 84.9111,75.846 85.8119,76.0078C86.0463,75.6565 86.5226,74.5338 86.8803,73.6927C87.6607,71.8575 88.065,70.9643 88.408,70.7023C88.7698,70.4272 89.3412,70.2885 90.1092,70.2885C91.0472,70.2885 92.0495,70.4915 92.6221,70.6651C93.5376,70.9407 95.6809,71.9383 96.0794,73.1053C96.2228,73.5156 96.0617,74.4913 95.6862,76.467C95.5168,77.3572 95.2913,78.5442 95.2907,78.9604C96.3621,79.4249 97.3579,79.9048 98.2953,80.4084L98.3909,80.4632L98.9724,80.7743C99.7403,81.184 100.533,81.6066 101.29,82.0865C101.642,81.8457 102.498,81.0051 103.14,80.3735C104.571,78.9663 105.292,78.291 105.713,78.1812C105.836,78.1481 105.974,78.131 106.122,78.131C107.226,78.131 108.817,79.102 109.616,79.7549C110.357,80.3664 111.953,82.1143 111.884,83.3344C111.858,83.7706 111.335,84.6094 110.233,86.2888C109.737,87.0461 109.075,88.0555 108.913,88.441C109.629,89.1836 110.362,90.0035 111.129,90.9249L111.197,91.0146L111.628,91.5394C112.177,92.207 112.744,92.8971 113.257,93.6237C113.676,93.5381 114.797,93.0854 115.637,92.7459C117.243,92.0966 118.253,91.7023 118.732,91.7023L118.839,91.7094C120.097,91.8776 121.466,93.9478 121.847,94.6597C122.298,95.5091 123.105,97.7374 122.567,98.8312C122.374,99.2208 121.578,99.7922 119.932,100.914C119.174,101.43 118.163,102.12 117.868,102.417C118.263,103.417 118.627,104.457 118.968,105.564L118.995,105.677L119.154,106.194C119.419,107.06 119.694,107.954 119.896,108.863C120.309,108.946 121.533,108.958 122.449,108.967C124.437,108.986 125.415,109.019 125.789,109.236C126.882,109.867 127.355,112.31 127.435,113.116C127.542,114.174 127.379,116.471 126.507,117.239C126.182,117.527 125.223,117.75 123.264,118.157C122.37,118.343 121.176,118.59 120.792,118.751C120.771,119.842 120.708,120.962 120.604,122.078L120.589,122.189L120.538,122.72C120.452,123.627 120.363,124.565 120.198,125.49C120.551,125.724 121.668,126.199 122.505,126.555C124.343,127.337 125.237,127.743 125.499,128.086C126.265,129.078 125.79,131.459 125.542,132.292C125.265,133.212 124.264,135.356 123.096,135.752C122.994,135.787 122.867,135.803 122.697,135.803L122.697,135.803C122.088,135.803 120.897,135.579 119.746,135.361C118.74,135.172 117.699,134.975 117.248,134.97C116.806,135.979 116.321,136.978 115.792,137.968L115.469,138.577C115.048,139.37 114.614,140.189 114.118,140.966C114.359,141.318 115.198,142.171 115.827,142.811C117.237,144.244 117.913,144.966 118.024,145.39C118.347,146.611 116.96,148.667 116.448,149.291C115.866,150.001 114.178,151.559 112.956,151.559L112.874,151.557C112.437,151.533 111.6,151.013 109.925,149.915C109.16,149.413 108.138,148.744 107.756,148.589C106.934,149.381 106.098,150.124 105.27,150.801L105.223,150.847L104.846,151.158C104.121,151.755 103.372,152.371 102.576,152.924C102.657,153.335 103.114,154.467 103.458,155.316C104.206,157.168 104.552,158.087 104.493,158.516C104.324,159.764 102.306,161.11 101.544,161.524C100.716,161.958 99.2982,162.417 98.2918,162.417C97.9234,162.417 97.6135,162.358 97.3715,162.24C96.9819,162.049 96.4105,161.251 95.289,159.602C94.7742,158.845 94.0871,157.835 93.7902,157.537C92.8204,157.927 91.7496,158.301 90.6405,158.638L89.8855,158.866C89.0591,159.117 88.2061,159.377 87.3354,159.567C87.2552,159.98 87.2445,161.196 87.2363,162.108C87.2186,164.105 87.1867,165.086 86.9712,165.458C86.3355,166.558 83.9602,167.027 83.0984,167.115C82.9065,167.133 82.6881,167.142 82.4508,167.142" style="fill:rgb(35,31,32);fill-rule:nonzero;"/>
        <path d="M78.2046,156.42C68.7943,156.42 59.7422,152.93 52.7149,146.593C45.6474,140.219 41.2302,131.489 40.2769,122.01C38.2387,101.061 53.5897,82.3464 74.4965,80.2934C75.7567,80.1688 77.0347,80.1057 78.2938,80.1057C87.7183,80.1057 96.7822,83.5937 103.817,89.9274C110.895,96.3025 115.314,105.037 116.259,114.523C118.253,135.432 102.875,154.145 81.9772,156.234C80.7258,156.358 79.4561,156.42 78.2046,156.42M74.0756,68.3436C73.833,68.3436 73.6069,68.353 73.4038,68.3719C73.3643,68.3755 70.0912,68.7231 69.2181,70.2172C68.9495,70.6794 68.9153,71.6097 68.8976,73.7819C68.8917,74.4796 68.8834,75.4577 68.8386,75.9807C68.0133,76.1791 67.2058,76.427 66.4213,76.6678L65.8842,76.8319L65.8151,76.849L65.795,76.8538L65.7744,76.8603C64.8034,77.1566 63.8229,77.4948 62.8542,77.8679C62.5254,77.46 61.9694,76.643 61.5739,76.0622C60.3544,74.2713 59.8101,73.5186 59.3314,73.2849C59.0339,73.1403 58.6644,73.0665 58.2329,73.0665C57.0057,73.0665 55.5057,73.6308 54.7968,74.0103C54.7655,74.0275 51.8755,75.6077 51.647,77.3112C51.5721,77.836 51.8956,78.7084 52.7078,80.7213C52.9711,81.3724 53.3406,82.2885 53.497,82.7873C52.791,83.2985 52.1193,83.8534 51.4664,84.3923L51.081,84.7099L51.0066,84.7713C50.2109,85.4224 49.4346,86.1095 48.6956,86.8172C48.2393,86.5675 47.4147,86.0274 46.8291,85.6425C45.014,84.4525 44.2212,83.9638 43.6876,83.9301C43.6498,83.9278 43.6121,83.9266 43.5743,83.9266C42.0956,83.9266 40.2899,85.7104 39.774,86.3355C39.7498,86.3651 37.6838,88.9257 38.1224,90.5903C38.2605,91.1051 38.8892,91.7827 40.3997,93.3216C40.8967,93.8275 41.5962,94.5399 41.9315,94.9431C41.4817,95.6727 41.0803,96.4241 40.6907,97.1549L40.4322,97.6372L40.3773,97.747C39.9186,98.607 39.4659,99.5349 39.0356,100.497C38.5267,100.445 37.646,100.279 36.8527,100.128C35.6331,99.898 34.4821,99.6796 33.8345,99.6796C33.6161,99.6796 33.4455,99.7038 33.298,99.7551C31.9816,100.2 30.9191,102.452 30.6116,103.472C30.6009,103.506 29.6718,106.677 30.7155,108.032C31.0378,108.455 31.8831,108.843 33.88,109.692C34.5252,109.967 35.4319,110.353 35.8952,110.595C35.7636,111.413 35.6833,112.234 35.6048,113.032L35.5422,113.664L35.5322,113.738C35.4313,114.859 35.3716,115.872 35.3498,116.839C34.8528,116.984 33.8995,117.182 33.2206,117.323C31.0744,117.77 30.16,117.987 29.758,118.349C28.6111,119.35 28.6347,122.119 28.7044,122.806C28.7073,122.835 29.0396,126.11 30.5407,126.984C31.0047,127.25 31.9279,127.284 34.0813,127.304C34.7914,127.311 35.7902,127.319 36.3132,127.367C36.5209,128.261 36.7889,129.135 37.0492,129.985L37.1596,130.346L37.1891,130.438C37.5079,131.468 37.8385,132.427 38.1944,133.348C37.7865,133.677 36.9648,134.237 36.3804,134.635C34.5925,135.852 33.8416,136.396 33.6108,136.875C32.9515,138.212 33.9378,140.654 34.3357,141.404C34.3528,141.435 35.9224,144.331 37.6366,144.559C37.6803,144.564 37.7363,144.569 37.7983,144.569C38.339,144.569 39.2575,144.221 41.0809,143.485C41.719,143.226 42.6145,142.864 43.1097,142.707C43.6085,143.397 44.148,144.05 44.6722,144.684L45.0376,145.126L45.1002,145.201C45.7719,146.017 46.4584,146.791 47.1426,147.505C46.8923,147.964 46.348,148.793 45.9608,149.383C44.7731,151.195 44.2856,151.985 44.2531,152.517C44.1728,153.915 45.8386,155.757 46.6585,156.43C47.2394,156.907 49.0456,158.142 50.4098,158.142C50.5881,158.142 50.7581,158.122 50.9145,158.08C51.4292,157.941 52.1063,157.313 53.644,155.805C54.1499,155.308 54.8617,154.61 55.2661,154.272C56.0364,154.744 56.8292,155.165 57.5989,155.573L57.9484,155.758L58.0139,155.798L58.0357,155.812L58.0581,155.823C59.0244,156.333 59.9341,156.774 60.8254,157.167C60.7699,157.684 60.5863,158.65 60.4559,159.338C60.0504,161.478 59.9028,162.401 60.0822,162.906C60.525,164.214 62.7787,165.279 63.8005,165.588C64.3754,165.769 65.4102,165.984 66.4054,165.984C67.2832,165.984 67.923,165.819 68.3622,165.481C68.7807,165.168 69.1679,164.326 70.0144,162.334C70.2901,161.685 70.6785,160.772 70.9217,160.309C71.7327,160.44 72.5479,160.519 73.3401,160.596C73.5561,160.617 73.7722,160.638 73.9865,160.66L74.0951,160.669C75.0927,160.769 76.1262,160.833 77.1652,160.857C77.3115,161.355 77.5122,162.316 77.6551,163C78.0996,165.13 78.3156,166.037 78.6722,166.442C79.5576,167.458 81.7883,167.538 82.4512,167.538C82.6967,167.538 82.9264,167.528 83.1318,167.509C83.1719,167.505 86.4474,167.154 87.3134,165.655C87.5778,165.198 87.6126,164.272 87.6315,162.111C87.6374,161.405 87.6463,160.413 87.6923,159.891C88.4827,159.705 89.2525,159.472 90.0004,159.244C90.2211,159.177 90.4407,159.11 90.6609,159.045L90.7577,159.015C91.7677,158.708 92.7475,158.37 93.6767,158.008C94.0066,158.418 94.565,159.239 94.9623,159.824C96.1765,161.609 96.7184,162.36 97.1954,162.594C97.4958,162.739 97.863,162.813 98.2915,162.813C99.5004,162.813 101.006,162.252 101.723,161.875C101.761,161.855 104.654,160.27 104.885,158.569C104.957,158.042 104.634,157.173 103.824,155.168C103.559,154.511 103.185,153.588 103.029,153.088C103.753,152.57 104.435,152.009 105.097,151.464L105.449,151.174L105.474,151.154L105.497,151.132L105.544,151.086C106.306,150.464 107.073,149.785 107.83,149.065C108.287,149.314 109.119,149.859 109.709,150.245C111.523,151.434 112.316,151.921 112.853,151.951C112.885,151.954 112.921,151.954 112.955,151.954C114.331,151.954 116.108,150.329 116.753,149.542C116.775,149.516 118.848,146.961 118.406,145.288C118.27,144.769 117.635,144.085 116.109,142.534C115.621,142.038 114.936,141.342 114.6,140.941C115.043,140.224 115.436,139.483 115.818,138.762L116.098,138.235L116.145,138.145C116.634,137.229 117.089,136.3 117.497,135.382C118.005,135.435 118.883,135.6 119.672,135.749C120.895,135.98 122.051,136.198 122.697,136.198C122.911,136.198 123.079,136.175 123.225,136.126C124.547,135.677 125.612,133.427 125.92,132.408C125.931,132.373 126.857,129.199 125.81,127.843C125.491,127.425 124.649,127.038 122.66,126.191C122.011,125.915 121.099,125.528 120.634,125.284C120.773,124.434 120.853,123.584 120.931,122.758L120.982,122.227L120.993,122.148L120.996,122.132L120.997,122.115C121.093,121.083 121.155,120.05 121.18,119.037C121.681,118.889 122.654,118.687 123.344,118.544C125.465,118.104 126.369,117.889 126.77,117.534C127.919,116.523 127.897,113.76 127.828,113.075C127.737,112.157 127.229,109.612 125.986,108.893C125.528,108.628 124.605,108.593 122.453,108.572C121.742,108.565 120.742,108.556 120.219,108.507C120.022,107.677 119.773,106.866 119.532,106.079L119.374,105.561L119.359,105.5L119.353,105.473L119.345,105.448C119.034,104.436 118.702,103.477 118.336,102.531C118.744,102.202 119.569,101.64 120.155,101.24C121.936,100.026 122.685,99.4842 122.921,99.0084C123.581,97.6637 122.594,95.2241 122.196,94.475C122.179,94.4443 120.613,91.5484 118.891,91.3176C118.844,91.3117 118.79,91.3075 118.731,91.3075C118.2,91.3075 117.292,91.6511 115.489,92.3795C114.836,92.6439 113.918,93.0146 113.419,93.1711C112.944,92.517 112.431,91.8937 111.933,91.2886C111.787,91.1104 111.64,90.9327 111.495,90.755L111.455,90.7001L111.444,90.686L111.432,90.6724C110.734,89.8324 110.062,89.0757 109.391,88.3691C109.641,87.9122 110.18,87.0905 110.564,86.5055C111.757,84.6875 112.246,83.8941 112.278,83.3593C112.363,81.8629 110.522,79.99 109.871,79.4516C109.14,78.8566 107.424,77.7362 106.122,77.7362C105.94,77.7362 105.767,77.7581 105.608,77.8006C105.095,77.934 104.413,78.568 102.863,80.0915C102.365,80.5814 101.666,81.2685 101.265,81.6056C100.569,81.1782 99.8534,80.7969 99.1581,80.4262C98.9603,80.3205 98.7632,80.2154 98.5672,80.1098L98.507,80.0738C97.6221,79.598 96.7072,79.1529 95.7043,78.7084C95.761,78.1908 95.944,77.2262 96.0738,76.5409C96.4805,74.4017 96.6281,73.4803 96.4516,72.9732C96.0012,71.6539 93.7528,70.5932 92.7352,70.2868C92.1378,70.1056 91.0906,69.8937 90.109,69.8937C89.2412,69.8937 88.6073,70.0548 88.1699,70.3866C87.7466,70.7106 87.3612,71.5518 86.5171,73.5381C86.2402,74.1898 85.8506,75.1065 85.6068,75.5717C84.7828,75.4371 83.9611,75.3574 83.1636,75.2806L82.5433,75.2198L82.473,75.2098C81.4518,75.1106 80.4147,75.0481 79.3646,75.0215C79.217,74.5174 79.0145,73.5464 78.8699,72.8557C78.429,70.7413 78.2147,69.8406 77.8646,69.4421C76.9704,68.4227 74.7385,68.3436 74.0756,68.3436M78.2046,157.21C79.4767,157.21 80.7624,157.148 82.0557,157.021C103.485,154.878 119.081,135.789 117.046,114.445C115.043,94.3398 98.0973,79.3147 78.2938,79.3153C77.0134,79.3158 75.7201,79.3784 74.4191,79.5071C53.0673,81.6038 37.4022,100.624 39.4913,122.089C41.51,142.169 58.42,157.21 78.2046,157.21M74.0756,69.1334C75.19,69.1334 76.739,69.3571 77.2708,69.9633C77.7755,70.5377 78.472,75.7907 78.8882,75.8007L78.9254,75.8031C80.0847,75.8213 81.2316,75.8827 82.3697,75.9931L82.4636,76.0055C83.5916,76.12 84.7385,76.2068 85.8772,76.4217L85.9226,76.4258C85.9262,76.4264 85.9291,76.4264 85.9321,76.4264C86.3583,76.4264 88.0459,71.4768 88.648,71.0158C88.9668,70.7732 89.5098,70.6835 90.109,70.6835C90.9543,70.6835 91.9111,70.8623 92.5073,71.043C93.5196,71.3476 95.3926,72.3174 95.7055,73.2329C95.9587,73.959 94.5851,79.0774 94.9658,79.2421L95.0013,79.2627C96.0638,79.7231 97.105,80.2172 98.1085,80.7561L98.1918,80.8046C99.187,81.3423 100.218,81.8647 101.186,82.4886L101.228,82.5199C101.238,82.5258 101.249,82.5288 101.263,82.5288C101.765,82.5288 105.092,78.7515 105.812,78.5632C105.907,78.5384 106.011,78.5266 106.122,78.5266C107.103,78.5266 108.626,79.4557 109.367,80.0608C110.189,80.7396 111.545,82.3446 111.49,83.3115C111.443,84.0777 108.217,88.2811 108.504,88.5769L108.526,88.6105C109.333,89.4399 110.098,90.304 110.825,91.1777L110.882,91.2538C111.6,92.1357 112.352,93.0123 113.009,93.9567L113.038,93.9986C113.055,94.0217 113.092,94.0329 113.147,94.0329C113.89,94.0329 117.886,92.0979 118.732,92.0979C118.751,92.0979 118.77,92.0985 118.786,92.1009C119.745,92.229 120.995,93.9048 121.498,94.8457C121.999,95.7884 122.637,97.793 122.213,98.6572C121.871,99.3466 117.286,101.998 117.439,102.387L117.446,102.426C117.875,103.502 118.252,104.582 118.59,105.68L118.61,105.767C118.941,106.857 119.299,107.956 119.539,109.082L119.551,109.124C119.642,109.536 124.928,109.193 125.591,109.578C126.42,110.057 126.937,112.094 127.041,113.155C127.148,114.206 126.965,116.309 126.246,116.943C125.669,117.454 120.416,118.138 120.407,118.56L120.399,118.605C120.381,119.759 120.316,120.904 120.211,122.041L120.198,122.136C120.087,123.265 119.997,124.416 119.786,125.549L119.779,125.6C119.705,126.009 124.722,127.719 125.185,128.326C125.775,129.09 125.467,131.161 125.164,132.18C124.855,133.201 123.888,135.067 122.969,135.378C122.908,135.399 122.815,135.408 122.697,135.408C121.586,135.408 118.217,134.575 117.23,134.575C117.076,134.575 116.98,134.595 116.959,134.642L116.943,134.677C116.486,135.738 115.982,136.773 115.443,137.782L115.402,137.863C114.863,138.869 114.343,139.895 113.718,140.858L113.683,140.904C113.464,141.256 117.446,144.744 117.643,145.489C117.888,146.421 116.814,148.222 116.142,149.041C115.479,149.849 113.924,151.164 112.955,151.164C112.936,151.164 112.916,151.164 112.896,151.163C112.16,151.121 108.284,148.165 107.684,148.165C107.656,148.165 107.635,148.171 107.622,148.185L107.587,148.203C106.759,149.006 105.903,149.774 105.02,150.494L104.949,150.563C104.073,151.281 103.191,152.027 102.238,152.677L102.203,152.71C101.859,152.951 104.206,157.705 104.102,158.463C103.972,159.417 102.292,160.669 101.355,161.176C100.63,161.557 99.2726,162.022 98.2915,162.022C98.0005,162.022 97.7426,161.981 97.5442,161.885C96.8683,161.553 94.2941,157.103 93.839,157.103C93.8313,157.103 93.8242,157.104 93.8183,157.106L93.7817,157.117C92.7068,157.55 91.616,157.929 90.5257,158.26L90.4354,158.287C89.3457,158.612 88.2507,158.972 87.1221,159.209L87.0708,159.226C86.6682,159.319 87.01,164.603 86.6292,165.26C86.1422,166.102 84.1146,166.615 83.0586,166.722C82.8809,166.739 82.6743,166.747 82.4512,166.747C81.3355,166.747 79.7925,166.525 79.2648,165.919C78.7513,165.336 78.0583,160.089 77.6439,160.084L77.6037,160.074C76.4497,160.059 75.2945,159.996 74.1618,159.882L74.0673,159.874C72.9387,159.758 71.7823,159.67 70.6543,159.46L70.6077,159.454C70.6047,159.454 70.6012,159.454 70.5982,159.454C70.1667,159.454 68.4856,164.402 67.8793,164.856C67.5594,165.102 67.0099,165.194 66.4054,165.194C65.5625,165.194 64.6139,165.016 64.0289,164.832C63.0071,164.523 61.1365,163.557 60.8272,162.641C60.5716,161.924 61.944,156.803 61.5645,156.636L61.5273,156.609C60.4665,156.158 59.4359,155.656 58.4265,155.125L58.3397,155.072C57.341,154.54 56.3127,154.01 55.3422,153.387L55.3033,153.36C55.2938,153.354 55.282,153.351 55.2679,153.351C54.7626,153.351 51.4304,157.122 50.7126,157.316C50.6199,157.341 50.5178,157.352 50.4098,157.352C49.4311,157.352 47.8987,156.425 47.1597,155.819C46.3374,155.144 44.9862,153.531 45.0417,152.565C45.0884,151.804 48.3143,147.598 48.028,147.299L48.0062,147.26C47.1963,146.436 46.4313,145.575 45.7052,144.694L45.6485,144.626C44.9254,143.744 44.1734,142.867 43.5194,141.918L43.494,141.874C43.4781,141.851 43.4421,141.841 43.3889,141.841C42.6576,141.841 38.656,143.779 37.7983,143.779C37.7771,143.779 37.7576,143.778 37.7405,143.775C36.7866,143.648 35.5334,141.966 35.0334,141.033C34.5334,140.091 33.8959,138.084 34.3233,137.218C34.6515,136.534 39.2463,133.881 39.0916,133.492L39.084,133.453C38.6554,132.377 38.2806,131.294 37.9418,130.198L37.9152,130.115C37.5823,129.023 37.2316,127.922 36.9961,126.799L36.9796,126.748C36.8899,126.34 31.6038,126.683 30.9386,126.302C30.1016,125.814 29.5927,123.786 29.4906,122.726C29.3838,121.674 29.5615,119.569 30.2857,118.937C30.8583,118.422 36.1154,117.731 36.1231,117.32L36.1325,117.277C36.1461,116.121 36.2146,114.97 36.3161,113.838L36.3279,113.745C36.4436,112.615 36.5345,111.459 36.7435,110.327L36.7517,110.279C36.8249,109.869 31.8087,108.164 31.3412,107.55C30.7568,106.791 31.0643,104.718 31.3677,103.7C31.6753,102.68 32.6469,100.809 33.5577,100.501C33.6197,100.479 33.7141,100.47 33.8345,100.47C34.9484,100.47 38.303,101.303 39.2953,101.303C39.4517,101.303 39.5491,101.283 39.5704,101.235L39.5875,101.203C40.0503,100.142 40.5473,99.107 41.0856,98.0976L41.1281,98.0114C41.6659,97.0115 42.193,95.985 42.8187,95.0175L42.8394,94.9744C43.0654,94.6249 39.084,91.1263 38.8868,90.3896C38.6424,89.4617 39.7162,87.6566 40.3832,86.8391C41.049,86.0321 42.6027,84.717 43.5743,84.717C43.5961,84.717 43.6174,84.7176 43.638,84.7187C44.3723,84.7654 48.2529,87.7204 48.8426,87.7204C48.868,87.7204 48.8875,87.7145 48.9004,87.7026L48.9429,87.6767C49.7676,86.8703 50.6276,86.1018 51.5077,85.3816L51.5821,85.3202C52.4599,84.6001 53.3382,83.8528 54.2844,83.1976L54.3234,83.1692C54.6693,82.9296 52.3212,78.176 52.4298,77.4163C52.5579,76.4624 54.2378,75.2104 55.1699,74.7069C55.8912,74.3208 57.25,73.8563 58.2329,73.8563C58.5262,73.8563 58.786,73.8976 58.9849,73.995C59.6602,74.3244 62.2386,78.7728 62.6895,78.7728C62.6972,78.7728 62.7037,78.7716 62.7096,78.7692L62.7503,78.7568C63.8247,78.3312 64.9149,77.9487 66.0052,77.6158L66.0949,77.5934C67.181,77.2646 68.2807,76.9063 69.4046,76.6613L69.4607,76.6554C69.8615,76.561 69.5168,71.2755 69.9005,70.6156C70.3898,69.778 72.4175,69.2656 73.477,69.1582C73.6524,69.1423 73.8554,69.1334 74.0756,69.1334" style="fill:rgb(3,4,4);fill-rule:nonzero;"/>
        <path d="M78.3216,115.569C79.0353,116.073 79.2059,117.058 78.703,117.772L77.5649,119.385C77.0614,120.098 76.0762,120.27 75.3631,119.767L51.3927,102.863C50.6791,102.36 50.5085,101.375 51.0114,100.662L52.1495,99.0476C52.6524,98.334 53.6382,98.1634 54.3519,98.6663L78.3216,115.569Z" style="fill:rgb(35,31,32);fill-rule:nonzero;"/>
        <path d="M79.9908,121.17C79.3096,121.716 78.315,121.604 77.7701,120.922L76.5364,119.381C75.9922,118.698 76.102,117.705 76.7838,117.159L92.5108,104.514C93.1926,103.968 94.1866,104.08 94.732,104.761L95.9651,106.303C96.5112,106.985 96.4002,107.979 95.7184,108.525L79.9908,121.17Z" style="fill:rgb(35,31,32);fill-rule:nonzero;"/>
        <path d="M78.1974,122.411C76.1002,122.411 74.3594,120.83 74.1481,118.734C73.9291,116.499 75.5683,114.5 77.8031,114.28C77.9407,114.265 78.0776,114.259 78.2128,114.259C80.3124,114.259 82.0544,115.839 82.2639,117.935C82.4776,120.169 80.8348,122.17 78.6012,122.391C78.466,122.404 78.3308,122.411 78.1974,122.411" style="fill:white;fill-rule:nonzero;"/>
        <path d="M78.2127,113.469C78.0516,113.469 77.8893,113.477 77.7257,113.493C75.0606,113.756 73.0991,116.133 73.3623,118.813C73.615,121.32 75.7276,123.2 78.1974,123.2C78.3568,123.2 78.5173,123.193 78.6791,123.177C81.3584,122.912 83.3051,120.523 83.0501,117.856C82.7993,115.345 80.686,113.469 78.2127,113.469M78.2127,115.049C79.9051,115.049 81.3088,116.323 81.477,118.007C81.65,119.812 80.3248,121.426 78.5238,121.604C78.4152,121.615 78.3054,121.621 78.1974,121.621C76.5074,121.621 75.1049,120.345 74.9349,118.659C74.7578,116.855 76.0794,115.243 77.8816,115.066C77.9914,115.054 78.1029,115.049 78.2127,115.049" style="fill:rgb(35,31,32);fill-rule:nonzero;"/>
    </g>
</svg>
