<?xml version="1.0" standalone="no"?>
<!DOCTYPE svg PUBLIC "-//W3C//DTD SVG 1.1//EN" "http://www.w3.org/Graphics/SVG/1.1/DTD/svg11.dtd">
<svg width="100%" height="100%" viewBox="0 0 400 220" version="1.1" xmlns="http://www.w3.org/2000/svg" xmlns:xlink="http://www.w3.org/1999/xlink" xml:space="preserve" style="fill-rule:evenodd;clip-rule:evenodd;stroke-linejoin:round;stroke-miterlimit:1.41421;">
    <g id="Layer 1">
        <path d="M141.489,139.385L142.462,138.16C143.435,139.385 145.223,140.388 147.358,140.388C149.899,140.388 151.406,139.07 151.406,137.313C151.406,133.17 141.834,135.492 141.834,130.063C141.834,127.742 143.812,125.858 147.232,125.858C149.837,125.858 151.562,126.862 152.661,128.087L151.75,129.248C150.873,128.055 149.241,127.24 147.232,127.24C144.878,127.24 143.435,128.432 143.435,130.001C143.435,133.798 153.007,131.476 153.007,137.313C153.007,139.76 151.123,141.769 147.326,141.769C144.878,141.769 142.996,141.048 141.489,139.385" style="fill:rgb(3,4,4);fill-rule:nonzero;"/>
        <path d="M169.483,133.798C169.483,130.44 167.506,127.334 163.929,127.334C160.414,127.334 158.406,130.44 158.406,133.798C158.406,137.187 160.414,140.295 163.929,140.295C167.506,140.295 169.483,137.187 169.483,133.798M156.648,133.798C156.648,129.374 159.504,125.859 163.929,125.859C168.416,125.859 171.24,129.374 171.24,133.798C171.24,138.223 168.416,141.769 163.929,141.769C159.504,141.769 156.648,138.223 156.648,133.798" style="fill:rgb(3,4,4);fill-rule:nonzero;"/>
        <path d="M176.294,141.393L176.294,127.679L173.784,127.679L173.784,126.235L176.294,126.235L176.294,124.854C176.294,121.905 177.864,120.147 180.405,120.147C181.473,120.147 182.32,120.367 183.293,121.214L182.509,122.343C182.006,121.873 181.378,121.56 180.563,121.56C178.837,121.56 177.926,122.752 177.926,124.854L177.926,126.235L181.002,126.235L181.002,127.679L177.926,127.679L177.926,141.393L176.294,141.393Z" style="fill:rgb(3,4,4);fill-rule:nonzero;"/>
        <path d="M187.216,138.474L187.216,127.679L184.706,127.679L184.706,126.235L187.216,126.235L187.216,122.093L188.879,122.093L188.879,126.235L191.955,126.235L191.955,127.679L188.879,127.679L188.879,138.223C188.879,139.447 189.382,140.294 190.449,140.294C191.17,140.294 191.798,139.949 192.144,139.572L192.771,140.828C192.174,141.393 191.453,141.769 190.198,141.769C188.189,141.769 187.216,140.545 187.216,138.474" style="fill:rgb(3,4,4);fill-rule:nonzero;"/>
        <path d="M210.409,141.393L206.172,128.432L201.904,141.393L200.336,141.393L195.408,126.235L197.166,126.235L201.182,139.102L205.45,126.235L206.863,126.235L211.13,139.102L215.146,126.235L216.904,126.235L211.977,141.393L210.409,141.393Z" style="fill:rgb(3,4,4);fill-rule:nonzero;"/>
        <path d="M229.93,138.41L229.93,135.085C228.862,133.705 227.168,132.983 225.347,132.983C222.838,132.983 221.205,134.582 221.205,136.748C221.205,138.882 222.838,140.482 225.347,140.482C227.168,140.482 228.862,139.791 229.93,138.41M229.93,141.393L229.93,139.603C228.58,141.078 226.886,141.769 224.784,141.769C222.179,141.769 219.479,139.98 219.479,136.717C219.479,133.422 222.147,131.696 224.784,131.696C226.886,131.696 228.612,132.385 229.93,133.861L229.93,130.785C229.93,128.526 228.109,127.302 225.85,127.302C223.966,127.302 222.492,127.961 221.111,129.53L220.201,128.4C221.77,126.706 223.527,125.858 226.039,125.858C229.113,125.858 231.562,127.334 231.562,130.723L231.562,141.393L229.93,141.393Z" style="fill:rgb(3,4,4);fill-rule:nonzero;"/>
        <path d="M237.589,141.393L237.589,126.235L239.22,126.235L239.22,128.84C240.506,127.145 242.233,125.921 244.336,125.921L244.336,127.71C244.054,127.648 243.833,127.648 243.521,127.648C241.982,127.648 239.911,129.029 239.22,130.345L239.22,141.393L237.589,141.393Z" style="fill:rgb(3,4,4);fill-rule:nonzero;"/>
        <path d="M254.565,127.271C250.988,127.271 249.2,130.409 249.075,133.045L260.089,133.045C260.058,130.472 258.364,127.271 254.565,127.271M247.286,133.798C247.286,129.405 250.393,125.859 254.598,125.859C259.211,125.859 261.752,129.53 261.752,133.892L261.752,134.332L249.075,134.332C249.231,137.626 251.428,140.356 255.005,140.356C256.92,140.356 258.678,139.635 259.964,138.254L260.811,139.322C259.305,140.89 257.391,141.769 254.881,141.769C250.455,141.769 247.286,138.474 247.286,133.798" style="fill:rgb(3,4,4);fill-rule:nonzero;"/>
        <path d="M140.267,108.674L142.531,105.088C144.136,106.739 147.297,108.296 150.27,108.296C153.243,108.296 154.753,107.022 154.753,105.23C154.753,100.746 140.975,103.955 140.975,95.2264C140.975,91.4984 144.183,88.2897 149.94,88.2897C153.809,88.2897 156.734,89.658 158.811,91.4984L156.734,94.9895C155.366,93.4331 152.818,92.2535 149.987,92.2535C147.392,92.2535 145.74,93.4331 145.74,95.0365C145.74,99.095 159.518,96.0751 159.518,105.135C159.518,109.145 156.168,112.212 150.035,112.212C146.165,112.212 142.625,110.986 140.267,108.674" style="fill:rgb(3,4,4);fill-rule:nonzero;"/>
        <path d="M165.511,106.361L165.511,93.1969L161.736,93.1969L161.736,88.8562L165.511,88.8562L165.511,82.6274L170.465,82.6274L170.465,88.8562L175.089,88.8562L175.089,93.1969L170.465,93.1969L170.465,105.135C170.465,106.692 171.22,107.824 172.636,107.824C173.579,107.824 174.476,107.446 174.853,107.022L176.032,110.75C175.136,111.6 173.674,112.212 171.362,112.212C167.539,112.212 165.511,110.136 165.511,106.361" style="fill:rgb(3,4,4);fill-rule:nonzero;"/>
        <path d="M189.716,92.3476C185.47,92.3476 183.535,95.6033 183.299,98.3873L196.133,98.3873C196.039,95.6973 194.199,92.3476 189.716,92.3476M178.157,100.228C178.157,93.621 182.969,88.2898 189.716,88.2898C196.558,88.2898 200.946,93.527 200.946,100.699L200.946,101.879L183.346,101.879C183.724,105.324 186.319,108.155 190.613,108.155C192.83,108.155 195.472,107.258 197.077,105.654L199.341,108.91C197.077,111.08 193.727,112.212 190.093,112.212C183.252,112.212 178.157,107.447 178.157,100.228" style="fill:rgb(3,4,4);fill-rule:nonzero;"/>
        <path d="M219.301,106.456L219.301,103.012C218.168,101.454 216.046,100.652 213.875,100.652C211.091,100.652 209.015,102.257 209.015,104.757C209.015,107.211 211.091,108.815 213.875,108.815C216.046,108.815 218.168,108.013 219.301,106.456M219.301,111.646L219.301,109.192C217.602,111.127 214.96,112.212 211.941,112.212C208.213,112.212 204.013,109.711 204.013,104.663C204.013,99.4249 208.213,97.2547 211.941,97.2547C215.007,97.2547 217.649,98.2453 219.301,100.181L219.301,96.7829C219.301,94.1408 217.131,92.5366 213.97,92.5366C211.421,92.5366 209.203,93.48 207.221,95.4144L205.193,91.9705C207.835,89.4695 211.138,88.2897 214.771,88.2897C219.821,88.2897 224.255,90.4131 224.255,96.5469L224.255,111.646L219.301,111.646Z" style="fill:rgb(3,4,4);fill-rule:nonzero;"/>
        <path d="M257.663,111.646L257.663,96.7829C257.663,94.3297 256.577,92.678 253.935,92.678C251.717,92.678 249.642,94.2348 248.65,95.6973L248.65,111.646L243.696,111.646L243.696,96.7829C243.696,94.3297 242.611,92.678 239.92,92.678C237.751,92.678 235.722,94.2348 234.683,95.7443L234.683,111.646L229.729,111.646L229.729,88.8558L234.683,88.8558L234.683,91.9705C235.628,90.5547 238.648,88.2897 242.092,88.2897C245.489,88.2897 247.566,89.9886 248.32,92.489C249.642,90.4131 252.661,88.2897 256.059,88.2897C260.258,88.2897 262.617,90.5547 262.617,95.1784L262.617,111.646L257.663,111.646Z" style="fill:rgb(3,4,4);fill-rule:nonzero;"/>
        <path d="M266.204,100.228C266.204,93.3391 271.064,88.2898 278,88.2898C282.436,88.2898 285.125,90.1771 286.73,92.3476L283.474,95.3674C282.2,93.574 280.454,92.6781 278.236,92.6781C274.084,92.6781 271.347,95.7922 271.347,100.228C271.347,104.663 274.084,107.824 278.236,107.824C280.454,107.824 282.2,106.881 283.474,105.135L286.73,108.155C285.125,110.325 282.436,112.212 278,112.212C271.064,112.212 266.204,107.164 266.204,100.228" style="fill:rgb(3,4,4);fill-rule:nonzero;"/>
        <rect x="289.655" y="80.174" width="4.95441" height="31.4723" style="fill:rgb(3,4,4);"/>
        <path d="M316.976,100.228C316.976,96.217 314.616,92.6781 310.369,92.6781C306.17,92.6781 303.811,96.217 303.811,100.228C303.811,104.285 306.17,107.824 310.369,107.824C314.616,107.824 316.976,104.285 316.976,100.228M298.667,100.228C298.667,93.716 303.15,88.2898 310.369,88.2898C317.683,88.2898 322.119,93.716 322.119,100.228C322.119,106.786 317.683,112.212 310.369,112.212C303.15,112.212 298.667,106.786 298.667,100.228" style="fill:rgb(3,4,4);fill-rule:nonzero;"/>
        <path d="M325.233,100.228C325.233,93.3391 330.093,88.2898 337.029,88.2898C341.465,88.2898 344.154,90.1771 345.758,92.3476L342.503,95.3674C341.228,93.574 339.483,92.6781 337.265,92.6781C333.113,92.6781 330.376,95.7922 330.376,100.228C330.376,104.663 333.113,107.824 337.265,107.824C339.483,107.824 341.228,106.881 342.503,105.135L345.758,108.155C344.154,110.325 341.465,112.212 337.029,112.212C330.093,112.212 325.233,107.164 325.233,100.228" style="fill:rgb(3,4,4);fill-rule:nonzero;"/>
        <path d="M364.255,111.646L357.272,102.257L354.109,105.513L354.109,111.646L349.156,111.646L349.156,80.1737L354.109,80.1737L354.109,99.8498L364.161,88.8558L370.295,88.8558L360.81,99.19L370.484,111.646L364.255,111.646Z" style="fill:rgb(3,4,4);fill-rule:nonzero;"/>
        <path d="M78.1063,73.8075C76.8863,73.8075 75.6489,73.8687 74.4272,73.9893C54.1697,75.9785 39.2957,94.112 41.2708,114.412C43.1819,133.418 58.981,147.751 78.0208,147.751C79.2328,147.751 80.4629,147.691 81.6767,147.571C101.924,145.547 116.824,127.416 114.892,107.154C112.999,88.1438 97.1841,73.8075 78.1063,73.8075M82.0927,157.655C81.6693,157.655 79.5181,157.611 78.7516,156.73C78.4742,156.417 78.2586,155.492 77.8646,153.606C77.6868,152.755 77.4502,151.621 77.2979,151.254C76.2467,151.237 75.161,151.175 74.1058,151.069L73.3919,150.999C72.5535,150.919 71.6885,150.834 70.8388,150.684C70.6147,151.02 70.159,152.092 69.817,152.896C69.0681,154.659 68.6787,155.517 68.3458,155.766C68.0027,156.029 67.4491,156.166 66.7046,156.166C65.7939,156.166 64.8462,155.969 64.3124,155.801C63.4344,155.535 61.3738,154.576 60.9962,153.46C60.8587,153.072 61.0126,152.137 61.3716,150.242C61.5341,149.386 61.7503,148.245 61.7503,147.848C60.8496,147.461 59.8969,147.003 58.8763,146.465L58.7721,146.402L58.4364,146.225C57.6292,145.797 56.7953,145.356 55.9993,144.852C55.6598,145.081 54.8265,145.898 54.2009,146.512C52.8389,147.848 52.1528,148.49 51.7549,148.598C51.6336,148.63 51.5035,148.645 51.3647,148.645C50.3017,148.645 48.7416,147.692 48.0084,147.089C47.3003,146.507 45.7712,144.836 45.8392,143.653C45.8641,143.238 46.3629,142.436 47.4157,140.831C47.8964,140.099 48.5383,139.12 48.6906,138.752C47.9801,138.022 47.2646,137.221 46.561,136.368L46.155,135.876C45.602,135.207 45.0308,134.517 44.5185,133.785C44.1177,133.872 43.0665,134.296 42.2768,134.616C40.7183,135.246 39.7384,135.628 39.2709,135.628L39.2442,135.628L39.1621,135.621C37.9649,135.462 36.651,133.477 36.2853,132.795C35.8522,131.98 35.0796,129.841 35.5981,128.79C35.7758,128.421 36.5412,127.871 38.1245,126.793C38.8486,126.3 39.8154,125.641 40.099,125.357C39.7311,124.421 39.3829,123.425 39.0461,122.338L38.9148,121.911C38.6419,121.02 38.3606,120.101 38.158,119.169C37.7616,119.089 36.5887,119.08 35.7096,119.071C33.8007,119.054 32.8627,119.023 32.5033,118.817C31.4497,118.203 31.0009,115.866 30.9261,115.096C30.8338,114.182 30.929,111.915 31.8171,111.14C32.1268,110.861 33.0569,110.644 34.9579,110.249C35.8019,110.074 36.9267,109.84 37.2952,109.689C37.3105,108.711 37.3682,107.657 37.4718,106.501L37.4848,106.399L37.5443,105.8C37.627,104.956 37.7124,104.086 37.8636,103.227C37.5244,103.004 36.4602,102.551 35.6609,102.212C33.8918,101.459 33.0308,101.068 32.7773,100.735C32.0447,99.7846 32.5021,97.5031 32.7404,96.7052C33.0065,95.8229 33.9649,93.7649 35.0823,93.387C35.1798,93.3525 35.3037,93.3372 35.4696,93.3372C36.0543,93.3372 37.1933,93.552 38.2938,93.7601C39.2635,93.9442 40.2655,94.1331 40.6974,94.136C41.1304,93.1498 41.6015,92.1767 42.0888,91.2623L42.1245,91.1899L42.3787,90.7149C42.7891,89.9456 43.2131,89.1509 43.6954,88.3929C43.4718,88.0583 42.651,87.2217 42.0356,86.5949C40.6974,85.2318 40.0549,84.5457 39.9484,84.1466C39.6405,82.9788 40.9669,81.0037 41.456,80.4042C42.0192,79.7216 43.6433,78.2299 44.81,78.2299L44.8944,78.2321C45.3116,78.2588 46.1149,78.7586 47.7231,79.8132C48.4517,80.291 49.4237,80.9285 49.7905,81.0807C50.5326,80.3601 51.3438,79.636 52.1783,78.9528L52.6198,78.5893C53.3048,78.0238 54.0118,77.4402 54.7602,76.9131C54.6798,76.5164 54.2462,75.4413 53.9201,74.6346C53.2006,72.8526 52.8683,71.9678 52.9272,71.5534C53.0868,70.364 55.0687,69.044 55.7497,68.6754C56.5303,68.2577 57.8872,67.8144 58.8677,67.8144C59.2232,67.8144 59.5216,67.8722 59.7548,67.9853C60.1284,68.1682 60.6776,68.9352 61.7582,70.5214C62.2478,71.2404 62.9005,72.1987 63.1864,72.488C64.2082,72.0906 65.2153,71.7402 66.2105,71.4362L66.3163,71.4096L66.8309,71.2517C67.6591,70.9975 68.5145,70.7354 69.3829,70.5395C69.457,70.1337 69.4667,68.9867 69.4734,68.1251C69.4899,66.2005 69.5204,65.2545 69.7292,64.8951C70.3418,63.8472 72.6781,63.3893 73.4485,63.3111C73.6296,63.2941 73.8369,63.2851 74.061,63.2851C74.4845,63.2851 76.6378,63.3298 77.41,64.2101C77.6834,64.5215 77.8974,65.4373 78.288,67.3106C78.4663,68.1659 78.7041,69.3049 78.858,69.6825C79.9647,69.7057 81.0285,69.7663 82.0513,69.8659L82.1544,69.8789L82.7403,69.9361C83.5827,70.0176 84.4521,70.1014 85.316,70.2565C85.5408,69.9196 85.9976,68.843 86.3406,68.0363C87.089,66.2764 87.4767,65.4198 87.8057,65.1685C88.1526,64.9047 88.7006,64.7717 89.4371,64.7717C90.3367,64.7717 91.2979,64.9664 91.847,65.1328C92.725,65.3972 94.7804,66.3539 95.1626,67.473C95.3001,67.8665 95.1456,68.8022 94.7855,70.6969C94.6231,71.5506 94.4068,72.689 94.4062,73.0881C95.4337,73.5336 96.3887,73.9938 97.2877,74.4767L97.3793,74.5293L97.937,74.8276C98.6734,75.2205 99.4336,75.6258 100.16,76.0861C100.497,75.8551 101.318,75.049 101.934,74.4433C103.306,73.0938 103.998,72.4461 104.401,72.3408C104.519,72.3091 104.652,72.2927 104.794,72.2927C105.852,72.2927 107.378,73.2239 108.144,73.85C108.855,74.4365 110.385,76.1127 110.319,77.2828C110.294,77.7011 109.793,78.5055 108.736,80.1161C108.26,80.8423 107.625,81.8104 107.47,82.1801C108.157,82.8922 108.86,83.6785 109.595,84.5621L109.66,84.6482L110.074,85.1514C110.6,85.7917 111.144,86.4535 111.636,87.1503C112.038,87.0682 113.113,86.6341 113.918,86.3085C115.459,85.6858 116.427,85.3077 116.887,85.3077L116.989,85.3145C118.196,85.4758 119.509,87.4611 119.874,88.1438C120.306,88.9584 121.08,91.0954 120.564,92.1443C120.379,92.518 119.616,93.0659 118.037,94.1418C117.31,94.6366 116.341,95.2983 116.058,95.5831C116.437,96.5422 116.786,97.5395 117.113,98.6011L117.139,98.7095L117.291,99.2053C117.545,100.036 117.809,100.893 118.003,101.765C118.399,101.845 119.573,101.856 120.451,101.865C122.358,101.883 123.296,101.915 123.654,102.123C124.703,102.728 125.156,105.071 125.233,105.844C125.335,106.858 125.179,109.061 124.343,109.798C124.031,110.074 123.112,110.288 121.233,110.678C120.375,110.856 119.23,111.093 118.862,111.248C118.842,112.294 118.782,113.368 118.682,114.438L118.667,114.545L118.619,115.054C118.536,115.924 118.451,116.823 118.293,117.71C118.631,117.935 119.702,118.39 120.505,118.732C122.268,119.482 123.125,119.871 123.376,120.2C124.111,121.151 123.655,123.435 123.417,124.233C123.152,125.116 122.192,127.172 121.072,127.552C120.974,127.585 120.852,127.601 120.689,127.601C120.105,127.601 118.963,127.386 117.859,127.177C116.894,126.995 115.896,126.806 115.463,126.802C115.04,127.769 114.574,128.727 114.067,129.677L113.757,130.261C113.354,131.021 112.937,131.807 112.462,132.552C112.693,132.889 113.497,133.708 114.101,134.321C115.453,135.696 116.101,136.388 116.208,136.795C116.517,137.966 115.187,139.937 114.696,140.536C114.138,141.217 112.519,142.711 111.347,142.711L111.269,142.709C110.85,142.686 110.047,142.187 108.441,141.134C107.707,140.653 106.727,140.011 106.361,139.862C105.572,140.622 104.771,141.334 103.976,141.984L103.931,142.028L103.57,142.326C102.875,142.899 102.156,143.489 101.393,144.02C101.471,144.414 101.909,145.499 102.239,146.314C102.956,148.09 103.288,148.971 103.231,149.382C103.069,150.579 101.134,151.87 100.403,152.267C99.6091,152.683 98.2494,153.124 97.2843,153.124C96.931,153.124 96.6338,153.067 96.4017,152.954C96.0281,152.771 95.4801,152.005 94.4046,150.424C93.9109,149.698 93.252,148.729 92.9672,148.444C92.0372,148.818 91.0103,149.176 89.9467,149.499L89.2226,149.718C88.4301,149.959 87.612,150.208 86.777,150.39C86.7001,150.786 86.6899,151.953 86.682,152.827C86.665,154.742 86.6344,155.683 86.4278,156.04C85.8181,157.095 83.5402,157.545 82.7137,157.629C82.5297,157.646 82.3202,157.655 82.0927,157.655" style="fill:rgb(35,31,32);fill-rule:nonzero;"/>
        <path d="M78.0205,147.372C68.996,147.372 60.315,144.025 53.5757,137.948C46.798,131.836 42.5618,123.463 41.6476,114.373C39.693,94.2827 54.4147,76.3353 74.4644,74.3665C75.673,74.247 76.8986,74.1865 78.1061,74.1865C87.1442,74.1865 95.8366,77.5315 102.583,83.6055C109.371,89.7193 113.609,98.0957 114.515,107.193C116.427,127.245 101.68,145.191 81.6385,147.194C80.4384,147.313 79.2207,147.372 78.0205,147.372M74.0608,62.9065C73.8281,62.9065 73.6113,62.9155 73.4165,62.9337C73.3787,62.9371 70.2397,63.2705 69.4024,64.7033C69.1448,65.1466 69.112,66.0387 69.0951,68.1219C69.0894,68.791 69.0814,69.729 69.0385,70.2305C68.247,70.4208 67.4726,70.6586 66.7203,70.8895L66.2052,71.0469L66.1389,71.0633L66.1196,71.0679L66.0999,71.0741C65.1687,71.3582 64.2284,71.6826 63.2994,72.0404C62.9841,71.6492 62.4509,70.8657 62.0716,70.3087C60.9021,68.5912 60.3801,67.8694 59.921,67.6453C59.6357,67.5066 59.2813,67.4358 58.8675,67.4358C57.6906,67.4358 56.2521,67.977 55.5723,68.3409C55.5423,68.3574 52.7707,69.8728 52.5516,71.5065C52.4798,72.0098 52.79,72.8464 53.5689,74.7768C53.8214,75.4012 54.1758,76.2798 54.3258,76.7581C53.6487,77.2484 53.0045,77.7805 52.3784,78.2973L52.0088,78.6019L51.9375,78.6608C51.1744,79.2852 50.4299,79.9441 49.7212,80.6228C49.2836,80.3834 48.4928,79.8654 47.9312,79.4963C46.1905,78.3551 45.4302,77.8864 44.9185,77.8541C44.8822,77.8519 44.8461,77.8507 44.8098,77.8507C43.3918,77.8507 41.6601,79.5614 41.1653,80.1609C41.1421,80.1893 39.1608,82.6449 39.5814,84.2413C39.7139,84.735 40.3168,85.3848 41.7654,86.8606C42.242,87.3458 42.9128,88.029 43.2344,88.4156C42.803,89.1153 42.4181,89.8359 42.0444,90.5368L41.7965,90.9993L41.7439,91.1046C41.304,91.9293 40.8698,92.8192 40.4572,93.7419C39.9692,93.692 39.1246,93.5328 38.3638,93.388C37.1942,93.1674 36.0904,92.958 35.4693,92.958C35.2599,92.958 35.0962,92.9812 34.9548,93.0304C33.6924,93.457 32.6734,95.6167 32.3785,96.5949C32.3683,96.6275 31.4772,99.6685 32.4782,100.968C32.7872,101.374 33.5979,101.746 35.5129,102.56C36.1317,102.824 37.0012,103.194 37.4455,103.426C37.3193,104.21 37.2423,104.998 37.167,105.763L37.107,106.369L37.0974,106.44C37.0006,107.515 36.9434,108.487 36.9225,109.414C36.4459,109.553 35.5316,109.743 34.8806,109.878C32.8223,110.307 31.9454,110.515 31.5599,110.862C30.46,111.822 30.4827,114.478 30.5495,115.136C30.5523,115.164 30.871,118.305 32.3105,119.143C32.7555,119.398 33.6409,119.431 35.706,119.45C36.387,119.457 37.3448,119.464 37.8464,119.51C38.0456,120.368 38.3026,121.206 38.5522,122.021L38.6581,122.367L38.6864,122.455C38.9921,123.443 39.3092,124.363 39.6505,125.246C39.2593,125.562 38.4713,126.099 37.9108,126.48C36.1962,127.648 35.4761,128.169 35.2548,128.629C34.6225,129.911 35.5684,132.253 35.95,132.972C35.9664,133.002 37.4716,135.779 39.1155,135.998C39.1574,136.002 39.2112,136.007 39.2706,136.007C39.7891,136.007 40.67,135.673 42.4186,134.968C43.0306,134.719 43.8894,134.372 44.3643,134.222C44.8426,134.883 45.36,135.509 45.8627,136.117L46.2131,136.541L46.2732,136.613C46.9173,137.396 47.5757,138.138 48.2319,138.823C47.9918,139.263 47.4698,140.058 47.0985,140.624C45.9595,142.362 45.492,143.119 45.4608,143.629C45.3838,144.97 46.9813,146.737 47.7676,147.382C48.3247,147.839 50.0568,149.024 51.3651,149.024C51.5361,149.024 51.6991,149.005 51.8491,148.964C52.3427,148.831 52.9921,148.229 54.4667,146.783C54.9519,146.306 55.6345,145.637 56.0224,145.312C56.7611,145.765 57.5214,146.169 58.2595,146.56L58.5947,146.738L58.6575,146.776L58.6784,146.789L58.6999,146.8C59.6266,147.289 60.499,147.712 61.3538,148.089C61.3005,148.585 61.1245,149.511 60.9994,150.171C60.6105,152.223 60.469,153.108 60.641,153.593C61.0657,154.847 63.227,155.868 64.2069,156.165C64.7582,156.338 65.7506,156.544 66.705,156.544C67.5468,156.544 68.1604,156.386 68.5816,156.062C68.9829,155.762 69.3543,154.954 70.1661,153.044C70.4305,152.422 70.803,151.546 71.0362,151.102C71.8139,151.228 72.5957,151.303 73.3554,151.377C73.5626,151.397 73.7698,151.417 73.9753,151.439L74.0795,151.447C75.0362,151.543 76.0273,151.605 77.0237,151.628C77.164,152.105 77.3565,153.027 77.4936,153.683C77.9198,155.725 78.127,156.595 78.469,156.984C79.3181,157.958 81.4573,158.035 82.0931,158.035C82.3285,158.035 82.5488,158.025 82.7458,158.007C82.7842,158.003 85.9254,157.666 86.7559,156.229C87.0095,155.791 87.0429,154.903 87.061,152.83C87.0667,152.153 87.0752,151.202 87.1193,150.701C87.8773,150.523 88.6156,150.299 89.3328,150.081C89.5444,150.016 89.755,149.952 89.9662,149.89L90.059,149.861C91.0276,149.567 91.9673,149.242 92.8584,148.895C93.1748,149.288 93.7103,150.076 94.0913,150.637C95.2557,152.349 95.7754,153.069 96.2328,153.293C96.5209,153.432 96.8731,153.503 97.284,153.503C98.4434,153.503 99.8872,152.965 100.575,152.604C100.611,152.585 103.386,151.065 103.607,149.433C103.676,148.928 103.367,148.095 102.59,146.172C102.336,145.542 101.977,144.656 101.827,144.177C102.522,143.68 103.176,143.142 103.811,142.62L104.148,142.341L104.172,142.322L104.194,142.301L104.239,142.257C104.97,141.661 105.706,141.009 106.432,140.319C106.87,140.558 107.668,141.08 108.233,141.451C109.973,142.591 110.734,143.058 111.249,143.087C111.279,143.089 111.314,143.089 111.346,143.089C112.666,143.089 114.37,141.531 114.989,140.776C115.01,140.751 116.998,138.301 116.574,136.697C116.444,136.199 115.835,135.543 114.371,134.056C113.903,133.58 113.246,132.912 112.924,132.528C113.349,131.84 113.726,131.13 114.092,130.438L114.361,129.933L114.406,129.847C114.875,128.968 115.311,128.077 115.702,127.197C116.189,127.248 117.031,127.406 117.788,127.549C118.961,127.77 120.07,127.979 120.689,127.979C120.894,127.979 121.055,127.957 121.195,127.91C122.463,127.48 123.485,125.322 123.78,124.345C123.79,124.311 124.679,121.267 123.674,119.967C123.369,119.566 122.561,119.195 120.654,118.383C120.031,118.118 119.157,117.747 118.711,117.513C118.844,116.698 118.921,115.882 118.995,115.09L119.044,114.581L119.055,114.505L119.058,114.49L119.059,114.474C119.151,113.484 119.21,112.493 119.234,111.522C119.715,111.38 120.648,111.186 121.31,111.049C123.344,110.627 124.211,110.421 124.595,110.08C125.697,109.111 125.676,106.461 125.61,105.804C125.522,104.924 125.035,102.483 123.843,101.794C123.404,101.54 122.519,101.506 120.455,101.486C119.773,101.479 118.814,101.47 118.313,101.423C118.124,100.628 117.885,99.8498 117.654,99.095L117.502,98.5983L117.488,98.5398L117.482,98.5139L117.474,98.4899C117.176,97.5194 116.858,96.5997 116.507,95.6925C116.898,95.377 117.689,94.838 118.251,94.4544C119.959,93.2902 120.678,92.7706 120.904,92.3143C121.537,91.0247 120.59,88.6851 120.209,87.9667C120.192,87.9373 118.69,85.1601 117.039,84.9387C116.994,84.9331 116.942,84.9291 116.886,84.9291C116.376,84.9291 115.506,85.2586 113.777,85.9571C113.15,86.2107 112.27,86.5662 111.791,86.7163C111.336,86.089 110.844,85.4912 110.366,84.9109C110.226,84.74 110.085,84.5696 109.946,84.3992L109.908,84.3466L109.897,84.333L109.886,84.32C109.216,83.5144 108.572,82.7887 107.929,82.1111C108.168,81.6729 108.685,80.8849 109.053,80.3239C110.198,78.5804 110.666,77.8196 110.697,77.3067C110.779,75.8716 109.013,74.0755 108.389,73.5592C107.688,72.9886 106.042,71.9141 104.794,71.9141C104.619,71.9141 104.453,71.9351 104.301,71.9758C103.809,72.1038 103.155,72.7118 101.668,74.1728C101.191,74.6427 100.52,75.3016 100.136,75.6249C99.4682,75.215 98.7819,74.8493 98.1151,74.4938C97.9254,74.3924 97.7364,74.2917 97.5484,74.1904L97.4907,74.1559C96.6421,73.6996 95.7647,73.2727 94.8029,72.8464C94.8572,72.35 95.0327,71.425 95.1572,70.7678C95.5473,68.7163 95.6888,67.8326 95.5195,67.3463C95.0876,66.0811 92.9314,65.0639 91.9555,64.7701C91.3826,64.5963 90.3783,64.3931 89.4369,64.3931C88.6047,64.3931 87.9968,64.5476 87.5773,64.8658C87.1714,65.1765 86.8018,65.9832 85.9923,67.8881C85.7267,68.5131 85.3531,69.3922 85.1193,69.8383C84.3291,69.7092 83.5411,69.6328 82.7763,69.5591L82.1814,69.5008L82.114,69.4912C81.1346,69.3961 80.14,69.3362 79.133,69.3107C78.9914,68.8272 78.7972,67.896 78.6586,67.2336C78.2357,65.2059 78.0302,64.3421 77.6945,63.96C76.8369,62.9824 74.6965,62.9065 74.0608,62.9065M78.0205,148.13C79.2405,148.13 80.4735,148.071 81.7138,147.949C102.265,145.894 117.221,127.587 115.27,107.118C113.349,87.8371 97.0978,73.4279 78.1061,73.4285C76.8782,73.4289 75.6379,73.489 74.3902,73.6124C53.9137,75.6231 38.8907,93.8636 40.8942,114.449C42.8302,133.706 59.047,148.13 78.0205,148.13M74.0608,63.6639C75.1295,63.6639 76.615,63.8785 77.125,64.4598C77.609,65.0107 78.277,70.0483 78.6761,70.0579L78.7118,70.0602C79.8236,70.0777 80.9235,70.1366 82.0149,70.2424L82.1049,70.2543C83.1867,70.3641 84.2866,70.4474 85.3786,70.6535L85.4222,70.6574C85.4256,70.658 85.4284,70.658 85.4313,70.658C85.84,70.658 87.4584,65.9113 88.0358,65.4692C88.3416,65.2365 88.8623,65.1505 89.4369,65.1505C90.2476,65.1505 91.1652,65.322 91.7369,65.4953C92.7077,65.7874 94.5039,66.7174 94.804,67.5954C95.0468,68.2917 93.7296,73.2003 94.0946,73.3583L94.1287,73.378C95.1476,73.8195 96.1462,74.2934 97.1085,74.8102L97.1884,74.8567C98.1428,75.3724 99.1315,75.8733 100.06,76.4717L100.1,76.5017C100.11,76.5073 100.12,76.5102 100.134,76.5102C100.615,76.5102 103.806,72.8878 104.496,72.7072C104.587,72.6834 104.687,72.6721 104.794,72.6721C105.734,72.6721 107.195,73.5631 107.905,74.1434C108.694,74.7944 109.994,76.3336 109.941,77.2608C109.896,77.9956 106.803,82.0267 107.078,82.3104L107.099,82.3426C107.873,83.138 108.607,83.9667 109.304,84.8046L109.358,84.8776C110.047,85.7233 110.768,86.564 111.398,87.4697L111.426,87.5098C111.442,87.532 111.478,87.5427 111.531,87.5427C112.243,87.5427 116.075,85.6871 116.887,85.6871C116.905,85.6871 116.923,85.6876 116.938,85.6899C117.858,85.8128 119.057,87.4199 119.539,88.3222C120.02,89.2263 120.632,91.1487 120.225,91.9775C119.897,92.6386 115.5,95.1813 115.647,95.5544L115.653,95.5918C116.065,96.6237 116.426,97.6594 116.75,98.7124L116.77,98.7958C117.087,99.8411 117.43,100.895 117.661,101.975L117.672,102.015C117.759,102.41 122.829,102.081 123.464,102.451C124.259,102.91 124.755,104.863 124.855,105.881C124.958,106.889 124.782,108.906 124.093,109.514C123.539,110.004 118.502,110.66 118.493,111.064L118.485,111.108C118.468,112.214 118.406,113.312 118.305,114.403L118.293,114.494C118.186,115.577 118.1,116.68 117.897,117.767L117.891,117.816C117.82,118.208 122.631,119.848 123.075,120.43C123.641,121.163 123.346,123.149 123.055,124.126C122.759,125.105 121.831,126.895 120.95,127.193C120.891,127.213 120.802,127.222 120.689,127.222C119.624,127.222 116.393,126.423 115.446,126.423C115.298,126.423 115.206,126.442 115.186,126.487L115.171,126.521C114.733,127.538 114.249,128.531 113.732,129.498L113.693,129.576C113.176,130.541 112.678,131.525 112.078,132.448L112.045,132.492C111.835,132.83 115.653,136.175 115.842,136.889C116.077,137.783 115.047,139.51 114.403,140.296C113.767,141.071 112.276,142.332 111.346,142.332C111.328,142.332 111.309,142.332 111.29,142.331C110.584,142.291 106.867,139.456 106.291,139.456C106.265,139.456 106.244,139.462 106.232,139.475L106.198,139.492C105.404,140.262 104.583,140.999 103.737,141.689L103.669,141.755C102.829,142.444 101.983,143.159 101.069,143.783L101.035,143.814C100.705,144.046 102.956,148.605 102.856,149.332C102.732,150.247 101.121,151.447 100.222,151.933C99.5267,152.299 98.2249,152.745 97.284,152.745C97.0049,152.745 96.7576,152.705 96.5673,152.613C95.9192,152.295 93.4505,148.027 93.014,148.027C93.0067,148.027 92.9998,148.028 92.9942,148.03L92.9591,148.041C91.9282,148.456 90.8822,148.82 89.8366,149.137L89.75,149.163C88.7049,149.475 87.6548,149.82 86.5725,150.047L86.5233,150.063C86.1372,150.153 86.465,155.22 86.0998,155.85C85.6328,156.658 83.6883,157.149 82.6756,157.252C82.5051,157.268 82.307,157.276 82.0931,157.276C81.0231,157.276 79.5433,157.063 79.0373,156.482C78.5448,155.923 77.8802,150.891 77.4828,150.886L77.4443,150.877C76.3376,150.862 75.2297,150.802 74.1435,150.692L74.0528,150.685C72.9705,150.574 71.8615,150.489 70.7797,150.288L70.7351,150.282C70.7322,150.282 70.7288,150.282 70.7259,150.282C70.3121,150.282 68.6999,155.027 68.1185,155.463C67.8117,155.699 67.2847,155.787 66.705,155.787C65.8967,155.787 64.987,155.616 64.4259,155.44C63.446,155.143 61.6521,154.217 61.3555,153.338C61.1104,152.651 62.4265,147.74 62.0626,147.58L62.0269,147.554C61.0096,147.121 60.0212,146.64 59.0532,146.13L58.97,146.08C58.0122,145.569 57.026,145.061 56.0953,144.464L56.058,144.438C56.0489,144.432 56.0376,144.429 56.0241,144.429C55.5395,144.429 52.3439,148.046 51.6555,148.232C51.5666,148.256 51.4687,148.266 51.3651,148.266C50.4265,148.266 48.957,147.377 48.2483,146.796C47.4597,146.149 46.1639,144.602 46.2171,143.675C46.2619,142.946 49.3555,138.912 49.081,138.625L49.0601,138.588C48.2834,137.798 47.5497,136.972 46.8534,136.127L46.799,136.062C46.1055,135.216 45.3844,134.375 44.7572,133.465L44.7328,133.423C44.7176,133.401 44.6831,133.391 44.632,133.391C43.9307,133.391 40.0931,135.25 39.2706,135.25C39.2503,135.25 39.2316,135.249 39.2152,135.246C38.3004,135.124 37.0986,133.511 36.6191,132.616C36.1395,131.713 35.5282,129.788 35.9381,128.958C36.2528,128.302 40.6593,125.757 40.5109,125.384L40.5036,125.347C40.0926,124.315 39.7331,123.276 39.4082,122.225L39.3827,122.146C39.0635,121.098 38.7271,120.043 38.5013,118.966L38.4855,118.917C38.3994,118.525 33.33,118.854 32.6921,118.489C31.8894,118.021 31.4014,116.076 31.3035,115.06C31.201,114.051 31.3715,112.032 32.066,111.426C32.6151,110.932 37.6567,110.269 37.6641,109.875L37.6731,109.834C37.6861,108.725 37.7518,107.622 37.8492,106.536L37.8605,106.447C37.9714,105.363 38.0586,104.254 38.259,103.169L38.2669,103.123C38.3371,102.73 33.5265,101.095 33.0782,100.506C32.5178,99.7778 32.8127,97.7898 33.1036,96.8136C33.3986,95.8354 34.3304,94.0411 35.2038,93.7457C35.2633,93.7246 35.3538,93.716 35.4693,93.716C36.5375,93.716 39.7546,94.5148 40.7062,94.5148C40.8562,94.5148 40.9496,94.4956 40.9701,94.4496L40.9865,94.4189C41.4303,93.4014 41.9069,92.4088 42.4232,91.4408L42.4639,91.3581C42.9797,90.3992 43.4852,89.4148 44.0852,88.487L44.1051,88.4456C44.3218,88.1105 40.5036,84.7553 40.3145,84.0488C40.0801,83.1589 41.1099,81.4278 41.7495,80.6438C42.3881,79.8699 43.8781,78.6087 44.8098,78.6087C44.8307,78.6087 44.8512,78.6093 44.8709,78.6104C45.5751,78.6551 49.2966,81.489 49.8622,81.489C49.8865,81.489 49.9052,81.4833 49.9176,81.4719L49.9584,81.4471C50.7493,80.6737 51.574,79.9368 52.418,79.2461L52.4894,79.1872C53.3312,78.4966 54.1735,77.7799 55.0809,77.1516L55.1183,77.1244C55.45,76.8946 53.1982,72.3359 53.3023,71.6073C53.4252,70.6925 55.0362,69.4918 55.9301,69.009C56.6218,68.6387 57.9249,68.1932 58.8675,68.1932C59.1488,68.1932 59.398,68.2328 59.5887,68.3262C60.2363,68.6421 62.709,72.9082 63.1414,72.9082C63.1488,72.9082 63.1551,72.907 63.1607,72.9047L63.1998,72.8928C64.2301,72.4847 65.2756,72.1179 66.3212,71.7986L66.4072,71.7771C67.4488,71.4618 68.5034,71.1182 69.5813,70.8832L69.6351,70.8776C70.0194,70.7871 69.6889,65.7182 70.0568,65.0854C70.5261,64.2821 72.4707,63.7907 73.4867,63.6877C73.6549,63.6725 73.8496,63.6639 74.0608,63.6639" style="fill:rgb(3,4,4);fill-rule:nonzero;"/>
        <path d="M78.1327,108.196C78.8172,108.679 78.9808,109.624 78.4985,110.309L77.4071,111.856C76.9242,112.539 75.9794,112.704 75.2955,112.222L52.3077,96.0109C51.6234,95.5285 51.4598,94.5839 51.9421,93.9001L53.0335,92.3519C53.5158,91.6675 54.4612,91.5039 55.1456,91.9862L78.1327,108.196Z" style="fill:rgb(35,31,32);fill-rule:nonzero;"/>
        <path d="M79.7335,113.567C79.0802,114.091 78.1264,113.984 77.6038,113.33L76.4207,111.852C75.8988,111.197 76.0041,110.244 76.658,109.721L91.7403,97.5942C92.3941,97.0706 93.3474,97.178 93.8704,97.8311L95.053,99.3098C95.5767,99.9639 95.4702,100.917 94.8164,101.441L79.7335,113.567Z" style="fill:rgb(35,31,32);fill-rule:nonzero;"/>
        <path d="M78.0136,114.758C76.0024,114.758 74.333,113.241 74.1303,111.231C73.9203,109.088 75.4923,107.171 77.6355,106.96C77.7675,106.945 77.8987,106.94 78.0284,106.94C80.0419,106.94 81.7125,108.455 81.9134,110.465C82.1184,112.607 80.5429,114.526 78.4009,114.738C78.2712,114.751 78.1416,114.758 78.0136,114.758" style="fill:white;fill-rule:nonzero;"/>
        <path d="M78.0283,106.182C77.8738,106.182 77.7182,106.19 77.5613,106.205C75.0054,106.457 73.1243,108.737 73.3767,111.307C73.6191,113.711 75.6451,115.514 78.0136,115.514C78.1665,115.514 78.3204,115.507 78.4756,115.492C81.0451,115.238 82.912,112.947 82.6674,110.389C82.4269,107.981 80.4002,106.182 78.0283,106.182M78.0283,107.697C79.6513,107.697 80.9975,108.919 81.1588,110.534C81.3247,112.265 80.0538,113.813 78.3267,113.984C78.2225,113.994 78.1172,114 78.0136,114C76.3929,114 75.0479,112.776 74.8849,111.159C74.715,109.429 75.9825,107.883 77.7108,107.714C77.8161,107.702 77.923,107.697 78.0283,107.697" style="fill:rgb(35,31,32);fill-rule:nonzero;"/>
    </g>
</svg>
