<?xml version="1.0" encoding="utf-8"?>
<!-- Generator: Adobe Illustrator 16.0.0, SVG Export Plug-In . SVG Version: 6.00 Build 0)  -->
<!DOCTYPE svg PUBLIC "-//W3C//DTD SVG 1.1//EN" "http://www.w3.org/Graphics/SVG/1.1/DTD/svg11.dtd">
<svg version="1.1" id="Layer_1" xmlns="http://www.w3.org/2000/svg" xmlns:xlink="http://www.w3.org/1999/xlink" x="0px" y="0px"
	 width="565px" height="165px" viewBox="0 0 565 165" enable-background="new 0 0 565 165" xml:space="preserve">
<rect x="12.016" y="-33.839" fill="none" width="539.984" height="241.28"/>
<defs>
	<filter id="Adobe_OpacityMaskFilter" filterUnits="userSpaceOnUse" x="64.407" y="12.957" width="149.938" height="149.938">
		<feColorMatrix  type="matrix" values="1 0 0 0 0  0 1 0 0 0  0 0 1 0 0  0 0 0 1 0"/>
	</filter>
</defs>
<mask maskUnits="userSpaceOnUse" x="64.407" y="12.957" width="149.938" height="149.938" id="SVGID_1_">
	<g filter="url(#Adobe_OpacityMaskFilter)">
		<radialGradient id="SVGID_2_" cx="139.376" cy="88.5176" r="72.9321" gradientUnits="userSpaceOnUse">
			<stop  offset="0.9451" style="stop-color:#FFFFFF"/>
			<stop  offset="0.9456" style="stop-color:#F8F8F8"/>
			<stop  offset="0.9499" style="stop-color:#C4C4C4"/>
			<stop  offset="0.9544" style="stop-color:#969696"/>
			<stop  offset="0.9592" style="stop-color:#6D6D6D"/>
			<stop  offset="0.9641" style="stop-color:#4B4B4B"/>
			<stop  offset="0.9694" style="stop-color:#303030"/>
			<stop  offset="0.9751" style="stop-color:#1B1B1B"/>
			<stop  offset="0.9814" style="stop-color:#0C0C0C"/>
			<stop  offset="0.9888" style="stop-color:#030303"/>
			<stop  offset="1" style="stop-color:#000000"/>
		</radialGradient>
		<path fill="url(#SVGID_2_)" d="M212.308,88.515c0,40.284-32.654,72.936-72.933,72.936c-40.277,0-72.931-32.651-72.931-72.936
			c0-40.277,32.654-72.931,72.931-72.931C179.654,15.584,212.308,48.238,212.308,88.515z"/>
	</g>
</mask>
<path mask="url(#SVGID_1_)" fill="#FFFFFF" d="M214.345,87.928c0,41.397-33.564,74.967-74.97,74.967
	c-41.402,0-74.968-33.569-74.968-74.967c0-41.409,33.566-74.971,74.968-74.971C180.781,12.957,214.345,46.519,214.345,87.928z"/>
<path fill="#231F20" d="M479.225,6.294c7.925,0,14.049,5.741,14.049,13.333c0,7.6-6.124,13.344-14.049,13.344
	c-7.93,0-13.683-6.306-13.683-13.344C465.542,12.591,471.295,6.294,479.225,6.294z"/>
<rect x="468.972" y="48.373" fill="#231F20" width="20.854" height="83.435"/>
<path fill="#231F20" d="M300.447,108.356c-4.912,5.169-11.214,8.849-20.26,8.849c-11.652,0-21.038-7.485-22.433-19.813h63.622
	v-5.734c0-29.037-15.809-45.368-39.123-45.368c-25.193,0-45.353,17.547-45.353,43.798c0,26.244,20.16,43.81,45.353,43.81
	c11.497,0,22.317-3.571,31.353-12.379L300.447,108.356z M279.31,61.922c13.038,0,21.036,7.658,21.22,19.82h-42.774
	C259.323,69.742,266.976,61.922,279.31,61.922z"/>
<path fill="#231F20" d="M350.471,71.839c0-6.263,6.607-8.867,12.178-8.867c7.079,0,12.284,2.929,16.275,8.447l13.267-13.253
	c-6.868-8.574-18.255-11.876-29.029-11.876c-16.86,0-33.553,8.334-33.553,26.942c0,31.814,45.021,18.249,45.021,35.455
	c0,6.604-7.819,9.558-13.902,9.558c-8.844,0-14.396-4.316-19.772-10.207l-13.474,13.468c8.461,9.169,19.399,12.393,32.03,12.393
	c17.03,0,35.989-6.955,35.989-26.774C395.501,74.612,350.471,86.783,350.471,71.839z"/>
<path fill="#231F20" d="M458.399,47.488c-2.41-0.681-4.829-1.198-7.408-1.198c-10.962,0-20.177,5.732-24.699,15.281h-0.334V48.373
	H405.1v83.435h20.858V87.127c0-4.514,2.771-21.031,22.422-21.031c3.022,0,6.037,0.601,9.206,1.356L458.399,47.488z"/>
<path fill="#231F20" d="M506.018,47.957c3.719,0,6.759,3.039,6.759,6.761c0,3.718-3.04,6.747-6.759,6.747
	c-3.722,0-6.75-3.029-6.75-6.747C499.268,50.996,502.296,47.957,506.018,47.957z M506.018,60.272c3.074,0,5.557-2.486,5.557-5.554
	c0-3.071-2.482-5.557-5.557-5.557c-3.068,0-5.551,2.486-5.551,5.557C500.467,57.786,502.949,60.272,506.018,60.272z M503.425,50.812
	h2.973c1.856,0,2.722,0.834,2.722,2.328c0,1.342-0.787,1.991-1.844,2.12l2.012,3.265h-1.49l-1.925-3.158h-1.028v3.158h-1.419V50.812
	z M504.844,54.171h1.028c0.873,0,1.843-0.052,1.843-1.098c0-1.033-0.97-1.088-1.843-1.065h-1.028V54.171z"/>
<radialGradient id="SVGID_3_" cx="119.3691" cy="76.6641" r="45.8188" gradientUnits="userSpaceOnUse">
	<stop  offset="0" style="stop-color:#B9E0F7"/>
	<stop  offset="1" style="stop-color:#007AC2"/>
</radialGradient>
<path fill="url(#SVGID_3_)" d="M204.657,88.65c0,35.686-28.927,64.609-64.61,64.609c-35.679,0-64.608-28.924-64.608-64.609
	c0-35.68,28.929-64.609,64.608-64.609C175.73,24.042,204.657,52.971,204.657,88.65z"/>
<g>
	<radialGradient id="SVGID_4_" cx="116.8179" cy="77.3052" r="56.2099" gradientUnits="userSpaceOnUse">
		<stop  offset="0" style="stop-color:#B2D235"/>
		<stop  offset="0.9607" style="stop-color:#009E46"/>
	</radialGradient>
	<path fill="url(#SVGID_4_)" d="M85.191,94.336c-2.931-9.885,0.465-19.138,7.795-19.87c6.576-0.658,12.219-10.442,16.856-16.861
		c9.53-13.191,24.184-10.989,23.452-17.587c-2.11-9.677-13.3-2.488-20.521-2.2c-4.98,0.202-9.754,0.865-14.512,1.574
		C84.787,50.833,76.075,67.696,75.49,86.617c3.807,4.016,8.835,13.083,14.636,18.329c0.771-0.344,1.605-0.632,2.492-0.901
		C89.771,100.739,85.792,96.357,85.191,94.336z"/>
	<radialGradient id="SVGID_5_" cx="131.0269" cy="73.6299" r="71.4486" gradientUnits="userSpaceOnUse">
		<stop  offset="0" style="stop-color:#B2D235"/>
		<stop  offset="0.9607" style="stop-color:#009E46"/>
	</radialGradient>
	<path fill="url(#SVGID_5_)" d="M129.632,130.167c3.413-8.891,5.341-12.811,0.731-21.983c-10.152-2.867-13.229-3.772-23.452-5.872
		c-5.333-1.089-5.527-0.805-11.527,0.942c-0.956,0.274-1.884,0.526-2.767,0.791c-0.793,0.215-1.413,0.526-2.492,0.901
		c-2.372,1.061-4.088,2.68-4.489,6.142c-0.72,6.278,5.246,11.203,10.28,12.645c6.38,1.823,6.915-0.308,10.262,4.216
		c2.339,3.159,2.792,9.026,3.988,12.887c0.669,2.158,1.57,4.303,2.652,6.406c4.56,2.123,9.4,3.736,14.463,4.752
		C128.537,144.548,127.965,134.506,129.632,130.167z"/>
	<radialGradient id="SVGID_6_" cx="136.2646" cy="43.1494" r="94.4358" gradientUnits="userSpaceOnUse">
		<stop  offset="0" style="stop-color:#B2D235"/>
		<stop  offset="0.9607" style="stop-color:#009E46"/>
	</radialGradient>
	<path fill="url(#SVGID_6_)" d="M204.584,85.762c-0.785-17.841-8.799-33.802-21.191-45.021c-1.162,0.325-2.641,0.38-4.658,0.014
		c-13.436-2.446-16.606,5.401-20.521,10.992c-2.991,4.271-13.489,5.444-16.856,10.257c-2.623,3.751,0.089,11.135-2.198,15.393
		c-1.052,1.959-0.569,7.651,0.716,9.51c4.045,5.885,10.761,2.615,15.816,4.733c6.165,2.574,6.871,9.723,11.988,14.963
		c5.12,5.241-6.535,13.308,2.979,32.358c1.022,2.049,2.205,3.549,3.476,4.573c6.432-4.006,12.103-9.109,16.763-15.05
		c1.44-9.622-1.809-12.704,2.256-21.507C195.662,101.544,199.949,92.141,204.584,85.762z"/>
</g>
<path fill="#231F20" d="M119.34,74.222c10.994-4.667,22.913-8.403,38.979-9.754c-4.091-9.821-8.611-16.753-13.925-23.108
	c-11.846,0.951-22.66,4.141-32.004,8.008C113.764,56.643,116.358,65.449,119.34,74.222z M170.595,101.297
	c-15.207-0.183-28.485,3.457-37.56,7.92c3.846,8.281,11.45,19.253,14.293,23.771c4.945-1.842,10.261-3.224,14.382-3.868
	c4.124-0.641,9.619-1.244,13.344-1.181C174.381,118.299,173.252,111.792,170.595,101.297z M130.284,103.692
	c12.155-5.588,25.5-8.104,38.937-7.737c-3.666-12.703-5.771-18.598-8.887-26.331c-14.932,0.645-27.667,4.328-39.271,9.825
	C121.062,79.449,125.338,93.193,130.284,103.692z M177.006,42.371c-7.449-1.351-18.32-2.211-26.382-1.722
	c5.497,7.614,9.528,14.243,13.314,23.695c10.2,0.25,24.061,3.295,29.743,5.527C190.291,60.828,183.848,49.349,177.006,42.371z
	 M200.187,102.422c-0.459-8.396-1.742-19.609-4.856-27.416c-8.245-3.313-19.513-5.382-29.407-5.475
	c3.052,7.118,6.601,19.018,8.336,26.67C181.405,97.062,192.584,99.083,200.187,102.422z M193.378,43.722
	c-10.63-13.015-34.691-24.094-61.476-22.426c5.986,3.949,10.966,9.905,15.332,14.814c6.688-0.612,20.734,0.492,26.018,1.953
	c-0.901-1.063-2.003-2.12-2.289-2.744c-0.75-1.615,1.054-1.958,2.501-1.036c1.832,1.171,3.947,2.573,5.621,4.28
	C182.192,39.258,189.834,41.879,193.378,43.722z M206.203,106.392c-0.304,1.042-2.138,2.09-2.993,1.828
	c0.124,1.852-0.307,11.072-0.793,14.624c1.278-2.629,3.725-9.149,4.457-11.907l1.038-4.052c1.029-3.448,4.37-15.348,1.345-31
	c-3.357-17.389-9.65-23.6-11.849-26.364c-5.59-3.039-14.048-5.798-14.048-5.798c7.665,10.38,10.321,15.265,14.903,27.621
	c2.659,1.381,7.484,4.056,8.085,4.788c0.485,0.579,0.489,1.619-1.024,1.596c-1.26-0.012-3.704-1.216-5.595-1.719
	c2.015,6.731,3.574,19.307,3.455,27.73C203.183,103.738,206.507,105.349,206.203,106.392z M196.43,131.985
	c1.1-1.102,2.749-3.434,3.391-4.792c0.64-5.52,0.663-16.837,0.428-20.14c-6.658-2.703-16.95-4.838-24.463-5.392
	c2.444,8.969,3.667,22.16,3.85,26.46C183.239,128.487,192.339,130.331,196.43,131.985z M179.329,147.15
	c5.829-3.631,11.3-7.811,15.27-12.832c-3.418-0.859-11.055-1.897-14.842-1.655C179.757,132.663,179.636,141.745,179.329,147.15z
	 M163.424,154.649c2.895-0.933,10.276-4.279,11.812-5.29c0.366-5.955,0.307-12.709,0.062-16.756c-7.759,0-18.691,2.268-24.949,4.893
	C153.981,143.346,158.991,149.788,163.424,154.649z M128.546,149.56c2.167,2.19,10.762,7.88,10.762,7.88
	c5.714,0.247,12.936-0.426,18.093-1.326c-2.844-3.242-9.944-13.294-12.095-16.674C139.809,141.745,132.849,145.984,128.546,149.56z
	 M105.059,125.638c5.464,7.012,14.021,15.91,19.98,20.827c5.636-4.532,12.027-8.767,17.341-11.347
	c-4.585-7.11-11.362-17.437-14.202-23.784C118.007,115.844,112.236,119.621,105.059,125.638z M90.523,97.524
	c3.48,9.936,6.848,17.519,11.245,23.774c5.143-4.472,15.69-11.533,23.752-15.397c-2.657-5.706-6.489-16.381-9.162-24.372
	C105.976,86.626,98.22,91.598,90.523,97.524z M82.187,67.689c0.83,5.718,3.574,18.047,6.046,24.305
	c5.865-4.417,19.147-12.612,26.661-15.925c-2.627-9.576-4.397-15.622-5.865-25.287C98.403,55.506,87.167,62.849,82.187,67.689z
	 M80.899,47.321c-0.37,2.884,0.014,8.206,0.736,14.567c5.865-5.246,17.194-12.089,26.661-16.264
	c-1.095-7.213-2.259-18.724-2.138-21.791c-8.76,4.809-18.373,14.469-25.415,24.372 M109.398,18.175
	c12.59-5.211,24.846-8.072,38.999-6.14c1.573,0.215,1.44,1.548-0.233,1.562l-1.994,0.053c-11.396,0.178-28.164,3.8-36.836,8.709
	c-0.183,5.785,0.915,14.977,2.077,22.22c7.878-3.313,20.064-6.72,29.317-7.732c-5.252-5.586-12.397-10.866-13.253-11.479
	c-0.855-0.615-1.283-1.66-1.283-3.009c0.121-2.518,2.289-2.831,3.446-2.534c3.853-0.75,7.683-1.587,14.204-1.392
	c27.571-1.203,52.759,14.389,62.372,32.169c24.356,38.516,0.007,91.65-31.878,105.803c-13.637,6.056-25.335,8.662-46.895,5.657
	c-21.601-3.018-39.262-13.576-52.976-35.774c-16.895-27.352-7.385-59.216-5.01-65.899C79.624,36.405,96.297,23.697,109.398,18.175z
	 M76.873,65.572c-0.274-4.141-0.606-9.82-0.606-9.82c-3.045,6.624-4.865,10.611-5.712,18.347
	C72.686,70.324,76.873,65.572,76.873,65.572z M121.366,149.542c-4.582-3.421-15.925-14.177-20.627-20.661
	c-1.726,1.015-3.654,3.782-6.153,4.263c-0.985,0.183-3.194,0.452-3.849,0.183c-0.651-0.275,0.149-1.656,0.855-2.579
	c1.223-1.597,3.007-3.668,5.618-5.694c-5.588-8.194-8.246-14.181-12.046-24.059c-2.197,1.373-3.793,2.594-5.711,4.121
	c-0.645,0.508-2.419,0.827-3.282,0.055c-1.566-1.404-1.589-3.873,0.611-5.438c0.9-0.645,5.371-3.732,6.411-4.601
	c-2.748-7.923-5.043-18.337-5.654-23.738c-1.832,1.593-4.408,3.405-5.131,3.898c-1.041,0.295-1.738-0.039-2.038-0.089
	c-1.047,11.206,0.16,23.542,3.492,34.682c5.728,19.16,21.788,37.426,43.466,44.221C117.836,153.352,120.328,150.466,121.366,149.542
	z M132.667,157.216c-2.141-1.227-4.825-3.129-7.329-4.788c-1.039,0.919-1.877,2.268-2.708,3.352
	C125.5,156.763,129.369,156.845,132.667,157.216z"/>
</svg>
