<svg xmlns="http://www.w3.org/2000/svg" width="400" height="220" viewBox="0 0 400 220"><g fill="#231F20"><path d="M43.775 99.156h-11.099v8.921h8.315v2.25h-8.315v12.275h-2.676v-25.695h13.775v2.249zM59.326 96.907c7.352 0 7.736 8.402 7.736 13.093 0 3.361.246 13.093-7.736 13.093-7.771 0-7.737-9.521-7.737-13.093 0-10.536 3.501-13.093 7.737-13.093zm5.111 13.093c0-2.31.35-10.887-5.111-10.887-5.601 0-5.111 9.416-5.111 10.887 0 2.871-.14 10.888 5.111 10.888 2.625 0 5.111-1.75 5.111-10.888zM76.931 96.907h6.674c6.424 0 6.995 5.782 6.995 7.281 0 2.641-1 5.067-4.568 7.102l6.924 11.312h-3.248l-6.245-10.705-3.854.071v10.634h-2.677v-25.695zm5.211 12.777c3.64 0 5.781-1.856 5.781-5.638 0-3.427-1.427-4.89-5.674-4.89h-2.641v10.527h2.534zM115.679 96.907h2.641v25.695h-2.677v-19.557h-.071l-5.282 12.599-5.246-12.599-.071.072v19.484h-2.676v-25.694h2.605l5.389 12.812 5.388-12.812zM140.295 99.156h-3.497v21.199h3.497v2.247h-9.636v-2.247h3.462v-21.199h-3.462v-2.249h9.636v2.249zM153.135 97.204h6.507c4.943 0 8.25 2.81 8.25 12.801 0 9.851-3.058 12.802-8.641 12.802h-6.115v-25.603zm2.667 23.362h3.271c3.698 0 6.152-1.031 6.152-10.562 0-9.813-2.81-10.561-6.223-10.561h-3.2v21.123zM193.152 122.603h-2.654l-2.098-6.947h-7.177l-2.098 6.947h-2.655l8.325-25.562 8.357 25.562zm-11.339-9.013h5.998l-3.015-9.537-2.983 9.537zM203.557 122.603v-25.369h5.32c2.925 0 7.963.353 7.963 6.412 0 2.432-1.269 4.299-3.348 5.462 2.89 1.409 4.439 3.312 4.439 6.589 0 3.699-2.678 6.905-7.117 6.905h-7.257zm2.642-14.305h3.065c2.36 0 4.933-1.727 4.933-4.757 0-4.192-3.523-4.087-5.145-4.087h-2.854v8.844zm4.44 12.086c2.326 0 4.651-1.375 4.651-4.546 0-2.818-1.762-5.32-5.779-5.32h-3.312v9.866h4.44zM232.144 120.384h10.993v2.219h-13.636v-25.369h2.643v23.15zM267.285 99.454h-10.535v9.02h7.576v2.22h-7.576v9.69h10.782v2.219h-13.425v-25.369h13.178v2.22zM283.663 120.838h11.134v1.765h-12.791v-25.369h1.657v23.604zM321.382 122.603h-1.789l-2.193-7.391h-8.269l-2.227 7.391h-1.756l8.1-25.275 8.134 25.275zm-11.913-8.74h7.593l-3.813-12.217-3.78 12.217zM331.328 122.603v-25.369h6.202c3.698 0 6.271 2.325 6.271 6.201 0 2.783-1.586 4.651-4.052 5.743 3.276.951 5.179 3.312 5.179 6.73 0 3.629-2.325 6.693-6.342 6.693h-7.258zm4.229-13.917c4.334 0 6.589-2.114 6.589-5.355 0-2.713-1.163-4.687-5.391-4.687h-3.771v10.042h2.573zm2.748 12.507c2.079 0 4.968-1.515 4.968-5.215 0-3.064-2.149-5.884-5.919-5.884h-4.369v11.099h5.32zM368.354 100.969c-1.575-1.365-3.36-2.661-5.531-2.661-2.556 0-4.656 1.751-4.656 4.411 0 1.961.875 3.256 3.956 5.146l2.065 1.26c3.991 2.416 5.812 3.852 5.812 6.967 0 4.341-2.836 7.001-7.142 7.001-2.976 0-5.321-1.4-7.106-3.71l1.26-1.016c1.331 1.926 3.431 3.325 5.847 3.325 2.94 0 5.391-2.17 5.391-5.181 0-2.38-.279-3.29-4.936-6.057l-2.346-1.399c-2.415-1.436-4.551-3.116-4.551-6.162 0-3.78 2.871-5.986 6.512-5.986 2.38 0 4.69 1.261 6.406 2.836l-.981 1.226z"/></g></svg>