<?xml version="1.0" standalone="no"?>
<!DOCTYPE svg PUBLIC "-//W3C//DTD SVG 1.1//EN" "http://www.w3.org/Graphics/SVG/1.1/DTD/svg11.dtd">
<svg width="100%" height="100%" viewBox="0 0 340 26" version="1.1" xmlns="http://www.w3.org/2000/svg" xmlns:xlink="http://www.w3.org/1999/xlink" xml:space="preserve" style="fill-rule:evenodd;clip-rule:evenodd;stroke-linejoin:round;stroke-miterlimit:1.41421;">
    <path d="M13.775,2.156L2.676,2.156L2.676,11.077L10.991,11.077L10.991,13.327L2.676,13.327L2.676,25.602L0,25.602L0,-0.093L13.775,-0.093L13.775,2.156ZM29.326,-0.093C36.678,-0.093 37.062,8.309 37.062,13C37.062,16.361 37.308,26.093 29.326,26.093C21.555,26.093 21.589,16.572 21.589,13C21.589,2.464 25.09,-0.093 29.326,-0.093ZM34.437,13C34.437,10.69 34.787,2.113 29.326,2.113C23.725,2.113 24.215,11.529 24.215,13C24.215,15.871 24.075,23.888 29.326,23.888C31.951,23.888 34.437,22.138 34.437,13ZM46.931,-0.093L53.605,-0.093C60.029,-0.093 60.6,5.689 60.6,7.188C60.6,9.829 59.6,12.255 56.032,14.29L62.956,25.602L59.708,25.602L53.463,14.897L49.609,14.968L49.609,25.602L46.932,25.602L46.932,-0.093L46.931,-0.093ZM52.142,12.684C55.782,12.684 57.923,10.828 57.923,7.046C57.923,3.619 56.496,2.156 52.249,2.156L49.608,2.156L49.608,12.683L52.142,12.683L52.142,12.684ZM85.679,-0.093L88.32,-0.093L88.32,25.602L85.643,25.602L85.643,6.045L85.572,6.045L80.29,18.644L75.044,6.045L74.973,6.117L74.973,25.601L72.297,25.601L72.297,-0.093L74.902,-0.093L80.291,12.719L85.679,-0.093L85.679,-0.093ZM110.295,2.156L106.798,2.156L106.798,23.355L110.295,23.355L110.295,25.602L100.659,25.602L100.659,23.355L104.121,23.355L104.121,2.156L100.659,2.156L100.659,-0.093L110.295,-0.093L110.295,2.156ZM123.135,0.204L129.642,0.204C134.585,0.204 137.892,3.014 137.892,13.005C137.892,22.856 134.834,25.807 129.251,25.807L123.136,25.807L123.136,0.204L123.135,0.204ZM125.802,23.566L129.073,23.566C132.771,23.566 135.225,22.535 135.225,13.004C135.225,3.191 132.415,2.443 129.002,2.443L125.802,2.443L125.802,23.566ZM163.152,25.603L160.498,25.603L158.4,18.656L151.223,18.656L149.125,25.603L146.47,25.603L154.795,0.041L163.152,25.603ZM151.813,16.59L157.811,16.59L154.796,7.053L151.813,16.59ZM173.557,25.603L173.557,0.234L178.877,0.234C181.802,0.234 186.84,0.587 186.84,6.646C186.84,9.078 185.571,10.945 183.492,12.108C186.382,13.517 187.931,15.42 187.931,18.697C187.931,22.396 185.253,25.602 180.814,25.602L173.557,25.602L173.557,25.603ZM176.199,11.298L179.264,11.298C181.624,11.298 184.197,9.571 184.197,6.541C184.197,2.349 180.674,2.454 179.052,2.454L176.198,2.454L176.198,11.298L176.199,11.298ZM180.639,23.384C182.965,23.384 185.29,22.009 185.29,18.838C185.29,16.02 183.528,13.518 179.511,13.518L176.199,13.518L176.199,23.384L180.639,23.384ZM202.144,23.384L213.137,23.384L213.137,25.603L199.501,25.603L199.501,0.234L202.144,0.234L202.144,23.384ZM237.285,2.454L226.75,2.454L226.75,11.474L234.326,11.474L234.326,13.694L226.75,13.694L226.75,23.384L237.532,23.384L237.532,25.603L224.107,25.603L224.107,0.234L237.285,0.234L237.285,2.454ZM253.663,23.838L264.797,23.838L264.797,25.603L252.006,25.603L252.006,0.234L253.663,0.234L253.663,23.838ZM291.382,25.603L289.593,25.603L287.4,18.212L279.131,18.212L276.904,25.603L275.148,25.603L283.248,0.328L291.382,25.603ZM279.469,16.863L287.062,16.863L283.249,4.646L279.469,16.863L279.469,16.863ZM301.328,25.603L301.328,0.234L307.53,0.234C311.228,0.234 313.801,2.559 313.801,6.435C313.801,9.218 312.215,11.086 309.749,12.178C313.025,13.129 314.928,15.49 314.928,18.908C314.928,22.537 312.603,25.601 308.586,25.601L301.328,25.601L301.328,25.603ZM305.557,11.686C309.891,11.686 312.146,9.572 312.146,6.331C312.146,3.618 310.983,1.644 306.755,1.644L302.984,1.644L302.984,11.686L305.557,11.686ZM308.305,24.193C310.384,24.193 313.273,22.678 313.273,18.978C313.273,15.914 311.124,13.094 307.354,13.094L302.985,13.094L302.985,24.193L308.305,24.193ZM338.354,3.969C336.779,2.604 334.994,1.308 332.823,1.308C330.267,1.308 328.167,3.059 328.167,5.719C328.167,7.68 329.042,8.975 332.123,10.865L334.188,12.125C338.179,14.541 340,15.977 340,19.092C340,23.433 337.164,26.093 332.858,26.093C329.882,26.093 327.537,24.693 325.752,22.383L327.012,21.367C328.343,23.293 330.443,24.692 332.859,24.692C335.799,24.692 338.25,22.522 338.25,19.511C338.25,17.131 337.971,16.221 333.314,13.454L330.968,12.055C328.553,10.619 326.417,8.939 326.417,5.893C326.417,2.113 329.288,-0.093 332.929,-0.093C335.309,-0.093 337.619,1.168 339.335,2.743L338.354,3.969L338.354,3.969Z" style="fill:rgb(35,31,32);fill-rule:nonzero;"/>
</svg>
