<?xml version="1.0" standalone="no"?>
<!DOCTYPE svg PUBLIC "-//W3C//DTD SVG 1.1//EN" "http://www.w3.org/Graphics/SVG/1.1/DTD/svg11.dtd">
<svg width="100%" height="100%" viewBox="0 0 400 220" version="1.1" xmlns="http://www.w3.org/2000/svg" xmlns:xlink="http://www.w3.org/1999/xlink" xml:space="preserve" style="fill-rule:evenodd;clip-rule:evenodd;stroke-linejoin:round;stroke-miterlimit:1.41421;">
    <g>
        <path d="M32.505,4.84893C30.217,15.9749 29.4992,23.6016 29.8581,33.6957C30.4413,49.2631 33.5369,62.1388 40.042,75.4182C45.1563,86.0058 50.495,93.3633 58.7049,101.169C74.2723,116.064 95.5822,123.377 117.43,121.447C122.634,120.954 130.171,119.698 132.011,118.98C132.549,118.756 133.132,119.832 134.658,123.691C139.413,135.714 147.533,144.776 156.282,147.872C160.319,149.262 167.004,149.576 171.984,148.589C178.937,147.154 186.743,143.52 194.46,138.136L197.959,135.714L196.165,133.067L194.37,130.42L191.948,131.497C186.25,134.009 180.059,134.637 175.707,133.157C168.17,130.555 159.646,122.21 155.16,113.193L153.455,109.693L154.487,108.931C157.134,107.091 163.505,101.439 166.555,98.2534C184.007,79.9493 192.262,57.6525 192.217,28.7608C192.217,19.3845 191.589,13.1934 189.839,4.84893L188.852,0.272918L175.034,0.272918C167.408,0.272918 161.172,0.362644 161.172,0.497232C161.172,0.631821 161.441,2.69551 161.8,5.1181C163.639,17.5002 163.863,38.3166 162.293,49.5323C159.512,69.586 154.128,84.4805 146.053,94.4849C143.899,97.1767 143.899,97.1767 143.227,96.1897C133.671,81.8336 119.315,71.1113 105.766,68.2401C100.741,67.1634 93.2942,67.2531 88.8079,68.4196C79.8353,70.7524 73.4199,76.7641 71.2216,84.9291L70.6384,87.0825L68.5747,82.7308C59.7816,64.4716 56.3272,34.0546 60.0059,7.49584C60.3648,4.89379 60.8135,2.20202 60.9481,1.48421L61.2172,0.272918L47.3098,0.272918L33.4471,0.272918L32.505,4.84893ZM103.478,76.3154C111.643,78.4688 118.552,84.9291 123.711,95.2924C125.506,98.8814 128.87,107.989 128.87,109.2C128.87,109.918 124.474,111.578 120.122,112.475C108.951,114.763 96.8832,112.744 88.6284,107.136C82.4374,102.964 79.0726,97.2664 79.0726,91.0753C79.0726,80.5774 91.4099,73.175 103.478,76.3154Z" style="fill:rgb(138,0,14);fill-rule:nonzero;"/>
        <rect x="284.096" y="94.4849" width="3.58903" height="39.4793" style="fill:rgb(138,0,14);fill-rule:nonzero;"/>
        <path d="M297.106,100.766L297.106,107.046L295.312,107.046C293.562,107.046 293.517,107.091 293.517,108.617C293.517,110.142 293.562,110.187 295.312,110.187L297.106,110.187L297.106,120.281C297.106,133.471 297.465,134.413 302.714,134.413C305.451,134.413 306.079,134.099 306.079,132.529C306.079,131.272 305.989,131.228 304.553,131.497C303.701,131.676 302.624,131.586 302.086,131.317C301.189,130.824 301.144,130.51 301.144,120.505L301.144,110.187L306.123,110.187L305.989,108.706C305.854,107.316 305.809,107.271 303.521,107.136L301.144,107.002L301.144,94.4849L299.125,94.4849L297.106,94.4849L297.106,100.766Z" style="fill:rgb(138,0,14);fill-rule:nonzero;"/>
        <path d="M220.57,107.45C217.16,109.514 215.77,113.327 215.77,120.505C215.77,125.575 216.622,129.612 218.237,131.811C220.166,134.592 223.98,135.22 226.851,133.291L228.466,132.215L228.466,140.918L228.466,149.666L232.055,149.666L232.055,107.046L230.485,107.046C229.094,107.046 228.915,107.181 228.915,108.258L228.915,109.424L227.928,108.482C225.774,106.508 222.813,106.059 220.57,107.45ZM226.716,110.77L228.242,111.802L228.376,120.371L228.466,128.94L227.075,130.106C225.236,131.676 222.993,131.676 221.512,130.106C220.121,128.626 219.493,125.53 219.493,120.326C219.493,115.346 220.391,111.937 222.051,110.68C223.531,109.469 224.832,109.514 226.716,110.77Z" style="fill:rgb(138,0,14);fill-rule:nonzero;"/>
        <path d="M266.151,107.091C264.58,107.719 263.055,109.245 262.068,111.174C260.947,113.372 260.947,114.673 262.068,114.673C262.562,114.673 263.235,114.808 263.594,114.942C264.087,115.122 264.446,114.718 264.805,113.596C265.433,111.667 267.586,109.738 269.156,109.738C269.785,109.738 270.816,110.321 271.579,111.039C272.656,112.116 272.88,112.744 272.88,114.404C272.88,116.243 272.79,116.468 271.669,116.737C270.951,116.916 269.336,117.5 268.035,118.083C262.607,120.46 260.049,123.96 260.408,128.401C260.857,133.56 265.837,135.938 270.816,133.291C273.374,131.945 273.329,131.945 273.329,133.067C273.329,133.83 273.643,133.964 275.258,133.964L277.142,133.964L276.918,122.883C276.693,112.789 276.604,111.622 275.796,110.187C274.136,107.316 269.381,105.79 266.151,107.091ZM272.88,124.319L272.88,128.984L271.22,130.151C268.17,132.215 264.67,131.362 264.132,128.401C263.728,126.427 264.805,124.049 266.689,122.614C268.035,121.582 271.714,119.698 272.566,119.653C272.746,119.608 272.88,121.717 272.88,124.319Z" style="fill:rgb(138,0,14);fill-rule:nonzero;"/>
        <path d="M318.64,107.091C318.012,107.361 316.846,108.168 316.083,108.976L314.603,110.366L314.603,108.706C314.603,107.091 314.558,107.046 312.808,107.046L311.014,107.046L311.014,120.505L311.014,133.964L314.603,133.964L314.603,114.808L316.442,112.699C317.833,111.129 318.685,110.546 320.031,110.366C321.736,110.097 321.781,110.007 321.781,108.347C321.781,106.822 321.646,106.598 320.794,106.643C320.21,106.643 319.268,106.867 318.64,107.091Z" style="fill:rgb(138,0,14);fill-rule:nonzero;"/>
        <path d="M339.86,107.54C338.335,108.258 337.707,109.02 336.72,110.994C335.598,113.282 335.464,114.09 335.329,119.429C334.97,130.51 337.662,134.951 344.212,134.323C345.378,134.188 346.949,133.695 347.711,133.157C349.147,132.125 350.672,129.388 351.166,126.876C351.48,125.44 351.48,125.44 349.64,125.44C347.846,125.44 347.801,125.485 347.308,127.414C346.635,130.196 345.468,131.272 343.315,131.272C341.206,131.272 339.905,130.106 339.412,127.728C339.187,126.831 339.053,123.287 339.053,119.832C339.098,113.148 339.591,111.219 341.475,110.187C343.898,108.931 346.724,110.501 347.173,113.372C347.442,115.077 347.487,115.122 349.371,115.122L351.3,115.122L350.852,113.238C350.224,110.411 348.788,108.392 346.724,107.45C344.302,106.374 342.193,106.374 339.86,107.54Z" style="fill:rgb(138,0,14);fill-rule:nonzero;"/>
        <path d="M359.151,107.54C357.805,108.213 356.998,109.02 356.37,110.366C354.351,114.539 355.652,117.141 362.023,121.447C365.746,124.005 366.823,125.351 366.823,127.594C366.823,130.599 362.875,132.394 360.542,130.465C360.004,130.061 359.241,129.029 358.837,128.222C358.075,126.741 357.716,126.607 356.011,127.055C354.665,127.414 354.71,128.267 356.101,130.689C358.972,135.534 366.06,135.804 369.515,131.138C370.232,130.151 370.457,129.209 370.457,127.055C370.457,123.466 369.29,121.851 364.49,118.666C360.273,115.84 359.51,114.942 359.465,112.789C359.465,110.86 360.677,109.738 362.74,109.738C364.131,109.738 366.643,111.847 366.643,113.058C366.643,113.821 367.137,113.91 368.797,113.462C369.694,113.238 369.829,113.013 369.604,111.892C369.201,109.828 367.72,108.123 365.746,107.316C363.324,106.329 361.394,106.418 359.151,107.54Z" style="fill:rgb(138,0,14);fill-rule:nonzero;"/>
        <path d="M238.784,117.679C238.784,123.556 239.009,129.164 239.233,130.151C240.31,134.906 245.738,135.848 249.91,132.035L250.897,131.138L250.897,132.529C250.897,133.919 250.987,133.964 252.692,133.964L254.486,133.964L254.486,107.046L252.692,107.046L250.897,107.046L250.897,117.544L250.897,128.042L249.103,129.657C247.757,130.869 246.905,131.272 245.783,131.272C242.957,131.272 242.822,130.734 242.822,118.172L242.822,107.046L240.803,107.046L238.784,107.046L238.784,117.679Z" style="fill:rgb(138,0,14);fill-rule:nonzero;"/>
        <rect x="326.267" y="107.046" width="4.03766" height="26.9177" style="fill:rgb(138,0,14);fill-rule:nonzero;"/>
    </g>
</svg>
