<?xml version="1.0" standalone="no"?>
<!DOCTYPE svg PUBLIC "-//W3C//DTD SVG 20010904//EN"
 "http://www.w3.org/TR/2001/REC-SVG-20010904/DTD/svg10.dtd">
<svg version="1.0" xmlns="http://www.w3.org/2000/svg"
 width="800.000000pt" height="360.000000pt" viewBox="0 0 800.000000 360.000000"
 preserveAspectRatio="xMidYMid meet">
<metadata>
Created by potrace 1.12, written by Peter Selinger 2001-2015
</metadata>
<g transform="translate(0.000000,360.000000) scale(0.100000,-0.100000)"
fill="#000000" stroke="none">
<path d="M262 3498 c-51 -248 -67 -418 -59 -643 13 -347 82 -634 227 -930 114
-236 233 -400 416 -574 347 -332 822 -495 1309 -452 116 11 284 39 325 55 12
5 25 -19 59 -105 106 -268 287 -470 482 -539 90 -31 239 -38 350 -16 155 32
329 113 501 233 l78 54 -40 59 -40 59 -54 -24 c-127 -56 -265 -70 -362 -37
-168 58 -358 244 -458 445 l-38 78 23 17 c59 41 201 167 269 238 389 408 573
905 572 1549 0 209 -14 347 -53 533 l-22 102 -308 0 c-170 0 -309 -2 -309 -5
0 -3 6 -49 14 -103 41 -276 46 -740 11 -990 -62 -447 -182 -779 -362 -1002
-48 -60 -48 -60 -63 -38 -213 320 -533 559 -835 623 -112 24 -278 22 -378 -4
-200 -52 -343 -186 -392 -368 l-13 -48 -46 97 c-196 407 -273 1085 -191 1677
8 58 18 118 21 134 l6 27 -310 0 -309 0 -21 -102z m1582 -1593 c182 -48 336
-192 451 -423 40 -80 115 -283 115 -310 0 -16 -98 -53 -195 -73 -249 -51 -518
-6 -702 119 -138 93 -213 220 -213 358 0 234 275 399 544 329z"/>
<path d="M5870 1060 l0 -440 40 0 40 0 0 440 0 440 -40 0 -40 0 0 -440z"/>
<path d="M6160 1360 l0 -140 -40 0 c-39 0 -40 -1 -40 -35 0 -34 1 -35 40 -35
l40 0 0 -225 c0 -294 8 -315 125 -315 61 0 75 7 75 42 0 28 -2 29 -34 23 -19
-4 -43 -2 -55 4 -20 11 -21 18 -21 241 l0 230 56 0 55 0 -3 33 c-3 31 -4 32
-55 35 l-53 3 0 140 0 139 -45 0 -45 0 0 -140z"/>
<path d="M4454 1211 c-76 -46 -107 -131 -107 -291 0 -113 19 -203 55 -252 43
-62 128 -76 192 -33 l36 24 0 -194 0 -195 40 0 40 0 0 475 0 475 -35 0 c-31 0
-35 -3 -35 -27 l0 -26 -22 21 c-48 44 -114 54 -164 23z m137 -74 l34 -23 3
-191 2 -191 -31 -26 c-41 -35 -91 -35 -124 0 -31 33 -45 102 -45 218 0 111 20
187 57 215 33 27 62 26 104 -2z"/>
<path d="M5470 1219 c-35 -14 -69 -48 -91 -91 -25 -49 -25 -78 0 -78 11 0 26
-3 34 -6 11 -4 19 5 27 30 14 43 62 86 97 86 14 0 37 -13 54 -29 24 -24 29
-38 29 -75 0 -41 -2 -46 -27 -52 -16 -4 -52 -17 -81 -30 -121 -53 -178 -131
-170 -230 10 -115 121 -168 232 -109 57 30 56 30 56 5 0 -17 7 -20 43 -20 l42
0 -5 247 c-5 225 -7 251 -25 283 -37 64 -143 98 -215 69z m150 -384 l0 -104
-37 -26 c-68 -46 -146 -27 -158 39 -9 44 15 97 57 129 30 23 112 65 131 66 4
1 7 -46 7 -104z"/>
<path d="M6640 1219 c-14 -6 -40 -24 -57 -42 l-33 -31 0 37 c0 36 -1 37 -40
37 l-40 0 0 -300 0 -300 40 0 40 0 0 214 0 213 41 47 c31 35 50 48 80 52 38 6
39 8 39 45 0 34 -3 39 -22 38 -13 0 -34 -5 -48 -10z"/>
<path d="M7113 1209 c-34 -16 -48 -33 -70 -77 -25 -51 -28 -69 -31 -188 -8
-247 52 -346 198 -332 26 3 61 14 78 26 32 23 66 84 77 140 7 32 7 32 -34 32
-40 0 -41 -1 -52 -44 -15 -62 -41 -86 -89 -86 -47 0 -76 26 -87 79 -5 20 -8
99 -8 176 1 149 12 192 54 215 54 28 117 -7 127 -71 6 -38 7 -39 49 -39 l43 0
-10 42 c-14 63 -46 108 -92 129 -54 24 -101 24 -153 -2z"/>
<path d="M7543 1209 c-30 -15 -48 -33 -62 -63 -45 -93 -16 -151 126 -247 83
-57 107 -87 107 -137 0 -67 -88 -107 -140 -64 -12 9 -29 32 -38 50 -17 33 -25
36 -63 26 -30 -8 -29 -27 2 -81 64 -108 222 -114 299 -10 16 22 21 43 21 91 0
80 -26 116 -133 187 -94 63 -111 83 -112 131 0 43 27 68 73 68 31 0 87 -47 87
-74 0 -17 11 -19 48 -9 20 5 23 10 18 35 -9 46 -42 84 -86 102 -54 22 -97 20
-147 -5z"/>
<path d="M4860 983 c0 -131 5 -256 10 -278 24 -106 145 -127 238 -42 l22 20 0
-31 c0 -31 2 -32 40 -32 l40 0 0 300 0 300 -40 0 -40 0 0 -234 0 -234 -40 -36
c-30 -27 -49 -36 -74 -36 -63 0 -66 12 -66 292 l0 248 -45 0 -45 0 0 -237z"/>
<path d="M6810 920 l0 -300 45 0 45 0 0 300 0 300 -45 0 -45 0 0 -300z"/>
</g>
</svg>
