<svg xmlns="http://www.w3.org/2000/svg" xmlns:xlink="http://www.w3.org/1999/xlink" width="400" height="220" viewBox="0 0 400 220"><g><defs><path id="a" d="M30 58.915h340v102.171h-340z"/></defs><clipPath id="b"><use xlink:href="#a" overflow="visible"/></clipPath><g clip-path="url(#b)"><defs><path id="c" d="M30-21.363h340v262.727h-340z"/></defs><clipPath id="d"><use xlink:href="#c" overflow="visible"/></clipPath><path clip-path="url(#d)" fill="#E02529" d="M269.684 78.798h-18.107c-.502 0-.912.409-.912.91v10.476c0 .501.41.912.912.912h18.107c.502 0 .912-.411.912-.912v-10.476c0-.5-.41-.91-.912-.91M269.346 94.404h-34.727c-.502 0-1.016.397-1.142.882l-4.688 17.947-5.421-18.125c-.146-.481-.673-.874-1.173-.874h-13.529c-.502 0-1.029.393-1.172.874l-5.078 17.082-.26.873-4.524-17.776c-.124-.484-.635-.883-1.136-.883h-27.3v-14.696c0-.501-.643-1.014-1.201-.814l-17.14 5.351c-.515.17-.911.409-.911.911v9.248h-4.518c-.501 0-.911.409-.911.911v13.021c0 .5.41.911.911.911h4.518v15.945c0 11.281 6.105 16.539 17.472 16.539 4.665 0 9.245-1.018 12.297-2.629v-13.664000000000001c0-.691-.578-.891-.963-.725-1.822.789-3.283.986-4.889.986-3.053 0-4.665-1.271-4.665-4.748v-11.705h9.776c.501 0 .911-.411.911-.911v-10.993l12.852 42.837c.145.479.671.873 1.173.873h14.208c.502 0 1.037-.391 1.189-.869l6.083-18.979 5.92 18.977c.149.479.683.871 1.183.871h14.293c.501 0 1.03-.393 1.176-.873l13.044-42.96v42.939c0 .502.411.912.912.912h17.431c.501 0 .911-.41.911-.912v-44.843c-.001-.502-.411-.911-.912-.911M292.284 78.798h-17.431c-.5 0-.91.409-.91.91v60.45c0 .502.41.912.91.912h17.431c.502 0 .911-.41.911-.912v-60.45c0-.5-.409-.91-.911-.91M315.544 78.798h-18.108c-.502 0-.912.409-.912.91v10.476c0 .501.41.912.912.912h18.108c.501 0 .911-.411.911-.912v-10.476c0-.5-.41-.91-.911-.91M315.205 94.404h-17.431c-.501 0-.911.409-.911.911v44.843c0 .502.41.912.911.912h17.431c.501 0 .911-.41.911-.912v-44.843c0-.502-.41-.911-.911-.911"/></g><defs><path id="e" d="M30 58.915h340v102.171h-340z"/></defs><clipPath id="f"><use xlink:href="#e" overflow="visible"/></clipPath><g clip-path="url(#f)"><defs><path id="g" d="M30.025 58.774h339.975v102.287h-339.975z"/></defs><clipPath id="h"><use xlink:href="#g" overflow="visible"/></clipPath><g clip-path="url(#h)"><defs><path id="i" d="M30-21.363h340v262.727h-340z"/></defs><clipPath id="j"><use xlink:href="#i" overflow="visible"/></clipPath><path clip-path="url(#j)" fill="#E02529" d="M344.047 93.301c-15.267 0-26.123 11.195-26.123 24.255v.17c0 13.062 10.771 24.088 25.953 24.088 15.268 0 26.123-11.195 26.123-24.258v-.168c0-13.061-10.771-24.087-25.953-24.087m7.463 24.426c0 4.41-3.137 8.059-7.463 8.059-4.241 0-7.633-3.648-7.633-8.229v-.168c0-4.41 3.137-8.059 7.463-8.059 4.241 0 7.633 3.649 7.633 8.227v.17zM81.156 58.773c-28.252 0-51.156 22.905-51.156 51.158 0 28.252 22.904 51.155 51.156 51.155 28.253 0 51.156-22.902 51.156-51.155s-22.903-51.158-51.156-51.158m0 88.831c-20.807 0-37.675-16.867-37.675-37.672 0-20.808 16.868-37.675 37.675-37.675s37.674 16.867 37.674 37.675c0 20.804-16.867 37.672-37.674 37.672z"/></g></g><defs><path id="k" d="M30 58.915h340v102.171h-340z"/></defs><clipPath id="l"><use xlink:href="#k" overflow="visible"/></clipPath><g clip-path="url(#l)"><defs><path id="m" d="M30-21.363h340v262.727h-340z"/></defs><clipPath id="n"><use xlink:href="#m" overflow="visible"/></clipPath><path clip-path="url(#n)" fill="#E02529" d="M83.259 97.19c0-5.874 4.762-10.638 10.637-10.638s10.637 4.764 10.637 10.638c0 5.875-4.762 10.637-10.637 10.637s-10.637-4.762-10.637-10.637M83.259 122.67c0-5.875 4.762-10.637 10.637-10.637s10.637 4.762 10.637 10.637-4.762 10.637-10.637 10.637-10.637-4.762-10.637-10.637M57.779 122.67c0-5.875 4.762-10.637 10.637-10.637 5.875 0 10.637 4.762 10.637 10.637s-4.762 10.637-10.637 10.637c-5.874 0-10.637-4.762-10.637-10.637M57.779 97.19c0-5.874 4.762-10.638 10.637-10.638 5.875 0 10.637 4.764 10.637 10.638 0 5.875-4.762 10.638-10.637 10.638-5.874 0-10.637-4.763-10.637-10.638"/></g></g></svg>