<svg xmlns="http://www.w3.org/2000/svg" width="400" height="220" viewBox="0 0 400 220"><g><g fill="#84888B"><path d="M141.925 123.207c-3 0-6.961-.243-9.963-.483v31.087h-9.604v-87.143c6.484-.839 12.963-1.44 20.166-1.44 22.689 0 33.852 12.965 33.852 27.97-.001 17.643-12.846 30.009-34.451 30.009zm2.039-49.336c-4.08 0-8.882.241-12.002.962v39.253c3.002.358 7.201.72 10.561.72 16.447 0 23.528-9.485 23.528-20.889.001-10.324-7.561-20.046-22.087-20.046zM199.663 154.772c-15.365 0-25.566-11.761-25.566-26.165 0-14.403 10.202-26.168 25.566-26.168 15.367 0 25.447 11.765 25.447 26.168 0 14.405-10.08 26.165-25.447 26.165zm0-44.651c-9.724 0-16.203 7.442-16.203 18.486 0 11.042 6.479 18.484 16.203 18.484 9.604 0 16.084-7.442 16.084-18.484 0-11.044-6.479-18.486-16.084-18.486zM246.118 119.364v34.446h-9.481v-50.41h9.005v8.4c4.8-6.242 11.4-9.361 18.003-9.361v9.243c-7.322.001-14.043 2.639-17.527 7.682zM296.297 154.772c-15.967 0-27.248-11.402-27.248-25.922 0-14.529 11.281-26.411 27.248-26.411 6.241 0 12.604 2.281 17.163 5.163l-3.839 7.203c-4.083-2.405-9.005-4.204-14.164-4.204-9.845 0-17.288 6.724-17.288 18.249 0 10.916 8.645 17.761 17.886 17.761 5.161 0 10.087-1.802 14.165-4.202l3.24 7.202c-4.56 2.882-10.922 5.161-17.163 5.161zM360.517 153.811v-31.685c0-7.805-3.361-11.764-10.563-11.764-5.645 0-12.005 3.959-15.726 8.16v35.288h-9.481v-87.981h9.481v45.133c5.282-5.403 11.524-8.522 18.124-8.522 11.644 0 17.648 7.082 17.648 17.166v34.205h-9.483z"/></g><path fill="#FFD451" d="M30 101.028v23.575l35.639-23.797v-23.575z"/><path fill="#F2AE00" d="M101.277 101.028v23.575l-35.638-23.797v-23.575z"/></g></svg>