<?xml version="1.0" standalone="no"?>
<!DOCTYPE svg PUBLIC "-//W3C//DTD SVG 1.1//EN" "http://www.w3.org/Graphics/SVG/1.1/DTD/svg11.dtd">
<svg width="100%" height="100%" viewBox="0 0 340 102" version="1.1" xmlns="http://www.w3.org/2000/svg" xmlns:xlink="http://www.w3.org/1999/xlink" xml:space="preserve" style="fill-rule:evenodd;clip-rule:evenodd;stroke-linejoin:round;stroke-miterlimit:1.41421;">
    <g>
        <path d="M239.684,19.798L221.577,19.798C221.075,19.798 220.665,20.207 220.665,20.708L220.665,31.184C220.665,31.685 221.075,32.096 221.577,32.096L239.684,32.096C240.186,32.096 240.596,31.685 240.596,31.184L240.596,20.708C240.596,20.208 240.186,19.798 239.684,19.798M239.346,35.404L204.619,35.404C204.117,35.404 203.603,35.801 203.477,36.286L198.789,54.233L193.368,36.108C193.222,35.627 192.695,35.234 192.195,35.234L178.666,35.234C178.164,35.234 177.637,35.627 177.494,36.108L172.416,53.19L172.156,54.063L167.632,36.287C167.508,35.803 166.997,35.404 166.496,35.404L139.196,35.404L139.196,20.708C139.196,20.207 138.553,19.694 137.995,19.894L120.855,25.245C120.34,25.415 119.944,25.654 119.944,26.156L119.944,35.404L115.426,35.404C114.925,35.404 114.515,35.813 114.515,36.315L114.515,49.336C114.515,49.836 114.925,50.247 115.426,50.247L119.944,50.247L119.944,66.192C119.944,77.473 126.049,82.731 137.416,82.731C142.081,82.731 146.661,81.713 149.713,80.102L149.713,66.438C149.713,65.747 149.135,65.547 148.75,65.713C146.928,66.502 145.467,66.699 143.861,66.699C140.808,66.699 139.196,65.428 139.196,61.951L139.196,50.246L148.972,50.246C149.473,50.246 149.883,49.835 149.883,49.335L149.883,38.342L162.735,81.179C162.88,81.658 163.406,82.052 163.908,82.052L178.116,82.052C178.618,82.052 179.153,81.661 179.305,81.183L185.388,62.204L191.308,81.181C191.457,81.66 191.991,82.052 192.491,82.052L206.784,82.052C207.285,82.052 207.814,81.659 207.96,81.179L221.004,38.219L221.004,81.158C221.004,81.66 221.415,82.07 221.916,82.07L239.347,82.07C239.848,82.07 240.258,81.66 240.258,81.158L240.258,36.315C240.257,35.813 239.847,35.404 239.346,35.404M262.284,19.798L244.853,19.798C244.353,19.798 243.943,20.207 243.943,20.708L243.943,81.158C243.943,81.66 244.353,82.07 244.853,82.07L262.284,82.07C262.786,82.07 263.195,81.66 263.195,81.158L263.195,20.708C263.195,20.208 262.786,19.798 262.284,19.798M285.544,19.798L267.436,19.798C266.934,19.798 266.524,20.207 266.524,20.708L266.524,31.184C266.524,31.685 266.934,32.096 267.436,32.096L285.544,32.096C286.045,32.096 286.455,31.685 286.455,31.184L286.455,20.708C286.455,20.208 286.045,19.798 285.544,19.798M285.205,35.404L267.774,35.404C267.273,35.404 266.863,35.813 266.863,36.315L266.863,81.158C266.863,81.66 267.273,82.07 267.774,82.07L285.205,82.07C285.706,82.07 286.116,81.66 286.116,81.158L286.116,36.315C286.116,35.813 285.706,35.404 285.205,35.404" style="fill:rgb(224,37,41);fill-rule:nonzero;"/>
        <path d="M314.047,34.301C298.78,34.301 287.924,45.496 287.924,58.556L287.924,58.726C287.924,71.788 298.695,82.814 313.877,82.814C329.145,82.814 340,71.619 340,58.556L340,58.388C340,45.327 329.229,34.301 314.047,34.301M321.51,58.727C321.51,63.137 318.373,66.786 314.047,66.786C309.806,66.786 306.414,63.138 306.414,58.557L306.414,58.389C306.414,53.979 309.551,50.33 313.877,50.33C318.118,50.33 321.51,53.979 321.51,58.557L321.51,58.727ZM51.156,-0.227C22.904,-0.227 7.10543e-15,22.678 7.10543e-15,50.931C7.10543e-15,79.183 22.904,102.086 51.156,102.086C79.409,102.086 102.312,79.184 102.312,50.931C102.312,22.678 79.409,-0.227 51.156,-0.227M51.156,88.604C30.349,88.604 13.481,71.737 13.481,50.932C13.481,30.124 30.349,13.257 51.156,13.257C71.963,13.257 88.83,30.124 88.83,50.932C88.83,71.736 71.963,88.604 51.156,88.604Z" style="fill:rgb(224,37,41);fill-rule:nonzero;"/>
        <path d="M53.259,38.19C53.259,32.316 58.021,27.552 63.896,27.552C69.771,27.552 74.533,32.316 74.533,38.19C74.533,44.065 69.771,48.827 63.896,48.827C58.021,48.827 53.259,44.065 53.259,38.19M53.259,63.67C53.259,57.795 58.021,53.033 63.896,53.033C69.771,53.033 74.533,57.795 74.533,63.67C74.533,69.545 69.771,74.307 63.896,74.307C58.021,74.307 53.259,69.545 53.259,63.67M27.779,63.67C27.779,57.795 32.541,53.033 38.416,53.033C44.291,53.033 49.053,57.795 49.053,63.67C49.053,69.545 44.291,74.307 38.416,74.307C32.542,74.307 27.779,69.545 27.779,63.67M27.779,38.19C27.779,32.316 32.541,27.552 38.416,27.552C44.291,27.552 49.053,32.316 49.053,38.19C49.053,44.065 44.291,48.828 38.416,48.828C32.542,48.828 27.779,44.065 27.779,38.19" style="fill:rgb(224,37,41);fill-rule:nonzero;"/>
    </g>
</svg>
