<?xml version="1.0" standalone="no"?>
<!DOCTYPE svg PUBLIC "-//W3C//DTD SVG 1.1//EN" "http://www.w3.org/Graphics/SVG/1.1/DTD/svg11.dtd">
<svg width="100%" height="100%" viewBox="0 0 400 220" version="1.1" xmlns="http://www.w3.org/2000/svg" xmlns:xlink="http://www.w3.org/1999/xlink" xml:space="preserve" style="fill-rule:evenodd;clip-rule:evenodd;stroke-linejoin:round;stroke-miterlimit:1.41421;">
    <g>
        <path d="M36.7631,84.0779C36.6181,85.3105 35.9897,90.3376 35.4097,95.268C34.8296,100.174 34.1046,105.951 33.8387,108.077C33.5729,110.204 33.1378,113.781 32.872,116.053C32.5819,118.301 31.9536,123.642 31.4218,127.896C30.9143,132.15 30.4068,136.355 30.3342,137.249L30.1651,138.893L39.5909,138.893L39.7359,138.119C39.8084,137.684 40.0984,135.364 40.3643,132.971C40.6302,130.579 41.0169,127.268 41.2344,125.6C42.2253,117.745 42.2253,117.721 43.3612,115.376C45.9231,110.035 49.5243,106.893 53.1013,106.869C54.7689,106.869 55.6873,107.352 56.2915,108.585C57.0166,110.035 56.9683,111.606 55.8323,121.008C55.5665,123.207 55.0106,127.872 54.6239,131.4C54.213,134.929 53.8505,138.047 53.778,138.337L53.6571,138.893L63.2522,138.893L63.5422,136.524C63.7114,135.243 64.0981,131.787 64.4364,128.863C64.7506,125.938 65.0648,123.28 65.1373,122.941C65.3065,122.071 65.9591,116.247 66.2249,113.274C66.4908,110.47 66.2491,107.401 65.6207,105.516C63.9047,100.368 59.0951,98.0233 53.3188,99.4976C50.4427,100.223 48.2917,101.479 45.8506,103.848C44.6905,104.984 43.7479,105.733 43.7479,105.54C43.7479,105.008 44.9322,94.6396 45.0772,93.9387C45.2464,93.0687 46.4065,83.0386 46.4065,82.3861L46.4065,81.8543L41.7178,81.8543L37.0532,81.8543L36.7631,84.0779Z" style="fill:black;fill-rule:nonzero;"/>
        <path d="M151.662,82.3861C151.613,82.7002 151.444,83.9087 151.323,85.1171C151.178,86.3014 150.743,89.9992 150.332,93.3345C149.921,96.6456 149.245,101.987 148.858,105.177C148.471,108.368 147.915,112.815 147.65,115.086C147.408,117.334 147.021,120.379 146.828,121.854C146.441,124.754 144.774,138.434 144.774,138.724C144.774,138.82 146.9,138.893 149.486,138.893C152.072,138.893 154.199,138.82 154.199,138.699C154.199,138.603 154.465,136.403 154.779,133.817C155.094,131.231 155.529,127.533 155.77,125.6C156.326,120.621 156.181,121.008 157.583,121.008C158.477,121.008 158.912,121.153 159.371,121.564C159.686,121.854 161.764,125.648 163.964,129.974C166.163,134.301 168.217,138.071 168.483,138.313C168.942,138.724 169.474,138.772 173.8,138.844C176.435,138.893 178.61,138.844 178.61,138.748C178.61,138.579 171.577,124.706 169.353,120.524C168.701,119.268 167.879,117.938 167.541,117.576L166.936,116.923L167.516,116.44C167.831,116.174 168.169,115.957 168.266,115.932C168.435,115.932 182.719,99.8359 182.719,99.6184C182.719,99.5459 180.568,99.4976 177.909,99.5459C173.244,99.6184 173.099,99.6426 172.278,100.223C171.818,100.561 169.015,103.655 166.042,107.111C163.093,110.567 160.387,113.636 160.024,113.926C159.565,114.337 159.081,114.482 158.26,114.482C157.148,114.482 157.124,114.458 157.22,113.805C157.317,113.25 157.97,108.005 159.662,94.0596C159.879,92.3194 160.242,89.3467 160.483,87.4132C160.749,85.4797 160.967,83.4736 161.015,82.9419L161.087,81.9752L156.447,81.9027L151.782,81.8543L151.662,82.3861Z" style="fill:black;fill-rule:nonzero;"/>
        <path d="M325.242,82.4344C323.864,82.9419 322.728,83.9329 321.931,85.3105C320.07,88.5491 321.713,92.6336 325.363,93.8421C326.837,94.3254 328.094,94.1563 329.713,93.2862C331.719,92.1986 332.807,90.3618 332.807,88.1141C332.807,86.2531 332.178,84.8513 330.825,83.6912C329.133,82.241 327.079,81.7818 325.242,82.4344Z" style="fill:black;fill-rule:nonzero;"/>
        <path d="M225.304,87.824C224.796,88.0174 224.386,89.0325 223.225,93.0928C222.597,95.2197 221.872,97.6124 221.606,98.41L221.147,99.8601L218.658,100.319C217.304,100.561 215.951,100.803 215.685,100.875C215.201,100.972 215.129,101.189 214.984,103.389C214.742,106.627 214.863,106.748 217.812,106.748L219.963,106.748L219.818,107.522C219.745,107.957 219.479,110.229 219.213,112.549C218.923,114.869 218.44,118.857 218.126,121.394C217.135,128.984 217.038,130.409 217.28,132.198C217.86,136.21 220.398,138.699 224.627,139.376C228.011,139.908 232.917,138.579 235.721,136.379C236.277,135.968 236.204,135.751 234.778,132.681C233.594,130.144 233.473,130.071 231.636,131.038C230.428,131.69 228.736,131.835 227.89,131.4C227.213,131.038 226.706,129.878 226.706,128.693C226.682,128.113 227.262,122.941 227.963,117.189L229.243,106.748L238.742,106.748L238.887,105.951C239.056,105.008 239.515,100.996 239.515,100.392C239.515,100.005 239.129,99.9809 234.947,99.9809C232.41,99.9809 230.307,99.8843 230.234,99.7876C230.186,99.6909 230.428,97.1049 230.814,94.0354C231.225,90.9901 231.54,88.3074 231.54,88.0657C231.54,87.7032 231.249,87.6548 228.591,87.679C226.947,87.679 225.473,87.7515 225.304,87.824Z" style="fill:black;fill-rule:nonzero;"/>
        <path d="M196.857,99.1592C191.298,100.198 186.827,104.259 185.595,109.407C185.111,111.437 185.208,114.337 185.836,115.957C186.924,118.784 188.857,120.259 194.005,122.192C199.468,124.222 200.483,125.068 200.483,127.703C200.483,129.733 199.637,130.99 197.582,132.005C196.277,132.657 195.915,132.73 193.957,132.705C191.54,132.705 190.308,132.27 187.818,130.579C186.489,129.684 185.329,129.467 184.386,129.95C184.12,130.095 183.25,131.207 182.453,132.44L180.978,134.663L182.066,135.654C184.652,137.974 188.857,139.449 192.99,139.473C202.464,139.473 209.691,132.657 208.99,124.367C208.797,122.192 207.951,120.428 206.307,118.881C204.93,117.576 203.31,116.706 198.694,114.821C195.601,113.54 194.223,112.5 193.812,111.123C193.401,109.769 193.885,108.295 195.165,107.087C196.471,105.83 197.969,105.419 200.652,105.612C202.295,105.709 202.924,105.902 204.881,106.845C206.138,107.449 207.467,107.957 207.83,107.957C208.579,107.957 209.183,107.377 210.851,105.056L211.987,103.485L210.851,102.47C209.473,101.262 206.815,99.8843 204.833,99.3767C202.682,98.8208 199.129,98.7242 196.857,99.1592Z" style="fill:black;fill-rule:nonzero;"/>
        <path d="M93.6565,99.1834C86.9617,100.005 81.2821,103.147 76.98,108.343C74.4181,111.413 72.6296,114.99 71.5179,119.195C71.0345,121.08 70.962,121.926 70.962,125.479C70.962,129.274 71.0103,129.733 71.6146,131.545C73.8381,138.288 79.4453,141.044 85.9225,138.627C88.2427,137.757 91.8922,134.591 93.6565,131.956C94.019,131.376 94.3574,130.917 94.3816,130.917C94.4057,130.917 94.3816,132.222 94.3091,133.817C94.1157,138.53 94.4782,138.893 99.4087,138.893L102.381,138.893L102.696,136.041C102.865,134.494 103.203,131.642 103.469,129.709C103.711,127.775 104.581,120.863 105.378,114.361C106.176,107.836 106.901,102.108 106.974,101.624L107.119,100.73L105.451,100.223C102.478,99.3042 96.7743,98.7967 93.6565,99.1834ZM96.9435,105.902C97.016,105.951 96.7259,108.706 96.2909,111.993C95.735,116.319 95.3242,118.518 94.8649,119.92C92.9073,125.624 90.1762,129.684 87.3001,131.159C85.9225,131.884 83.8681,131.763 82.708,130.917C80.9195,129.588 80.0253,125.769 80.5087,121.54C81.4996,112.5 87.5418,105.83 94.7683,105.806C95.9042,105.781 96.8951,105.83 96.9435,105.902Z" style="fill:black;fill-rule:nonzero;"/>
        <path d="M129.305,99.1592C127.106,99.5459 125.124,100.15 123.868,100.779C117.535,103.945 113.185,109.866 111.517,117.552C110.913,120.355 110.961,126.083 111.614,128.524C113.112,134.059 116.52,137.66 121.571,139.038C124.689,139.884 130.296,139.449 133.318,138.143C134.913,137.467 136.774,136.21 138.804,134.446C141.342,132.222 141.39,132.101 140.302,130.796C138.586,128.693 138.03,128.258 137.04,128.258C136.339,128.258 135.831,128.5 134.719,129.37C132.375,131.183 130.466,131.98 128.29,132.101C124.858,132.246 122.49,130.82 121.281,127.823C120.798,126.591 120.726,126.059 120.75,122.7C120.75,118.277 121.064,116.706 122.707,113.274C123.553,111.558 124.158,110.639 125.293,109.528C127.324,107.497 128.629,106.893 131.311,106.797C133.704,106.7 134.574,106.942 136.629,108.319C137.982,109.238 138.369,109.31 139.311,108.899C139.964,108.609 143.082,105.008 143.082,104.573C143.082,104.114 141.1,102.18 139.65,101.189C137.62,99.8359 135.541,99.2317 132.447,99.135C131.046,99.0867 129.644,99.0867 129.305,99.1592Z" style="fill:black;fill-rule:nonzero;"/>
        <path d="M257.787,99.4009C250.633,100.706 244.615,106.531 241.932,114.724C241.014,117.576 240.675,119.993 240.699,123.401C240.748,134.977 249.255,141.503 260.905,138.965C264.941,138.071 267.889,136.452 271.998,132.802L273.158,131.739L271.781,130.071C271.031,129.129 270.113,128.258 269.75,128.089C268.784,127.678 267.648,128.041 265.763,129.346C262.645,131.473 260.808,132.125 257.859,132.125C255.249,132.125 253.751,131.618 252.349,130.24C250.923,128.863 250.27,127.195 250.029,124.44C249.884,122.845 249.908,122.458 250.174,122.458C251.648,122.458 259.575,121.08 261.992,120.404C269.46,118.325 272.965,115.425 273.835,110.615C274.391,107.522 273.424,104.67 271.056,102.422C267.986,99.5217 263.201,98.4341 257.787,99.4009ZM263.998,106.579C266.222,108.271 265.618,111.461 262.79,113.177C260.784,114.386 256.023,115.691 252.131,116.077L250.609,116.247L251.358,114.216C252.856,110.108 255.104,107.425 258.053,106.241C258.923,105.902 259.696,105.806 261.17,105.83C262.886,105.902 263.225,105.975 263.998,106.579Z" style="fill:black;fill-rule:nonzero;"/>
        <path d="M351.538,99.4009C349.387,99.8118 345.979,101.479 343.804,103.171C340.251,105.951 337.085,110.954 335.78,115.884C334.958,119.05 334.74,124.343 335.32,127.316C336.819,134.736 342.378,139.376 349.846,139.449C354.945,139.497 359.344,137.66 363.356,133.841C366.426,130.893 368.697,126.953 369.954,122.337C370.558,120.138 370.631,119.558 370.631,115.691C370.631,112.283 370.534,111.171 370.196,110.011C368.842,105.588 366.353,102.398 362.897,100.682C361.809,100.126 360.214,99.5459 359.368,99.3525C357.411,98.9417 353.737,98.9658 351.538,99.4009ZM357.87,106.942C359.127,107.594 359.973,108.682 360.649,110.519C361.084,111.727 361.181,112.476 361.181,115.57C361.205,119.944 360.649,122.555 359.03,125.987C357.193,129.805 354.583,131.908 351.368,132.077C347.284,132.319 345.205,130.24 344.601,125.31C344.287,122.82 344.601,118.615 345.278,116.053C346.535,111.34 349.362,107.618 352.48,106.603C353.906,106.12 356.613,106.313 357.87,106.942Z" style="fill:black;fill-rule:nonzero;"/>
        <path d="M298.076,99.7151C295.418,100.633 292.517,103.51 290.221,107.57L289.496,108.803L289.641,105.177C289.786,101.866 289.738,101.479 289.327,100.779C288.699,99.7634 287.684,99.4976 284.421,99.4976C281.907,99.4976 281.811,99.5217 281.714,100.029C281.569,100.658 281.521,101.189 279.998,113.878C279.394,118.929 278.693,124.681 278.427,126.687C278.161,128.669 277.799,131.835 277.581,133.696C277.364,135.557 277.146,137.491 277.049,137.974L276.904,138.893L286.33,138.893L286.475,137.515C287.369,129.249 288.433,121.515 288.916,119.703C290.681,113.129 293.605,109.165 297.327,108.392C298.608,108.126 299.333,108.222 301.847,108.948C302.112,109.02 302.378,108.126 302.982,105.056C303.442,102.857 303.78,100.803 303.732,100.488C303.635,99.3284 300.469,98.8933 298.076,99.7151Z" style="fill:black;fill-rule:nonzero;"/>
        <path d="M321.109,100.15C321.037,100.537 320.481,104.96 319.876,110.011C318.886,118.422 318.499,121.588 317.073,133.334C316.807,135.533 316.541,137.684 316.445,138.095L316.324,138.893L325.774,138.893L325.895,138.095C326.088,136.959 326.91,130.023 327.49,124.996C327.756,122.603 328.021,120.379 328.094,120.041C328.166,119.703 328.481,117.044 328.819,114.12C329.157,111.195 329.665,106.748 329.979,104.259C330.293,101.769 330.487,99.6667 330.414,99.6184C330.366,99.5459 328.263,99.4976 325.774,99.4976L321.254,99.4976L321.109,100.15Z" style="fill:black;fill-rule:nonzero;"/>
        <path d="M301.557,128.162C300.807,128.379 299.986,128.911 299.333,129.588C296.554,132.367 297.206,136.887 300.662,138.748C303.297,140.174 306.487,139.424 308.251,136.983C308.928,136.065 309.001,135.727 309.073,133.986C309.146,132.101 309.121,131.932 308.348,130.699C306.922,128.379 304.118,127.34 301.557,128.162Z" style="fill:black;fill-rule:nonzero;"/>
    </g>
</svg>
