<?xml version="1.0" standalone="no"?>
<!DOCTYPE svg PUBLIC "-//W3C//DTD SVG 20010904//EN"
 "http://www.w3.org/TR/2001/REC-SVG-20010904/DTD/svg10.dtd">
<svg version="1.0" xmlns="http://www.w3.org/2000/svg"
 width="1413.000000pt" height="244.000000pt" viewBox="0 0 1413.000000 244.000000"
 preserveAspectRatio="xMidYMid meet">
<metadata>
Created by potrace 1.12, written by Peter Selinger 2001-2015
</metadata>
<g transform="translate(0.000000,244.000000) scale(0.100000,-0.100000)"
fill="#000000" stroke="none">
<path d="M271 2308 c-6 -51 -32 -259 -56 -463 -24 -203 -54 -442 -65 -530 -11
-88 -29 -236 -40 -330 -12 -93 -38 -314 -60 -490 -21 -176 -42 -350 -45 -387
l-7 -68 195 0 195 0 6 32 c3 18 15 114 26 213 11 99 27 236 36 305 41 325 41
326 88 423 106 221 255 351 403 352 69 0 107 -20 132 -71 30 -60 28 -125 -19
-514 -11 -91 -34 -284 -50 -430 -17 -146 -32 -275 -35 -287 l-5 -23 198 0 199
0 12 98 c7 53 23 196 37 317 13 121 26 231 29 245 7 36 34 277 45 400 11 116
1 243 -25 321 -71 213 -270 310 -509 249 -119 -30 -208 -82 -309 -180 -48 -47
-87 -78 -87 -70 0 22 49 451 55 480 7 36 55 451 55 478 l0 22 -194 0 -193 0
-12 -92z"/>
<path d="M5025 2378 c-2 -13 -9 -63 -14 -113 -6 -49 -24 -202 -41 -340 -17
-137 -45 -358 -61 -490 -16 -132 -39 -316 -50 -410 -10 -93 -26 -219 -34 -280
-16 -120 -85 -686 -85 -698 0 -4 88 -7 195 -7 107 0 195 3 195 8 0 4 11 95 24
202 13 107 31 260 41 340 23 206 17 190 75 190 37 0 55 -6 74 -23 13 -12 99
-169 190 -348 91 -179 176 -335 187 -345 19 -17 41 -19 220 -22 109 -2 199 0
199 4 0 7 -291 581 -383 754 -27 52 -61 107 -75 122 l-25 27 24 20 c13 11 27
20 31 21 7 0 598 666 598 675 0 3 -89 5 -199 3 -193 -3 -199 -4 -233 -28 -19
-14 -135 -142 -258 -285 -122 -143 -234 -270 -249 -282 -19 -17 -39 -23 -73
-23 -46 0 -47 1 -43 28 4 23 31 240 101 817 9 72 24 195 34 275 11 80 20 163
22 185 l3 40 -192 3 -193 2 -5 -22z"/>
<path d="M12207 2376 c-57 -21 -104 -62 -137 -119 -77 -134 -9 -303 142 -353
61 -20 113 -13 180 23 83 45 128 121 128 214 0 77 -26 135 -82 183 -70 60
-155 79 -231 52z"/>
<path d="M8072 2153 c-21 -8 -38 -50 -86 -218 -26 -88 -56 -187 -67 -220 l-19
-60 -103 -19 c-56 -10 -112 -20 -123 -23 -20 -4 -23 -13 -29 -104 -10 -134 -5
-139 117 -139 l89 0 -6 -32 c-3 -18 -14 -112 -25 -208 -12 -96 -32 -261 -45
-366 -41 -314 -45 -373 -35 -447 24 -166 129 -269 304 -297 140 -22 343 33
459 124 23 17 20 26 -39 153 -49 105 -54 108 -130 68 -50 -27 -120 -33 -155
-15 -28 15 -49 63 -49 112 -1 24 23 238 52 476 l53 432 196 0 197 0 6 33 c7
39 26 205 26 230 0 16 -16 17 -189 17 -105 0 -192 4 -195 8 -2 4 8 111 24 238
17 126 30 237 30 247 0 15 -12 17 -122 16 -68 0 -129 -3 -136 -6z"/>
<path d="M6895 1684 c-230 -43 -415 -211 -466 -424 -20 -84 -16 -204 10 -271
45 -117 125 -178 338 -258 226 -84 268 -119 268 -228 0 -84 -35 -136 -120
-178 -54 -27 -69 -30 -150 -29 -100 0 -151 18 -254 88 -55 37 -103 46 -142 26
-11 -6 -47 -52 -80 -103 l-61 -92 45 -41 c107 -96 281 -157 452 -158 392 0
691 282 662 625 -8 90 -43 163 -111 227 -57 54 -124 90 -315 168 -128 53 -185
96 -202 153 -17 56 3 117 56 167 54 52 116 69 227 61 68 -4 94 -12 175 -51 52
-25 107 -46 122 -46 31 0 56 24 125 120 l47 65 -47 42 c-57 50 -167 107 -249
128 -89 23 -236 27 -330 9z"/>
<path d="M2625 1683 c-277 -34 -512 -164 -690 -379 -106 -127 -180 -275 -226
-449 -20 -78 -23 -113 -23 -260 0 -157 2 -176 27 -251 92 -279 324 -393 592
-293 96 36 247 167 320 276 15 24 29 43 30 43 1 0 0 -54 -3 -120 -8 -195 7
-210 211 -210 l123 0 13 118 c7 64 21 182 32 262 10 80 46 366 79 635 33 270
63 507 66 527 l6 37 -69 21 c-123 38 -359 59 -488 43z m136 -278 c3 -2 -9
-116 -27 -252 -23 -179 -40 -270 -59 -328 -81 -236 -194 -404 -313 -465 -57
-30 -142 -25 -190 10 -74 55 -111 213 -91 388 41 374 291 650 590 651 47 1 88
-1 90 -4z"/>
<path d="M4100 1684 c-91 -16 -173 -41 -225 -67 -262 -131 -442 -376 -511
-694 -25 -116 -23 -353 4 -454 62 -229 203 -378 412 -435 129 -35 361 -17 486
37 66 28 143 80 227 153 105 92 107 97 62 151 -71 87 -94 105 -135 105 -29 0
-50 -10 -96 -46 -97 -75 -176 -108 -266 -113 -142 -6 -240 53 -290 177 -20 51
-23 73 -22 212 0 183 13 248 81 390 35 71 60 109 107 155 84 84 138 109 249
113 99 4 135 -6 220 -63 56 -38 72 -41 111 -24 27 12 156 161 156 179 0 19
-82 99 -142 140 -84 56 -170 81 -298 85 -58 2 -116 2 -130 -1z"/>
<path d="M9416 1674 c-296 -54 -545 -295 -656 -634 -38 -118 -52 -218 -51
-359 2 -479 354 -749 836 -644 167 37 289 104 459 255 l48 44 -57 69 c-31 39
-69 75 -84 82 -40 17 -87 2 -165 -52 -129 -88 -205 -115 -327 -115 -108 0
-170 21 -228 78 -59 57 -86 126 -96 240 -6 66 -5 82 6 82 61 0 389 57 489 85
309 86 454 206 490 405 23 128 -17 246 -115 339 -127 120 -325 165 -549 125z
m257 -297 c92 -70 67 -202 -50 -273 -83 -50 -280 -104 -441 -120 l-63 -7 31
84 c62 170 155 281 277 330 36 14 68 18 129 17 71 -3 85 -6 117 -31z"/>
<path d="M13295 1674 c-89 -17 -230 -86 -320 -156 -147 -115 -278 -322 -332
-526 -34 -131 -43 -350 -19 -473 62 -307 292 -499 601 -502 211 -2 393 74 559
232 127 122 221 285 273 476 25 91 28 115 28 275 0 141 -4 187 -18 235 -56
183 -159 315 -302 386 -45 23 -111 47 -146 55 -81 17 -233 16 -324 -2z m262
-312 c52 -27 87 -72 115 -148 18 -50 22 -81 22 -209 1 -181 -22 -289 -89 -431
-76 -158 -184 -245 -317 -252 -169 -10 -255 76 -280 280 -13 103 0 277 28 383
52 195 169 349 298 391 59 20 171 12 223 -14z"/>
<path d="M11083 1661 c-110 -38 -230 -157 -325 -325 l-30 -51 6 150 c6 137 4
153 -13 182 -26 42 -68 53 -203 53 -104 0 -108 -1 -112 -22 -6 -26 -8 -48 -71
-573 -25 -209 -54 -447 -65 -530 -11 -82 -26 -213 -35 -290 -9 -77 -18 -157
-22 -177 l-6 -38 195 0 195 0 6 57 c37 342 81 662 101 737 73 272 194 436 348
468 53 11 83 7 187 -23 11 -3 22 34 47 161 19 91 33 176 31 189 -4 48 -135 66
-234 32z"/>
<path d="M12036 1643 c-3 -16 -26 -199 -51 -408 -41 -348 -57 -479 -116 -965
-11 -91 -22 -180 -26 -197 l-5 -33 195 0 196 0 5 33 c8 47 42 334 66 542 11
99 22 191 25 205 3 14 16 124 30 245 14 121 35 305 48 408 13 103 21 190 18
192 -2 3 -89 5 -192 5 l-187 0 -6 -27z"/>
<path d="M11227 484 c-31 -9 -65 -31 -92 -59 -115 -115 -88 -302 55 -379 109
-59 241 -28 314 73 28 38 31 52 34 124 3 78 2 85 -30 136 -59 96 -175 139
-281 105z"/>
</g>
</svg>
