<svg xmlns="http://www.w3.org/2000/svg" width="400" height="220" viewBox="0 0 400 220"><g fill="#127CC1"><path d="M312.38 77.6c-10.677-52.044-111.382-55.341-176.298-15.689v4.379c64.83-33.464 156.822-33.251 165.192 14.691 2.822 15.882-6.062 32.4-21.992 41.904v12.437c19.175-7.036 38.776-29.807 33.098-57.722m-118.046 91.123c-44.799 4.146-91.478-2.38-98.014-37.525-3.245-17.305 4.655-35.672 15.077-47.069v-6.102c-18.792 16.54-28.999 37.462-23.106 62.164 7.516 31.7 47.577 49.645 108.735 43.669 24.214-2.337 55.905-10.162 77.898-22.299v-17.245c-19.988 11.969-53.043 21.858-80.59 24.407z"/><path d="M271.336 70.076h-11.745v52.54c0 6.171 2.947 11.537 11.745 12.387"/><path d="M131.426 89.278h-11.745v34.314c0 6.173 2.947 11.539 11.745 12.389"/><path d="M119.681 71.673h11.745v11.176h-11.745z"/><path d="M201.807 135.431c-9.522 0-13.536-6.644-13.536-13.2v-45.576h11.616v12.624h8.798v9.451h-8.798v22.799c0 2.681 1.282 4.153 4.057 4.153h4.741v9.749h-6.878"/><path d="M232.686 98.155c-3.971 0-7.046 2.065-8.327 4.854-.77 1.681-1.025 2.958-1.151 5.024h17.979c-.257-5.045-2.523-9.878-8.501-9.878m-9.479 17.839c0 5.983 3.755 10.387 10.333 10.387 5.168 0 7.731-1.449 10.72-4.403l7.176 6.917c-4.613 4.556-9.438 7.322-17.979 7.322-11.147 0-21.824-6.108-21.824-23.906 0-15.22 9.31-23.82 21.566-23.82 12.428 0 19.561 10.069 19.561 23.288v4.217l-29.553-.002"/><path d="M163.073 98.729c3.417 0 4.826 1.682 4.826 4.428v32.336h11.66v-32.378c0-6.578-3.502-13.837-13.709-13.837h-24.044v46.215h11.617v-36.764"/><text transform="matrix(1.022 0 0 1 277.989 77.756)" font-family="'ArialMT'" font-size="10.758">®</text></g></svg>