<svg xmlns="http://www.w3.org/2000/svg" viewBox="0 0 400 220" enable-background="new 0 0 400 220"><g fill="#63A70A"><path d="M82.657 110.18c0 5.78-1.444 10.69-4.406 15.025-4.912 7.152-13.145 11.485-21.886 11.485-7.584 0-14.013-2.816-19.07-8.163C32.454 123.4 30 117.043 30 109.457c0-7.078 2.745-13.58 7.8-18.564 5.057-4.984 11.414-7.584 18.71-7.584 10.98 0 20.586 6.717 24.704 17.696H66.91c-3.18-3.323-6.5-4.982-10.546-4.982-7.51 0-13.435 6.138-13.435 13.506 0 8.163 6.354 14.447 13.434 14.447 4.767 0 9.03-2.455 11.558-6.933H53.26v-10.258h29.254c.07 1.155.143 2.31.143 3.394zM85.838 135.68V84.32h17.047c5.416 0 9.534.363 13 2.82 4.553 3.176 6.936 8.016 6.936 14.373 0 8.307-4.334 14.518-11.628 16.54l12.57 17.628h-15.53l-9.825-16.543v16.544h-12.57zm15.023-27.668c6.214 0 9.247-1.588 9.247-6.21 0-4.263-2.672-5.997-8.234-5.997h-3.467v12.207h2.455zM132.574 90.894c5.057-4.984 11.412-7.51 18.71-7.51 6.86 0 13.36 2.672 18.345 7.583 5.2 5.128 7.946 11.702 7.946 18.71 0 7.366-2.6 13.94-7.44 18.925-4.984 5.2-11.775 8.017-18.926 8.017-7.584 0-14.086-2.744-19.14-8.09-4.84-5.13-7.297-11.486-7.297-19.07 0-7.08 2.744-13.582 7.8-18.566zm18.636 33.01c7.367 0 13.363-5.924 13.363-14.302 0-7.513-5.996-13.508-13.22-13.508-7.656 0-13.652 5.994-13.652 13.508.002 8.09 6.43 14.3 13.51 14.3zM193.467 84.32v31.64c0 5.777 1.805 8.74 6.067 8.74 4.408 0 6.5-2.89 6.5-8.74V84.32h12.57v32.145c0 12.57-7.657 20.007-19.142 20.007-11.63 0-18.636-7.15-18.636-20.007V84.32h12.64zM222.23 135.68V84.32h17.046c5.416 0 9.534.363 13 2.82 4.553 3.176 6.936 8.016 6.936 14.446 0 6.645-3.035 12.134-8.163 15.24-3.253 1.95-7.297 2.31-12.642 2.31h-3.61v16.545h-12.57zm15.022-27.668c6.213 0 9.246-1.588 9.246-6.21 0-4.263-2.672-5.997-8.234-5.997h-3.323v12.207h2.312zM268.675 90.894c5.057-4.984 11.412-7.51 18.71-7.51 6.86 0 13.36 2.672 18.345 7.583 5.2 5.128 7.947 11.702 7.947 18.71 0 7.366-2.6 13.94-7.44 18.925-4.984 5.2-11.775 8.017-18.926 8.017-7.583 0-14.085-2.744-19.14-8.09-4.84-5.13-7.296-11.486-7.296-19.07 0-7.08 2.744-13.582 7.8-18.566zm18.636 33.01c7.368 0 13.365-5.924 13.365-14.302 0-7.513-5.996-13.508-13.22-13.508-7.656 0-13.652 5.994-13.652 13.508 0 8.09 6.43 14.3 13.508 14.3zM316.14 135.68V84.32h11.338l18.853 28.533V84.32h12.57v51.36h-11.052l-19.14-28.604v28.605h-12.57z"/></g><path fill="#6CB33F" d="M368.873 89.946c-.748.755-1.66 1.132-2.724 1.132-1.066 0-1.974-.377-2.718-1.132-.748-.75-1.12-1.66-1.12-2.73 0-1.06.376-1.964 1.127-2.715.747-.747 1.65-1.12 2.71-1.12 1.064 0 1.976.373 2.723 1.12.75.75 1.127 1.654 1.127 2.715 0 1.066-.376 1.976-1.127 2.73zm-5.062-5.068c-.64.646-.962 1.427-.962 2.343 0 .923.32 1.71.96 2.36.64.648 1.42.974 2.34.974.924 0 1.7-.325 2.346-.975.642-.65.963-1.437.963-2.36 0-.915-.32-1.696-.963-2.342-.646-.65-1.43-.975-2.345-.975-.913 0-1.69.325-2.34.975zm2.265.214c.525 0 .908.05 1.153.152.438.182.657.54.657 1.072 0 .376-.14.655-.412.833-.146.093-.35.16-.61.203.33.053.57.19.723.414.153.223.23.44.23.655v.308c0 .098.004.203.01.315.008.112.023.185.037.22l.026.053h-.694c-.007-.015-.007-.028-.015-.043 0-.014-.006-.03-.006-.046l-.018-.137v-.335c0-.487-.13-.81-.398-.966-.157-.092-.434-.137-.828-.137h-.587v1.662h-.744v-4.225h1.475zm.806.665c-.19-.104-.488-.157-.9-.157h-.638v1.53h.675c.314 0 .55-.03.708-.094.288-.116.434-.336.434-.66 0-.307-.092-.513-.28-.62z"/></svg>